<svg width="200" height="400" version="1.1" viewBox="0 0 40 80" xmlns="http://www.w3.org/2000/svg">
 <g transform="translate(0,-1.6)">
  <g transform="translate(0,6.4)">
   <g transform="translate(4.4 -.95591)" fill="none" stroke="#000">
    <g stroke-width=".2px">
     <path d="m14 54c0.5267-0.72568 0.54469-0.39058 0.57143-1.1429 0-0.23849-0.30536-0.59107-0.42857-0.71428-0.30193-0.30193-0.9031-0.36397-1.4286-0.71429-0.43879-0.29253-0.69799-0.52349-1.1429-0.85714-0.18321-0.13741-0.88321-0.68822-1.1429-0.42857-0.22074 0.22074-0.30871 1.6683-0.14286 2 0.36197 0.72394 0.52145 1.5144 0.71429 2.2857-3.41e-4 0.25604 0.45201 1.6256 0.57143 2.2857 0.01886 0.01885 0.11396 0.56977 0.14286 0.71429 0.10869 0.54345-0.13434 1.1769 0 1.7143 0.21513 0.86054 0.20532 1.8392 0.57143 2.5714 0.10577 0.21154-0.05686 0.62971 0 0.85714 0.02346 0.09384 0.26052 0.80677 0.28572 0.85714 0.1774 0.0021 0.6016 1.0379 1.1429 1.1429 0.19355 0.46977 0.48531 0.39935 1 0.57143 0.4908 0.23892 1.0285 0.52013 1.2857 0.85714 0.24728 0.49456 0.70781 0.71267 1.2857 0.85714 0.44468 0.11117 1.3782 0.17483 1.7143 0.34286 0.68571 0.6 2 0.6 2.8 1 0.42221 0.08441 1.193 0.08571 1.6286 0.08571-0.04237 0-0.25472 0.0084 0 0 0.16079-0.38536 0.79577-0.46076 0.77143-0.88571-0.595-0.42199-1.6645-0.3353-2.2-0.82857-0.78584-0.36086-1.2711-0.31528-1.9511-1.3427-0.74758-0.98807-2.4616-2.7856 0.66536-1.5145 1.0411 0.37698 2.5864 0.52507 3.2857 1.5714 0.88576 0.29773 1.8 0.11429 2.8216-0.4814 0.97331-0.6534 1.3784-1.0043 0.92992-2.3757-0.4146-0.4146-0.84945-0.76327-1.6086-1.1429-0.06024-0.03012-0.09524-0.09524-0.14286-0.14286 0-0.04762 0.03962-0.11645 0-0.14286-0.12529-0.08353-0.28571-0.09524-0.42857-0.14286-0.0753-0.07529-0.06757-0.21042-0.14286-0.28571-0.06734-0.06734-0.20053 0.04259-0.28571 0-0.52955-0.26478-1.2819-0.70672-1.5714-1.2857-0.16196-0.32391-0.35753-0.85791-0.57143-1.2857-0.20344-0.56593 0-1.6-0.28571-2.2857-0.30952-0.30952 0.08571-0.91429 0-1.8571-0.31429-1.0571 0.07015-1.7111-0.71429-2.4286-0.17603-0.17603-0.76231-0.75319-0.8-0.82857-0.29582-0.78137-0.83314-0.82926-1.1305-1.4327-0.09844-0.19688-0.26166-0.21665-0.35519-0.31018-0.20885-0.20885-0.42988-0.71559-0.57143-0.85714-0.27805-0.09648-0.60029-0.03435-0.71429-0.42857-0.96712-0.35347-1.9877-0.53312-3.2857-0.42857-2.4163 0.61546-3.313 0.27851-3.8571 0.57143-0.72007 0.18002-1.4296 0.3931-2.1429 0.57143-0.28571 0.07143 0-0.14286-0.42857 0-0.43398 0.14466-0.84818 0.84818-1.1429 1.1429-0.033672 0.03367-0.10027-0.0213-0.14286 0-0.35402 0.17701-0.56768 0.70679-0.71429 1-0.030117 0.06024-0.095238 0.09524-0.14286 0.14286-0.047619 0-0.11644-0.03962-0.14286 0-0.083529 0.12529-0.095238 0.28571-0.14286 0.42857 0 0.04762 0.021296 0.10027 0 0.14286-0.060234 0.12047-0.22548 0.16525-0.28571 0.28571-0.26307 0.52615-0.59788 1.0529-0.85714 1.5714-0.11021 0.22043-0.24048 1.481-0.28571 1.5714-0.021296 0.04259-0.10918-0.03367-0.14286 0-0.040637 0.04064 0 2.8238 0 3.1429 0 0.75938-0.18498 1.8315 0 2.5714 0.11519 0.46075 0.16705 0.95393 0.28571 1.4286 0.062195 0.24878 0.4637 0.65702 0.50586 0.90997 0.031314 0.18788 0.45678 1.189 0.49414 1.3757 0.54604 2.5376 0.78768 3.6821 2 6 0.8 1.8 1.8 1.2 2.4 4 0.29951 0.18908 0.76221 0.27468 1.1819 0.24697 0.3284-0.02168 0.63047-0.11272 0.80743-0.27783 0.21066-0.16914 0.04168-0.01116 0.03669 0"/>
     <path d="m27.8 62.6c-2.5733-2.3511-4.632-0.12568-4.4503 1.234 0.05507 0.41197 0.47146 1.7219 1.0503 1.566"/>
     <path d="m9 66.2c0.016818 0.05395 0.021829 0.11314 0.050457 0.16186 0.00956 0.01628 0.299 0.21564 0.34245 0.24461 0.10859 0.07239 0.18449 0.19637 0.29353 0.26907 0.027395 0.01826 0.096714 0.02973 0.1223 0.04892 0.027674 0.02076 0.045233 0.05328 0.073382 0.07338 0.1384 0.09886 0.30894 0.16821 0.46475 0.22015 0.12642 0.04214 0.23098 0.1288 0.34245 0.19569 0.20599 0.12359 0.40621 0.21694 0.63598 0.29353 0.03632 0.04584 0.12626 0.01322 0.17122 0.02446 0.24642 0.06161 0.0086 0.03812 0.22015 0.07338 0.17023 0.02837 0.29518 9e-3 0.46475 0.02446 0.18537 0.01686 0.37722 0.05653 0.5626 0.07338 0.0812 0.0074 0.16348-0.0081 0.24461 0 0.15769 0.01576 0.30926 0.0561 0.46475 0.07338 0.26553 0.0295 0.54216-0.03313 0.8072 0 0.86974 0.10872 1.7625 0.07338 2.6418 0.07338 0.29741 0 0.59149 0.0089 0.88058-0.04892 0.12725-0.02545 0.02446-0.0163 0.1223-0.04892 0.13702-0.04567 0.28013-0.07707 0.41583-0.1223 0.03459-0.01154 0.0675-0.0287 0.09784-0.04892 0.0068-0.0045-0.0077-0.02188 0-0.02446 0.06549-0.02183 0.1548-0.02278 0.22015-0.04892 0.05837-0.02335 0.10751-0.08191 0.17122-0.09784 0.02373-0.0059 0.05609 0.0173 0.07338 0 0.0058-0.0058-0.0058-0.0187 0-0.02446 0.03332-0.03331 0.23766-0.06991 0.29353-0.09784 0.02306-0.01154 0.08331-6e-4 0.07338-0.02446-0.01032-0.02476-0.0337-0.04173-0.05056-0.0626"/>
     <path d="m14.8 68c0 0.6-0.01047 0.71223-0.07466 1.1015-0.02345 0.12313-0.1047 0.57465-0.12534 0.69854-0.17185 0.89508-0.1766 0.71002-0.2171 1.5274-0.0226 0.20345-0.07935 0.40806-0.09784 0.61152-0.09282 0.78324-0.10672 1.4529-0.22014 2.1525"/>
     <path d="m10.4 67.2c0.01853 0.13436 0.213 0.5655 0.28932 0.70289 0.0112 0.02016 0.03956 0.02785 0.04892 0.04892 0.02411 0.05424 0.02688 0.11611 0.04892 0.17123 0.03653 0.09132 0.11024 0.17775 0.14676 0.26907 0.10668 0.2667 0.0048 0.07414 0.07338 0.29353 0.07726 0.24723 0.19235 0.48831 0.26907 0.73382 0.05936 0.18997 0.08775 0.42787 0.17122 0.61152 0.07349 0.16168 0.1275 0.30112 0.19568 0.46475 0.02805 0.06732 0.0764 0.12598 0.09784 0.19569 0.02211 0.07185 0.02703 0.14823 0.04892 0.22015 0.08368 0.27495 0.19941 0.52858 0.26907 0.8072 0.04069 0.16276 0.1231 0.32358 0.14676 0.48921 0.02076 0.14533 0.05707 0.29345 0.07338 0.44029 0.01071 0.09642 0.0085 0.19795 0.02446 0.29353 0.07209 0.34922 0.0058 0.15084 0.09629 0.45821 0 0.0527 0.11006 0.53274 0 0.6"/>
     <path d="m17.2 68c0.17999 0.27193 0.06737 0.74286 0.04479 0.83239-0.03809 0.16187-0.0353 0.3518-0.07338 0.51367-0.04848 0.20605-0.12119 0.40584-0.17122 0.61152-0.06085 0.25016-0.09282 0.50654-0.14676 0.75828-0.04392 0.20497-0.10859 0.40539-0.14676 0.61152-0.0164 0.08855-0.0092 0.18032-0.02446 0.26907-0.06498 0.37686-0.16946 0.74503-0.22015 1.1252-0.10413 0.48048-0.06869 0.91915-0.31798 1.3209"/>
     <path d="m12.8 68c0.31429 1.0937 0.53548 1.7779 0.8 2.8 0.01995 0.39884 0.17966 0.66112 0.39149 0.96765 0.0562 0.0014 0.07639 0.10134 0.09784 0.14676 0.03297 0.03297 0.07756 0.05271 0.11064 0.08556"/>
     <path d="m17.2 69.4c0.0068 0.09617 0.0022 0.19382 0.02033 0.28852 0.0055 0.02887 0.03484 0.04757 0.04892 0.07338 0.1223 0.22423 0.26164 0.45331 0.36691 0.6849 0.06402 0.14084 0.09069 0.29611 0.14676 0.44029 0.06951 0.17874 0.16304 0.35538 0.22015 0.53814 0.0132 0.04224 0.05847 0.26849 0.09784 0.36691 0.07751 0.14238 0.14288 0.30038 0.17122 0.44029 0.03964 0.11891 0.11571 0.23143 0.17122 0.34245 0.25053 0.40403 0.29347 1.0363 0.35664 1.4251"/>
     <path d="m18.8 67.6c0.13215 0.69271 0.07013 1.3169 0.15704 1.9662 0.02931 0.21248 0.07842 0.42237 0.09784 0.63598 0.02808 0.30887 0.04019 0.60396 0.1223 0.90505 0.03293 0.12074 0.0635 0.24671 0.09784 0.36691 0.1636 0.96847 0.21965 1.3001 0.39137 1.8101 0.02722 0.08165 0.03849 0.45432 0.04892 0.46475 0.0058 0.0058 0.0187-0.0058 0.02446 0-0.0025 0.08944 0.0369 0.1853 0.06022 0.25101"/>
    </g>
    <path d="m17.6 56.956c0.03297-0.07839-0.06226-0.10278-0.11349-0.16304-0.10975-0.12908-0.14577-0.15488-0.29353-0.22439-0.04704-0.02213-0.07526-0.06417-0.1223-0.08631-0.11638-0.05474-0.68791-0.13738-0.83166-0.10356-0.06492 0.01527-0.10856 0.0543-0.17122 0.06904-0.01631 0.0038-0.06331 0.01015-0.07338 0.01726-0.01153 0.0081 0.01153 0.02639 0 0.03452-0.05061 0.03571 2e-3 -0.05458-0.04892 0.01726-0.04213 0.05945-0.09321 0.12828-0.1223 0.18987-0.30626 0.3712 0.15453 0.36407 0.46475 0.36248 0.03706 0 0.13722 0.012 0.17122 0 0.03646-0.01287 0.04791-0.04658 0.07338-0.06904-0.02093-0.08008 0.05259-0.01985 0.07338-0.03452 0.02578-0.01819 0.02314-0.05085 0.04892-0.06904 0.0058-0.0041 0.0187 0.0041 0.02446 0 0.01153-0.0081-0.01153-0.02638 0-0.03452 0.0058-0.0041 0.0187 0.0041 0.02446 0 0.0058-0.0041-0.0058-0.0132 0-0.01726 0.0058-0.0041 0.0187 0.0041 0.02446 0 0.0058-0.0041-0.0036-0.01211 0-0.01726 0.01685-0.02378 0.26864-0.16382 0.29353-0.17261 0.0525-0.01852 0.09414-0.08465 0.17825-0.12227" stroke-width=".16801px"/>
    <g stroke-width=".2px">
     <path d="m22.6 55.4c-0.13174 0.0063-0.41028-0.07184-0.51199-0.02099-0.37148 0.31245-0.16717 0.61219 0.22015 0.58705 0.01768-0.0044 0.03261-0.0163 0.04892-0.02446 0.02446-0.0082 0.0481-0.0194 0.07338-0.02446 0.16683 0.0036 0.35086-0.10617 0.36954-0.11714"/>
     <path d="m14 74c0.03386 0.0264 0.06137 0.06416 0.10159 0.07921 0.03001 0.01124 0.27848 0 0.29353 0h1.7978c0.01631 0 0.05464 0.01528 0.04892 0-0.01048-0.02797-0.02793-0.05281-0.0419-0.07921"/>
     <path d="m10.2 73.2c0.16501-0.02136 0.3291-0.01972 0.49544-0.01972 0.05831 0 0.11939-0.0053 0.17734 0 0.08605 0.0078 0.15644 0.02841 0.23849 0.04892 0.0602 0.01504 0.10753 0.04519 0.159 0.0795 0.01391 0.0093 0.03066 0.01232 0.04281 0.02446 0.01027 0.01028 0.02957 0.01634 0.03669 0.03058 0.0019 0.0037 0.0036 0.01578 0.0061 0.01834 0.0054 0.0054 0.01709 0.0024 0.02446 0.0061 0.01131 0.0057 0.01738 0.02313 0.01966 0.0118 0.02901-0.0053 0.08462-0.09758 0.11489-0.11574 0.02511-0.01507 0.02165-0.0075 0.04281-0.02446 0.08595-0.06876 0.19256-0.11572 0.29353-0.15899 0.02766-0.01185 0.05111-0.03216 0.0795-0.04281 0.03234-0.01213 0.07029-0.01669 0.10396-0.02446 0.02265-0.0052 0.04426-0.01506 0.06727-0.01834 0.02824-4e-3 0.057-2e-3 0.08561-0.0061 4e-3 -5.76e-4 0.0082 0 0.01223 0 0.0082-2e-3 0.01622-0.0045 0.02446-0.0061 6e-3 -0.0012 0.02444 4.92e-4 0.01835 0-0.01418-0.0011-0.02839-2e-3 -0.04258-0.0029"/>
     <path d="m14.2 73c0.0482 0.0111 0.09786-0.0033 0.1462 0.0029 0.04123 0.0053 0.08133 0.0174 0.1223 0.02446 0.01819 0.0031 0.03691 0.0026 0.05504 0.0061 0.10875 0.02105 0.21556 0.05365 0.3241 0.07338 0.03494 0.0064 0.07468 0.0083 0.11007 0.01222 0.01376 0.0016 0.0214-0.0031 0.03669 0 0.01284 0.0026 0.02837 0.01474 0.04281 0.01834 0.04827 0.01206 0.09766 0.02578 0.14676 0.03669 0.01508 0.0034 0.09239 0.02898 0.10396 0.03669 0.0079 0.01879 0.0085 0.0046 0.06727 0.03668 0.0026 0.0012 0.0041 0.0082 0.0061 0.0061 0.01512-0.01603 0.02579-0.03576 0.03868-0.05364"/>
     <path d="m15.4 73.2c0.01192 0.06504 0 0 0.08973 0.0047 0.05634-0.01878 0.114-0.04073 0.17122-0.05504 0.01594-4e-3 0.03288-0.0026 0.04892-0.0061 0.04848-0.01078 0.09791-0.02243 0.14676-0.03058 0.03362-0.0056 0.06987-0.0035 0.10396-0.0061 0.07344-0.0056 0.14734-0.02549 0.22015-0.03669 0.0265-0.0041 0.05275-0.01044 0.0795-0.01224 0.0094-6e-4 0.09728 1e-3 0.10396-0.0061 0.01427-0.01539 0.02386-0.03455 0.0358-0.05184"/>
     <path d="m18.8 74c-0.0068-0.0042-0.01613-0.01928-0.0203-0.01252-0.004174 0.006772 0.01235 0.01252 0.0203 0.01252 0.02618 0 0.05139-0.01116 0.07754-0.01252 0.05496-0.0028 0.11014 0.0027 0.16511 0 0.07786-0.0039 0.16663-0.0238 0.24461-0.03058 0.10562-0.0092 0.20727-7e-3 0.31187 0.0061 0.01087 0.0014 0.16855 0.0038 0.17122 0.0061 0.0108 0.0093 0.01976 0.02057 0.02964 0.03086"/>
     <path d="m19.6 73.4c0.01398 1.42e-4 0.13352 0.0144 0.13367 4e-4 1.4e-4 -0.01395-0.11969-4e-4 -0.13367-4e-4 -0.07805 7.04e-4 -0.12924 2.1e-5 -0.2 0-0.05427 0.0112-0.13528-1.87e-4 -0.18276-0.0076-0.46172 0.01965-0.28255-0.0022-0.41724 0.0076"/>
     <path d="m21.2 50.4c0.11553-0.05347 0.16857-0.17212 0.25203-0.25558 0.0058-0.0058 0.0187 0.0058 0.02446 0 0.0043-0.0043 0.08724-0.2128 0.09784-0.24461 0.0052-0.01546-0.01154-0.03739 0-0.04892 0.0058-0.0058 0.0187 0.0058 0.02446 0 0.03017-0.03017 0.05364-0.10727 0.07338-0.14676 0.05779-0.11558 0.13657-0.22422 0.19568-0.34245 0.02145-0.0429 0.02225-0.0823 0.04892-0.1223 0.04334-0.065 0.12825-0.14611 0.14676-0.22015 0.0127-0.05083 0.0249-0.14764 0.04892-0.19569 0.0036-0.0073 0.0187 0.0058 0.02446 0 0.0256-0.0256 0.05758-0.13172 0.07338-0.17123 0.02715-0.06788 0.04422-0.13737 0.07338-0.19568 0.0098-0.01956-0.0098-0.05381 0-0.07338 0.03742-0.07484 0.11898-0.13678 0.14676-0.22015 0.0052-0.01548-0.0073-0.03434 0-0.04892 0.0036-0.0073 0.0187 0.0058 0.02446 0 0.01604-0.01604 0.0122-0.08559 0.02446-0.09784 0.02869-0.02869 0.08062-0.0095 0.12062-0.01634"/>
     <path d="m22.504 48.139c-0.0037 0.0063 0.04434 0.20181 0.04892 0.22015 0.01066 0.04266-0.01932 0.10812 0 0.14676 0.0307 0.18699 0.05125 0.44158 0.07338 0.53814 0.0016 0.05027 0.01214 0.04857 0.02446 0.09784 0.28468 0.09237-0.01036 0.71294-0.09784 0.92951-0.0382 0.07641-0.04707 0.2146-0.07338 0.29353-0.0082 0.02446 0.0041 0.04892 0 0.07338-0.01444 0.08663-0.03275 0.13927-0.04892 0.22015-0.03173 0.15864 0.02248 0.3464-0.04892 0.48921 0.03957 0.10407-0.03386 0.14249-0.04892 0.19568-0.0074 0.01477 0.01131 0.06208 0 0.07338-0.0058 0.0058-0.02081-0.0073-0.02446 0-0.01489 0.02978-0.0084 0.06572-0.02446 0.09784-4e-3 0.0081 0.0069 0.07035 0 0.07338-0.02581 0.01137-0.05579 0.0083-0.08369 0.0124"/>
    </g>
   </g>
   <path d="m15.652 72.178c-0.07559-0.02952-0.33203-0.05586-0.56985-0.05853-0.31292-0.0035-0.43241-0.03049-0.43241-0.09759 0-0.28743-0.48679-1.0185-1.1269-1.6925-0.66699-0.70224-0.71112-0.76877-1.2671-1.91-0.67187-1.3792-1.0937-2.6005-1.4478-4.192-0.28244-1.2693-0.7449-2.6376-1.0662-3.1547-0.1601-0.25766-0.25172-0.55261-0.38133-1.2276-0.16802-0.87506-0.16997-0.9273-0.12951-3.4593 0.022595-1.4139 0.06735-2.6043 0.099455-2.6453 0.032105-0.04099 0.1085-0.39902 0.16976-0.79563 0.10303-0.66702 0.14702-0.78626 0.58642-1.5897 0.26127-0.47772 0.5387-0.92619 0.61651-0.99661 0.07782-0.07042 0.14148-0.20314 0.14148-0.29492 0-0.09671 0.09455-0.26005 0.22485-0.38844 0.12367-0.12185 0.31161-0.38646 0.41766-0.58802 0.13583-0.25818 0.25944-0.39431 0.4183-0.46069 0.12669-0.05293 0.37262-0.28149 0.56126-0.52159 0.37333-0.47519 0.68732-0.70219 0.90039-0.65092 0.07765 0.01868 0.71714-0.12459 1.4211-0.31838 1.092-0.3006 1.4222-0.3621 2.2485-0.41881 0.53273-0.03656 1.3491-0.1434 1.8141-0.23743 0.97828-0.19779 1.7997-0.21926 2.6586-0.06948 0.73606 0.12836 1.1626 0.27821 1.2836 0.45095 0.05215 0.07445 0.2226 0.17365 0.37878 0.22045 0.22949 0.06876 0.33047 0.15777 0.52635 0.46398 0.13331 0.20839 0.35465 0.49395 0.49186 0.63457 0.80903 0.82907 1.0491 1.1008 1.2192 1.3803 0.10426 0.17123 0.4181 0.54805 0.69743 0.83737 0.27932 0.28932 0.5406 0.61214 0.58061 0.71738 0.06513 0.17131 0.12701 0.61957 0.25464 1.8448 0.02234 0.21449 0.01858 0.59587-0.0084 0.84752l-0.049 0.45754h-0.22592c-0.23895 0-0.40647 0.13683-0.48563 0.39666-0.03473 0.114-4e-4 0.20124 0.13114 0.33273 0.15746 0.15746 0.21435 0.17279 0.4886 0.13167 0.23804-0.0357 0.31114-0.02456 0.31363 0.04779 0.0018 0.05189 0.02939 0.4835 0.06133 0.95915 0.05629 0.83823 0.06921 0.88982 0.42012 1.6784 0.30726 0.69044 0.41838 0.86502 0.73435 1.1538 0.41994 0.3838 1.0456 0.76548 1.2548 0.76548 0.07661 0 0.19029 0.07783 0.25262 0.17296s0.17555 0.17296 0.25159 0.17296c0.07877 0 0.17079 0.07139 0.21385 0.16591 0.04158 0.09125 0.13503 0.19244 0.20768 0.22485 0.08459 0.03775-0.09861 0.05907-0.50949 0.05929-0.76921 4e-4 -1.1129 0.13149-1.6417 0.6261-0.61522 0.57547-0.8627 1.3184-0.67371 2.0225 0.05401 0.20121 0.07911 0.35553 0.05577 0.34293-0.27952-0.15092-0.81734-0.35908-1.307-0.50586-0.3319-0.09949-1.0117-0.31817-1.5106-0.48594-1.5323-0.51523-2.0157-0.39292-1.608 0.40687 0.21218 0.41622 1.409 1.9535 1.6844 2.1636 0.12764 0.09736 0.47574 0.28014 0.77355 0.40619 0.29781 0.12604 0.65044 0.29365 0.78362 0.37247 0.13318 0.07881 0.54646 0.22218 0.9184 0.3186 0.71654 0.18575 0.97161 0.29008 0.93651 0.38307-0.01182 0.03133-0.18957 0.18927-0.39499 0.35097l-0.37349 0.294-0.67255-0.04407c-0.3699-0.02424-0.78027-0.08909-0.91194-0.1441s-0.62254-0.19675-1.0908-0.31498c-0.46829-0.11822-0.97581-0.28348-1.1278-0.36722-0.15201-0.08375-0.346-0.1909-0.43108-0.23811s-0.5382-0.15021-1.0069-0.22888c-1.0598-0.17787-1.5094-0.37686-1.7974-0.79539-0.31477-0.4575-1.1345-0.97018-1.832-1.1458-0.23489-0.05915-0.35974-0.13627-0.43617-0.26945-0.0589-0.10262-0.19174-0.21854-0.29521-0.2576-0.25608-0.09666-0.93963-1.0368-1.1065-1.5218-0.09478-0.27549-0.1222-0.48398-0.09294-0.70661 0.03019-0.22969 0.0041-0.4104-0.09563-0.66265-0.23603-0.59693-0.49778-2.3443-0.49978-3.3364-0.0012-0.61505-0.04115-1.051-0.1315-1.4365-0.38973-1.6628-0.97967-3.866-1.1474-4.2852-0.10566-0.26403-0.20613-0.6065-0.22326-0.76104-0.03745-0.33784 0.08467-1.2762 0.17826-1.3698 0.13564-0.13564 0.49416 0.03749 1.229 0.59349 0.91855 0.69502 1.1096 0.81274 1.7031 1.0494 0.63374 0.25272 0.9535 0.60272 0.9535 1.0437 0 0.26277-0.0417 0.36615-0.24215 0.60033-0.25722 0.3005-0.2978 0.42938-0.15275 0.48505 0.04941 0.01896 0.21962-0.12016 0.38052-0.31103 0.26821-0.31816 0.29112-0.37663 0.29112-0.74297 0-0.33143-0.03433-0.44502-0.20618-0.68226-0.25049-0.34579-0.37659-0.43151-1.033-0.7022-0.32733-0.13498-0.8257-0.44577-1.3847-0.86353-0.91254-0.68194-1.1273-0.79945-1.4609-0.79945-0.28396 0-0.3996 0.2151-0.4867 0.90535-0.08934 0.70801-0.04644 1.0481 0.21745 1.7237 0.11147 0.28539 0.44022 1.4529 0.73054 2.5944 0.52705 2.0724 0.52785 2.0769 0.51829 2.9404-0.01069 0.96555 0.22182 2.591 0.4828 3.3753 0.1047 0.31461 0.13442 0.52405 0.1026 0.72302-0.0333 0.20825 0.0017 0.41958 0.13625 0.82372 0.09957 0.29899 0.20349 0.54362 0.23092 0.54362 0.02744 0 0.18299 0.18874 0.34567 0.41943s0.38553 0.474 0.4952 0.5407c0.10968 0.0667 0.2645 0.20401 0.34404 0.30514 0.09759 0.12407 0.29538 0.22895 0.60809 0.32247 0.65902 0.19708 1.263 0.58013 1.7067 1.0824 0.4583 0.51879 0.75688 0.65027 1.9339 0.85161 0.43889 0.07508 0.85029 0.16577 0.91421 0.20155 0.09864 0.0552 0.08056 0.0811-0.11955 0.17117-0.8152 0.36692-1.0287 0.40742-2.2076 0.4187-1.3778 0.01318-2.8802-0.05732-4.1833-0.19633-0.92143-0.09829-0.99675-0.11831-1.6259-0.4322-0.59626-0.2975-1.4899-0.89626-1.604-1.0747-0.04869-0.07616-0.2671-0.01952-0.26537 0.06883 0.0019 0.0972 0.09626 0.19066 0.56444 0.55907 0.25395 0.19983 0.54972 0.39547 0.65726 0.43476 0.24241 0.08856 0.61315 0.87182 1.0943 2.3119 0.17799 0.53273 0.44586 1.3266 0.59527 1.7642 0.31199 0.91375 0.43373 1.5221 0.30461 1.5221-0.04565 0-0.22037 0.07304-0.38827 0.16231-0.2064 0.10974-0.34979 0.14493-0.44271 0.10864zm5.5677-16.186c0.28626-0.24468 0.36065-0.25108 0.62723-0.05399 0.11215 0.08291 0.2237 0.13096 0.24789 0.10676 0.17596-0.17596-0.46986-0.64694-0.97335-0.70984-0.54699-0.06834-0.77522 0.0049-0.9801 0.31449-0.14395 0.21752-0.16152 0.29068-0.09824 0.40893 0.06568 0.12273 0.14064 0.1436 0.50705 0.14121 0.3742-0.0025 0.46105-0.02937 0.66951-0.20756z" fill="#784421"/>
   <path d="m19.231 72.013c-0.22011-0.04815-0.42057-0.10791-0.44546-0.1328-0.0698-0.0698 0.16994-2.1226 0.36065-3.0882 0.09374-0.47463 0.17117-1.0264 0.17206-1.2262l0.0016-0.36322h2.2338l-0.04484 0.5377c-0.02466 0.29573-0.07738 0.64598-0.11716 0.77833-0.07372 0.24532-0.56749 2.6375-0.65107 3.1543l-0.04604 0.28464-0.47583 0.07858c-0.26171 0.04322-0.50097 0.07539-0.53169 0.07149s-0.23595-0.04648-0.45606-0.09463z" fill="#a0a0a0"/>
   <path d="m19.13 71.963c-0.29285-0.07492-0.29404-0.07653-0.29404-0.39609 0-0.40643 0.1661-1.7402 0.3453-2.7728 0.07594-0.4376 0.13828-0.97465 0.13854-1.1934l4.6e-4 -0.39782h2.2151l-0.04257 0.39782c-0.02342 0.2188-0.08441 0.60018-0.13554 0.84752s-0.22683 1.1262-0.39044 1.953c-0.20586 1.0403-0.32847 1.5154-0.3981 1.5426-0.20349 0.07951-1.1534 0.09218-1.4387 0.01918z" fill="#784421"/>
   <g fill="#502d16">
    <path d="m18.357 70.498c-0.0794-0.12847-0.17349-0.38552-0.20909-0.57121s-0.22236-0.88622-0.41503-1.5567c-0.19267-0.67051-0.35034-1.2309-0.35037-1.2453-5.4e-5 -0.02079 1.5771 0.04769 1.6432 0.07135 0.06651 0.02381-0.0094 0.80853-0.1482 1.5312-0.09102 0.47404-0.18812 1.1036-0.21578 1.3991-0.02766 0.29545-0.07506 0.5525-0.10534 0.57121-0.03028 0.01872-0.12002-0.07109-0.19942-0.19956z"/>
    <path d="m23.167 72.099c-0.02455-0.12276-0.10364-0.34847-0.17576-0.50159-0.18528-0.39341-0.3735-0.87294-0.62522-1.5929-0.11974-0.34247-0.31259-0.79158-0.42857-0.99802-0.20908-0.37216-0.21046-0.38144-0.16218-1.0897 0.04675-0.6859 0.05504-0.71432 0.20837-0.71432 0.08782 0 0.37746-0.07368 0.64364-0.16374l0.48397-0.16374 0.04669 0.76911c0.0536 0.8831 0.22234 2.3159 0.31464 2.6717 0.03455 0.13318 0.1233 0.55348 0.19722 0.934s0.15623 0.77747 0.1829 0.88211c0.04807 0.18859 0.04547 0.19026-0.29628 0.19026-0.33311 0-0.34629-0.0076-0.38942-0.22319z"/>
    <path d="m26.142 49.983-0.39733-0.40152 0.16058-0.23773c0.08832-0.13075 0.33178-0.57705 0.54101-0.99177 0.23089-0.45763 0.38759-0.70139 0.39864-0.62011 0.01002 0.07366 0.05201 0.28959 0.09331 0.47985 0.06436 0.29646 0.05478 0.40614-0.06692 0.76698-0.07811 0.23158-0.16336 0.62941-0.18945 0.88406s-0.06883 0.47623-0.09497 0.49238c-0.02615 0.01616-0.22634-0.15131-0.44487-0.37214z"/>
    <path d="m28.808 64.294c-0.34235-0.06954-0.42928-0.15643-0.67921-0.67887-0.24869-0.51983-0.29046-1.1317-0.10577-1.5492 0.20934-0.47325 0.64222-0.90332 1.1292-1.1219 0.36216-0.16253 0.49343-0.18593 0.92159-0.16431 0.40725 0.02056 0.59398 0.07261 1.0131 0.28235 0.75711 0.37888 1.0244 0.63545 1.0768 1.0334 0.06794 0.51681-0.01418 0.77512-0.35211 1.1076-0.7819 0.76931-2.1466 1.265-3.0036 1.0909z"/>
   </g>
   <path d="m15.17 73.059c-0.19324-0.07312-0.25296-0.14211-0.3018-0.34862-0.03349-0.1416-0.03981-0.27853-0.01405-0.30429 0.08362-0.08362 0.55688-0.0362 0.77751 0.07789 0.17685 0.09145 0.2285 0.09499 0.29079 0.01994 0.09491-0.11436 0.61887-0.35442 0.66747-0.30581 0.01982 0.01982 0.05459 0.19271 0.07727 0.38421 0.03748 0.31649 0.02631 0.35616-0.12282 0.43597-0.23429 0.12539-1.0841 0.15057-1.3744 0.04072z" fill="#a0a0a0"/>
   <path d="m18.666 72.616c0.02653-0.2188 0.05598-0.40686 0.06544-0.41792 0.0095-0.01106 0.24529 0.03177 0.52406 0.09517 0.41279 0.09389 0.56946 0.10083 0.84422 0.0374 0.53615-0.12376 0.55698-0.11627 0.50134 0.1803-0.09577 0.51048-0.0794 0.50287-1.0813 0.50287h-0.90195z" fill="#a0a0a0"/>
   <path d="m23.305 72.766c-0.0231-0.06019-0.042-0.12246-0.042-0.13837 0-0.01592 0.15234-0.02893 0.33852-0.02893 0.30902 0 0.42251 0.06656 0.42251 0.24781 0 0.01592-0.15234 0.02893-0.33852 0.02893-0.24487 0-0.35014-0.03028-0.38052-0.10944z" fill="#4d4d4d"/>
   <path d="m26.488 54.795c-0.02275-0.05929-0.0212-0.14043 0.0034-0.1803 0.07044-0.11397 0.36309-0.08468 0.41139 0.04118 0.05315 0.13851 0.05154 0.14026-0.18398 0.19937-0.13903 0.03489-0.20049 0.01886-0.23084-0.06025z" fill="#a0a0a0"/>
   <path d="m20.314 55.881c0.0123-0.06256 0.10043-0.17197 0.19584-0.24313 0.13834-0.10318 0.2404-0.12021 0.50391-0.08409l0.33044 0.04529-0.20232 0.12304c-0.11128 0.06767-0.22313 0.1567-0.24855 0.19783-0.02542 0.04114-0.1712 0.07479-0.32396 0.07479-0.22063 0-0.27313-0.02338-0.25536-0.11374z" fill="#333"/>
   <path d="m20.427 55.914c-0.16131-0.10666 0.19453-0.33412 0.52208-0.33373l0.28637 4e-4 -0.20756 0.16716c-0.23613 0.19018-0.46777 0.25425-0.6009 0.16622z" fill="#1a1a1a"/>
   <path d="m26.528 54.72c0-0.07064 0.06246-0.10859 0.17873-0.10859 0.21674 0 0.19302 0.16248-0.02848 0.19507-0.09978 0.01468-0.15025-0.01436-0.15025-0.08648z" fill="#1a1a1a"/>
   <path d="m30.058 62.299c-0.16394 0.12408-0.30575-0.26003-0.658-0.25473-0.13681 0.02736-0.33123 0.11311-0.37914 0.25684-0.07076 0.33009-0.04147 0.58437 0.14677 0.74605 0.04756 0 0.17073 0.01488 0.20792 0 0.17952-0.06244-0.07599 0.01433 0.14676-0.04892 0.0088-0.0022 0.05563-0.0067 0.06115-0.01222 0.07869-0.15043 0.16144-0.34315 0.22014-0.45252-0.03568-0.15067-0.0797-0.30743-0.1223-0.45252" fill="none" stroke="#000" stroke-width=".2px"/>
   <path d="m31.2 61.644c-0.13603-0.03907-0.36542-0.03386-0.49682-0.03386-0.30318 0.23386-0.4619 0.49011-0.36691 0.79497 0.28591 0.09339 0.43437 0.14914 0.62375 0.09784 0.0034-0.0023 0.01 0.0034 0.01222 0 0.10529-0.18702 0.08497-0.4115 0.07336-0.61151-0.01522-0.06091-0.04985-0.15992-0.08561-0.19569-0.02556 0.0038-0.03483-0.04355-0.04891-0.06115 0.02979-1e-3 0.05928 0.0063 0.08892 0.0094" fill="none" stroke="#000" stroke-width=".2px"/>
   <path d="m29.216 62.944c-0.03247-0.0138-0.08454-0.10148-0.10753-0.18107-0.01256-0.04348-0.01406-0.06162-0.01408-0.17095-3.8e-5 -0.13339 0.01182-0.22822 0.03457-0.27651 0.02552-0.05415 0.11566-0.11598 0.22034-0.15112 0.07326-0.02459 0.12838-0.0196 0.21418 0.01938 0.04659 0.02117 0.04729 0.02182 0.05622 0.05279 0.02322 0.08051 0.07125 0.26502 0.07183 0.27596 6e-4 0.0109-0.08528 0.19705-0.1528 0.33126-0.02718 0.05403-0.0271 0.05398-0.10804 0.07276-0.01008 0.0023-0.03073 0.01002-0.04586 0.01708-0.02145 0.01-0.04168 0.01316-0.09173 0.01436-0.03531 8e-4 -0.07001-1e-3 -0.07709-0.0039z" fill="#a0a0a0"/>
   <path d="m30.699 62.406c-0.05425-0.01144-0.19383-0.05202-0.2471-0.07183-0.0287-0.01068-0.03072-0.01288-0.03554-0.0387-8e-3 -0.04283-8e-4 -0.13838 0.01404-0.18638 0.01598-0.05167 0.05604-0.12911 0.09193-0.17768 0.03353-0.04539 0.1055-0.12099 0.16642-0.17483l0.04743-0.04192h0.05153c0.04546 0 0.05197 0.0014 0.05526 0.01176 0.0021 0.0065 0.01448 0.02147 0.02762 0.03334 0.02739 0.02474 0.03831 0.0439 0.05952 0.10437 0.0141 0.04024 0.01534 0.05353 0.01828 0.19604 0.0026 0.1246 0.0012 0.16362-0.0069 0.21097-0.01478 0.08576-0.03206 0.13403-0.0505 0.14104-0.02457 0.0093-0.13534 0.0058-0.19202-0.0062z" fill="#333"/>
   <path d="m29.193 62.918c-0.03141-0.03302-0.07446-0.12197-0.08759-0.18098-0.0087-0.03921-0.0098-0.06741-0.0067-0.17845 0.0041-0.14747 0.01368-0.20786 0.0399-0.25101 0.04439-0.07304 0.19768-0.1531 0.29279-0.15291 0.04472 8.8e-5 0.13077 0.02563 0.16041 0.04762 0.01894 0.01404 0.023 0.02578 0.06424 0.18545l0.03257 0.12613-0.03525 0.07873c-0.06026 0.13457-0.12201 0.26051-0.13807 0.28156-0.01142 0.01496-0.02439 0.02269-0.05031 0.02996-0.01922 0.0054-0.05466 0.01644-0.07876 0.02456-0.03501 0.0118-0.05643 0.01476-0.10643 0.01476h-0.0626z" fill="#1a1a1a"/>
   <path d="m30.766 62.411c-0.08455-0.0064-0.32437-0.07383-0.34092-0.09587-0.0106-0.01412-0.0097-0.1284 0.0014-0.18083 0.0115-0.05427 0.05743-0.14726 0.10186-0.20622 0.01948-0.02586 0.07424-0.08458 0.12168-0.13049l0.08624-0.08347h0.03247c0.01786 0 0.04038 0.0016 0.05005 0.0038 0.02747 0.0059 0.07829 0.06967 0.10176 0.1277l0.01978 0.04892v0.19263c0 0.16575-0.0016 0.19817-0.01088 0.23238-0.01634 0.05964-0.02911 0.08553-0.04361 0.08842-0.03147 0.0063-0.06585 0.0071-0.11979 0.0031z" fill="#1a1a1a"/>
   <path d="m29 64.444c0.0088-0.0025-0.12396 0.17006-0.12566 0.179-4e-3 0.01998-0.0047 0.04055-0.0086 0.06054-0.0379 0.11575-0.05063 0.22562-0.05189 0.2335-0.0148 0.06909-0.047 0.13985-0.06054 0.20756-0.02815 0.14076-0.05144 0.29044-0.06918 0.43241-0.01214 0.23377-0.02915 0.49322-0.0518 0.7178 0 3e-3 0.0033 0.03993 0 0.04324-2e-3 2e-3 -0.0066-2e-3 -0.0086 0s8e-4 0.0114 0 0.0086c-0.0087-0.02731-0.0157-0.05512-0.02353-0.08269" fill="none" stroke="#000" stroke-width=".2px"/>
   <path d="m28.43 66.225c-0.15192-0.07847-0.39738-0.15057-0.93976-0.27604-0.49958-0.11557-0.78144-0.22221-0.95329-0.36069-0.09391-0.07568-0.16584-0.10907-0.5657-0.2626-0.33563-0.12887-0.49448-0.19893-0.61379-0.2707-0.27493-0.16538-0.49051-0.37926-0.75802-0.75205-0.07059-0.09836-0.24087-0.32126-0.3784-0.49533-0.44988-0.56936-0.62419-0.81677-0.7314-1.0381-0.09629-0.19878-0.1025-0.29695-0.02043-0.32287 0.0764-0.02413 0.12603-0.02701 0.23446-0.0136 0.29432 0.0364 0.66144 0.14655 1.2353 0.37064 0.24594 0.09604 0.45418 0.16175 0.97927 0.30899 0.75776 0.21249 1.0086 0.29619 1.3445 0.44872 0.36457 0.16553 0.75047 0.43866 0.87257 0.61757 0.05702 0.08355 0.18847 0.23406 0.22081 0.25283 0.01258 0.0073 0.04957 0.02969 0.08221 0.04976 0.08767 0.05391 0.17127 0.07884 0.26584 0.07929 0.06632 4e-4 0.0825 0.0039 0.07736 0.01734-0.0095 0.02482-0.04217 0.1598-0.06252 0.25851-0.0097 0.04723-0.03156 0.13369-0.04849 0.19213-0.04572 0.15775-0.08997 0.47941-0.11152 0.8105-0.02366 0.36362-0.03024 0.4221-0.0474 0.42136-0.0075-4e-4 -0.04419-0.01638-0.08156-0.03569z" fill="#f59"/>
   <g stroke-width=".2px">
    <path d="m28.6 64.644c0.02982 0.0012 0.06225-0.0087 0.08947 0.0036 0.02132 0.0096-0.019 0.13165-0.02446 0.15899-0.0047 0.02352 0.0047 0.04986 0 0.07338-0.0018 0.0089-0.0082 0.0163-0.01222 0.02446-0.0041 0.01222-0.0097 0.02405-0.01222 0.03669-0.0073 0.0365-0.0069 0.0731-0.01224 0.11007-0.0087 0.06124-0.01096 0.01392-0.02446 0.06115-0.0079 0.02772-0.0043 0.05789-0.01224 0.08561-6e-3 0.02111-0.01842 0.04004-0.02446 0.06115-0.01318 0.04611-0.013 0.10091-0.02446 0.14676-0.0027 0.01066-0.0218 0.03827-0.02446 0.04892-0.0036 0.0144 0.0065 0.03593 0 0.04892-0.01808 0.03615-0.01742 0.08-0.02446 0.1223-0.0077 0.04603-0.03539 0.15508-0.04892 0.19569-0.0172 0.05162 0.01176 0.111-0.01222 0.15899-0.01392 0.02786 0.0024 0.06865-0.01222 0.09784-0.0036 0.0073 0.0033 0.03193 0 0.02446-0.0083-0.01907-0.01363-0.03933-0.02043-0.059" fill="#fff6d5" stroke="#fff6d5"/>
    <path d="m28.4 66.044s-0.14725 0.03205-0.2 0c-0.83695-0.31223-0.35563 0.11736-1.7854-0.57698-0.16066-0.07712-0.18371-0.1251-0.34245-0.20792-0.12674-0.06612-0.32222-0.1578-0.45252-0.20792-0.35725-0.03563-0.21965-0.20719-0.41965-0.20719-0.16538-0.04513-0.0088-0.48869-0.38842-0.42792-0.08754 0.01401-0.2027-0.20067-0.25226-0.275-0.05848-0.08771-0.12138-0.22118-0.15932-0.29708-0.02933-0.14517 0.06261 0.03167 0.02108-0.11369 0.0047-0.02529 6.9e-4 -0.07543-0.02108-0.08631-0.01153-0.0058-0.2 0-0.11345-0.04821-0.04696-0.0313-0.03667 0.07574-0.08264 0.04127-0.03746-0.0281-0.0039 0.0069-0.07635-0.18803-0.0073-0.01975-0.02733-0.0057-0.03669-0.02446-0.29087 0.01943-0.2489-0.36324-0.2844-0.37508-0.06533-0.02178 0.0384 0.15476-0.0065 0.19452" fill="none" stroke="#fff6d5"/>
    <path d="m24 62.444-0.2-0.8 0.2-0.8 0.4-0.6 0.4 2.4z" fill="#fea" stroke="#ffe680"/>
    <path d="m25 62.644c-0.16643-0.50873-0.12024-0.45901-0.20764-0.90299 0-0.19045-0.03232-0.21231-0.07351-0.39782-0.01852-0.08337-0.08855-0.4204-0.11885-0.4992-0.03396-0.33332 0.0411-0.25602 0-0.6 0-0.0034-0.0433-0.16783-0.0411-0.16992" fill="none" stroke="#000"/>
   </g>
  </g>
 </g>
</svg>
