<svg width="200" height="400" version="1.1" viewBox="0 0 40 80" xmlns="http://www.w3.org/2000/svg">
 <g transform="matrix(1.1722 0 0 1.3518 -3.4181 -47.45)">
  <g transform="translate(-.8 6)">
   <path d="m16.076 65.5c0 0.89302 0.07731 0.65826 0.07731 1.3082-0.0086 0.49251-0.07076 0.66781-0.23804 0.97364-0.29588 0.54093-0.62455 1.0876-0.83059 1.4073-0.13526 0.23822-0.64706 1.1999-0.6865 1.437-0.06769 0.40688 0.05296 0.48086-0.10856 0.68423-0.4331 0.54527-0.35952 0.49667-0.8706 0.40874-0.26947-0.04635-0.71828 0.28189-0.84218 0.34497-0.97748 0.49769-0.72368 0.60506-1.0489 0.664-0.01141 0.0021-0.12853 0.25858-0.25732 0.29276-0.15454 0.04101-0.37827-0.10234-0.42328-0.19734-0.2192-0.46274 0.09408-0.35448 0.3168-0.49452 0.19844-0.12476-0.0058-0.20956-0.18877-0.05477-0.1851 0.15654-0.23596 0.21598-0.32713 0.22641-0.1886 0.02159-0.30105-0.07484-0.31892-0.18744-0.02525-0.15909 0.20537-0.29568 0.43351-0.42968 0.24742-0.14533-0.43501 0.41919-0.6211 0.16268-0.06435-0.0887-0.0079-0.28273 0.05143-0.36006 0.96524-0.4333-0.44332 0.37451-0.37251-0.22036 0.035465-0.25378 0.40513-0.43208 0.56556-0.42959 0.19305 0 0.3891-0.0076 0.60359-0.08639 0.26172-0.09611 0.53206-0.2045 0.81099-0.27655 0.27042-0.06986 0.51591-0.07036 0.902-0.28701 0.43876-0.0572 0.7411-0.45502 1.0121-1.4278 0.14976-0.53752-0.03256-1.7825 0.07637-2.4902 0.02935-0.1908 0.09234-0.36713 0.09449-0.53045 0.0024-0.18521 5e-3 -0.50414 0.04788-0.658 0.06439-0.23137 0.58068-1.2853 0.6831-1.5836 0.75732-2.2053 1.3473-2.7015 2.0022-3.1939 0.1152-0.08661 0.68002-0.36559 1.2908-0.04398 0.56635 0.2982 1.2625 0.80108 0.6727 1.9894-0.11809 0.23793-0.71136 0.85687-1.1638 1.3648-0.57638 0.647-1.3427 1.1861-1.3427 1.6875z" fill="#71c837" stroke="#5aa02c" stroke-width=".24255"/>
   <g fill="#dde9af" stroke="#cdde87">
    <ellipse transform="matrix(.66527 .7466 -.66527 .7466 0 0)" cx="57.042" cy="40.443" rx=".21468" ry=".29712" stroke-width=".070479"/>
    <ellipse transform="matrix(.75358 .65736 -.75358 .65736 0 0)" cx="61.963" cy="48.064" rx=".15037" ry=".20812" stroke-width=".049366"/>
    <ellipse transform="matrix(.70103 .71313 -.70103 .71313 0 0)" cx="57.719" cy="43.135" rx=".1539" ry=".213" stroke-width=".050524"/>
    <ellipse transform="matrix(.72758 .68602 -.72758 .68602 0 0)" cx="58.897" cy="45.153" rx=".17359" ry=".24026" stroke-width=".05699"/>
   </g>
  </g>
  <g transform="matrix(-1 0 0 1 41.754 6.1036)">
   <path d="m16.476 65.5c0 0.89302 0.07731 0.65826 0.07731 1.3082-0.0086 0.49251-0.07076 0.66781-0.23804 0.97364-0.29588 0.54093-0.62455 1.0876-0.83059 1.4073-0.13526 0.23822-0.64706 1.1999-0.6865 1.437-0.06769 0.40688 0.05296 0.48086-0.10856 0.68423-0.4331 0.54527-0.35952 0.49667-0.8706 0.40874-0.26947-0.04635-0.71828 0.28189-0.84218 0.34497-0.97748 0.49769-0.72368 0.60506-1.0489 0.664-0.01141 0.0021-0.12853 0.25858-0.25732 0.29276-0.15454 0.04101-0.37827-0.10234-0.42328-0.19734-0.2192-0.46274 0.09408-0.35448 0.3168-0.49452 0.19844-0.12476-0.0058-0.20956-0.18877-0.05477-0.1851 0.15654-0.23596 0.21598-0.32713 0.22641-0.1886 0.02159-0.30105-0.07484-0.31892-0.18744-0.02525-0.15909 0.20537-0.29568 0.43351-0.42968 0.24742-0.14533-0.43501 0.41919-0.6211 0.16268-0.06435-0.0887-0.0079-0.28273 0.05143-0.36006 0.96524-0.4333-0.44332 0.37451-0.37251-0.22036 0.03547-0.25378 0.40514-0.43208 0.56556-0.42959 0.19305 0 0.3891-0.0076 0.60359-0.08639 0.26172-0.09611 0.53206-0.2045 0.81099-0.27655 0.27042-0.06986 0.51591-0.07036 0.902-0.28701 0.43876-0.0572 0.7411-0.45502 1.0121-1.4278 0.14976-0.53752-0.03256-1.7825 0.07637-2.4902 0.02935-0.1908 0.09234-0.36713 0.09449-0.53045 0.0024-0.18521 5e-3 -0.50414 0.04788-0.658 0.06439-0.23137 0.58068-1.2853 0.6831-1.5836 0.75732-2.2053 1.3473-2.7015 2.0022-3.1939 0.1152-0.08661 0.68002-0.36559 1.2908-0.04398 0.56635 0.2982 1.2625 0.80108 0.6727 1.9894-0.11809 0.23793-0.71136 0.85687-1.1638 1.3648-0.57638 0.647-1.3427 1.1861-1.3427 1.6875z" fill="#71c837" stroke="#5aa02c" stroke-width=".24255"/>
   <g fill="#dde9af" stroke="#cdde87">
    <ellipse transform="matrix(.66527 .7466 -.66527 .7466 0 0)" cx="57.042" cy="40.443" rx=".21468" ry=".29712" stroke-width=".070479"/>
    <ellipse transform="matrix(.75358 .65736 -.75358 .65736 0 0)" cx="61.963" cy="48.064" rx=".15037" ry=".20812" stroke-width=".049366"/>
    <ellipse transform="matrix(.70103 .71313 -.70103 .71313 0 0)" cx="57.719" cy="43.135" rx=".1539" ry=".213" stroke-width=".050524"/>
    <ellipse transform="matrix(.72758 .68602 -.72758 .68602 0 0)" cx="58.897" cy="45.153" rx=".17359" ry=".24026" stroke-width=".05699"/>
   </g>
  </g>
  <path d="m23.88 60.554c-3.5418-0.33326-1.4413-0.34566-0.16988 0.21797 0.29188 0.12939 0.40472 0.40756 0.54942 0.58455 0.14426 0.5949 0.57392 1.0612 0.61603 2.1627 0.12934 1.0781-0.12617 2.5518-0.45631 3.2692-0.85696 1.8621-3.2201 2.0157-4.3266 2.0157-1.5764 0-3.4123-0.55189-4.1183-2.7871-0.10407-0.32948-0.2844-1.5166-0.15936-2.3726 0.04217-0.28875 0.21338-0.94915 0.32368-1.206 0.21734-0.78249 0.43773-1.2926 0.7379-1.4843 0.36245-0.23158 0.95076-0.36984 1.7001-0.50664-0.10484-0.149-0.56986 0.16909-1.1244 0.19036-1.361 0.34979-1.4692-0.23174-1.4203-1.2065 0.03154-0.62847-0.4537-1.8105-0.26784-2.3775 0.72163-2.0765 2.588-1.8572 4.3284-1.8572 1.6648 0 3.6842-0.21476 4.4837 1.4537 0.30407 0.63457 0.0611 1.721-0.0014 2.8144 0.01857 0.47727 0.04214 1.1201-0.69504 1.0894z" fill="#71c837" stroke="#5aa02c" stroke-width=".27251"/>
  <g transform="translate(.4 8.8)">
   <g fill="#71c837" stroke="#5aa02c">
    <path d="m8.7541 55.053c0.21629 0.04506 0.27653-0.23134 0.27653-0.23134 0.36787-0.11051 0.2101-0.93184 0.56938-0.62179 0.10736 0.1342 0.25292 0.35013 0.30859 0.45827 0.15062 0.29255 0.094756 0.41677 0.26796 0.70573 0.43351 0.21268 0.31143-0.18477 0.39475-0.52474-0.0096-0.5107 0.25203-1.1538 0.45649-1.8386 0.10242-0.34308 0.24505-0.60515 0.40658-0.64696 0.52785-0.13664 1.4421-2.1145 1.9853-3.5636 0.2646-0.78359 0.85027-1.4077 1.3456-1.7395 0.11935-0.07995 0.7045-0.3375 1.3373-0.0406 0.58675 0.27529 1.308 0.73951 0.69692 1.8365-0.09061 0.16268-0.38256 0.63743-0.82272 0.88232-0.61276 0.34093-0.47611 0.47062-0.66083 0.78163-0.6157 0.84262-1.5271 1.9738-1.7543 2.4992-0.0019 0.41412 0.07317 0.37954-0.4219 0.83868-0.57749 0.64699-1.1777 1.2418-1.6103 1.7598-0.09204 0.1102 0.10808 0.55744 0.11717 0.64183 0.0065 0.05998-0.22631 0.18806-0.42832 0.2825-0.41854 0.42076-0.48893 0.15528-0.79953 0.34938-0.283 0.09969-0.5362 0.30908-0.80473 0.0713-0.41377-0.36638-0.47669-1.0804-1.0208-1.2984-0.3303-0.10437 0.16086-0.60149 0.16086-0.60149z" stroke-width=".2372"/>
    <g>
     <g stroke-width=".075696">
      <path d="m8.4777 55.023c0.10823 0.21802 0.075475 0.39728-0.00116 0.45028-0.076629 0.053-0.2163-0.05983-0.27728-0.20932-0.092174-0.22594-0.081181-0.37978-0.00455-0.43277 0.07663-0.053 0.17476-0.02624 0.28299 0.19181"/>
      <path d="m9 54.6c0.10823 0.21802 0.075475 0.39728-0.00116 0.45028-0.076629 0.053-0.2163-0.05983-0.27728-0.20932-0.092174-0.22594-0.081181-0.37978-0.00455-0.43277 0.07663-0.053 0.17476-0.02624 0.28299 0.19181"/>
      <path d="m8.3038 55.136c-0.036395 0.24067-0.16605 0.36872-0.25922 0.36818-0.093171-5.23e-4 -0.14287-0.17308-0.10708-0.33051 0.054087-0.23795 0.15133-0.35766 0.2445-0.35711 0.093172 5.22e-4 0.15819 0.07878 0.1218 0.31944"/>
      <path d="m8.8534 54.717c-0.036395 0.24067-0.16605 0.36872-0.25922 0.36818-0.093171-5.23e-4 -0.14287-0.17308-0.10708-0.33051 0.054087-0.23795 0.15133-0.35766 0.2445-0.35711 0.093172 5.22e-4 0.15819 0.07878 0.1218 0.31944"/>
      <path d="m9.6 54.2c-0.036395 0.24067-0.16605 0.36872-0.25922 0.36818-0.093171-5.23e-4 -0.14287-0.17308-0.10708-0.33051 0.054087-0.23795 0.15133-0.35766 0.2445-0.35711 0.093172 5.22e-4 0.15819 0.07878 0.1218 0.31944"/>
     </g>
     <path d="m8.2589 55.515c0.027135 0.24189-0.06496 0.39914-0.1551 0.42273-0.090135 0.02359-0.18279-0.13021-0.18897-0.29153-0.00934-0.24384 0.053608-0.38464 0.14374-0.40823 0.090136-0.02359 0.17319 0.03515 0.20032 0.27703" stroke-width=".075696"/>
     <path d="m8.7541 55.053c0.027135 0.24189-0.06496 0.39914-0.1551 0.42273-0.090135 0.02359-0.18279-0.13021-0.18897-0.29153-0.00934-0.24384 0.053608-0.38464 0.14374-0.40823 0.090136-0.02359 0.17319 0.03515 0.20032 0.27703" stroke-width=".075696"/>
     <path d="m9.4826 54.58c0.027135 0.24189-0.06496 0.39914-0.1551 0.42273-0.090135 0.02359-0.18279-0.13021-0.18897-0.29153-0.00934-0.24384 0.053608-0.38464 0.14374-0.40823 0.090136-0.02359 0.17319 0.03515 0.20032 0.27703" stroke-width=".075696"/>
    </g>
   </g>
   <g fill="#dde9af" stroke="#cdde87" stroke-width=".067315">
    <ellipse transform="matrix(.9935 -.11384 .064345 .99793 0 0)" cx="4.4763" cy="56.533" rx=".15673" ry=".37127"/>
    <ellipse transform="matrix(.9935 -.11384 .064345 .99793 0 0)" cx="5.0387" cy="56.244" rx=".15673" ry=".37127"/>
    <ellipse transform="matrix(.9935 -.11384 .064345 .99793 0 0)" cx="5.7964" cy="55.784" rx=".15673" ry=".37127"/>
   </g>
   <path d="m11.249 55.775c0.2917 8e-3 0.47724 0.16849 0.50222 0.30042 0.0251 0.13194-0.16328 0.23341-0.35741 0.21116-0.29339-0.03368-0.46026-0.14961-0.48522-0.2816-0.02488-0.13192 0.04867-0.23808 0.34041-0.23" fill="#71c837" stroke="#5aa02c" stroke-width=".098866"/>
   <ellipse transform="matrix(-.050072 .99875 -.9924 -.12309 0 0)" cx="54.309" cy="-13.712" rx=".17999" ry=".40531" fill="#dde9af" stroke="#cdde87" stroke-width=".075371"/>
  </g>
  <g transform="matrix(-1 0 0 1 40.113 8.9553)">
   <g fill="#71c837" stroke="#5aa02c">
    <path d="m8.7541 55.053c0.21629 0.04506 0.27653-0.23134 0.27653-0.23134 0.36787-0.11051 0.2101-0.93184 0.56938-0.62179 0.10736 0.1342 0.25292 0.35013 0.30859 0.45827 0.15062 0.29255 0.094756 0.41677 0.26796 0.70573 0.43351 0.21268 0.31143-0.18477 0.39475-0.52474-0.0096-0.5107 0.25203-1.1538 0.45649-1.8386 0.10242-0.34308 0.24505-0.60515 0.40658-0.64696 0.52785-0.13664 1.4421-2.1145 1.9853-3.5636 0.2646-0.78359 0.85027-1.4077 1.3456-1.7395 0.11935-0.07995 0.7045-0.3375 1.3373-0.0406 0.58675 0.27529 1.308 0.73951 0.69692 1.8365-0.09061 0.16268-0.38256 0.63743-0.82272 0.88232-0.61276 0.34093-0.47611 0.47062-0.66083 0.78163-0.6157 0.84262-1.5271 1.9738-1.7543 2.4992-0.0019 0.41412 0.07317 0.37954-0.4219 0.83868-0.57749 0.64699-1.1777 1.2418-1.6103 1.7598-0.09204 0.1102 0.10808 0.55744 0.11717 0.64183 0.0065 0.05998-0.22631 0.18806-0.42832 0.2825-0.41854 0.42076-0.48893 0.15528-0.79953 0.34938-0.283 0.09969-0.5362 0.30908-0.80473 0.0713-0.41377-0.36638-0.47669-1.0804-1.0208-1.2984-0.3303-0.10437 0.16086-0.60149 0.16086-0.60149z" stroke-width=".2372"/>
    <g>
     <g stroke-width=".075696">
      <path d="m8.4777 55.023c0.10823 0.21802 0.075475 0.39728-0.00116 0.45028-0.076629 0.053-0.2163-0.05983-0.27728-0.20932-0.092174-0.22594-0.081181-0.37978-0.00455-0.43277 0.07663-0.053 0.17476-0.02624 0.28299 0.19181"/>
      <path d="m9 54.6c0.10823 0.21802 0.075475 0.39728-0.00116 0.45028-0.076629 0.053-0.2163-0.05983-0.27728-0.20932-0.092174-0.22594-0.081181-0.37978-0.00455-0.43277 0.07663-0.053 0.17476-0.02624 0.28299 0.19181"/>
      <path d="m8.3038 55.136c-0.036395 0.24067-0.16605 0.36872-0.25922 0.36818-0.093171-5.23e-4 -0.14287-0.17308-0.10708-0.33051 0.054087-0.23795 0.15133-0.35766 0.2445-0.35711 0.093172 5.22e-4 0.15819 0.07878 0.1218 0.31944"/>
      <path d="m8.8534 54.717c-0.036395 0.24067-0.16605 0.36872-0.25922 0.36818-0.093171-5.23e-4 -0.14287-0.17308-0.10708-0.33051 0.054087-0.23795 0.15133-0.35766 0.2445-0.35711 0.093172 5.22e-4 0.15819 0.07878 0.1218 0.31944"/>
      <path d="m9.6 54.2c-0.036395 0.24067-0.16605 0.36872-0.25922 0.36818-0.093171-5.23e-4 -0.14287-0.17308-0.10708-0.33051 0.054087-0.23795 0.15133-0.35766 0.2445-0.35711 0.093172 5.22e-4 0.15819 0.07878 0.1218 0.31944"/>
     </g>
     <path d="m8.2589 55.515c0.027135 0.24189-0.06496 0.39914-0.1551 0.42273-0.090135 0.02359-0.18279-0.13021-0.18897-0.29153-0.00934-0.24384 0.053608-0.38464 0.14374-0.40823 0.090136-0.02359 0.17319 0.03515 0.20032 0.27703" stroke-width=".075696"/>
     <path d="m8.7541 55.053c0.027135 0.24189-0.06496 0.39914-0.1551 0.42273-0.090135 0.02359-0.18279-0.13021-0.18897-0.29153-0.00934-0.24384 0.053608-0.38464 0.14374-0.40823 0.090136-0.02359 0.17319 0.03515 0.20032 0.27703" stroke-width=".075696"/>
     <path d="m9.4826 54.58c0.027135 0.24189-0.06496 0.39914-0.1551 0.42273-0.090135 0.02359-0.18279-0.13021-0.18897-0.29153-0.00934-0.24384 0.053608-0.38464 0.14374-0.40823 0.090136-0.02359 0.17319 0.03515 0.20032 0.27703" stroke-width=".075696"/>
    </g>
   </g>
   <g fill="#dde9af" stroke="#cdde87" stroke-width=".067315">
    <ellipse transform="matrix(.9935 -.11384 .064345 .99793 0 0)" cx="4.4763" cy="56.533" rx=".15673" ry=".37127"/>
    <ellipse transform="matrix(.9935 -.11384 .064345 .99793 0 0)" cx="5.0387" cy="56.244" rx=".15673" ry=".37127"/>
    <ellipse transform="matrix(.9935 -.11384 .064345 .99793 0 0)" cx="5.7964" cy="55.784" rx=".15673" ry=".37127"/>
   </g>
   <path d="m11.249 55.775c0.2917 8e-3 0.47724 0.16849 0.50222 0.30042 0.0251 0.13194-0.16328 0.23341-0.35741 0.21116-0.29339-0.03368-0.46026-0.14961-0.48522-0.2816-0.02488-0.13192 0.04867-0.23808 0.34041-0.23" fill="#71c837" stroke="#5aa02c" stroke-width=".098866"/>
   <ellipse transform="matrix(-.050072 .99875 -.9924 -.12309 0 0)" cx="54.309" cy="-13.712" rx=".17999" ry=".40531" fill="#dde9af" stroke="#cdde87" stroke-width=".075371"/>
  </g>
  <g fill="none" stroke="#000" stroke-width=".2px">
   <path d="m17.093 59.696c-0.01305 0.14492 0.13414 0.10714 0.25 0.10714"/>
   <path d="m23.389 59.773c0.01305 0.14492-0.13414 0.10714-0.25 0.10714"/>
   <path d="m20.25 66.505c-0.01305 0.14492 0.13414 0.10714 0.25 0.10714"/>
  </g>
  <path d="m16.162 66.569 1.6633 1.2713 1.1073 0.08581 1.5893 0.06149 1.5865-0.08135 1.1784-0.04757 1.3806-1.4683-0.63816 1.3277-0.48651 1.2087-0.30526 0.97322-0.51649 1.978-1.069-1.2405-0.48426 0.28813-0.71084 0.87305-0.68444-1.3327-0.7506 0.78699-0.76669-1.1546-0.70033 0.40464c-0.07109-0.69669-0.0958-0.61319-0.22201-1.326l-0.45555-1.2178z" fill="#d4aa00" stroke="#a80" stroke-width=".23172"/>
  <g>
   <path d="m23.768 53.237c-0.08834 0.32996-0.17686 0.59523-0.31729 0.9288-0.54202 1.2876-1.5063 2.5398-2.9114 2.5398-1.4199 0-2.4811-1.1671-2.9876-2.4638-0.12461-0.31898-0.12076-0.69326-0.19056-1.0049-0.1481-0.66113-2.6704-3.3954-1.9998-2.9967 2.8255 1.8082 2.8987-0.23329 4.4709-0.26988 0.11024 0 1.2041-0.13776 1.6636 0.0063 0.23959 0.09712 0.59756 0.21835 0.87867 0.44921 0.46972 0.38577 0.86065 0.89664 1.1204 0.78712 1.1974-0.58047 1.7805-0.63099 2.6391-1.0593 0.66987-0.33411-2.1705 2.3533-2.3659 3.0832z" fill="#71c837" stroke="#5aa02c" stroke-width=".24474"/>
   <path d="m18.232 53.777c1.1184 0.56647 1.4666 1.0007 2.3984 1.0089 1.0503-0.089 1.6829-0.79391 2.1796-1.0031-0.23712 0.67616-0.6539 1.2925-1.1492 1.7528-0.37408 0.28484-0.67565 0.41132-1.1342 0.42955-0.53233-0.05604-0.75676-0.22067-1.1249-0.55687-0.45642-0.41678-1.0091-1.0589-1.1697-1.6312z" stroke="#d40055" stroke-width=".1572"/>
   <g fill="#fea" stroke="#ffe680">
    <g stroke-width=".044149">
     <path d="m20.439 55.241c-0.07317-0.1981-0.06635-0.21658-0.08411-0.36505-0.0057-0.04785 0.0479-0.06131 0.08411-0.06229 0.03325 0 0.06334 0.02425 0.08501 0.0634-0.0078 0.14107-0.03196 0.19159-0.08501 0.36394z"/>
     <path d="m20.739 55.246c-0.07317-0.1981-0.06635-0.21658-0.08411-0.36505-0.0057-0.04785 0.0479-0.06131 0.08411-0.06229 0.03325 0 0.06334 0.02425 0.08501 0.0634-0.0078 0.14107-0.03196 0.19159-0.08501 0.36394z"/>
     <path d="m20.58 55.486c-0.07317 0.1981-0.06635 0.21658-0.08411 0.36505-0.0057 0.04785 0.0479 0.06131 0.08411 0.06229 0.03325 0 0.06334-0.02425 0.08501-0.0634-0.0078-0.14107-0.03196-0.19159-0.08501-0.36394z"/>
     <path d="m20.865 55.465c-0.07317 0.1981-0.06635 0.21658-0.08411 0.36505-0.0057 0.04785 0.0479 0.06131 0.08411 0.06229 0.03325 0 0.06334-0.02425 0.08501-0.0634-0.0078-0.14107-0.03196-0.19159-0.08501-0.36394z"/>
     <path d="m20.316 55.487c-0.07317 0.1981-0.06635 0.21658-0.08411 0.36505-0.0057 0.04785 0.0479 0.06131 0.08411 0.06229 0.03325 0 0.06334-0.02425 0.08501-0.0634-0.0078-0.14107-0.03196-0.19159-0.08501-0.36394z"/>
     <path d="m21.012 55.158c-0.07317-0.1981-0.06635-0.21658-0.08411-0.36505-0.0057-0.04785 0.0479-0.06131 0.08411-0.06229 0.03325 0 0.06334 0.02425 0.08501 0.0634-0.0078 0.14107-0.03196 0.19159-0.08501 0.36394z"/>
    </g>
    <path d="m21.419 55.277c-0.05285 0.18185-0.04792 0.19882-0.06075 0.3351-0.0041 0.04393 0.0346 0.05628 0.06075 0.05718 0.02401 0 0.04575-0.02226 0.0614-0.0582-0.0056-0.1295-0.02308-0.17587-0.0614-0.33408z" stroke-width=".035948"/>
    <g stroke-width=".044149">
     <path d="m20.155 55.18c-0.07317-0.1981-0.06635-0.21658-0.08411-0.36505-0.0057-0.04785 0.0479-0.06131 0.08411-0.06229 0.03325 0 0.06334 0.02425 0.08501 0.0634-0.0078 0.14107-0.03196 0.19159-0.08501 0.36394z"/>
     <path d="m21.271 55.095c-0.07317-0.1981-0.06635-0.21658-0.08411-0.36505-0.0057-0.04785 0.0479-0.06131 0.08411-0.06229 0.03325 0 0.06334 0.02425 0.08501 0.0634-0.0078 0.14107-0.03196 0.19159-0.08501 0.36394z"/>
     <path d="m21.155 55.384c-0.07317 0.1981-0.06635 0.21658-0.08411 0.36505-0.0057 0.04785 0.0479 0.06131 0.08411 0.06229 0.03325 0 0.06334-0.02425 0.08501-0.0634-0.0078-0.14107-0.03196-0.19159-0.08501-0.36394z"/>
    </g>
    <path d="m21.636 55.169c-0.0368 0.15133-0.03041 0.16475-0.03131 0.27625-2.55e-4 0.03594 0.03937 0.04322 0.0655 0.04209 0.02392-0.0017 0.04364-0.02131 0.05609-0.05159-0.01686-0.10469-0.03832-0.14108-0.09028-0.26676z" stroke-width=".032446"/>
    <path d="m21.845 54.982c-0.0368 0.15133-0.03041 0.16475-0.03131 0.27625-2.55e-4 0.03594 0.03937 0.04322 0.0655 0.04209 0.02392-0.0017 0.04364-0.02131 0.05609-0.05159-0.01686-0.10469-0.03832-0.14108-0.09028-0.26676z" stroke-width=".032446"/>
    <path d="m22.031 54.773c-0.0362 0.13662-0.02992 0.14874-0.0308 0.24941-2.51e-4 0.03245 0.03873 0.03902 0.06444 0.038 0.02353-0.0015 0.04293-0.01924 0.05518-0.04658-0.01659-0.09452-0.0377-0.12737-0.08882-0.24083z" stroke-width=".030579"/>
    <path d="m22.201 54.648c-0.02974 0.11231-0.02458 0.12227-0.0253 0.20502-2.06e-4 0.02667 0.03182 0.03208 0.05293 0.03124 0.01933-0.0013 0.03527-0.01581 0.04533-0.03829-0.01362-0.0777-0.03097-0.10471-0.07296-0.19798z" stroke-width=".025128"/>
    <path d="m21.523 54.946c-0.07317-0.1657-0.06914-0.18211-0.09447-0.30888-0.0082-0.04085 0.0335-0.05619 0.06224-0.05956 0.02646-0.0023 0.05223 0.0165 0.07243 0.04874 0.0045 0.12216-0.01099 0.16741-0.0402 0.3197z" stroke-width=".03671"/>
    <path d="m21.718 54.832c-0.06051-0.15704-0.05718-0.1726-0.07813-0.29273-0.0068-0.03872 0.02771-0.05325 0.05147-0.05645 0.02188-0.0022 0.0432 0.01564 0.0599 0.04619 0.0037 0.11578-0.0091 0.15866-0.03325 0.30299z" stroke-width=".0325"/>
    <path d="m21.926 54.703c-0.05845-0.13711-0.05713-0.1513-0.08254-0.25788-0.0082-0.03434 0.01692-0.0497 0.03478-0.05416 0.0165-0.0035 0.03414 0.01118 0.04927 0.03752 0.01189 0.10381 0.0055 0.1432-0.0015 0.27452z" stroke-width=".026996"/>
    <path d="m22.102 54.587c-0.05845-0.13711-0.05713-0.1513-0.08254-0.25788-0.0082-0.03434 0.01692-0.0497 0.03478-0.05416 0.0165-0.0035 0.03414 0.01118 0.04927 0.03752 0.01189 0.10381 0.0055 0.1432-0.0015 0.27452z" stroke-width=".026996"/>
    <path d="m19.702 55.229c0.05285 0.18185 0.04792 0.19882 0.06075 0.3351 0.0041 0.04393-0.0346 0.05628-0.06075 0.05718-0.02401 0-0.04575-0.02226-0.0614-0.0582 0.0056-0.1295 0.02308-0.17587 0.0614-0.33408z" stroke-width=".035949"/>
    <path d="m19.867 55.091c0.07317-0.1981 0.06635-0.21658 0.08411-0.36505 0.0057-0.04785-0.0479-0.06131-0.08411-0.06229-0.03325 0-0.06334 0.02425-0.08501 0.0634 0.0078 0.14107 0.03196 0.19159 0.08501 0.36394z" stroke-width=".044149"/>
    <path d="m20.005 55.398c0.07317 0.1981 0.06635 0.21658 0.08411 0.36505 0.0057 0.04785-0.0479 0.06131-0.08411 0.06229-0.03325 0-0.06334-0.02425-0.08501-0.0634 0.0078-0.14107 0.03196-0.19159 0.08501-0.36394z" stroke-width=".044149"/>
    <path d="m19.453 55.076c0.0368 0.15133 0.03041 0.16475 0.03131 0.27625 2.56e-4 0.03594-0.03937 0.04322-0.0655 0.04209-0.02392-0.0017-0.04364-0.02131-0.05609-0.05159 0.01686-0.10469 0.03832-0.14108 0.09028-0.26676z" stroke-width=".032446"/>
    <path d="m19.222 54.853c0.0368 0.15133 0.03041 0.16475 0.03131 0.27625 2.54e-4 0.03594-0.03937 0.04322-0.0655 0.04209-0.02392-0.0017-0.04364-0.02131-0.05609-0.05159 0.01686-0.10469 0.03832-0.14108 0.09028-0.26676z" stroke-width=".032446"/>
    <path d="m19.023 54.639c0.0362 0.13662 0.02992 0.14874 0.0308 0.24941 2.5e-4 0.03245-0.03873 0.03902-0.06444 0.038-0.02353-0.0015-0.04293-0.01924-0.05518-0.04658 0.01659-0.09452 0.0377-0.12737 0.08882-0.24083z" stroke-width=".030579"/>
    <path d="m18.786 54.479c0.02974 0.11231 0.02458 0.12227 0.0253 0.20502 2.06e-4 0.02667-0.03182 0.03208-0.05293 0.03124-0.01933-0.0013-0.03527-0.01581-0.04533-0.03829 0.01362-0.0777 0.03097-0.10471 0.07296-0.19798z" stroke-width=".025128"/>
    <path d="m19.57 54.92c0.07317-0.1657 0.06914-0.18211 0.09447-0.30888 0.0082-0.04085-0.0335-0.05619-0.06224-0.05956-0.02646-0.0023-0.05223 0.0165-0.07243 0.04874-0.0045 0.12216 0.01099 0.16741 0.0402 0.3197z" stroke-width=".03671"/>
    <path d="m19.331 54.792c0.06051-0.15704 0.05718-0.1726 0.07813-0.29273 0.0068-0.03872-0.02771-0.05325-0.05147-0.05645-0.02188-0.0022-0.0432 0.01564-0.0599 0.04619-0.0037 0.11578 0.0091 0.15866 0.03325 0.30299z" stroke-width=".0325"/>
    <path d="m19.128 54.605c0.05845-0.13711 0.05713-0.1513 0.08254-0.25788 0.0082-0.03434-0.01692-0.0497-0.03478-0.05416-0.0165-0.0035-0.03414 0.01118-0.04927 0.03752-0.01189 0.10381-0.0055 0.1432 0.0015 0.27452z" stroke-width=".026996"/>
    <path d="m18.897 54.524c0.05845-0.13711 0.05713-0.1513 0.08254-0.25788 0.0082-0.03434-0.01692-0.0497-0.03478-0.05416-0.0165-0.0035-0.03414 0.01118-0.04927 0.03752-0.01189 0.10381-0.0055 0.1432 0.0015 0.27452z" stroke-width=".026996"/>
   </g>
   <path d="m25.898 50.445-2.2748 2.4561 0.0617-1.3684z" fill="#5aa02c" fill-opacity=".96471" stroke="#71c837" stroke-width=".1632"/>
   <g>
    <path d="m15.596 50.547 1.8462 2.3579-0.29385-1.5916z" fill="#5aa02c" stroke="#71c837" stroke-width=".1632"/>
    <path d="m20.154 53.949-0.0046-0.07791 0.23936-0.28324 0.15345-0.52184c0.05042-0.07531 0.06534-0.03149 0.11772 0.0014l0.1664 0.51778 0.21997 0.27516-0.0088 0.08959-0.22744 0.02567-0.0434 0.17979 0.0019 0.09238-0.04863 0.10601-0.09915 0.07716-0.10151-0.06809-0.06374-0.10306-0.02135-0.10417-0.09539-0.19109z" fill="#71c837" stroke="#5ba12c" stroke-width=".18056"/>
    <path d="m19.951 52.93c0.07111 0.34325-0.27711 0.38441-0.54162 0.34766-0.34132-0.05901-0.50351-0.27198-0.59427-0.48819 0.27754-0.37463 0.90023-0.15294 1.1359 0.14052z" fill="#f00" stroke="#d40000" stroke-width=".16"/>
    <path d="m21.238 52.937c-0.07111 0.34325 0.27711 0.38441 0.54162 0.34766 0.34132-0.05901 0.50351-0.27198 0.59427-0.48819-0.27754-0.37463-0.90023-0.15294-1.1359 0.14052z" fill="#f00" stroke="#d40000" stroke-width=".16"/>
   </g>
   <path d="m22.753 52.095c-0.05816-0.09244-0.20787-0.14362-0.30941-0.1538-0.17455-0.0043-0.38656 0.04466-0.57743 0.19132-0.15233 0.10211-0.23938 0.16764-0.3576 0.22889-0.15539 0.08051-0.0648 0.04466-0.15539 0.08051-0.10248 0.03858-0.17458 0.06673-0.24077-0.06771" fill="none" stroke="#5ba12c" stroke-width=".21328"/>
   <path d="m18.424 52.095c0.05816-0.09244 0.20787-0.14362 0.30941-0.1538 0.17455-0.0043 0.38656 0.04466 0.57743 0.19132 0.15233 0.10211 0.23938 0.16764 0.3576 0.22889 0.15539 0.08051 0.0648 0.04466 0.15539 0.08051 0.10248 0.03858 0.17458 0.06673 0.24077-0.06771" fill="none" stroke="#5ba12c" stroke-width=".21328"/>
  </g>
 </g>
</svg>
