<svg width="200" height="400" version="1.1" viewBox="0 0 40 80" xmlns="http://www.w3.org/2000/svg">
 <g stroke-width=".2372">
  <path d="m17.134 42.149a6 5 0 0 1 4.5307 4.5078 6 5 0 0 1-3.7478 4.982l-2.238-4.6391z" opacity="0"/>
  <ellipse cx="19.679" cy="33" rx="6" ry="4" opacity="0"/>
  <path d="m26.1 31.004a6.1786 5.25 0 0 1 5.7785 4.069 6.1786 5.25 0 0 1-3.1053 5.8054" opacity="0"/>
  <path d="m22.797 31.002a3 2 0 0 1 2.8057 1.5501 3 2 0 0 1-1.5078 2.2116" opacity="0"/>
  <path d="m16.954 27.009a7 12 0 0 1 6.5467 9.3007 7 12 0 0 1-3.5182 13.27" opacity="0"/>
  <path d="m10.2 71.8-2.2613 0.81982-0.60663 2.3276-1.4785-1.8973-2.4011 0.14232 1.3476-1.9924-0.87735-2.2396 2.3113 0.66593 1.8589-1.5265 0.080904 2.404z" opacity="0"/>
  <rect x="1" y="69.6" width="3.6" height="1.8" opacity="0"/>
  <circle cx="4.9" cy="67.3" r=".5" opacity="0"/>
  <ellipse cx="6.4" cy="68.618" rx="1" ry=".61803" opacity="0"/>
  <ellipse cx="5.8" cy="68.9" rx="1.6" ry="1.7" opacity="0"/>
 </g>
 <g transform="matrix(1.1222 0 0 1.2826 -1.8562 -21.91)">
  <path d="m18.71 75.23c-0.71636-0.0216-1.0382 0.02433-1.4086 0.09257-0.04168 0.0077-0.16445 0.01961-0.20122 0.02645-0.04137 0.0077-0.07701 0.0055-0.11837 0.01321-0.02699 5e-3 -0.04402 0.02142-0.07103 0.02645-0.10439 0.01943-0.2215 0.05589-0.33144 0.06613-0.03114 0.0028-0.06356-0.0028-0.09469 0-0.1397 0.01306-0.27843 0.05794-0.40245 0.09257-0.05429 0.01517-0.09308 0.0082-0.14204 0.02645-0.02732 0.01009-0.04371 0.02951-0.07103 0.03968-0.01534 0.0056-0.08445 0.02072-0.09469 0.02645-0.0826 0.04615-0.09627 0.10698-0.16572 0.1587-0.09935 0.074-0.15194 0.1527-0.21306 0.23805-0.03505 0.04893-0.09954 0.09288-0.11837 0.14547-0.05104 0.23366-0.07588 0.43735 0.09469 0.60837 0.27304 0.29246 1.0993 0.43724 1.1363 0.44965 0.06747 0.02261 0.21475 0.0516 0.28409 0.06611 0.1005 0.02105 0.20455 0.03643 0.30776 0.0529 0.09859-3.01e-4 0.1636 0.01652 0.23673 0.03968 0.108 0.0025 0.17124 0.0149 0.26041 0.03968 0.09983 0.01587 0.20492 0.01861 0.30776 0.02645 0.36207 0.0289 0.72275 0.02645 1.089 0.02645h2.9592c0.21899 0 0.50418 0.02515 0.71021-0.01321 0.02117-0.0039 0.02738-0.02087 0.04735-0.02645 0.0199-0.0055 0.08093-0.0055 0.09469-0.01321 0.0056-0.0031-0.0071-0.01128 0-0.01321 0.04772-1.43e-4 0.08019-0.01835 0.11837-0.03968 0.02306-0.01291 0.03999-0.06202 0.07103-0.07934 0.03156-0.01763 0.02272 0.02805 0.04735-0.01321 0.0028-0.0045 0.0087-0.07447 0-0.07934-0.1139-0.01455-0.26524 0.06402-0.35512 0.08993-0.1908 0.02665-0.08679-0.02464-0.26515 0-0.07334 0.01366-0.46409-0.01054-0.53975-0.01054h-0.68653c-0.90985-0.04058-2.0209 0.03033-2.9448-0.02641-0.70287-0.04315-1.2577-0.19642-1.7663-0.31745-0.07264-0.0082-0.2476-0.07017-0.30776-0.09257-0.09647-0.03594-0.17202-0.10138-0.21306-0.1587-0.01756-0.02452-0.05143-0.04424-0.07103-0.06613-0.02143-0.07787 8.62e-4 -0.2051 0.02368-0.25128 0.02978-0.37751 0.58387-0.51762 1.0653-0.68771 0.01858-7e-3 0.02738-0.02087 0.04735-0.02645 0.0071-0.0019 0.01579 0 0.02368 0 0.03156-0.0045 0.06561-0.0052 0.09471-0.01321 0.0071-0.0019 0-0.0088 0-0.01321 0.01579-0.0045 0.0306-0.01009 0.04735-0.01321 0.37947-0.02034 1.0106-0.07921 1.2052-0.10006 0.04732-0.03395 0.54587-0.1143 0.30993-0.29667" fill="#ac9393" stroke="#916f6f" stroke-width=".099089px"/>
  <g fill="none" stroke="#6c5353" stroke-width=".30332px">
   <path d="m18.401 74.933c-0.06079 0.03857-0.06486 0.10846-0.0928 0.16735-0.0079 0.0166-0.02084 0.03056-0.02935 0.04686-0.01938 0.03714-0.02337 0.08408-0.03912 0.12182-0.01348 0.03243-0.03121 0.06319-0.04892 0.09371-0.03335 0.0575-0.09184 0.10132-0.13696 0.14995-0.0988 0.10648-0.15904 0.1945-0.29348 0.27178-0.04517 0.02598-0.09847 0.036-0.14674 0.05623-0.05318 0.02229-0.13811 0.06104-0.18588 0.09372-0.0074 0.0052-0.01131 0.01484-0.01957 0.01873-0.06302 0.03019-0.13388 0.05053-0.19566 0.08434-0.0081 0.0045-0.01302 0.01247-0.01957 0.01873-0.0163 0.0094-0.03153 0.02072-0.04892 0.02811-0.01224 0.0052-0.0271 0.0036-0.03913 0.0094-0.02772 0.01321-0.08246 0.04955-0.10761 0.0656-9e-3 0.0058-0.04782 0.04606-0.0587 0.03748-0.0304-0.02388-0.05808-0.05083-0.08711-0.07627"/>
   <path d="m17.781 75.823c-0.14125 0.10401-0.22849 0.2358-0.32409 0.37321-0.02138 0.03073-0.04625 0.0486-0.0587 0.08434-2e-3 0.0059 0.0029 0.01321 0 0.01873-0.0023 0.0045-0.045 0.04266-0.03913 0.04686 0.03584 0.02559 0.07469 0.04708 0.11203 0.07061"/>
   <path d="m17.781 75.823c0.07862-0.02259 0.14214-0.07003 0.1259 0.0077-5e-3 0.02396-0.03056 0.04508-0.03913 0.0656-0.0062 0.01484-0.0023 0.03261-0.0098 0.04686-0.01931 0.03699-0.03088 0.07792-0.04892 0.11246-0.0039 0.0076 0.0039 0.02063 0 0.02811-0.0054 0.01024-0.03158 0.0657-0.02808 0.03613"/>
   <path d="m19.362 74.997c0.06079 0.03857 0.06486 0.10846 0.0928 0.16735 0.0079 0.0166 0.02084 0.03056 0.02935 0.04686 0.01938 0.03714 0.02337 0.08408 0.03912 0.12182 0.01348 0.03244 0.03121 0.06319 0.04892 0.09371 0.03335 0.05751 0.09184 0.10132 0.13696 0.14995 0.0988 0.10648 0.15904 0.1945 0.29348 0.27178 0.04517 0.02598 0.09847 0.036 0.14674 0.05623 0.05318 0.02229 0.13811 0.06104 0.18588 0.09372 0.0074 0.0052 0.01131 0.01484 0.01957 0.01873 0.06302 0.03019 0.13388 0.05053 0.19566 0.08434 0.0081 0.0045 0.01302 0.01247 0.01957 0.01873 0.0163 0.0094 0.03153 0.02072 0.04892 0.02811 0.01224 0.0052 0.0271 0.0036 0.03913 0.0094 0.02772 0.01321 0.08246 0.04955 0.10761 0.0656 9e-3 0.0058 0.04782 0.04606 0.0587 0.03748 0.0304-0.02388 0.05807-0.05083 0.08711-0.07627"/>
   <path d="m19.982 75.888c0.14125 0.10401 0.22849 0.2358 0.32409 0.37321 0.02138 0.03073 0.04625 0.0486 0.0587 0.08434 2e-3 0.0059-0.0029 0.01321 0 0.01873 0.0023 0.0045 0.045 0.04266 0.03912 0.04686-0.03584 0.02559-0.07469 0.04709-0.11203 0.07061"/>
   <path d="m19.982 75.888c-0.07862-0.02259-0.14214-0.07003-0.1259 0.0077 5e-3 0.02396 0.03056 0.04508 0.03912 0.0656 0.0062 0.01484 0.0023 0.03261 0.0098 0.04686 0.01931 0.03699 0.03088 0.07792 0.04892 0.11246 0.0039 0.0076-0.0039 0.02063 0 0.02811 0.0054 0.01024 0.03158 0.0657 0.02808 0.03613"/>
  </g>
  <path d="m20.88 73.448c0 1.4255-0.93988 2.1392-2.1273 2.1392-1.1874 0-2.1729-0.71374-2.1729-2.1392 0-0.6982 0.33344-1.2361 0.70862-1.7007 0.39082-0.484 0.83568-0.88034 1.4415-0.88034 0.6357 0 1.1045 0.40282 1.4981 0.92926 0.3417 0.45697 0.65204 0.98943 0.65204 1.6518z" fill="#666" stroke="#4d4d4d" stroke-width=".16152"/>
  <ellipse cx="18.747" cy="73.534" rx="2.1571" ry=".3452" opacity="0" stroke-width=".13283"/>
  <g transform="matrix(.55003 0 0 .57013 8.9998 39.215)" fill="#666" stroke="#4d4d4d">
   <path d="m20.434 54.841c0.11222 0.16631 0.27968 0.68296 0.73123 0.68275 0.42834 0 0.64574 0 1.1786-0.43963 0.26202-0.21619 0.47702-0.77888 0.47702-1.1421 0-0.87686-0.85838-1.5274-1.1814-1.4112-0.67312 0.694-1.7057 1.566-1.2054 2.3102z" stroke-width=".54382"/>
   <path d="m15.5 54.835c-0.11222 0.16631-0.27968 0.68296-0.73123 0.68275-0.42834 0-0.64574 0-1.1786-0.43963-0.26202-0.21619-0.47702-0.77888-0.47702-1.1421 0-0.87686 0.85838-1.5274 1.1814-1.4112 0.67312 0.694 1.7057 1.566 1.2054 2.3102z" stroke-width=".54382"/>
   <path d="m21.6 56.4c0-0.94022-0.67962-1.4805-1.0882-1.8372-0.6045-0.52772-1.5209-0.6069-2.7362-0.6069-1.0868 0-1.5476-0.13633-2.2329 0.52801-0.5989 0.5806-1.318 0.82877-1.318 1.9161 0 1.1419 0.57186 2.0217 1.2153 2.7816 0.67028 0.79159 1.4332 1.4398 2.4723 1.4398 1.0903 0 1.8942-0.65882 2.5694-1.5198 0.58602-0.74738 1.1183-1.6182 1.1183-2.7016z" stroke-width=".2705"/>
  </g>
  <g transform="matrix(.55003 0 0 .57013 8.9998 39.215)">
   <ellipse transform="matrix(.71968 -.69431 .71968 .69431 0 0)" cx="-29.199" cy="52.451" rx=".13882" ry=".24335" stroke="#000" stroke-width=".21798"/>
   <ellipse transform="matrix(.71968 .69431 -.71968 .69431 0 0)" cx="54.076" cy="27.592" rx=".13882" ry=".24335" stroke="#000" stroke-width=".21798"/>
   <ellipse cx="17.909" cy="58.675" rx=".39952" ry=".21163" fill="#ff80b2" stroke="#ff80b2" stroke-width=".1991"/>
  </g>
  <g transform="matrix(.55003 0 0 .57013 10.027 34.084)" aria-label="+">
   <path d="m16.556 68.56-0.36771 2e-3 -0.07674 0.238h-0.08889l-0.12256-0.23803-0.41076-2e-3 0.35556-0.16h0.08889l0.08889-0.24h0.08889l0.08889 0.24h0.08889z" fill="#fae" stroke-width=".084327"/>
  </g>
  <g fill="none" stroke="#6c5353" stroke-width=".24896px">
   <path d="m19.572 74.137c-0.09683 0.07318-0.17688 0.11781-0.24716 0.2174-0.02362 0.03346-0.03274 0.07294-0.05114 0.1087-0.02028 0.03939-0.05551 0.1023-0.08524 0.13769-0.0047 0.0055-0.0135 0.0084-0.01704 0.0145-0.02746 0.04668-0.04595 0.09917-0.0767 0.14493-0.0041 6e-3 -0.01134 0.0096-0.01704 0.0145-0.0085 0.01208-0.01885 0.02336-0.02557 0.03624-0.0047 0.0091-0.0032 0.02008-0.0085 0.02898-0.01202 0.02054-0.04506 0.06109-0.05966 0.07972-0.0053 0.0067-0.04189 0.03542-0.03409 0.04348 0.02172 0.02252 0.04622 0.04302 0.06936 0.06453"/>
   <path d="m19.29 74.339c-0.09459 0.10463-0.21444 0.16926-0.33941 0.24008-0.02794 0.01584-0.0442 0.03426-0.0767 0.04348-0.0054 0.0015-0.01201-0.0022-0.01704 0-4e-3 0.0017-0.0388 0.03333-0.04262 0.02898-0.02327-0.02655-0.04282-0.05532-0.06422-0.08299"/>
   <path d="m19.29 74.339c0.02055-0.05824 0.06369-0.10529-7e-3 -0.09326-0.02179 0.0037-0.041 0.02264-0.05965 0.02898-0.0135 0.0046-0.02966 0.0017-0.04262 0.0072-0.03364 0.0143-0.07086 0.02288-0.10227 0.03624-0.0069 0.0029-0.01876-0.0029-0.02557 0-0.0093 4e-3 -0.05975 0.02339-0.03286 0.0208"/>
  </g>
  <g stroke="#6c5353" stroke-width=".24896px">
   <path d="m17.754 74.042c0.09683 0.07318 0.17688 0.11781 0.24716 0.2174 0.02363 0.03346 0.03274 0.07294 0.05114 0.1087 0.02028 0.03939 0.05551 0.1023 0.08524 0.13769 0.0047 0.0055 0.0135 0.0084 0.01704 0.0145 0.02746 0.04668 0.04595 0.09917 0.0767 0.14493 0.0041 6e-3 0.01134 0.0096 0.01704 0.0145 0.0085 0.01207 0.01885 0.02336 0.02557 0.03624 0.0047 0.0091 0.0032 0.02007 0.0085 0.02898 0.01202 0.02053 0.04506 0.06109 0.05965 0.07972 0.0053 0.0067 0.04189 0.03542 0.03409 0.04348-0.02172 0.02252-0.04622 0.04302-0.06936 0.06453" fill="#6c5353"/>
   <path d="m18.036 74.244c0.09459 0.10463 0.21444 0.16926 0.33941 0.24008 0.02794 0.01584 0.0442 0.03426 0.0767 0.04348 0.0054 0.0015 0.01201-0.0022 0.01704 0 4e-3 0.0017 0.0388 0.03333 0.04262 0.02898 0.02327-0.02655 0.04282-0.05532 0.06422-0.08299" fill="none"/>
   <path d="m18.036 74.244c-0.02055-0.05824-0.06369-0.10529 7e-3 -0.09326 0.02179 0.0037 0.041 0.02264 0.05965 0.02898 0.0135 0.0046 0.02966 0.0017 0.04262 0.0072 0.03364 0.0143 0.07086 0.02288 0.10227 0.03624 0.0069 0.0029 0.01876-0.0029 0.02557 0 0.0093 4e-3 0.05975 0.02339 0.03286 0.0208" fill="#6c5353"/>
  </g>
 </g>
</svg>
