<svg width="200" height="400" version="1.1" viewBox="0 0 40 80" xmlns="http://www.w3.org/2000/svg">
 <g transform="translate(0 .41799)">
  <g transform="translate(0,-5.6)">
   <path d="m22.733 47.536-17.336 1.6592-4.6344 0.97266 4.8061-0.22886 17.165-2.0025z" stroke="#000" stroke-width=".16426px"/>
   <g stroke-width=".2px">
    <path transform="matrix(.82128 0 0 .82128 14.504 5.8482)" d="m18.195 41.141-4.1556 9.7954-4.0887 5.0246-5.9606 3.1034-6.1084 2.069-2.8079 0.83744 5.3695-0.19704 1.8719 1.3793 2.6108-0.34483 1.8719 1.0837 3.0049-0.73892 2.4138 1.133 2.6108-0.29557 2.069 0.93596 2.0197-0.83744 2.069-0.19704 1.9368-9.5237 1.6288-11.869-3.2524-0.12685z" fill="#660080" stroke="#405"/>
    <g transform="matrix(.82128 0 0 .82128 9.0017 4.7963)" fill="#4d4d4d" stroke="#333">
     <g transform="translate(6.6995,1.2808)">
      <path d="m16 53-4.2914 6.0962-1.7086 2.9038 1.1666 1.3939 2.303-0.07576 4.5794-4.4356 1.951-2.8825-0.04926-2.0641z"/>
      <path d="m13.47 63.318-1.6509 3.958-3.586 2.5759-1.9193 2.1213-0.20203 1.0607-3.283 1.2122-1.8688-0.50508 1.0102-0.80812 1.4142-0.6566 1.1617-0.95964 3.6871-6.7175 1.7673-2.5993 1.1666 1.3939z" stroke-opacity=".53333"/>
      <path d="m24.562 54.947 2.0123 4.7043 1.052 4.318-2.2273 1.3434-2.8586-0.63134-1.5489-5.2437-0.99132-3.4381 0.06436-2.0526z"/>
      <path d="m22.541 64.682-0.14935 2.3395 1.1617 3.8891 0.50508 1.8688-0.55558 1.0102 0.55558 2.1718 1.3132 1.4647 1.3637-0.60609 0.35355-1.8183-1.2122-2.3234 1.9193-5.2528-0.16905-3.4556-2.2273 1.3434z"/>
     </g>
     <path transform="translate(6.6995,1.2808)" d="m12.801 56.846 2.989 0.15729 1.1535-2.9503-0.2095 4.0037 5.9781 0.31458 0.2095-4.0037 0.83922 3.0552 2.989 0.15728-1.7832-4.1085 0.15713-3.0027 1.0958-2.058 0.45233-3.9414-2.1214-1.9706-1.9423 0.81156-3.3826-0.75343-1.3265-0.97315-1.8272 1.8123-0.16042 4.0062 0.24535 2.5948-0.15712 3.0027z"/>
     <path transform="translate(6.6995,1.2808)" d="m19.226 42.557-0.01412-4.5768 1.1823-1.7734 1.4286-0.6404 1.2315 0.59114 1.0345 1.8227-0.19704 4.6798-1.9212 1.3793z"/>
    </g>
    <path transform="matrix(.82128 0 0 .82128 14.504 5.8482)" d="m20.542 38.867 2.069 0.64039 1.2315-0.54187-1.0345 1.2808-0.09852 2.4631h-0.54187l0.04926-2.6601-1.6749-1.1823" stroke="#000"/>
    <g transform="matrix(.82128 0 0 .82128 9.0017 4.7963)" stroke="#333">
     <path transform="translate(6.6995,1.2808)" d="m18.195 41.141-1.9388-1.0421-1.8719 0.19705-1.33 1.5271-0.06363 1.2479-1.8083 2.7423-3.1034 2.1182-1.133 1.8227-0.54187 1.2808 0.34483 0.8867 0.78818 0.49261 0.64039-0.68966-0.29557-0.98522 0.8867-0.8867 4.4335-1.9212 2.5616-1.7241 0.30865-2.8106z" fill="#4d4d4d"/>
     <path transform="translate(6.6995,1.2808)" d="m11.182 45.813 0.78818 1.1823 0.09852 1.33" fill="#333"/>
     <path transform="translate(6.6995,1.2808)" d="m6.9458 49.754 1.8227 0.09852" fill="#333"/>
     <path transform="translate(6.6995,1.2808)" d="m24.551 42.499 1.9388-1.0421 1.8719 0.19705 1.33 1.5271 0.06363 1.2479-0.23604 3.9491-0.22168 2.266-5.777 2.6122-1.2111 0.93101-1.2315 0.04926-0.98522-0.54187 0.04926-1.133 0.83744-0.68966 2.0732-0.53692 1.644-1.6207 1.5234-1.3033 0.45368-3.6564z" fill="#4d4d4d"/>
    </g>
    <path transform="matrix(.82128 0 0 .82128 9.0017 4.7963)" d="m29.754 37.438 0.78818-0.98522 0.49261-1.5764v-0.98522l0.83744 2.069v1.5271l-1.0837 1.7734z" fill="none" stroke="#000"/>
   </g>
   <path transform="matrix(.16426 0 0 .16426 9.0017 4.7963)" d="m151.83 191.27c-1.1515-2.0284-2.1252-3.7748-2.1639-3.881-0.0387-0.10614 0.67228-1.1233 1.5799-2.2604s1.7387-2.1847 1.8469-2.328c0.41778-0.55327 2.6786-8.2271 2.6901-9.1309 0.0105-0.82374 0.20969-0.46787 1.4657 2.6181l1.4536 3.5714 0.0218 7.3892-2.2988 3.7574c-1.2644 2.0666-2.3445 3.8012-2.4002 3.8548-0.0558 0.0536-1.0435-1.5622-2.195-3.5906z"/>
   <path transform="matrix(.82128 0 0 .82128 9.0017 4.7963)" d="m26.989 37.514-0.78818-0.98522-0.49261-1.5764v-0.98522l-0.83744 2.069v1.5271l1.0141 1.5818z" fill="none" stroke="#000" stroke-width=".2px"/>
   <path transform="matrix(.16426 0 0 .16426 9.0017 4.7963)" d="m129.32 194.58c-0.0586-0.0925-1.0791-1.6847-2.2678-3.5382l-2.1613-3.3699-8.4e-4 -7.411 3.114-7.6952 0.011 1.1481 0.011 1.148 2.4974 8.0116 3.7689 4.7194-2.3955 3.5401c-1.3175 1.9471-2.4123 3.5571-2.4329 3.5778-0.0209 0.0211-0.0843-0.0364-0.1439-0.13062z"/>
   <g transform="matrix(.82128 0 0 .82128 -13.134 7.0926)">
    <g fill="none" stroke="#000">
     <path d="m48.504 49.693 1.2745-2.4703 7.4359-3.1482 2.4667 1.1748 4.6762 15.195-0.24677 5.2402-5.5717 2.2673-3.5953-3.6406z" stroke-width=".2px"/>
     <path d="m53.411 45.636 7.934 21.095" stroke-width=".20029px"/>
     <path d="m52.174 57.916 10.11-4.2093" stroke-width=".20065px"/>
    </g>
    <path d="m52.185 57.756c-0.03529-0.0951-3.3848-7.6955-3.4612-7.8537l-0.09221-0.1911 1.2419-2.4115 3.4751-1.4472 0.81694 2.1342c0.44931 1.1738 1.2874 3.4021 1.8624 4.9517l1.0454 2.8175-2.4385 1.0153c-1.5076 0.62767-2.4428 1.0037-2.4498 0.98494z" fill="#a0a0a0"/>
    <g fill="#fff">
     <path d="m62.632 66.164-1.1844 0.48292-1.3817-3.6562c-0.75996-2.0109-1.6704-4.434-2.0231-5.3847l-0.64136-1.7285 4.8184-2.0061 0.07195 0.25732c0.03958 0.14153 0.4931 1.6238 1.0078 3.2939l0.93589 3.0365-0.12134 2.5831c-0.11838 2.52-0.1235 2.5838-0.20954 2.611-0.04851 0.01537-0.62119 0.24524-1.2726 0.51085z"/>
     <path d="m53.181 57.348-0.973 0.39471-0.08071-0.16046c-0.0444-0.08825-0.16784-0.36606-0.27432-0.61734-0.10648-0.25129-0.26862-0.61748-0.36032-0.81376s-0.17732-0.38582-0.19026-0.42121c-0.05816-0.15908-1.1304-2.6113-1.156-2.6439-0.01579-0.02011-0.1132-0.2381-0.21646-0.48444-0.10327-0.24633-0.26273-0.6085-0.35438-0.8048s-0.17568-0.37817-0.18674-0.40414c-0.47843-1.1236-0.63562-1.477-0.68403-1.5378-0.0382-0.04798-0.05218-0.09772-0.03948-0.14042 0.01082-0.03637 0.2909-0.59544 0.62241-1.2424l0.60275-1.1763 3.442-1.4373 0.72173 1.8773c0.39695 1.0325 0.73486 1.9052 0.7509 1.9393s0.52914 1.4177 1.1402 3.0746l1.1111 3.0126-1.4512 0.5955c-0.79816 0.32751-1.889 0.77311-2.4242 0.99021z"/>
     <path d="m55.45 50.718c-1.5679-4.1614-1.8551-4.9456-1.8261-4.9847 0.01894-0.02555 0.83301-0.37919 1.809-0.78585l1.7746-0.73946 2.3681 1.1315 0.06459 0.20251c0.03553 0.11138 0.60326 1.9508 1.2616 4.0877 0.65837 2.1368 1.2077 3.914 1.2208 3.9492 0.02352 0.06339-3.82e-4 0.07408-2.3942 1.0707l-2.4179 1.0067z"/>
     <path d="m59.216 67.55-0.64459 0.25751-3.5378-3.5854-1.3042-2.96c-0.7173-1.628-1.3297-3.0286-1.361-3.1124l-0.05678-0.15244 4.8392-2.0147 0.09216 0.1933c0.05069 0.10632 0.96674 2.5273 2.0357 5.38l1.9435 5.1867-0.68075 0.27499c-0.37441 0.15124-0.97082 0.39086-1.3253 0.53249z"/>
    </g>
    <path d="m60.334 63.587c-0.64831-1.6424-1.5705-4.0421-2.0494-5.3326l-0.87061-2.3464 4.8025-1.9995 0.07091 0.31122c0.039 0.17118 0.48713 1.6452 0.99584 3.2757l0.92494 2.9645-0.1174 2.4134c-0.06457 1.3273-0.11983 2.4733-0.1228 2.5467-0.0039 0.09717-0.33745 0.27155-1.2304 0.6433l-1.225 0.50999z" fill="#660080"/>
    <path d="m52.96 57.37c-0.77225 0.28632-0.77548 0.28648-0.86689 0.04151-0.0504-0.13526-0.83158-1.9185-1.7358-3.9629-1.3025-2.9447-1.6287-3.7493-1.57-3.8726 0.04075-0.08557 0.32621-0.64174 0.63437-1.2359l0.56028-1.0803 3.2588-1.3568 0.67284 1.6239c0.37006 0.89314 1.2239 3.109 1.8974 4.9241l1.2245 3.3002-1.6502 0.66568c-0.90759 0.36613-1.999 0.79501-2.4253 0.95308z" fill="#660080"/>
   </g>
   <g stroke-width=".16426px">
    <path d="m19.949 47.791 1.3654-0.10114" fill="none" stroke="#000"/>
    <path d="m20.03 47.942 1.0923-0.09103" fill="#333" stroke="#333"/>
    <path d="m19.568 48.111 0.28296-1.4631-0.03911-1.0918 0.28795 0.51123 0.10887 0.64291-0.60884 2.8956-0.29087 0.29843-0.32321 0.12495 0.28956-0.46716z" stroke="#000"/>
   </g>
  </g>
 </g>
</svg>
