<svg width="200" height="400" version="1.1" viewBox="0 0 40 80" xmlns="http://www.w3.org/2000/svg">
 <g stroke-width=".2372">
  <path d="m17.134 42.149a6 5 0 0 1 4.5307 4.5078 6 5 0 0 1-3.7478 4.982l-2.238-4.6391z" opacity="0"/>
  <ellipse cx="19.679" cy="33" rx="6" ry="4" opacity="0"/>
  <path d="m26.1 31.004a6.1786 5.25 0 0 1 5.7785 4.069 6.1786 5.25 0 0 1-3.1053 5.8054" opacity="0"/>
  <path d="m22.797 31.002a3 2 0 0 1 2.8057 1.5501 3 2 0 0 1-1.5078 2.2116" opacity="0"/>
  <path d="m16.954 27.009a7 12 0 0 1 6.5467 9.3007 7 12 0 0 1-3.5182 13.27" opacity="0"/>
  <path d="m10.2 71.8-2.2613 0.81982-0.60663 2.3276-1.4785-1.8973-2.4011 0.14232 1.3476-1.9924-0.87735-2.2396 2.3113 0.66593 1.8589-1.5265 0.080904 2.404z" opacity="0"/>
  <rect x="1" y="69.6" width="3.6" height="1.8" opacity="0"/>
  <circle cx="4.9" cy="67.3" r=".5" opacity="0"/>
  <ellipse cx="6.4" cy="68.618" rx="1" ry=".61803" opacity="0"/>
  <ellipse cx="5.8" cy="68.9" rx="1.6" ry="1.7" opacity="0"/>
 </g>
 <g transform="matrix(-1 0 0 1 32.2 -.6)">
  <g transform="matrix(1.5495 0 0 1.4844 -4.4847 -38.766)">
   <path transform="matrix(-1 0 0 1 32.2 .6)" d="m20.6 76.6c-0.46232-0.01455-0.67003 0.01639-0.90906 0.06236-0.0269 0.0052-0.10613 0.01321-0.12986 0.01782-0.0267 0.0052-0.0497 0.0037-0.07639 0.0089-0.01742 0.0034-0.02841 0.01443-0.04584 0.01782-0.06737 0.01309-0.14295 0.03765-0.2139 0.04455-0.0201 0.0019-0.04102-0.0019-0.06111 0-0.09016 0.0088-0.17969 0.03903-0.25973 0.06236-0.03504 0.01022-0.06007 0.0055-0.09167 0.01782-0.01763 0.0068-0.02821 0.01988-0.04584 0.02673-0.0099 0.0038-0.0545 0.01396-0.06111 0.01782-0.05331 0.03109-0.06213 0.07207-0.10695 0.10691-0.06412 0.04985-0.09806 0.10287-0.1375 0.16037-0.02262 0.03296-0.06424 0.06257-0.07639 0.098-0.03294 0.15741-0.04897 0.29463 0.06111 0.40984 0.17621 0.19702 0.70946 0.29456 0.73336 0.30292 0.04354 0.01523 0.13859 0.03476 0.18334 0.04454 0.06486 0.01418 0.13201 0.02454 0.19862 0.03564 0.06363-2.03e-4 0.10558 0.01113 0.15278 0.02673 0.0697 0.0017 0.11051 0.01004 0.16806 0.02673 0.06443 0.01069 0.13225 0.01254 0.19862 0.01782 0.23367 0.01947 0.46644 0.01782 0.7028 0.01782h1.9098c0.14133 0 0.32538 0.01694 0.45835-0.0089 0.01366-0.0026 0.01767-0.01406 0.03056-0.01782 0.01284-0.0037 0.05223-0.0037 0.06111-0.0089 0.0036-0.0021-0.0046-0.0076 0-0.0089 0.0308-9.6e-5 0.05175-0.01236 0.07639-0.02673 0.01488-0.0087 0.02581-0.04178 0.04584-0.05345 0.02037-0.01188 0.01466 0.0189 0.03056-0.0089 0.0018-3e-3 0.0056-0.05017 0-0.05345-0.07351-0.0098-0.17118 0.04313-0.22918 0.06058-0.12314 0.01795-0.05601-0.0166-0.17112 0-0.04733 0.0092-0.29951-0.0071-0.34834-0.0071h-0.44307c-0.58719-0.02734-1.3042 0.02043-1.9005-0.01779-0.45361-0.02907-0.81165-0.13232-1.1399-0.21386-0.04688-0.0055-0.15979-0.04727-0.19862-0.06236-0.06226-0.02421-0.11102-0.0683-0.1375-0.10691-0.01133-0.01652-0.03319-0.0298-0.04584-0.04455-0.01383-0.05246 5.56e-4 -0.13817 0.01528-0.16928 0.01922-0.25432 0.37681-0.34871 0.68752-0.46329 0.01199-0.0047 0.01767-0.01406 0.03056-0.01782 0.0046-0.0013 0.01019 0 0.01528 0 0.02037-3e-3 0.04234-0.0035 0.06112-0.0089 0.0046-0.0013 0-0.0059 0-0.0089 0.01019-3e-3 0.01975-0.0068 0.03056-0.0089 0.2449-0.0137 0.65218-0.05336 0.7778-0.06741 0.03054-0.02287 0.35229-0.077 0.20002-0.19986" fill="#e9c6af" stroke="#deaa87" stroke-width=".065336px"/>
   <g transform="matrix(-1 0 0 1 25.8 .6)" fill="none" stroke="#d38d5f" stroke-width=".2px">
    <path d="m14 76.4c-0.03923 0.02598-0.04186 0.07307-0.05989 0.11274-0.0051 0.01118-0.01345 0.02059-0.01894 0.03157-0.01251 0.02502-0.01508 0.05664-0.02525 0.08207-0.0087 0.02185-0.02014 0.04257-0.03157 0.06313-0.02152 0.03874-0.05927 0.06826-0.08839 0.10102-0.06376 0.07173-0.10264 0.13103-0.1894 0.18309-0.02915 0.0175-0.06355 0.02425-0.0947 0.03788-0.03432 0.01502-0.08913 0.04112-0.11996 0.06314-0.0048 0.0035-0.0073 0.01-0.01263 0.01262-0.04067 0.02034-0.0864 0.03404-0.12627 0.05682-0.0052 3e-3 -0.0084 0.0084-0.01263 0.01262-0.01052 0.0063-0.02035 0.01396-0.03157 0.01894-0.0079 0.0035-0.01749 0.0024-0.02525 0.0063-0.01789 0.0089-0.05322 0.03338-0.06945 0.04419-0.0058 0.0039-0.03086 0.03103-0.03788 0.02525-0.019617-0.01609-0.037481-0.03424-0.056222-0.051378"/>
    <path d="m13.6 77c-0.09116 0.07007-0.14746 0.15885-0.20916 0.25142-0.0138 0.0207-0.02985 0.03274-0.03788 0.05682-0.0013 4e-3 0.0019 0.0089 0 0.01262-0.0015 3e-3 -0.02904 0.02874-0.02525 0.03157 0.02313 0.01724 0.0482 0.03172 0.0723 0.04757"/>
    <path d="m13.6 77c0.05074-0.01522 0.09173-0.04718 0.08125 0.0052-0.0032 0.01614-0.01972 0.03037-0.02525 0.04419-4e-3 0.01-0.0015 0.02197-0.0063 0.03157-0.01246 0.02492-0.01993 0.05249-0.03157 0.07576-0.0025 0.0051 0.0025 0.0139 0 0.01894-0.0035 0.0069-0.02038 0.04426-0.01812 0.02434"/>
   </g>
   <g transform="translate(-2.8204 .6433)" fill="none" stroke="#d38d5f" stroke-width=".2px">
    <path d="m14 76.4c-0.03923 0.02598-0.04186 0.07307-0.05989 0.11274-0.0051 0.01118-0.01345 0.02059-0.01894 0.03157-0.01251 0.02502-0.01508 0.05664-0.02525 0.08207-0.0087 0.02185-0.02014 0.04257-0.03157 0.06313-0.02152 0.03874-0.05927 0.06826-0.08839 0.10102-0.06376 0.07173-0.10264 0.13103-0.1894 0.18309-0.02915 0.0175-0.06355 0.02425-0.0947 0.03788-0.03432 0.01502-0.08913 0.04112-0.11996 0.06314-0.0048 0.0035-0.0073 0.01-0.01263 0.01262-0.04067 0.02034-0.0864 0.03404-0.12627 0.05682-0.0052 3e-3 -0.0084 0.0084-0.01263 0.01262-0.01052 0.0063-0.02035 0.01396-0.03157 0.01894-0.0079 0.0035-0.01749 0.0024-0.02525 0.0063-0.01789 0.0089-0.05322 0.03338-0.06945 0.04419-0.0058 0.0039-0.03086 0.03103-0.03788 0.02525-0.019617-0.01609-0.037481-0.03424-0.056222-0.051378"/>
    <path d="m13.6 77c-0.09116 0.07007-0.14746 0.15885-0.20916 0.25142-0.0138 0.0207-0.02985 0.03274-0.03788 0.05682-0.0013 4e-3 0.0019 0.0089 0 0.01262-0.0015 3e-3 -0.02904 0.02874-0.02525 0.03157 0.02313 0.01724 0.0482 0.03172 0.0723 0.04757"/>
    <path d="m13.6 77c0.05074-0.01522 0.09173-0.04718 0.08125 0.0052-0.0032 0.01614-0.01972 0.03037-0.02525 0.04419-4e-3 0.01-0.0015 0.02197-0.0063 0.03157-0.01246 0.02492-0.01993 0.05249-0.03157 0.07576-0.0025 0.0051 0.0025 0.0139 0 0.01894-0.0035 0.0069-0.02038 0.04426-0.01812 0.02434"/>
   </g>
   <path transform="matrix(-1 0 0 1 32.2 .6)" d="m22 75.4c0 0.96032-0.60657 1.4411-1.3729 1.4411s-1.4023-0.48083-1.4023-1.4411c0-0.47036 0.21519-0.83273 0.45732-1.1457 0.25222-0.32606 0.53932-0.59306 0.93033-0.59306 0.41026 0 0.7128 0.27137 0.96684 0.62602 0.22052 0.30785 0.42081 0.66655 0.42081 1.1128z" fill="#ac9d93" stroke="#917c6f" stroke-width=".1065"/>
   <g transform="matrix(-.35497 0 0 .38408 17.867 52.938)">
    <ellipse cx="17.722" cy="60.195" rx="3.9219" ry=".60547" opacity="0" stroke-width=".2372"/>
    <g fill="#ac9d93" stroke="#917c6f">
     <path d="m15.6 54c0.02308 0.54453 0.04606 0.51476-0.12632 0.77116-0.11934 0.1775-0.29741 0.7289-0.7776 0.72868-0.4555 0-0.68668 0-1.2533-0.46921-0.27864-0.23073-0.65914-1.1243-0.65914-1.512 0-0.93585 0.63047-1.2131 1.4082-1.2131s1.4082 0.75866 1.4082 1.6945z" stroke-width=".57935"/>
     <path d="m20 54c-0.02308 0.54453-0.04606 0.51476 0.12632 0.77116 0.11934 0.1775 0.29741 0.7289 0.7776 0.72868 0.4555 0 0.68668 0 1.2533-0.46921 0.27864-0.23073 0.65914-1.1243 0.65914-1.512 0-0.93585-0.63047-1.2131-1.4082-1.2131s-1.4082 0.75866-1.4082 1.6945z" stroke-width=".57935"/>
     <path d="m21.6 56.4c0-0.94022-0.67962-1.4805-1.0882-1.8372-0.6045-0.52772-1.5209-0.6069-2.7362-0.6069-1.0868 0-1.5476-0.13633-2.2329 0.52801-0.5989 0.5806-1.318 0.82877-1.318 1.9161 0 1.1419 0.57186 2.0217 1.2153 2.7816 0.67028 0.79159 1.4332 1.4398 2.4723 1.4398 1.0903 0 1.8942-0.65882 2.5694-1.5198 0.58602-0.74738 1.1183-1.6182 1.1183-2.7016z" stroke-width=".2705"/>
    </g>
    <g>
     <ellipse cx="16.734" cy="56.69" rx=".14129" ry=".23894" stroke="#000" stroke-width=".21791"/>
     <ellipse cx="19.06" cy="56.703" rx=".14129" ry=".23894" stroke="#000" stroke-width=".21791"/>
     <ellipse cx="17.909" cy="58.675" rx=".39952" ry=".21163" fill="#ff80b2" stroke="#ff80b2" stroke-width=".1991"/>
    </g>
    <g transform="translate(1.8667 -9)" aria-label="+">
     <path d="m16.556 68.56-0.36771 2e-3 -0.07674 0.238h-0.08889l-0.12256-0.23803-0.41076-0.001966 0.35556-0.16h0.08889l0.08889-0.24h0.08889l0.088885 0.24h0.08889z" fill="#fae" stroke-width=".084327"/>
    </g>
   </g>
   <g transform="matrix(0 -.77325 .87122 0 -55.858 87.116)" fill="none" stroke="#d38d5f" stroke-width=".2px">
    <path d="m13.776 76.791c-0.06376 0.07173-0.10264 0.13103-0.1894 0.18309-0.02915 0.0175-0.06355 0.02425-0.0947 0.03788-0.03432 0.01502-0.08913 0.04112-0.11996 0.06314-0.0048 0.0035-0.0073 0.01-0.01263 0.01262-0.04067 0.02034-0.0864 0.03404-0.12627 0.05682-0.0052 3e-3 -0.0084 0.0084-0.01263 0.01262-0.01052 0.0063-0.02035 0.01396-0.03157 0.01894-0.0079 0.0035-0.01749 0.0024-0.02525 0.0063-0.01789 0.0089-0.05322 0.03338-0.06945 0.04419-0.0058 0.0039-0.03086 0.03103-0.03788 0.02525-0.019617-0.01609-0.037481-0.03424-0.056222-0.051378"/>
    <path d="m13.6 77c-0.09116 0.07007-0.14746 0.15885-0.20916 0.25142-0.0138 0.0207-0.02985 0.03274-0.03788 0.05682-0.0013 4e-3 0.0019 0.0089 0 0.01262-0.0015 3e-3 -0.02904 0.02874-0.02525 0.03157 0.02313 0.01724 0.0482 0.03172 0.0723 0.04757"/>
    <path d="m13.6 77c0.05074-0.01522 0.09173-0.04718 0.08125 0.0052-0.0032 0.01614-0.01972 0.03037-0.02525 0.04419-4e-3 0.01-0.0015 0.02197-0.0063 0.03157-0.01246 0.02492-0.01993 0.05249-0.03157 0.07576-0.0025 0.0051 0.0025 0.0139 0 0.01894-0.0035 0.0069-0.02038 0.04426-0.01812 0.02434"/>
   </g>
   <g transform="matrix(0 -.77325 -.87122 0 79.119 87.052)" fill="none" stroke="#d38d5f" stroke-width=".2px">
    <path d="m13.776 76.791c-0.06376 0.07173-0.10264 0.13103-0.1894 0.18309-0.02915 0.0175-0.06355 0.02425-0.0947 0.03788-0.03432 0.01502-0.08913 0.04112-0.11996 0.06314-0.0048 0.0035-0.0073 0.01-0.01263 0.01262-0.04067 0.02034-0.0864 0.03404-0.12627 0.05682-0.0052 3e-3 -0.0084 0.0084-0.01263 0.01262-0.01052 0.0063-0.02035 0.01396-0.03157 0.01894-0.0079 0.0035-0.01749 0.0024-0.02525 0.0063-0.01789 0.0089-0.05322 0.03338-0.06945 0.04419-0.0058 0.0039-0.03086 0.03103-0.03788 0.02525-0.019617-0.01609-0.037481-0.03424-0.056222-0.051378"/>
    <path d="m13.6 77c-0.09116 0.07007-0.14746 0.15885-0.20916 0.25142-0.0138 0.0207-0.02985 0.03274-0.03788 0.05682-0.0013 4e-3 0.0019 0.0089 0 0.01262-0.0015 3e-3 -0.02904 0.02874-0.02525 0.03157 0.02313 0.01724 0.0482 0.03172 0.0723 0.04757"/>
    <path d="m13.6 77c0.05074-0.01522 0.09173-0.04718 0.08125 0.0052-0.0032 0.01614-0.01972 0.03037-0.02525 0.04419-4e-3 0.01-0.0015 0.02197-0.0063 0.03157-0.01246 0.02492-0.01993 0.05249-0.03157 0.07576-0.0025 0.0051 0.0025 0.0139 0 0.01894-0.0035 0.0069-0.02038 0.04426-0.01812 0.02434"/>
   </g>
  </g>
 </g>
</svg>
