<svg width="200" height="400" version="1.1" viewBox="0 0 40 80" xmlns="http://www.w3.org/2000/svg">
 <defs>
  <clipPath id="clipPath1551">
   <ellipse transform="matrix(.97971 .20043 -.33114 .94358 0 0)" cx="40.014" cy="57.073" rx=".17385" ry=".091416" display="none" fill="#0ff" stroke="#0ff" stroke-width=".0554"/>
   <path class="powerclip" d="m14.591 55.454h12.879v11.761h-12.879zm25.597 1.6195a0.17385 0.091416 0 0 0-0.17385-0.09142 0.17385 0.091416 0 0 0-0.17385 0.09142 0.17385 0.091416 0 0 0 0.17385 0.09142 0.17385 0.091416 0 0 0 0.17385-0.09142" fill-rule="evenodd"/>
  </clipPath>
 </defs>
 <g transform="matrix(1.109,0,0,1.069,-1.1567,-8.7087)" fill="#f4eed7" stroke="#e9ddaf">
  <g stroke-width=".056354">
   <path d="m15.281 54.059a0.26468 0.15169 21.926 0 1-0.15992-0.24242 0.26468 0.15169 21.926 0 1 0.31846-0.01939 0.26468 0.15169 21.926 0 1 0.15993 0.24242 0.26468 0.15169 21.926 0 1-0.31846 0.01939z"/>
   <path d="m15.422 53.795a0.26468 0.15169 21.926 0 1-0.15992-0.24242 0.26468 0.15169 21.926 0 1 0.31846-0.01939 0.26468 0.15169 21.926 0 1 0.15993 0.24242 0.26468 0.15169 21.926 0 1-0.31846 0.01939z"/>
   <path d="m15.547 53.539a0.26468 0.15169 21.926 0 1-0.15992-0.24242 0.26468 0.15169 21.926 0 1 0.31846-0.01939 0.26468 0.15169 21.926 0 1 0.15993 0.24242 0.26468 0.15169 21.926 0 1-0.31846 0.01939z"/>
  </g>
  <path d="m14.827 53.703a0.355 0.72987 3.1314 0 1-0.44083 0.57634 0.355 0.72987 3.1314 0 1-0.24528-0.85493 0.355 0.72987 3.1314 0 1 0.44083-0.57634 0.355 0.72987 3.1314 0 1 0.24528 0.85493z" stroke-width=".14316"/>
 </g>
 <path d="m27.376 35.172-0.28525 0.11699-0.61194-1.4439-0.41174-1.7983 1.0833-0.08951 1.1294 0.24959-0.6106 2.3387z" fill="#decd87" stroke="#decd87" stroke-linecap="square" stroke-linejoin="round" stroke-width=".15712"/>
 <path d="m22.706 35.144 0.28525 0.117 0.61194-1.4439 0.41174-1.7983-1.0833-0.08951-1.1294 0.24959 0.6106 2.3387z" fill="#decd87" stroke="#decd87" stroke-linecap="square" stroke-linejoin="round" stroke-width=".15712"/>
 <g transform="matrix(3.0948 0 0 3.5113 -36.257 -176.25)" fill="#e9ddaf" stroke="#e9ddaf">
  <path d="m20.611 59.728c0.51229 0.42354 0.35-0.09609-0.489-0.14188-0.47736-0.0076 0.98789 0.03468-0.60205-0.01218-0.90786 0.03518-1.014 0.59003-0.47114 0.14895 0.62186-0.15431 0.97793-0.15563 1.5622 0.0051z" stroke-width=".059526"/>
  <path d="m20.494 59.488c0.42822 0.43108 0.29928-0.09088-0.41333-0.14912-0.40578-0.01468 0.83942 0.04934-0.51172-0.02111-0.77258 0.0217-0.87249 0.57489-0.40322 0.14194 0.53147-0.14506 0.83427-0.14109 1.3283 0.02829z" stroke-width=".054894"/>
  <path d="m20.721 60.001c0.57443 0.42354 0.39245-0.09609-0.54832-0.14188-0.53527-0.0076 1.1077 0.03468-0.67508-0.01218-1.018 0.03518-1.137 0.59003-0.52829 0.14895 0.69729-0.15431 1.0966-0.15563 1.7517 0.0051z" stroke-width=".063032"/>
  <path d="m20.821 60.283c0.60844 0.42354 0.41568-0.09609-0.58077-0.14188-0.56695-0.0076 1.1733 0.03468-0.71504-0.01218-1.0782 0.03518-1.2043 0.59003-0.55956 0.14895 0.73856-0.15431 1.1615-0.15563 1.8554 0.0051z" stroke-width=".064871"/>
  <path d="m20.82 60.557c0.62329 0.42354 0.42583-0.09609-0.59495-0.14188-0.58079-0.0076 1.2019 0.03468-0.73249-0.01218-1.1046 0.03518-1.2337 0.59003-0.57322 0.14895 0.75659-0.15431 1.1898-0.15563 1.9007 0.0051z" stroke-width=".065658"/>
  <path d="m20.826 60.866c0.63892 0.42354 0.43651-0.09609-0.60987-0.14188-0.59536-0.0076 1.2321 0.03468-0.75086-0.01218-1.1323 0.03518-1.2646 0.59003-0.5876 0.14895 0.77557-0.15431 1.2197-0.15563 1.9483 0.0051z" stroke-width=".066477"/>
  <path d="m20.854 61.167c0.64477 0.42354 0.44051-0.09609-0.61546-0.14188-0.60081-0.0076 1.2434 0.03468-0.75774-0.01218-1.1426 0.03518-1.2762 0.59003-0.59298 0.14895 0.78268-0.15431 1.2308-0.15563 1.9662 0.0051z" stroke-width=".06678"/>
  <path d="m20.773 61.438c0.60844 0.42354 0.41568-0.09609-0.58077-0.14188-0.56695-0.0076 1.1733 0.03468-0.71504-0.01218-1.0782 0.03518-1.2043 0.59003-0.55956 0.14895 0.73856-0.15431 1.1615-0.15563 1.8554 0.0051z" stroke-width=".064871"/>
  <path d="m20.712 61.73c0.56448 0.42354 0.38565-0.09609-0.53882-0.14188-0.52599-0.0076 1.0885 0.03468-0.66338-0.01218-1.0003 0.03518-1.1173 0.59003-0.51914 0.14895 0.68521-0.15431 1.0775-0.15563 1.7213 0.0051z" stroke-width=".062484"/>
 </g>
 <g transform="matrix(.87741 0 0 .87741 3.0153 5.9384)">
  <g transform="matrix(1.109,0,0,1.069,-1.1567,-8.7087)" fill="#f4eed7" stroke="#e9ddaf">
   <g transform="matrix(2.7906,0,0,3.2847,-31.65,-156.73)">
    <path d="m17.551 66.703c-0.08685 0.271 0.10849 0.30049 0.0239 0.4496-0.13138 0.23157-0.20328-0.04306-0.28545-0.06666-0.0914-0.02627-0.3035 0.21902-0.2799-0.10018 0.01227-0.16453 0.16635-0.0485 0.25596-0.31323 0.11082-0.32734 0.31819-0.96725 0.40424-1.2673 0.11486-0.40057 0.24185-0.8743 0.35857-1.2045-0.03801-0.23388 0.07322-0.52486 0.22547-0.41788 0.0332 0.02057 0.11173 0.16143 0.27977 0.02768 0 0 0.13545-0.01216 0.20292 0.01774 0.07412 0.03278 0.08632 0.11685 0.0856 0.17334-4.06e-4 0.03448-0.0071 0.12478-0.09019 0.15867-0.07961 0.03243-0.18045 0.01571-0.21172-0.0168-0.12984-0.13522-0.23398 0.031-0.25841 0.13027-0.08513 0.34595-0.36418 1.2059-0.36418 1.2059-0.10946 0.3752-0.27591 0.86953-0.34656 1.2235z" stroke-width=".051159"/>
    <path d="m17.036 70.225c-1.65e-4 0.28449-0.1065 0.25713-0.08749 0.42414 0.02953 0.25936 0.11272 0.0166 0.15932 0.01736 0.05182 9.15e-4 0.12098 0.29635 0.16204-0.01631 0.0211-0.16118-0.07825-0.09387-0.08058-0.37311-0.0029-0.3453-0.0036-1.0177 0.0018-1.3298 0.0072-0.41665 0.02043-0.90688 0.01503-1.2566-0.0033-0.21212 0.12288-0.2418 0.09796-0.43846-0.02902-0.22909-0.1035-0.02549-0.14522-0.0263-0.04245-6.22e-4 -0.12364-0.18611-0.15986 0.0316-0.02136 0.12856 0.08161 0.23031 0.07374 0.43655-0.01361 0.35584-0.01238 1.2595-0.01238 1.2595-0.0058 0.39079-2e-3 0.912-0.02439 1.2714z" stroke-width=".037772"/>
    <ellipse cx="17.17" cy="70.789" rx=".19333" ry=".19767" stroke-width=".077174"/>
    <path d="m16.68 71.141a0.16882 0.30459 25 0 1-0.28174 0.20471 0.16882 0.30459 25 0 1-0.02428-0.34741 0.16882 0.30459 25 0 1 0.28174-0.20471 0.16882 0.30459 25 0 1 0.02428 0.34741z" stroke-width=".063776"/>
    <path d="m16.405 71.328a0.15056 0.30459 19 0 1-0.24152 0.23898 0.15056 0.30459 19 0 1-0.04319-0.33702 0.15056 0.30459 19 0 1 0.24152-0.23898 0.15056 0.30459 19 0 1 0.0432 0.33702z" stroke-width=".060226"/>
    <path d="m17.022 71.148a0.2357 0.31286 24.071 0 1-0.31427 0.27065 0.2357 0.31286 24.071 0 1-0.16258-0.32928 0.2357 0.31286 24.071 0 1 0.31427-0.27065 0.2357 0.31286 24.071 0 1 0.16258 0.32928z" stroke-width=".076371"/>
    <g stroke-width=".060226">
     <path d="m16.613 71.373a0.15056 0.30459 19 0 1-0.24152 0.23898 0.15056 0.30459 19 0 1-0.04319-0.33702 0.15056 0.30459 19 0 1 0.24152-0.23898 0.15056 0.30459 19 0 1 0.0432 0.33702z"/>
     <path d="m16.878 71.383a0.15056 0.30459 19 0 1-0.24152 0.23898 0.15056 0.30459 19 0 1-0.04319-0.33702 0.15056 0.30459 19 0 1 0.24152-0.23898 0.15056 0.30459 19 0 1 0.0432 0.33702z"/>
     <path d="m17.129 71.407a0.15056 0.30459 19 0 1-0.24152 0.23898 0.15056 0.30459 19 0 1-0.04319-0.33702 0.15056 0.30459 19 0 1 0.24152-0.23898 0.15056 0.30459 19 0 1 0.0432 0.33702z"/>
    </g>
    <g stroke-width=".046943">
     <path d="m16.176 71.477a0.13065 0.21324 33 0 1-0.22571 0.10768 0.13065 0.21324 33 0 1 0.0066-0.25 0.13065 0.21324 33 0 1 0.22571-0.10768 0.13065 0.21324 33 0 1-0.0066 0.25z"/>
     <path d="m16.451 71.537a0.13065 0.21324 23 0 1-0.20359 0.14524 0.13065 0.21324 23 0 1-0.03691-0.24734 0.13065 0.21324 23 0 1 0.20358-0.14524 0.13065 0.21324 23 0 1 0.03691 0.24734z"/>
     <path d="m16.771 71.582a0.13065 0.21324 13 0 1-0.17527 0.17838 0.13065 0.21324 13 0 1-0.0793-0.23718 0.13065 0.21324 13 0 1 0.17527-0.17839 0.13065 0.21324 13 0 1 0.0793 0.23718z"/>
    </g>
    <path d="m17.086 71.609a0.13068 0.23064 2.5508 0 1-0.14163 0.22297 0.13068 0.23064 2.5508 0 1-0.11928-0.23778 0.13068 0.23064 2.5508 0 1 0.14163-0.22297 0.13068 0.23064 2.5508 0 1 0.11928 0.23778z" stroke-width=".048825"/>
    <path d="m17.036 70.371c-0.03356 0.2826 0.16383 0.27427 0.10925 0.43678-0.08478 0.25238-0.20776-0.0035-0.29292-0.01101-0.09474-0.0083-0.25614 0.27291-0.29387-0.04493-0.01945-0.16384 0.15404-0.07936 0.19149-0.35631 0.04632-0.34247 0.12778-1.0102 0.15499-1.3212 0.03632-0.41513 0.0706-0.90439 0.12216-1.2507 0.03129-0.21011-0.19554-0.26194-0.12665-0.45286 0.08025-0.2224 0.19197-7e-3 0.26825-3.19e-4 0.07755 0.0068 0.24787-0.16294 0.28807 0.05971 0.02373 0.13148-0.1764 0.2143-0.18658 0.42053-0.01753 0.35584-0.12739 1.2532-0.12739 1.2532-0.03586 0.38919-0.10493 0.9062-0.10674 1.2671z" stroke-width=".051159"/>
    <path d="m17.46 67.195s0.0034 0.04845-0.03972 0.10155c-0.05218 0.06434-0.15732 0.13549-0.2235 0.13549-0.06648 0-0.13142-0.065-0.17638-0.12346-0.03674-0.04776-0.04065-0.14629-0.04065-0.14629 0.05505-0.15571 0.14963-0.10719 0.27043-0.10719 0.05877 0 0.13598 0.02698 0.17312 0.06099 0.0392 0.03589 0.0367 0.07891 0.0367 0.07891z" stroke-width=".080171"/>
   </g>
   <g transform="matrix(-2.7906,0,0,3.2847,77.905,-156.81)">
    <path d="m17.551 66.703c-0.08685 0.271 0.10849 0.30049 0.0239 0.4496-0.13138 0.23157-0.20328-0.04306-0.28545-0.06666-0.0914-0.02627-0.3035 0.21902-0.2799-0.10018 0.01227-0.16453 0.16635-0.0485 0.25596-0.31323 0.11082-0.32734 0.31819-0.96725 0.40424-1.2673 0.11486-0.40057 0.24185-0.8743 0.35857-1.2045-0.03801-0.23388 0.07322-0.52486 0.22547-0.41788 0.0332 0.02057 0.11173 0.16143 0.27977 0.02768 0 0 0.13545-0.01216 0.20292 0.01774 0.07412 0.03278 0.08632 0.11685 0.0856 0.17334-4.06e-4 0.03448-0.0071 0.12478-0.09019 0.15867-0.07961 0.03243-0.18045 0.01571-0.21172-0.0168-0.12984-0.13522-0.23398 0.031-0.25841 0.13027-0.08513 0.34595-0.36418 1.2059-0.36418 1.2059-0.10946 0.3752-0.27591 0.86953-0.34656 1.2235z" stroke-width=".051159"/>
    <path d="m17.036 70.225c-1.65e-4 0.28449-0.1065 0.25713-0.08749 0.42414 0.02953 0.25936 0.11272 0.0166 0.15932 0.01736 0.05182 9.15e-4 0.12098 0.29635 0.16204-0.01631 0.0211-0.16118-0.07825-0.09387-0.08058-0.37311-0.0029-0.3453-0.0036-1.0177 0.0018-1.3298 0.0072-0.41665 0.02043-0.90688 0.01503-1.2566-0.0033-0.21212 0.12288-0.2418 0.09796-0.43846-0.02902-0.22909-0.1035-0.02549-0.14522-0.0263-0.04245-6.22e-4 -0.12364-0.18611-0.15986 0.0316-0.02136 0.12856 0.08161 0.23031 0.07374 0.43655-0.01361 0.35584-0.01238 1.2595-0.01238 1.2595-0.0058 0.39079-2e-3 0.912-0.02439 1.2714z" stroke-width=".037772"/>
    <ellipse cx="17.17" cy="70.789" rx=".19333" ry=".19767" stroke-width=".077174"/>
    <path d="m16.68 71.141a0.16882 0.30459 25 0 1-0.28174 0.20471 0.16882 0.30459 25 0 1-0.02428-0.34741 0.16882 0.30459 25 0 1 0.28174-0.20471 0.16882 0.30459 25 0 1 0.02428 0.34741z" stroke-width=".063776"/>
    <path d="m16.405 71.328a0.15056 0.30459 19 0 1-0.24152 0.23898 0.15056 0.30459 19 0 1-0.04319-0.33702 0.15056 0.30459 19 0 1 0.24152-0.23898 0.15056 0.30459 19 0 1 0.0432 0.33702z" stroke-width=".060226"/>
    <path d="m17.022 71.148a0.2357 0.31286 24.071 0 1-0.31427 0.27065 0.2357 0.31286 24.071 0 1-0.16258-0.32928 0.2357 0.31286 24.071 0 1 0.31427-0.27065 0.2357 0.31286 24.071 0 1 0.16258 0.32928z" stroke-width=".076371"/>
    <g stroke-width=".060226">
     <path d="m16.613 71.373a0.15056 0.30459 19 0 1-0.24152 0.23898 0.15056 0.30459 19 0 1-0.04319-0.33702 0.15056 0.30459 19 0 1 0.24152-0.23898 0.15056 0.30459 19 0 1 0.0432 0.33702z"/>
     <path d="m16.878 71.383a0.15056 0.30459 19 0 1-0.24152 0.23898 0.15056 0.30459 19 0 1-0.04319-0.33702 0.15056 0.30459 19 0 1 0.24152-0.23898 0.15056 0.30459 19 0 1 0.0432 0.33702z"/>
     <path d="m17.129 71.407a0.15056 0.30459 19 0 1-0.24152 0.23898 0.15056 0.30459 19 0 1-0.04319-0.33702 0.15056 0.30459 19 0 1 0.24152-0.23898 0.15056 0.30459 19 0 1 0.0432 0.33702z"/>
    </g>
    <g stroke-width=".046943">
     <path d="m16.176 71.477a0.13065 0.21324 33 0 1-0.22571 0.10768 0.13065 0.21324 33 0 1 0.0066-0.25 0.13065 0.21324 33 0 1 0.22571-0.10768 0.13065 0.21324 33 0 1-0.0066 0.25z"/>
     <path d="m16.451 71.537a0.13065 0.21324 23 0 1-0.20359 0.14524 0.13065 0.21324 23 0 1-0.03691-0.24734 0.13065 0.21324 23 0 1 0.20358-0.14524 0.13065 0.21324 23 0 1 0.03691 0.24734z"/>
     <path d="m16.771 71.582a0.13065 0.21324 13 0 1-0.17527 0.17838 0.13065 0.21324 13 0 1-0.0793-0.23718 0.13065 0.21324 13 0 1 0.17527-0.17839 0.13065 0.21324 13 0 1 0.0793 0.23718z"/>
    </g>
    <path d="m17.086 71.609a0.13068 0.23064 2.5508 0 1-0.14163 0.22297 0.13068 0.23064 2.5508 0 1-0.11928-0.23778 0.13068 0.23064 2.5508 0 1 0.14163-0.22297 0.13068 0.23064 2.5508 0 1 0.11928 0.23778z" stroke-width=".048825"/>
    <path d="m17.036 70.371c-0.03356 0.2826 0.16383 0.27427 0.10925 0.43678-0.08478 0.25238-0.20776-0.0035-0.29292-0.01101-0.09474-0.0083-0.25614 0.27291-0.29387-0.04493-0.01945-0.16384 0.15404-0.07936 0.19149-0.35631 0.04632-0.34247 0.12778-1.0102 0.15499-1.3212 0.03632-0.41513 0.0706-0.90439 0.12216-1.2507 0.03129-0.21011-0.19554-0.26194-0.12665-0.45286 0.08025-0.2224 0.19197-7e-3 0.26825-3.19e-4 0.07755 0.0068 0.24787-0.16294 0.28807 0.05971 0.02373 0.13148-0.1764 0.2143-0.18658 0.42053-0.01753 0.35584-0.12739 1.2532-0.12739 1.2532-0.03586 0.38919-0.10493 0.9062-0.10674 1.2671z" stroke-width=".051159"/>
    <path d="m17.46 67.195s0.0034 0.04845-0.03972 0.10155c-0.05218 0.06434-0.15732 0.13549-0.2235 0.13549-0.06648 0-0.13142-0.065-0.17638-0.12346-0.03674-0.04776-0.04065-0.14629-0.04065-0.14629 0.05505-0.15571 0.14963-0.10719 0.27043-0.10719 0.05877 0 0.13598 0.02698 0.17312 0.06099 0.0392 0.03589 0.0367 0.07891 0.0367 0.07891z" stroke-width=".080171"/>
   </g>
   <path transform="matrix(2.7906,0,0,3.2847,-35.32,-148.5)" d="m21.99 62.126c-0.14864 0.047-0.30874 0.01551-0.42022 0.01676-0.09421-0.03901-0.21714-0.16435-0.36063-0.22578-0.10158-0.04348-0.22756-0.04084-0.29842-0.01538-0.2009 0.07217-0.2587 0.1859-0.40296 0.23778-0.42063 0.05679-0.61094-0.08441-0.56707-0.40313 0.02622-0.28124 0.01247-0.37161-0.05532-0.48329-0.0341-0.05618-0.16369-0.11859-0.25208-0.22705-0.02219-0.09843-0.0017-0.30818 0.09861-0.43827 0.08009-0.10384 0.22526-0.08869 0.41788-0.08113 0.10076 0.0039 0.2985-9e-3 0.40153 0.11955 0.04687 0.05517 0.21854 0.10514 0.11944 0.36906-0.08301 0.22112-0.26647 0.18246-0.17763 0.55042 0.01269 0.01634 0.1225 0.19352-0.10906 0.072-0.05102-0.02677-0.16414-0.03674-0.23942 0.0033-0.10184 0.1983-0.01428 0.29768 0.15496 0.39617 0.04981 0.0042 0.2151-0.01393 0.22421-0.11595 0.0095-0.10638-0.09869-0.29147 0.0481-0.22876 0.18538 0.0792 0.41176 0.07441 0.4758 0.07639 0.03743 0.0012 0.2931-0.01858 0.39269-0.08552 0.10633-0.07146 0.20053-0.06451 0.09874 0.15481-0.02022 0.04357 0.0076 0.10797 0.07107 0.14831 0.04539 0.02884 0.08889 0.02259 0.09758 0.02494 0.23657 2.3e-4 0.23163-0.02237 0.24296-0.29647-0.02173-0.03095-0.09032-0.06899-0.185-0.07514-0.09619 0.03621-0.26853 0.06026-0.1573-0.14885 0.0042-0.33054-0.03086-0.26691-0.13878-0.4497-0.04189-0.07095-0.10489-0.25182 0.06371-0.3481 0.16822-0.14206 0.2095-0.14495 0.26352-0.15145 0.30688-0.03692 0.34784-0.06121 0.5072 0.01811 0 0 0.0718-0.0012 0.10121 0.12772 0.04292 0.18802 0.03908 0.14664 0.01743 0.32713-0.07727 0.07261-0.23648 0.1532-0.2786 0.20543-0.10545 0.13075-0.0631 0.24908-0.04217 0.5731 0.04894 0.15078-0.05339 0.26315-0.11207 0.35305z" clip-path="url(#clipPath1551)" stroke-width=".066408"/>
  </g>
  <g transform="matrix(3.0948 0 0 3.5113 -39.466 -176.98)" stroke-width=".045815">
   <rect transform="rotate(45)" x="60.613" y="30.388" width=".010814" height=".12617" fill="#e9ddaf" stroke="#e9ddaf"/>
   <rect transform="rotate(40)" x="57.673" y="35.552" width=".010814" height=".12617" fill="#f4eed7" stroke="#f4eed7"/>
   <rect transform="matrix(-.70711 .70711 .70711 .70711 0 0)" x="31.251" y="59.742" width=".010814" height=".12617" fill="#e9ddaf" stroke="#e9ddaf"/>
   <rect transform="matrix(-.76604 .64279 .64279 .76604 0 0)" x="25.881" y="62.254" width=".010814" height=".12617" fill="#f4eed7" stroke="#f4eed7"/>
  </g>
 </g>
 <g transform="matrix(1.109,0,0,1.069,-1.1567,-8.7087)" fill="#f4eed7" stroke="#e9ddaf">
  <g transform="matrix(2.7906,0,0,3.2847,-31.65,-156.73)" stroke-linejoin="round">
   <path d="m19.56 63.094-7.3e-5 -0.09599 0.371 0.0016 6.28e-4 0.09439 0.07508-3.2e-4 -0.0015 0.07199-0.07361 0.0015-6.27e-4 0.08159-0.37101-3.75e-4 0.0015-0.08603-0.08539 1.12e-4 0.0015-0.06879z" stroke-width=".036832"/>
   <path d="m19.612 63.309 0.23273-3.48e-4c0.19942-0.0076 0.13495-0.01913 0.19172 0.07966l-0.05513 0.08907-0.02038 0.10607-0.08988 0.08348 0.01684 0.10875-0.08041 0.14066 0.02109 0.11484-0.09474 0.09265-0.08479-0.10048 0.01379-0.10762-0.0663-0.10693-0.0016-0.15625-0.07236-0.0706-0.02577-0.11447-0.04992-0.06167c0.07493-0.13175 0.02387-0.10431 0.16527-0.09676z" stroke-width=".060405"/>
   <g stroke-width=".036832">
    <path d="m19.561 62.791-7.3e-5 -0.09599 0.371 0.0016 6.28e-4 0.09439 0.07508-3.2e-4 -0.0015 0.07199-0.07361 0.0015-6.26e-4 0.08159-0.37101-3.76e-4 0.0015-0.08603-0.08539 1.12e-4 0.0015-0.06879z"/>
    <path d="m19.577 62.483-7.3e-5 -0.09599 0.371 0.0016 6.28e-4 0.09439 0.07508-3.2e-4 -0.0015 0.07199-0.07361 0.0015-6.26e-4 0.08159-0.37101-3.76e-4 0.0015-0.08603-0.08539 1.12e-4 0.0015-0.06879z"/>
    <path d="m19.591 62.182-7.3e-5 -0.09599 0.371 0.0016 6.28e-4 0.09439 0.07508-3.2e-4 -0.0015 0.07199-0.07361 0.0015-6.26e-4 0.08159-0.37101-3.76e-4 0.0015-0.08603-0.08539 1.12e-4 0.0015-0.06879z"/>
    <path d="m19.586 61.878-7.3e-5 -0.09599 0.371 0.0016 6.28e-4 0.09439 0.07508-3.2e-4 -0.0015 0.07199-0.07361 0.0015-6.26e-4 0.08159-0.37101-3.76e-4 0.0015-0.08603-0.08539 1.12e-4 0.0015-0.06879z"/>
    <path d="m19.599 61.572-7.3e-5 -0.09599 0.371 0.0016 6.28e-4 0.09439 0.07508-3.2e-4 -0.0015 0.07199-0.07361 0.0015-6.26e-4 0.08159-0.37101-3.76e-4 0.0015-0.08603-0.08539 1.12e-4 0.0015-0.06879z"/>
   </g>
   <path d="m19.592 61.283-7.3e-5 -0.09121 0.371 0.0015 6.28e-4 0.08969 0.07508-3.04e-4 -0.0015 0.06841-0.07361 0.0014-6.26e-4 0.07753-0.37101-3.57e-4 0.0015-0.08175-0.08539 1.07e-4 0.0015-0.06537z" stroke-width=".035904"/>
   <g stroke-width=".035904">
    <path d="m19.589 61-7.3e-5 -0.09121 0.371 0.0015 6.28e-4 0.08969 0.07508-3.04e-4 -0.0015 0.06841-0.07361 0.0014-6.26e-4 0.07753-0.37101-3.58e-4 0.0015-0.08175-0.08539 1.07e-4 0.0015-0.06537z"/>
    <path d="m19.582 60.71-7.3e-5 -0.09121 0.371 0.0015 6.28e-4 0.08969 0.07508-3.04e-4 -0.0015 0.06841-0.07361 0.0014-6.26e-4 0.07753-0.37101-3.58e-4 0.0015-0.08175-0.08539 1.07e-4 0.0015-0.06537z"/>
    <path d="m19.592 60.416-7.3e-5 -0.09121 0.371 0.0015 6.28e-4 0.08969 0.07508-3.04e-4 -0.0015 0.06841-0.07361 0.0014-6.26e-4 0.07753-0.37101-3.58e-4 0.0015-0.08175-0.08539 1.07e-4 0.0015-0.06537z"/>
    <path d="m19.599 60.126-7.3e-5 -0.09121 0.371 0.0015 6.28e-4 0.08969 0.07508-3.04e-4 -0.0015 0.06841-0.07361 0.0014-6.26e-4 0.07753-0.37101-3.58e-4 0.0015-0.08175-0.08539 1.07e-4 0.0015-0.06537z"/>
    <path d="m19.599 59.84-7.3e-5 -0.09121 0.371 0.0015 6.28e-4 0.08969 0.07508-3.04e-4 -0.0015 0.06841-0.07361 0.0014-6.26e-4 0.07753-0.37101-3.58e-4 0.0015-0.08175-0.08539 1.07e-4 0.0015-0.06537z"/>
   </g>
   <path d="m19.603 59.574-7.3e-5 -0.07779 0.37287 0.0013 6.31e-4 0.07649 0.07546-2.6e-4 -0.0015 0.05834-0.07398 0.0012-6.3e-4 0.06612-0.37287-3.06e-4 0.0015-0.06972-0.08582 9.1e-5 0.0015-0.05575z" stroke-width=".03324"/>
   <path d="m19.603 59.322-7.3e-5 -0.07779 0.37287 0.0013 6.32e-4 0.07649 0.07546-2.6e-4 -0.0015 0.05834-0.07398 0.0012-6.3e-4 0.06612-0.37287-3.06e-4 0.0015-0.06972-0.08582 9.1e-5 0.0015-0.05575z" stroke-width=".033241"/>
   <path d="m19.609 59.117-6.7e-5 -0.05581 0.34474 9.02e-4 5.85e-4 0.05487 0.06977-1.87e-4 -0.0014 0.04185-0.0684 8.61e-4 -5.82e-4 0.04743-0.34474-2.19e-4 0.0014-0.05002-0.07935 6.5e-5 0.0014-0.04z" stroke-width=".027072"/>
  </g>
  <path d="m23.479 44.142c-0.02707 0.853-0.58414 1.2384-2.2897 2.4918-1.2311 0.44866-0.98577-0.37508-0.69219-0.35813 0.54557 0.03153 0.46648 0.04907 0.87604-0.22586 0.669-0.50581 0.50246-0.34896 0.669-0.50581 0.51872-0.4887 1.1103-0.86512 1.3791-1.629z" stroke-width=".17415"/>
  <path d="m23.44 41.238c-0.17908 0.77417-0.7544 0.83451-2.5292 1.0872-1.1985-0.23939-0.8267-0.87044-0.56332-0.69882 0.48942 0.31901 0.41447 0.29322 0.83594 0.25653 0.69872-0.11214 0.5192-0.05571 0.69872-0.11214 0.55927-0.17616 1.1643-0.20999 1.5466-0.77334z" stroke-width=".16841"/>
  <path d="m23.68 44.241c0.06497 0.85014 0.63839 1.2007 2.3974 2.3474 1.2493 0.37222 0.96774-0.43532 0.67531-0.40027-0.54342 0.0651-0.46367 0.07775-0.88486-0.17156-0.69057-0.4639-0.51727-0.31756-0.69057-0.4639-0.53974-0.45608-1.1472-0.79552-1.4496-1.5419z" stroke-width=".17415"/>
  <path d="m23.443 43.449c-0.10267 0.84498-0.69091 1.1597-2.4985 2.1965-1.2642 0.29474-0.94709-0.49431-0.65658-0.44133 0.53977 0.09851 0.45956 0.10623 0.89128-0.1168 0.71025-0.4207 0.5307-0.28524 0.71025-0.4207 0.55927-0.42221 1.181-0.72378 1.5162-1.4504z" stroke-width=".17415"/>
  <path d="m23.658 43.495c0.09689 0.84344 0.73104 1.1678 2.6785 2.2339 1.3696 0.317 1.0385-0.4747 0.72172-0.42734-0.58872 0.0881-0.50162 0.09723-0.96718-0.1329-0.765-0.4322-0.57211-0.29395-0.765-0.4322-0.6008-0.43085-1.2716-0.74273-1.6234-1.4727z" stroke-width=".18126"/>
  <path d="m23.739 42.917c0.15898 0.83027 0.81473 1.0883 2.8336 1.9506 1.3878 0.1753 0.99944-0.57942 0.68734-0.49973-0.57995 0.14817-0.49249 0.1483-0.97332-0.03314-0.79408-0.35205-0.5917-0.23413-0.79408-0.35205-0.63041-0.36759-1.3218-0.60947-1.7263-1.3005z" stroke-width=".18126"/>
  <path d="m23.434 42.746c-0.14009 0.83753-0.74153 1.1155-2.5927 2.0396-1.2755 0.21643-0.92379-0.55199-0.63607-0.48117 0.53466 0.13162 0.45423 0.13441 0.89527-0.06172 0.72797-0.37639 0.54264-0.25216 0.72797-0.37639 0.57727-0.38716 1.2116-0.65004 1.5786-1.3551z" stroke-width=".17415"/>
  <path d="m23.434 42.746c-0.17542 0.79644-0.78967 0.92014-2.6833 1.3686-1.2872-0.10862-0.90261-0.78258-0.61724-0.63926 0.53025 0.26629 0.44954 0.24865 0.89968 0.16561 0.74519-0.18926 0.55428-0.11293 0.74519-0.18926 0.59466-0.23814 1.2412-0.33852 1.6385-0.94579z" stroke-width=".17467"/>
  <path d="m23.861 42.72c0.17542 0.79644 0.78967 0.92014 2.6833 1.3686 1.2872-0.10862 0.90261-0.78258 0.61724-0.63926-0.53025 0.26629-0.44954 0.24865-0.89968 0.16561-0.74518-0.18926-0.55428-0.11293-0.74518-0.18926-0.59466-0.23814-1.2412-0.33852-1.6385-0.94579z" stroke-width=".17467"/>
  <path d="m23.421 42.033c-0.18767 0.77574-0.77937 0.83989-2.6051 1.1044-1.231-0.2316-0.84584-0.86541-0.57588-0.6954 0.50165 0.31592 0.42474 0.2906 0.85815 0.25118 0.71881-0.11684 0.53399-0.05912 0.71881-0.11684 0.57574-0.17997 1.1978-0.21777 1.5935-0.78399z" stroke-width=".17079"/>
  <path d="m23.786 42.191c0.2021 0.77574 0.83926 0.83989 2.8054 1.1044 1.3256-0.2316 0.91087-0.86542 0.62016-0.6954-0.54021 0.31592-0.45739 0.2906-0.92415 0.25118-0.77407-0.11684-0.57504-0.05912-0.77407-0.11684-0.62-0.17997-1.2899-0.21777-1.716-0.78399z" stroke-width=".17723"/>
  <path d="m23.775 41.252c0.19521 0.77417 0.82229 0.8345 2.7568 1.0872 1.3064-0.23939 0.90113-0.87044 0.61405-0.69882-0.53346 0.31901-0.45178 0.29322-0.91117 0.25653-0.76162-0.11214-0.56594-0.05571-0.76162-0.11214-0.60962-0.17616-1.269-0.20999-1.6858-0.77334z" stroke-width=".17583"/>
  <path d="m23.376 40.122c-0.13825 0.78415-0.68555 0.87987-2.3712 1.2416-1.1557-0.16515-0.82718-0.81828-0.56815-0.66311 0.48133 0.28836 0.40863 0.26727 0.8099 0.20467 0.66306-0.1551 0.49389-0.08767 0.66306-0.1551 0.52707-0.21038 1.1039-0.28143 1.4453-0.86762z" stroke-width=".16476"/>
  <path d="m23.912 40.128c0.13702 0.78415 0.67944 0.87987 2.3499 1.2416 1.1454-0.16515 0.81978-0.81828 0.56307-0.66311-0.47703 0.28836-0.40498 0.26727-0.80264 0.20467-0.65714-0.1551-0.48945-0.08767-0.65714-0.1551-0.52235-0.21038-1.094-0.28143-1.4324-0.86762z" stroke-width=".16402"/>
  <path d="m23.348 39.32c-0.13691 0.77216-0.61679 0.84025-2.0959 1.1165-1.0056-0.22106-0.7052-0.85362-0.48228-0.68673 0.41427 0.31017 0.3512 0.28564 0.70285 0.24323 0.5821-0.12137 0.43302-0.06257 0.5821-0.12137 0.46453-0.18309 0.96958-0.2252 1.2799-0.79066z" stroke-width=".15353"/>
  <path d="m23.895 39.346c0.13691 0.77216 0.61679 0.84025 2.0959 1.1165 1.0056-0.22106 0.7052-0.85362 0.48228-0.68673-0.41427 0.31017-0.3512 0.28564-0.70285 0.24323-0.5821-0.12137-0.43302-0.06257-0.5821-0.12137-0.46453-0.18309-0.96958-0.2252-1.2799-0.79066z" stroke-width=".15353"/>
  <path d="m24.015 38.634c0.10861 0.66574 0.48931 0.72447 1.6627 0.96267 0.79773-0.19061 0.55947-0.736 0.3826-0.5921-0.32866 0.26744-0.27862 0.24629-0.55757 0.20969-0.4618-0.10465-0.34353-0.05393-0.4618-0.10465-0.3685-0.15786-0.488-0.11585-1.026-0.47562z" stroke-width=".12698"/>
  <path d="m23.345 38.568c-0.11358 0.66574-0.51175 0.72447-1.739 0.96267-0.83432-0.19061-0.58511-0.736-0.40015-0.5921 0.34372 0.26744 0.2914 0.24628 0.58316 0.20969 0.48298-0.10465 0.35927-0.05394 0.48298-0.10465 0.38542-0.15786 0.61444-0.12229 1.0008-0.48203z" stroke-width=".12985"/>
  <g transform="matrix(2.7906,0,0,3.2847,-31.65,-156.73)" stroke-linejoin="round">
   <path d="m19.91 59.334 0.01116 0.11042-0.04556 0.5632-0.0069 0.53352 0.02055 0.34764-0.03352 0.28375c-0.05891 0.15578-0.07884 0.24286-0.14917-6e-3l-0.04574-0.27929 0.03295-0.34133 0.0043-0.53814-0.06956-0.56849 0.0095-0.10414z" stroke-linecap="square" stroke-width=".065232"/>
   <path d="m19.63 58.93-6.3e-5 -0.05252 0.31821 8.49e-4 5.39e-4 0.05163 0.06439-1.75e-4 -0.0013 0.03939-0.06313 8.1e-4 -5.38e-4 0.04463-0.31821-2.06e-4 0.0013-0.04707-0.07324 6.1e-5 0.0013-0.03764z" stroke-width=".025231"/>
   <path d="m19.632 58.751-5.6e-5 -0.05252 0.28684 8.49e-4 4.85e-4 0.05163 0.05805-1.75e-4 -0.0011 0.03939-0.05691 8.1e-4 -4.83e-4 0.04463-0.28684-2.06e-4 0.0011-0.04707-0.06602 6.1e-5 0.0011-0.03764z" fill="#decd87" stroke="#d3bc5f" stroke-width=".023955"/>
  </g>
  <path d="m18.704 45.012c-0.18116 0.66898 0.15338 0.5206-0.02991 0.88644-0.38073 0.21048-0.35336 0.11412-0.54107 0.05033-0.20874-0.07096-0.08397 0.12738-0.48914-0.26658 0.01817-0.40867 0.22306-0.11044 0.41088-0.76365 0.23226-0.8077 0.66533-2.3872 0.84301-3.1285 0.23717-0.98969 0.49762-2.1607 0.7431-2.9751-0.09992-0.58428 0.13556-1.3015 0.48696-1.0259 0.07647 0.05327 0.26272 0.40861 0.63595 0.08617 0 0 0.30634-0.02266 0.46113 0.05669 0.16997 0.08612 0.20252 0.2961 0.20412 0.43662 2.99e-4 0.08585-0.0093 0.31002-0.19524 0.38926-0.17862 0.07581-0.40831 0.02721-0.48101-0.0548-0.30227-0.34452-0.52869 0.06281-0.57834 0.30823-0.17291 0.8556-0.75574 2.9782-0.75574 2.9782-0.22644 0.92687-0.57513 2.1467-0.71476 3.0231z" stroke-width=".12148"/>
 </g>
 <path d="m24.548 29.424-1.59e-4 -0.18441 0.80812 3e-3 0.0013 0.18129 0.16353-6.15e-4 -0.0031 0.13831-0.16034 0.0029-0.0013 0.15672-0.80812-7.24e-4 0.0031-0.16528-0.186 2.14e-4 0.0031-0.13217z" fill="#decd87" stroke="#d3bc5f" stroke-linejoin="round" stroke-width=".075345"/>
 <g transform="matrix(1.109,0,0,1.069,-1.1567,-8.7087)" fill="#f4eed7" stroke="#e9ddaf">
  <path d="m23.153 38.171c-0.24097-0.01544-0.38321 0.04224-0.60445 0.03462-0.19869-0.0069-0.3548-0.06385-0.75671-0.14811-0.25339-0.05311-0.56134-0.12209-0.83541-0.15481-0.28928-3.38e-4 -0.49712 0.02398-0.67843-0.05108-0.17723-0.07321-0.27764 0.21584-0.05238 0.28202 0.21876 0.0053 0.46509-0.02398 0.70626 0.0079 0.41784 0.05522 0.79377 0.18174 0.79377 0.18174 0.27895 0.06573 0.59485 0.10856 0.86876 0.12265 0.45934 0.02332 0.70944-0.02759 0.65097-0.19902-0.01032-0.03088-0.05138-0.04838-0.09243-0.07578z" stroke-width=".069541"/>
  <path d="m31.637 42.86c0.50814 0.47132 0.14588 0.52275 0.4951 0.73589 0.43442-0.02327 0.36013-0.09053 0.48553-0.24404 0.13942-0.17079 0.1387 0.06352 0.27355-0.48527-0.23198-0.33694-0.2477 0.02444-0.75311-0.42988-0.62498-0.56189-1.8293-1.6719-2.3728-2.2064-0.72558-0.71362-1.567-1.5686-2.2068-2.1292-0.22482-0.54848-0.80468-1.0319-0.95663-0.61199-0.03661 0.08567-0.0063 0.48575-0.49366 0.41007 0 0-0.27174 0.14324-0.36102 0.29244-0.09851 0.1631-0.01483 0.35842 0.05823 0.47844 0.04527 0.07297 0.17218 0.25798 0.37185 0.22665 0.19166-0.03039 0.36072-0.19322 0.37887-0.30137 0.07378-0.45234 0.48164-0.22691 0.6538-0.04508 0.60003 0.63396 2.2191 2.1252 2.2191 2.1252 0.6832 0.66604 1.6253 1.5157 2.2082 2.185z" stroke-width=".12148"/>
  <path d="m15.075 52.07c-0.29651 0.58612-0.42792 0.45447-0.57325 0.81208-0.0884 0.34814 0.07206 0.42478 0.14134 0.45934 0.14806-0.08499 0.10201 0.02718 0.3408-0.2297 0.19958-0.3172-0.01993-0.24883 0.26738-0.8259 0.35522-0.7136 1.0544-2.0997 1.3875-2.739 0.44472-0.85348 0.97513-1.8543 1.3312-2.5788 0.21594-0.43944 0.35406-0.45775 0.60391-0.83418-0.02924-0.20783-0.10206-0.16066-0.16395-0.19186-0.06327-0.03119-0.09684-0.14555-0.30032-0.01321-0.166 0.2498-0.11711 0.53236-0.34373 0.95178-0.39103 0.72365-1.3302 2.5867-1.3302 2.5867-0.41568 0.80118-0.95276 1.8779-1.3607 2.6027z" stroke-width=".073978"/>
  <path d="m15.738 52.495c-0.22799 0.61182-0.17397 0.58825-0.25172 0.85916-0.24495 0.28707-0.2719 0.32389-0.40491 0.27171-0.148-0.05799-0.47201-0.25695-0.34925-0.48703 0.20016-0.37517 0.29773-0.11138 0.52853-0.70905 0.28542-0.73907 0.82761-2.1838 1.0628-2.8611 0.31394-0.90416 0.67015-1.9733 0.9664-2.7187 0.17975-0.45223 0.02667-0.75472 0.21078-0.95342 0.18524-0.19993 0.28506-0.11033 0.40422-0.06363 0.12114 0.04747 0.20672-0.11096 0.28299 0.307-0.04256 0.30108-0.37853 0.41914-0.52178 0.8716-0.24711 0.78071-0.97639 2.7221-0.97639 2.7221-0.29724 0.84691-0.72674 1.963-0.95156 2.7615z" stroke-width=".1002"/>
  <path d="m15.209 54.416a0.26595 0.15097 7.8561 0 1-0.21959-0.19427 0.26595 0.15097 7.8561 0 1 0.3024-0.09815 0.26595 0.15097 7.8561 0 1 0.2196 0.19427 0.26595 0.15097 7.8561 0 1-0.3024 0.09815z" stroke-width=".056354"/>
 </g>
 <g transform="matrix(1.109 0 0 1.069 4.4317 -8.051)">
  <g transform="rotate(-7,10.133,64.679)">
   <g fill="none" stroke-width=".2px">
    <path d="m10.508 54.255-12.318 13.622" stroke="#b3b3b3"/>
    <path d="m10.189 55.349-9.7664 11.439-2.2321 1.088" stroke="#808080"/>
    <path d="m9.3529 54.649-10.386 10.93-0.77602 2.2976" stroke="#b3b3b3"/>
   </g>
   <path transform="scale(.2)" d="m-7.4361 336.58c0-0.0735 0.61474-1.9779 1.3661-4.232l1.3661-4.0983 51.963-54.689 0.6567 0.64682 0.6567 0.64683-0.59232 0.61663c-0.32578 0.33915-12.722 14.044-27.547 30.456s-27.161 30.053-27.412 30.313c-0.25144 0.26045-0.45716 0.4134-0.45716 0.33989z" fill="#ccc"/>
   <path transform="scale(.2)" d="m-6.0547 336.96c0.18958-0.20562 12.745-14.093 27.901-30.861l27.556-30.487 0.46893 0.35767c0.25791 0.19672 0.46893 0.413 0.46893 0.48063 0 0.0676-10.926 12.922-24.28 28.566l-24.28 28.443-3.9497 1.9372c-2.1724 1.0654-4.0126 1.9372-4.0895 1.9372-0.076854 0 0.01538-0.16823 0.20496-0.37384z" fill="#b3b3b3" stroke="#b3b3b3" stroke-width=".13594"/>
   <g stroke-width=".2px">
    <path d="m13.241 50.109-3.0451 3.888 0.59815 0.4894 3.0179-3.888-0.57096-0.48939" fill="#803300" stroke="#520" stroke-linejoin="round"/>
    <path d="m10.196 53.997 0.59815 0.48939" fill="none" stroke="#520"/>
    <path d="m10.196 53.997 0.59815 0.48939" fill="none" stroke="#ccc"/>
    <path d="m10.794 54.486 0.7069 1.4138-0.2447 0.29907-2.8276-2.5557 0.35345-0.35345 1.4138 0.7069" fill="#e6e6e6" stroke="#ccc"/>
    <path d="m9.934 54.87 0.55737-0.64573" fill="none" stroke="#ececec"/>
   </g>
  </g>
  <path d="m8.8006 54.025 0.81176 0.51461" fill="none" stroke="#ccc" stroke-width=".21"/>
 </g>
 <g transform="matrix(1.109,0,0,1.069,-1.1567,-8.7087)" fill="#f4eed7" stroke="#e9ddaf">
  <ellipse cx="14.458" cy="53.45" rx=".33716" ry=".37221" stroke-width=".13985"/>
  <path d="m14.961 53.855a0.48757 0.20154 61.523 0 1 0.04667 0.51753 0.48757 0.20154 61.523 0 1-0.41068-0.34354 0.48757 0.20154 61.523 0 1-0.04667-0.51753 0.48757 0.20154 61.523 0 1 0.41068 0.34354z" stroke-width=".088159"/>
  <path d="m15.124 54.271a0.32483 0.1181 61.635 0 1 0.04246 0.33473 0.32483 0.1181 61.635 0 1-0.25966-0.24015 0.32483 0.1181 61.635 0 1-0.04246-0.33474 0.32483 0.1181 61.635 0 1 0.25966 0.24014z" stroke-width=".055086"/>
  <path d="m15.919 53.26a0.28814 0.090422 80.277 0 1-0.07131 0.22882 0.28814 0.090422 80.277 0 1-0.12464-0.3308 0.28814 0.090422 80.277 0 1 0.0713-0.22882 0.28814 0.090422 80.277 0 1 0.12464 0.3308z" stroke-width=".045397"/>
  <path d="m15.726 53.465a0.32346 0.11386 78.7 0 1-0.09016 0.25582 0.32346 0.11386 78.7 0 1-0.1576-0.36983 0.32346 0.11386 78.7 0 1 0.09015-0.25582 0.32346 0.11386 78.7 0 1 0.1576 0.36983z" stroke-width=".053974"/>
  <path d="m15.584 53.718a0.32715 0.12578 77.219 0 1-0.10002 0.25766 0.32715 0.12578 77.219 0 1-0.17482-0.37248 0.32715 0.12578 77.219 0 1 0.09999-0.25766 0.32715 0.12578 77.219 0 1 0.17482 0.37248z" stroke-width=".05705"/>
  <path d="m15.476 54.03a0.32346 0.11386 78.7 0 1-0.09016 0.25582 0.32346 0.11386 78.7 0 1-0.1576-0.36983 0.32346 0.11386 78.7 0 1 0.09015-0.25582 0.32346 0.11386 78.7 0 1 0.1576 0.36983z" stroke-width=".053974"/>
  <path d="m15.774 52.88a0.18127 0.089141 28.58 0 1 0.03318 0.15004 0.18127 0.089141 28.58 0 1-0.23068-0.06919 0.18127 0.089141 28.58 0 1-0.03318-0.15004 0.18127 0.089141 28.58 0 1 0.23068 0.06919z" stroke-width=".035751"/>
  <path d="m15.527 53.073a0.22074 0.10288 25.239 0 1 0.04116 0.16999 0.22074 0.10288 25.239 0 1-0.28615-0.07839 0.22074 0.10288 25.239 0 1-0.04116-0.16999 0.22074 0.10288 25.239 0 1 0.28614 0.07839z" stroke-width=".042383"/>
  <path d="m15.257 53.604a0.22074 0.10288 25.239 0 1 0.04116 0.16999 0.22074 0.10288 25.239 0 1-0.28615-0.07839 0.22074 0.10288 25.239 0 1-0.04116-0.16999 0.22074 0.10288 25.239 0 1 0.28614 0.07839z" stroke-width=".042383"/>
  <path d="m15.334 53.295a0.24202 0.1171 27.459 0 1 0.04459 0.19584 0.24202 0.1171 27.459 0 1-0.30996-0.09031 0.24202 0.1171 27.459 0 1-0.04459-0.19583 0.24202 0.1171 27.459 0 1 0.30996 0.0903z" stroke-width=".047347"/>
  <path d="m23.912 38.167c0.24097-0.01544 0.38321 0.04224 0.60445 0.03462 0.19869-0.0069 0.3548-0.06386 0.75671-0.14811 0.25339-0.05311 0.56134-0.12209 0.83541-0.15481 0.28928-3.38e-4 0.49712 0.02398 0.67843-0.05108 0.17723-0.07322 0.27764 0.21584 0.05238 0.28202-0.21876 0.0053-0.46509-0.02398-0.70626 0.0079-0.41784 0.05522-0.79377 0.18174-0.79377 0.18174-0.27895 0.06573-0.59485 0.10856-0.86876 0.12265-0.45934 0.02332-0.70944-0.02759-0.65097-0.19902 0.01032-0.03088 0.05138-0.04838 0.09243-0.07578z" stroke-width=".069544"/>
  <path d="m26.908 47.966c-0.49602 0.42458-0.43735 0.43015-0.63669 0.6294-0.35341 0.13232-0.39483 0.15146-0.48587 0.0413-0.10133-0.12247-0.28826-0.45357-0.06934-0.59529 0.35695-0.23109 0.3144 0.04691 0.80602-0.36392 0.60795-0.50803 1.7826-1.5087 2.3167-1.9871 0.71292-0.63859 1.5428-1.401 2.1633-1.9093 0.37646-0.30839 0.38923-0.64717 0.64658-0.73169 0.25894-0.08506 0.30281 0.04172 0.38439 0.14032 0.08294 0.10026 0.2346 0.0032 0.09867 0.4057-0.18319 0.2427-0.53428 0.18307-0.87892 0.50935-0.59463 0.56302-2.1737 1.9074-2.1737 1.9074-0.67056 0.59662-1.5873 1.3645-2.171 1.9539z" stroke-width=".1002"/>
  <path d="m27.154 47.873c-0.49448 0.43237-0.56701 0.26108-0.83572 0.5382-0.21238 0.28968-0.09231 0.42085-0.04102 0.47884 0.16912-0.02333 0.0844 0.06341 0.40203-0.08531 0.30387-0.21935 0.07473-0.23817 0.55729-0.6656 0.59668-0.52857 1.7642-1.5518 2.3125-2.0198 0.73205-0.62474 1.5988-1.354 2.2003-1.8923 0.36484-0.32655 0.49976-0.29178 0.87242-0.54721 0.05074-0.20365-0.03444-0.1872-0.08014-0.23931-0.04697-0.05261-0.03526-0.17122-0.2735-0.12475-0.24749 0.16943-0.30801 0.44972-0.67524 0.75372-0.63364 0.52447-2.2024 1.9-2.2024 1.9-0.68554 0.58712-1.5869 1.3843-2.2366 1.9034z" stroke-width=".073978"/>
 </g>
 <g transform="matrix(.9184 -.41281 .46869 .96885 -31.656 9.104)">
  <g transform="translate(14.029,1.6857)">
   <ellipse cx="25.924" cy="49.334" rx="6.3193" ry="6.4009" fill="#917c6f" stroke="#6c5d53" stroke-linecap="square" stroke-linejoin="round" stroke-width=".26843"/>
   <g fill="none" stroke="#000">
    <path d="m25.938 42.798 0.05437 13.067" stroke-width=".20287px"/>
    <path d="m27.95 43.178v12.304" stroke-width=".20283px"/>
    <path d="m29.962 44.31-0.05434 10.063" stroke-width=".20471px"/>
    <path d="m23.966 43.143-0.06769 12.359" stroke-width=".20118px"/>
    <path d="m22.05 44.186v10.265" stroke-width=".20258px"/>
    <path d="m20.276 46.358 0.05315 6.0273" stroke-width=".20733px"/>
    <path d="m31.348 45.957-0.05435 6.8405" stroke-width=".20644px"/>
   </g>
  </g>
 </g>
 <g stroke-linecap="square" stroke-linejoin="round">
  <path d="m27.232 28.045c-0.46097 0.67362-0.3541 0.35164-0.79778 0.60964-0.259 0.15061-0.04277 0.54376-0.29634 0.56328-0.17738 0.01365-0.35083-0.09318-0.5013-0.08778-0.1283 0.0046-0.42612 0.01931-0.65351 0.04826l-0.36746 0.04676-0.19942-0.32322c-0.2336-0.37861-0.34527 0.09667-1.1854-0.49968-0.29088-0.20649-0.46406-0.9792-0.30756-1.3746 0.33202-0.83887 1.2736-1.2329 1.7976-1.2864 0.78937-0.08071 0.90998-0.1835 2.0134 0.31623 0.54561 0.7009 0.28 0.74699 0.4976 1.9875z" fill="#f4eed7" stroke="#e9ddaf" stroke-width=".28482"/>
  <g transform="matrix(1.2542 0 0 1.2089 -1.7251 -7.7803)" fill="#786721" stroke="#e9ddaf">
   <path d="m21.558 29.246c0 0.09805-0.07667 0.12349-0.13988 0.19466-0.08511 0.09582-0.16669 0.20323-0.31392 0.20323-0.12847 0-0.29323-0.0093-0.37733-0.08494-0.08386-0.07536-0.09801-0.19808-0.09801-0.31296 0-0.10755 0.01853-0.21493 0.09313-0.28884 0.08501-0.08422 0.23479-0.10438 0.37143-0.10438 0.13064 0 0.28723 0.02731 0.38155 0.09345 0.11685 0.08196 0.08302 0.18683 0.08302 0.29976z" stroke-width=".15503"/>
   <path d="m21.992 29.251c0 0.09259 0.06037 0.11662 0.11014 0.18383 0.06702 0.09049 0.13125 0.19193 0.24718 0.19193 0.10116 0 0.23088-0.0088 0.2971-0.08021 0.06603-0.07118 0.07717-0.18706 0.07717-0.29554 0-0.10157-0.01458-0.20297-0.07334-0.27277-0.06694-0.07953-0.18487-0.09857-0.29246-0.09857-0.10286 0-0.22616 0.02579-0.30043 0.08825-0.092 0.0774-0.06537 0.17643-0.06537 0.28309z" stroke-width=".13369"/>
   <path d="m22.069 29.9c0 0.06688-0.02328 0.1283-0.06214 0.17654-0.02003 0.02485-0.04417 0.04621-0.07142 0.06301-0.04262 0.02629-0.10056-0.04862-0.15425-0.04862-0.05327 0-0.09529 0.07514-0.13768 0.04923-0.0272-0.01663-0.05138-0.03779-0.07146-0.06244-0.03944-0.04843-0.10268-0.12114-0.06313-0.17775 0.17891-0.25608 0.12538-0.28102 0.28004-0.28102 0.19499 0.0028 0.14904 0.01067 0.28004 0.28103z" stroke-width=".12116"/>
  </g>
  <g transform="matrix(1.4353 0 0 1.2816 -11.841 -2.4459)">
   <path d="m25.654 23.421a0.20971 0.20968 0 0 1-0.20971 0.20968 0.20971 0.20968 0 0 1-0.20971-0.20968 0.20971 0.20968 0 0 1 0.20971-0.20968 0.20971 0.20968 0 0 1 0.20971 0.20968" stroke="#540" stroke-width=".095984"/>
   <path d="m25.616 23.42a0.17305 0.17305 0 0 1-0.17305 0.17305 0.17305 0.17305 0 0 1-0.17305-0.17305 0.17305 0.17305 0 0 1 0.17305-0.17305 0.17305 0.17305 0 0 1 0.17305 0.17305" stroke="#786721" stroke-width=".057841"/>
   <path d="m25.589 23.421a0.14457 0.14457 0 0 1-0.14457 0.14457 0.14457 0.14457 0 0 1-0.14457-0.14457 0.14457 0.14457 0 0 1 0.14457-0.14457 0.14457 0.14457 0 0 1 0.14457 0.14457" fill="#f00" stroke="#d40000" stroke-width=".042797"/>
  </g>
  <g transform="matrix(1.2028 0 0 1.2379 -4.2809 -1.4293)">
   <path d="m25.654 23.421a0.20971 0.20968 0 0 1-0.20971 0.20968 0.20971 0.20968 0 0 1-0.20971-0.20968 0.20971 0.20968 0 0 1 0.20971-0.20968 0.20971 0.20968 0 0 1 0.20971 0.20968" stroke="#540" stroke-width=".095984"/>
   <path d="m25.616 23.42a0.17305 0.17305 0 0 1-0.17305 0.17305 0.17305 0.17305 0 0 1-0.17305-0.17305 0.17305 0.17305 0 0 1 0.17305-0.17305 0.17305 0.17305 0 0 1 0.17305 0.17305" stroke="#786721" stroke-width=".057841"/>
   <path d="m25.589 23.421a0.14457 0.14457 0 0 1-0.14457 0.14457 0.14457 0.14457 0 0 1-0.14457-0.14457 0.14457 0.14457 0 0 1 0.14457-0.14457 0.14457 0.14457 0 0 1 0.14457 0.14457" fill="#f00" stroke="#d40000" stroke-width=".042797"/>
  </g>
  <g transform="matrix(1.2542 0 0 1.2089 -1.7251 -7.7803)" fill="#ffe680" stroke="#fd5">
   <path d="m21.725 30.642c9e-3 0.03499-0.0078 0.06982-0.02053 0.09539-0.01543 0.03081-0.03338 0.03107-0.05878 0.03107-0.02474-3e-6 -0.0518 7.25e-4 -0.06719-0.02874-0.01349-0.02583-0.03205-0.06202-0.02172-0.09771 0.03124-0.10794 0.03765-0.14568 0.08411-0.14569 0.04645-5e-6 0.05287 0.02399 0.08412 0.14569z" stroke-width=".058181"/>
   <path d="m21.958 30.648c9e-3 0.0346-0.0078 0.06903-0.02053 0.09431-0.01543 0.03047-0.03338 0.03072-0.05878 0.03072-0.02474-3e-6 -0.0518 7.18e-4 -0.06719-0.02841-0.01349-0.02555-0.03204-0.06132-0.02172-0.09661 0.03124-0.10673 0.03765-0.14404 0.0841-0.14405 0.04645-5e-6 0.05287 0.02371 0.08412 0.14405z" stroke-width=".057853"/>
   <path d="m22.116 30.652c0.0078 0.02714-0.0066 0.05415-0.01757 0.07399-0.01321 0.02391-0.02858 0.02411-0.05031 0.02411-0.02117-4e-6 -0.04434 5.62e-4 -0.05751-0.02229-0.01155-0.02005-0.02742-0.04811-0.0186-0.0758 0.02675-0.08374 0.03223-0.113 0.07198-0.11301 0.03976-4e-6 0.04525 0.0186 0.072 0.11301z" stroke-width=".047406"/>
   <path d="m21.516 30.655c0.0078 0.03099-0.0066 0.06182-0.01757 0.08447-0.01321 0.02729-0.02858 0.02752-0.05031 0.02752-0.02117-3e-6 -0.04434 6.41e-4 -0.05751-0.02545-0.01155-0.02289-0.02742-0.05493-0.0186-0.08654 0.02674-0.0956 0.03223-0.12901 0.07198-0.12901 0.03976-5e-6 0.04525 0.02123 0.072 0.12901z" stroke-width=".050652"/>
   <path d="m20.876 30.566c0.0057 0.02332-0.0048 0.04653-0.01283 0.06356-0.0096 0.02053-0.01847 0.03812-0.03436 0.03812-0.01547-3e-6 -0.03479-0.01693-0.04442-0.03656-0.0085-0.01723-0.02004-0.04133-0.01358-0.06512 0.01955-0.07194 0.02355-0.09708 0.0526-0.09708 0.02904-3e-6 0.03306 0.01599 0.0526 0.09708z" stroke-width=".037559"/>
   <path d="m20.948 30.622c0.0057 0.02332-0.0048 0.04653-0.01283 0.06356-0.0096 0.02053-0.01847 0.03812-0.03436 0.03812-0.01547-3e-6 -0.03479-0.01693-0.04442-0.03656-0.0085-0.01723-0.02004-0.04133-0.01358-0.06512 0.01955-0.07194 0.02355-0.09708 0.0526-0.09708 0.02905-4e-6 0.03306 0.01599 0.0526 0.09708z" stroke-width=".037559"/>
   <path d="m21.025 30.66c0.0057 0.02427-0.0048 0.04842-0.01283 0.06615-0.0096 0.02137-0.01847 0.03967-0.03436 0.03967-0.01547-3e-6 -0.03479-0.01762-0.04442-0.03805-0.0085-0.01793-0.02004-0.04301-0.01358-0.06777 0.01955-0.07486 0.02355-0.10103 0.0526-0.10104 0.02904-4e-6 0.03306 0.01663 0.0526 0.10104z" stroke-width=".038314"/>
   <path d="m21.126 30.676c0.0057 0.02408-0.0048 0.04804-0.01283 0.06564-0.0096 0.0212-0.01847 0.03936-0.03436 0.03936-0.01547-3e-6 -0.03479-0.01748-0.04442-0.03776-0.0085-0.01779-0.02004-0.04268-0.01358-0.06724 0.01955-0.07428 0.02355-0.10026 0.0526-0.10026 0.02904-4e-6 0.03306 0.01651 0.0526 0.10026z" stroke-width=".038166"/>
   <path d="m21.237 30.68c0.0057 0.02502-0.0048 0.04991-0.01283 0.06819-0.0096 0.02203-0.01847 0.04089-0.03436 0.04089-0.01547-4e-6 -0.03479-0.01816-0.04442-0.03922-0.0085-0.01848-0.02004-0.04433-0.01358-0.06985 0.01955-0.07717 0.02355-0.10413 0.0526-0.10414 0.02905-4e-6 0.03306 0.01714 0.0526 0.10414z" stroke-width=".0389"/>
   <path d="m21.354 30.683c0.0057 0.02913-0.0048 0.05813-0.01283 0.07941-0.0096 0.02567-0.01847 0.04763-0.03436 0.04763-0.01547-3e-6 -0.03479-0.02116-0.04442-0.04569-0.0085-0.02152-0.02004-0.05164-0.01358-0.08136 0.01955-0.08989 0.02355-0.1213 0.0526-0.12131s0.03306 0.01997 0.0526 0.12131z" stroke-width=".041983"/>
   <path d="m22.438 30.604c0.0057 0.02033-0.0048 0.04056-0.01283 0.0554-0.0096 0.01789-0.01847 0.03322-0.03436 0.03322-0.01547-3e-6 -0.03479-0.01476-0.04442-0.03187-0.0085-0.01501-0.02004-0.03602-0.01359-0.05675 0.01955-0.06269 0.02355-0.08461 0.0526-0.08461 0.02904-3e-6 0.03306 0.01393 0.0526 0.08461z" stroke-width=".035063"/>
   <path d="m22.354 30.648c0.0057 0.02033-0.0048 0.04056-0.01283 0.0554-0.0096 0.01789-0.01847 0.03322-0.03436 0.03322-0.01547-3e-6 -0.03479-0.01476-0.04442-0.03187-0.0085-0.01501-0.02004-0.03602-0.01358-0.05675 0.01955-0.06269 0.02355-0.08461 0.0526-0.08461 0.02904-3e-6 0.03306 0.01393 0.0526 0.08461z" stroke-width=".035063"/>
   <path d="m22.235 30.673c0.0057 0.0302-0.0048 0.06027-0.01283 0.08233-0.0096 0.0266-0.01847 0.04938-0.03436 0.04938-0.01547-4e-6 -0.03479-0.02193-0.04442-0.04737-0.0085-0.0223-0.02004-0.05354-0.01358-0.08435 0.01955-0.09318 0.02355-0.12575 0.0526-0.12576 0.02904-6e-6 0.03306 0.0207 0.0526 0.12576z" stroke-width=".042746"/>
  </g>
  <g transform="matrix(1.2542 0 0 1.2089 -1.7251 -7.7803)">
   <path d="m21.614 32.07c-0.16379-0.02044-1.063-0.56791-1.3479-0.68806-0.06841-0.4429-0.0557-0.69526-0.11647-1.1875 0.05303-0.0099 0.19299-0.03478 0.20964 0.0452 0.046 0.22091 0.02671 0.72425 0.15889 0.85766 0.13162 0.13285 0.45385 0.39736 0.96354 0.46808 0.09397 0.01304 0.34736 0.01564 0.4279 0.0076 0.22974-0.02272 0.37963-0.27211 0.52923-0.48429 0.11523-0.16343 0.13148-0.36309 0.16011-0.85773 0.0046-0.07881 0.03533-0.09961 0.14912-0.08391-8e-3 0.49807-0.03674 0.88666-0.12548 1.1013-0.20946 0.26077-0.29321 0.59871-0.57432 0.8163-0.17492 0.05089-0.26211 0.02383-0.43422 0.0054z" fill="#f4eed7" stroke="#e9ddaf" stroke-width=".12116"/>
   <g fill="#ffe680" stroke="#fd5">
    <path d="m21.728 31.414c0.0075-0.03499-0.0064-0.06982-0.01702-0.09539-0.0128-0.03081-0.02767-0.03107-0.04873-0.03107-0.02051 3e-6 -0.04295-7.25e-4 -0.05571 0.02874-0.01118 0.02583-0.02656 0.06202-0.01801 0.09771 0.0259 0.10794 0.03122 0.14568 0.06972 0.14569 0.03851 5e-6 0.04384-0.02399 0.06974-0.14569z" stroke-width=".052975"/>
    <path d="m21.921 31.407c0.0075-0.0346-0.0064-0.06903-0.01702-0.09431-0.0128-0.03047-0.02767-0.03072-0.04873-0.03072-0.02051 3e-6 -0.04294-7.18e-4 -0.05571 0.02841-0.01118 0.02555-0.02656 0.06132-0.01801 0.09661 0.0259 0.10673 0.03122 0.14404 0.06972 0.14405 0.03851 5e-6 0.04384-0.02371 0.06973-0.14405z" stroke-width=".052676"/>
    <path d="m22.053 31.403c0.0064-0.02714-0.0055-0.05415-0.01457-0.07399-0.01095-0.02391-0.02369-0.02411-0.04171-0.02411-0.01755 4e-6 -0.03676-5.61e-4 -0.04768 0.02229-0.0096 0.02005-0.02273 0.04811-0.01542 0.0758 0.02217 0.08374 0.02672 0.113 0.05967 0.11301 0.03296 4e-6 0.03751-0.0186 0.05969-0.11301z" stroke-width=".043164"/>
    <path d="m21.554 31.401c0.0064-0.03099-0.0055-0.06182-0.01457-0.08447-0.01095-0.02729-0.02369-0.02752-0.04171-0.02752-0.01755 3e-6 -0.03676-6.41e-4 -0.04768 0.02545-0.0096 0.02289-0.02273 0.05493-0.01542 0.08654 0.02218 0.0956 0.02672 0.12901 0.05968 0.12901s0.03751-0.02123 0.05969-0.12901z" stroke-width=".046119"/>
    <g stroke-width=".0538">
     <path d="m20.871 31.113c0.0099-0.02714-0.0085-0.05415-0.02256-0.07399-0.01696-0.02391-0.03669 0.0065-0.06459 0.0065-0.02718 4e-6 -0.05693-0.03115-0.07384-0.0083-0.01487 0.02005-0.0352 0.04811-0.02388 0.0758 0.03433 0.08374 0.04138 0.113 0.09241 0.11301 0.05104 4e-6 0.05809-0.0186 0.09244-0.11301z"/>
     <path d="m20.987 31.198c0.0099-0.02714-0.0085-0.05415-0.02256-0.07399-0.01696-0.02391-0.03669 0.0065-0.06459 0.0065-0.02718 4e-6 -0.05693-0.03115-0.07384-0.0083-0.01487 0.02005-0.0352 0.04811-0.02388 0.0758 0.03433 0.08374 0.04138 0.113 0.09241 0.11301 0.05104 4e-6 0.05809-0.0186 0.09244-0.11301z"/>
     <path d="m21.12 31.266c0.0099-0.02714-0.0085-0.05415-0.02256-0.07399-0.01696-0.02391-0.03669 0.0065-0.06459 0.0065-0.02718 4e-6 -0.05693-0.03115-0.07384-0.0083-0.01487 0.02005-0.0352 0.04811-0.02388 0.0758 0.03433 0.08374 0.04138 0.113 0.09241 0.11301 0.05104 4e-6 0.05809-0.0186 0.09244-0.11301z"/>
     <path d="m21.276 31.344c-0.01426-0.09238-0.07827-0.06061-0.08715-0.06749-0.02718 4e-6 -0.05693-0.03115-0.07384-0.0083-0.01487 0.02005-0.0352 0.04811-0.02388 0.0758 0.03433 0.08374 0.04138 0.113 0.09241 0.11301 0.05104 4e-6 0.05809-0.0186 0.09244-0.11301z"/>
    </g>
    <path d="m21.413 31.385c0.0098-0.03388 0.0015-0.06901-5e-3 -0.0948-0.0075-0.03111-0.01494-0.05778-0.0326-0.05915-0.01719-0.0013-0.04114 0.02199-0.05472 0.05012-0.01198 0.02466-0.02833 0.05923-0.02466 0.09485 0.01117 0.10775 0.01198 0.14516 0.04424 0.14766 0.03227 0.0025 0.03909-0.02073 0.0727-0.13865z" stroke-width=".048265"/>
    <g stroke-width=".042802">
     <path d="m22.448 31.039c0.0075-0.02261-0.0065-0.04511-0.01714-0.06164-0.01289-0.01992-0.02788 0.0054-0.04908 0.0054-0.02065 3e-6 -0.04325-0.02595-0.05611-0.0069-0.0113 0.0167-0.02674 0.04008-0.01814 0.06314 0.02608 0.06976 0.03144 0.09413 0.07021 0.09414 0.03878 3e-6 0.04414-0.01549 0.07024-0.09414z"/>
     <path d="m22.385 31.17c0.0075-0.02261-0.0065-0.04511-0.01714-0.06164-0.01289-0.01992-0.02788 0.0054-0.04908 0.0054-0.02065 3e-6 -0.04325-0.02595-0.05611-0.0069-0.0113 0.0167-0.02674 0.04008-0.01814 0.06314 0.02608 0.06976 0.03144 0.09413 0.07021 0.09414 0.03878 3e-6 0.04414-0.01549 0.07024-0.09414z"/>
     <path d="m22.294 31.258c0.0075-0.02261-0.0065-0.04511-0.01714-0.06164-0.01289-0.01992-0.02788 0.0054-0.04908 0.0054-0.02065 3e-6 -0.04325-0.02595-0.05611-0.0069-0.0113 0.0167-0.02674 0.04008-0.01814 0.06314 0.02608 0.06976 0.03144 0.09413 0.07021 0.09414 0.03878 3e-6 0.04414-0.01549 0.07024-0.09414z"/>
    </g>
    <path d="m22.151 31.373c0.0048-0.03243-4e-3 -0.06473-0.01063-0.08842-0.0079-0.02857-0.01531-0.05303-0.02848-0.05303-0.01282 5e-6 -0.02884 0.02355-0.03682 0.05088-0.0071 0.02395-0.01661 0.0575-0.01126 0.09059 0.01621 0.10008 0.01952 0.13506 0.04361 0.13506 0.02408 5e-6 0.02741-0.02223 0.04361-0.13506z" stroke-width=".040335"/>
   </g>
  </g>
 </g>
</svg>
