<svg width="100" height="100" version="1.1" viewBox="0 0 20 20" xmlns="http://www.w3.org/2000/svg">
 <g transform="translate(12.643 1.1429)">
  <path d="m8.3967 3.1092 1.5676-0.99849 1.9956-0.021599 1.5478 1.0232-0.63366 5.2299-1.8991 1.9168-1.8073-1.9489z" fill="#0cf" stroke="#00aad4" stroke-width=".2px"/>
  <path d="m8.9822 4.7547 0.59978-0.37249 1.1869 0.20203-0.2841-1.2879 0.49245-0.52402 0.51139 0.53664-0.30304 1.2753 1.1996-0.21466 0.59978 0.40406-0.59346 0.39775-1.1996-0.18309 0.27148 2.2855-0.4672 1.1238-0.50508-1.1238 0.30304-2.2981-1.2122 0.20203z" fill="#f00" stroke="#d40000" stroke-width=".1"/>
 </g>
 <path d="m-0.591 11.086-2.7969 0.0045-0.00223 0.39955 1.2029 0.0024-0.02586 1.6284 0.42584 0.0067-7.669e-4 -1.6364 1.1988-0.0033z" fill="#f00" stroke="#d40000" stroke-width=".1"/>
 <path d="m-1.7985 10.979 0.17847-7.7135-0.35738-2.2729-0.38808 2.2635 0.17852 7.7209z" fill="#fd5" stroke="#fc0" stroke-width=".11754"/>
 <path d="m-1.9665 10.813-0.017541-9.5311" fill="none" stroke="#fc0" stroke-width=".11754"/>
 <g fill="#0cf" stroke="#00aad4" stroke-width=".2px">
  <path d="m7.4068 31.989-0.4163 1.999-0.012268 2.1974 1.8214-0.01786 0.30357-2.125 0.089286-2.0714z"/>
  <path d="m12.23 31.996 0.4163 1.999 0.01227 2.1974-1.8214-0.01786-0.30357-2.125-0.08929-2.0714z"/>
  <path d="m8.6783 25.924 2.1228-0.01696 0.8824-0.22195 0.91072 0.01786 0.04464 0.89286-0.0089 2.5536-0.41967 0.46428-0.0089 1.6339 1.3214 2.8214-2.2857-0.07143-0.32143-2-0.14286 2.3214-1.8661-0.0089-0.0625-2.3482-0.35714 2-2.3839 0.08928 1.3482-2.875 0.035714-1.5357-0.39824-0.55335-0.031382-2.54 0.049021-0.82539 0.9412-0.05051z"/>
  <path d="m12.776 29.638 0.33947 2.7057 0.70652-0.05753 0.77562-3.0068z"/>
  <path d="m12.776 29.638-0.13691-1.5243 0.01785-1.8661 0.29749-1.1663 1.3413 0.44607 0.52624 0.96955-0.4224 1.3106-0.06152 0.77242-0.04147 0.73212z"/>
  <path d="m6.9385 29.609-0.33947 2.7057-0.70652-0.05753-0.77562-3.0068z"/>
  <path d="m6.9385 29.609 0.13691-1.5243-0.01785-1.8661-0.29749-1.1663-1.3413 0.44607-0.52624 0.96955 0.4224 1.3106 0.06152 0.77242 0.04147 0.73212z"/>
 </g>
 <g stroke="#00aad4">
  <path d="m7.4871 29.64 2.0474 0.01789 0.26886-0.45763 0.31567 0.41605 2.0913-0.0031" fill="none" stroke-width=".2px"/>
  <path d="m8.6783 25.924-0.41265-0.38725-0.012626-2.2097 0.95964-0.88388h1.2753l0.83338 0.85863-0.03788 2.2602-0.48235 0.34504z" fill="#0cf" stroke-width=".2px"/>
  <path d="m8.6761 23.598 0.85863 0.02525 0.14521 0.93439 0.26516-0.0063 0.15784-0.92808 0.85232-0.01894-0.17046 0.50508-0.39144 0.03788-0.27779 1.5026-0.55558 0.01894-0.30305-1.5215-0.37249-0.01894z" stroke-width=".12"/>
 </g>
 <path d="m9.5109 22.348-0.13841-0.76393 1.0271 0.0063-0.17483 0.75761z" fill="#f00" stroke="#d40000" stroke-width=".1"/>
 <g stroke-linecap="square" stroke-linejoin="round">
  <ellipse cx="10.366" cy="23.857" rx=".12109" ry=".051339" fill="#fff" stroke="#fff" stroke-width=".1"/>
  <circle cx="10.365" cy="23.854" r=".044959" stroke="#000" stroke-width=".072582"/>
  <ellipse cx="9.2816" cy="23.848" rx=".11637" ry=".057218" fill="#fff" stroke="#fff" stroke-width=".098287"/>
  <circle cx="9.2822" cy="23.844" r=".041676" stroke="#000" stroke-width=".085844"/>
 </g>
 <g fill="#0cf" stroke="#00aad4" stroke-width=".2px">
  <path d="m13.115 32.379 0.97897-0.04426 0.10714 1.0446-0.94643 0.29464-0.29464-0.64286z"/>
  <path d="m6.599 32.315-0.97897-0.04426-0.10714 1.0446 0.94643 0.29464 0.29464-0.64286z"/>
  <path d="m10.648 36.201 2.2411-2.9e-5 -0.41964 2.9911-0.55357 0.44643-0.74107-0.48211z"/>
  <path d="m11.429 38.686-0.31714 0.61803 0.38362 1.1472 0.71679 0.51732 0.49404-0.69456-0.02931-1.246-0.49103-0.471z"/>
  <path d="m8.9204 36.192-2.2411-2.9e-5 0.41964 2.9911 0.55357 0.44643 0.74107-0.48211z"/>
  <path d="m8.1593 38.677 0.31714 0.61803-0.38362 1.1472-0.71679 0.51732-0.49404-0.69456 0.029308-1.246 0.49103-0.471z"/>
 </g>
 <g transform="matrix(-1 0 0 1 19.554 -.2403)">
  <g transform="matrix(1.5724 .01444 .24153 1.0234 14.997 6.997)">
   <path d="m-4.8375-0.43689 1.5676-0.99849 1.9956-0.021599 1.5478 1.0232-0.63366 5.2299-1.8991 1.9168-1.8073-1.9489z" fill="#00aad4" stroke="#08a" stroke-width=".2px"/>
  </g>
  <g id="leftLeg" transform="matrix(-1 0 0 1 18.547 .2403)" fill="#0cf" stroke="#00aad4" stroke-width=".25343px">
   <path d="m13.213 10.741 0.66845 1.999 0.01971 2.1974-2.9246-0.01786-0.48744-2.125-0.14337-2.0714z"/>
   <path d="m11.511 18.988 0.53472-1.0234 0.8628-0.37184 0.84809 0.12301 0.31888 1.0072-1.1579 0.6817-0.69478 0.18558z"/>
   <path d="m10.857 14.797 3.5848 0.3136-1.1102 3.3093-0.80376 0.6375-1.061-0.86532z"/>
  </g>
  <g transform="matrix(-1 0 0 1 18.547 .2403)" stroke="#00aad4" stroke-width=".25343px">
   <path d="m5.5969 8.3857 3.2874 0.017893 0.43171-0.45763 0.50687 0.41605 3.358-0.0031" fill="none"/>
   <path d="m7.5096 4.6693-0.66259-0.38725-0.020275-2.2097 1.5409-0.88388 2.0478-2e-7 1.3381 0.85863-0.06082 2.2602-0.7745 0.34504z" fill="#0cf"/>
  </g>
  <path transform="matrix(-1 0 0 1 19.554 .2403)" d="m9.8532 1.0937-0.30354-0.93669 1.7915-0.0038526-0.3417 0.94054-0.10474 0.23114-0.09165 0.26782-0.09781 0.81421-0.03467 0.96082-0.02504 0.82839-0.50315-0.00514-0.02456-0.82439-0.02639-0.96626-0.08125-0.8086-0.074061-0.26622z" fill="#f00" stroke="#d40000" stroke-width=".12672"/>
  <g transform="rotate(5 -2.2932 6.359)">
   <g transform="matrix(-1.6057 0 0 -1 -.74796 15.205)">
    <path d="m-2.2496 5.0487 0.63656 0.086383 0.028841-0.41419-0.09553-0.011382 0.09037-1.6756-0.41496-0.065019-0.073173 1.6861-0.14917-0.019861z" fill="#f00" stroke="#d40000" stroke-width=".1"/>
    <path d="m-1.7405 5.174-0.40247 7.7745 0.015823 2.2122 0.27341-2.1591 0.39438-7.795z" fill="#fd5" stroke="#fc0" stroke-width=".11874"/>
    <path d="m-1.6067 5.3595-0.50086 9.5213" fill="none" stroke="#fc0" stroke-width=".11874"/>
   </g>
   <g transform="matrix(1.5996 .087156 -.13994 .99619 -5.3052 -.41715)" fill="#0cf" stroke="#00aad4" stroke-width=".2px">
    <path d="m6.2024 10.462-0.97897-0.04426-0.14297 0.63036 0.29522 0.70894 0.32103-0.17028 0.36601 0.17022 0.11881-0.59862z"/>
    <path d="m6.6192 8.3706-0.58073 2.0828-0.8189 0.11919-0.45484-2.7308z"/>
   </g>
   <path d="m4.0684 8.4791 0.6415-1.4774 0.49208-1.8408-0.14523-1.2002-2.2453 0.20639-1.1025 0.86344 0.30252 1.364-0.11809 0.77137-0.13856 0.7282z" fill="#0cf" stroke="#00aad4" stroke-width=".25343px"/>
  </g>
  <g transform="matrix(.058327 1.3866 -1.1794 -.51079 25.629 -3.7453)" fill="#0cf" stroke="#00aad4" stroke-width=".2px">
   <g transform="translate(.039843 .28045)">
    <g transform="matrix(1.0384 .10455 -.089674 .95401 .39925 -.93367)">
     <path d="m12.432 8.3831-0.03158 3.8501 1.046 0.59243 0.87985-2.3683-0.56829-1.4824z" stroke-width=".19996px"/>
    </g>
   </g>
  </g>
  <g transform="matrix(-1 0 0 1 17.81 -.84338)">
   <g transform="matrix(-1 0 0 1 18.547 .2403)" fill="#0cf" stroke="#00aad4" stroke-width=".25343px">
    <path d="m13.213 10.741 0.66845 1.999 0.01971 2.1974-2.9246-0.01786-0.48744-2.125-0.14337-2.0714z"/>
    <path d="m11.902 19.375-0.25045-1.3007 0.57587-0.8216 1.0508-0.42459 0.68935 1.0805-0.52141 1.4776-0.71453 0.06823z"/>
    <path d="m10.672 14.946 3.5985-2.9e-5 -0.81753 3.3935-0.74514 0.70513-1.1324-0.76955z"/>
   </g>
  </g>
  <path transform="matrix(-1 0 0 1 19.554 .2403)" d="m8.5163 4.6693 3.4086-0.016959 1.4169-0.22195 1.4623 0.017859 0.07168 0.89286-0.0143 2.5536-0.67386 0.46428-0.0143 1.6339 2.1218 2.8214-3.6701-0.07143-0.51611-2-0.22938 2.3214-2.9964-0.0089-0.10035-2.3482-0.57346 2-3.8278 0.08929 2.1648-2.875 0.057345-1.5357-0.63945-0.55335-0.050389-2.54 0.078712-0.82539 1.5113-0.050508z" fill="#0cf" stroke="#00aad4" stroke-width=".25343px"/>
  <path d="m14.107 9.0506-0.36038-1.6968-0.16073-2.0165 0.33249-1.1665 2.0729 0.92297 0.89324 1.2232-0.50685 1.2819-0.01533 0.81694 0.01093 0.77985z" fill="#0cf" stroke="#00aad4" stroke-width=".25343px"/>
 </g>
</svg>
