<svg width="100" height="100" version="1.1" viewBox="0 0 20 20" xmlns="http://www.w3.org/2000/svg">
 <rect x="-.17175" y="-.17175" width="20.343" height="20.343" fill="#6ae226" stroke="#20cd0e" stroke-linecap="square" stroke-linejoin="round" stroke-width=".056509"/>
 <g fill="#0eb358" stroke="#0eb358" stroke-linecap="square" stroke-linejoin="round" stroke-width=".060219">
  <path d="m3.0535 0.35178 0.14069-0.049866 0.14117 0.033243 0.074798 0.17229-0.041554 0.15943-0.19103 0.074798-0.17394-0.074798-0.033243-0.19268z"/>
  <path d="m0.25359 3.1517 0.14069-0.049866 0.14117 0.033243 0.074798 0.17229-0.041554 0.15943-0.19103 0.074798-0.17394-0.074798-0.033243-0.19268z"/>
  <path d="m3.0535 4.7517 0.14069-0.049866 0.14117 0.033243 0.074798 0.17229-0.041554 0.15943-0.19103 0.074798-0.17394-0.074798-0.033243-0.19268z"/>
  <path d="m6.6534 1.5517 0.14069-0.049866 0.14117 0.033243 0.074798 0.17229-0.041554 0.15943-0.19103 0.074798-0.17394-0.074798-0.033243-0.19268z"/>
  <path d="m5.0535 8.3516 0.14069-0.049866 0.14117 0.033243 0.074798 0.17229-0.041554 0.15943-0.19103 0.074798-0.17394-0.074798-0.033243-0.19268z"/>
  <path d="m4.7678 12.79 0.14069-0.04987 0.14117 0.03324 0.074798 0.1723-0.041554 0.15943-0.19103 0.0748-0.17394-0.0748-0.033243-0.19268z"/>
  <path d="m9.9676 7.5904 0.14069-0.049866 0.14117 0.033243 0.0748 0.17229-0.04156 0.15943-0.19103 0.074798-0.17393-0.074798-0.033249-0.19268z"/>
  <path d="m12.768 4.7905 0.14069-0.049866 0.14117 0.033243 0.0748 0.17229-0.04156 0.15943-0.19103 0.074798-0.17394-0.074798-0.03325-0.19268z"/>
  <path d="m7.9677 4.7905 0.14069-0.049866 0.14117 0.033243 0.074798 0.17229-0.041549 0.15943-0.19103 0.074798-0.17394-0.074798-0.033239-0.19268z"/>
  <path d="m9.9698 15.446 0.14069-0.04987 0.14117 0.03324 0.0748 0.17229-0.04156 0.15943-0.19103 0.0748-0.17394-0.0748-0.033249-0.19268z"/>
  <path d="m1.17 13.446 0.14069-0.04987 0.14117 0.03324 0.074798 0.17229-0.041554 0.15943-0.19103 0.0748-0.17394-0.0748-0.033243-0.19268z"/>
  <path d="m1.57 8.2462 0.14069-0.049866 0.14117 0.033243 0.074798 0.17229-0.041554 0.15943-0.19103 0.074798-0.17394-0.074798-0.033243-0.19268z"/>
  <path d="m15.97 19.046 0.14069-0.04987 0.14117 0.03324 0.0748 0.17229-0.04155 0.15943-0.19103 0.0748-0.17394-0.0748-0.03325-0.19268z"/>
  <path d="m0.77005 19.046 0.14069-0.04987 0.14117 0.03324 0.074798 0.17229-0.041554 0.15943-0.19103 0.0748-0.17394-0.0748-0.033243-0.19268z"/>
  <path d="m10.37 11.446 0.14069-0.04987 0.14117 0.03324 0.0748 0.17229-0.04156 0.15943-0.19103 0.0748-0.17394-0.0748-0.03325-0.19268z"/>
  <path d="m13.825 0.99646 0.14069-0.049866 0.14117 0.033243 0.0748 0.17229-0.04155 0.15943-0.19103 0.074798-0.17394-0.074798-0.03324-0.19268z"/>
  <path d="m9.0256 18.996 0.14069-0.04987 0.14117 0.03324 0.074798 0.17229-0.041559 0.15943-0.19103 0.0748-0.17394-0.0748-0.033239-0.19268z"/>
  <path d="m18.225 9.7962 0.14069-0.049866 0.14117 0.033243 0.0748 0.17229-0.04156 0.15943-0.19103 0.0748-0.17394-0.0748-0.03325-0.19268z"/>
  <path d="m4.2257 16.996 0.14069-0.04987 0.14117 0.03324 0.074798 0.17229-0.041554 0.15943-0.19103 0.0748-0.17394-0.0748-0.033243-0.19268z"/>
  <path d="m18.225 0.99646 0.14069-0.049866 0.14117 0.033243 0.0748 0.17229-0.04156 0.15943-0.19103 0.074798-0.17394-0.074798-0.03325-0.19268z"/>
  <path d="m14.225 10.196 0.14069-0.04987 0.14117 0.03324 0.0748 0.17229-0.04155 0.15943-0.19103 0.0748-0.17394-0.0748-0.03324-0.19268z"/>
  <path d="m16.575 15.174 0.14069-0.04987 0.14117 0.03325 0.0748 0.17229-0.04155 0.15943-0.19103 0.0748-0.17394-0.0748-0.03325-0.19268z"/>
  <path d="m16.975 5.9744 0.14069-0.049866 0.14117 0.033243 0.0748 0.17229-0.04156 0.15943-0.19103 0.074798-0.17394-0.074798-0.03325-0.19268z"/>
 </g>
 <g fill="#217821" stroke="#165016" stroke-width=".32638px">
  <path d="m13.823 11.318-1.5729-0.21416-1.5049-0.55199c1.1521-1.0112 1.5276-1.9476 1.9042-3.2527l-1.2525 0.64858c1.0845-1.0433 1.3618-2.2062 1.8323-3.5147l-1.1029 0.31878c1.6844-1.2876 1.638-3.3434 2.0989-5.1109 0.27963 2.3262 0.21701 3.4067 2.118 4.9889l-1.3519-0.3651c-0.30864 1.2218 1.3034 3.7379 2.4143 4.3478l-1.8229-0.83631c0.41678 1.6031 1.2092 2.1376 2.1746 2.524l-1.2354 0.68153-1.0018 0.20654z"/>
  <path d="m3.4344 11.843-1.5729-0.21416-1.5049-0.55199c1.1521-1.0112 1.5276-1.9476 1.9042-3.2527l-1.2525 0.64858c1.0845-1.0433 1.3618-2.2062 1.8323-3.5147l-1.1029 0.31878c1.6844-1.2876 1.638-3.3434 2.0989-5.1109 0.27963 2.3262 0.21701 3.4067 2.118 4.9889l-1.3519-0.3651c-0.30864 1.2218 1.3034 3.7379 2.4143 4.3478l-1.8229-0.83631c0.41678 1.6031 1.2092 2.1376 2.1746 2.524l-1.2354 0.68153-1.0018 0.20654z"/>
  <path d="m9.3495 14.433-1.5729-0.21416-1.5049-0.55199c1.1521-1.0112 1.5276-1.9476 1.9042-3.2527l-1.2525 0.64858c1.0845-1.0433 1.3618-2.2062 1.8323-3.5147l-1.1029 0.31878c1.6844-1.2876 1.638-3.3434 2.0989-5.1109 0.27963 2.3262 0.21701 3.4067 2.118 4.9889l-1.3519-0.3651c-0.30864 1.2218 1.3034 3.7379 2.4143 4.3478l-1.8229-0.83631c0.41678 1.6031 1.2092 2.1376 2.1746 2.524l-1.2354 0.68153-1.0018 0.20654z"/>
  <path d="m4.8204 19.485-1.5729-0.21416-1.5049-0.55199c1.1521-1.0112 1.5276-1.9476 1.9042-3.2527l-1.2525 0.64857c1.0845-1.0433 1.3618-2.2062 1.8323-3.5147l-1.1029 0.31878c1.6844-1.2876 1.638-3.3434 2.0989-5.1109 0.27963 2.3262 0.21701 3.4067 2.118 4.9889l-1.3519-0.3651c-0.30864 1.2218 1.3034 3.7379 2.4143 4.3478l-1.8229-0.83631c0.41678 1.6031 1.2092 2.1376 2.1746 2.524l-1.2354 0.68153-1.0018 0.20654z"/>
  <path d="m16.172 17.564-1.5729-0.21416-1.5049-0.55199c1.1521-1.0112 1.5276-1.9476 1.9042-3.2527l-1.2525 0.64858c1.0845-1.0433 1.3618-2.2062 1.8323-3.5147l-1.1029 0.31878c1.6844-1.2876 1.638-3.3434 2.0989-5.1109 0.27963 2.3262 0.21701 3.4067 2.118 4.9889l-1.3519-0.3651c-0.30864 1.2218 1.3034 3.7379 2.4143 4.3478l-1.8229-0.83631c0.41678 1.6031 1.2092 2.1376 2.1746 2.524l-1.2354 0.68153-1.0018 0.20654z"/>
  <path d="m12.3 19.621-1.5729-0.21416-1.5049-0.55199c1.1521-1.0112 1.5276-1.9476 1.9042-3.2527l-1.2525 0.64858c1.0845-1.0433 1.3618-2.2062 1.8323-3.5147l-1.1029 0.31878c1.6844-1.2876 1.638-3.3434 2.0989-5.1109 0.27963 2.3262 0.21701 3.4067 2.118 4.9889l-1.3519-0.3651c-0.30864 1.2218 1.3034 3.7379 2.4143 4.3478l-1.8229-0.83631c0.41678 1.6031 1.2092 2.1376 2.1746 2.524l-1.2354 0.68153-1.0018 0.20654z"/>
 </g>
</svg>
