<svg width="100" height="100" version="1.1" xmlns="http://www.w3.org/2000/svg">
 <rect x="-.85872" y="-.85872" width="101.72" height="101.72" fill="#6ae226" stroke="#20cd0e" stroke-linecap="square" stroke-linejoin="round" stroke-width=".28255"/>
 <g fill="#0eb358" stroke="#0eb358" stroke-linecap="square" stroke-linejoin="round" stroke-width=".3011">
  <path d="m15.268 1.759 0.70348-0.24933 0.70586 0.16622 0.374 0.86149-0.20778 0.79719-0.9552 0.374-0.8697-0.374-0.16622-0.96341z"/>
  <path d="m1.268 15.759 0.70348-0.24933 0.70586 0.16622 0.374 0.86149-0.20778 0.79719-0.9552 0.374-0.8697-0.374-0.16622-0.96341z"/>
  <path d="m15.268 23.759 0.70348-0.24933 0.70586 0.16622 0.374 0.86149-0.20778 0.79719-0.9552 0.374-0.8697-0.374-0.16622-0.96341z"/>
  <path d="m33.268 7.759 0.70348-0.24933 0.70586 0.16622 0.374 0.86149-0.20778 0.79719-0.9552 0.374-0.8697-0.374-0.16622-0.96341z"/>
  <path d="m25.268 41.759 0.70348-0.24933 0.70586 0.16622 0.374 0.86149-0.20778 0.79719-0.9552 0.374-0.8697-0.374-0.16622-0.96341z"/>
  <path d="m23.84 63.953 0.70348-0.24933 0.70586 0.16622 0.374 0.86149-0.20778 0.79719-0.9552 0.374-0.8697-0.374-0.16622-0.96341z"/>
  <path d="m49.84 37.953 0.70348-0.24933 0.70586 0.16622 0.374 0.86149-0.20778 0.79719-0.9552 0.374-0.8697-0.374-0.16622-0.96341z"/>
  <path d="m63.84 23.953 0.70348-0.24933 0.70586 0.16622 0.374 0.86149-0.20778 0.79719-0.9552 0.374-0.8697-0.374-0.16622-0.96341z"/>
  <path d="m39.84 23.953 0.70348-0.24933 0.70586 0.16622 0.374 0.86149-0.20778 0.79719-0.9552 0.374-0.8697-0.374-0.16622-0.96341z"/>
  <path d="m49.85 77.232 0.70348-0.24933 0.70586 0.16622 0.374 0.86149-0.20778 0.79719-0.9552 0.374-0.8697-0.374-0.16622-0.96341z"/>
  <path d="m5.8504 67.232 0.70348-0.24933 0.70586 0.16622 0.374 0.86149-0.20778 0.79719-0.9552 0.374-0.8697-0.374-0.16622-0.96341z"/>
  <path d="m7.8504 41.232 0.70348-0.24933 0.70586 0.16622 0.374 0.86149-0.20778 0.79719-0.9552 0.374-0.8697-0.374-0.16622-0.96341z"/>
  <path d="m79.85 95.232 0.70348-0.24933 0.70586 0.16622 0.374 0.86149-0.20778 0.79719-0.9552 0.374-0.8697-0.374-0.16622-0.96341z"/>
  <path d="m3.8504 95.232 0.70348-0.24933 0.70586 0.16622 0.374 0.86149-0.20778 0.79719-0.9552 0.374-0.8697-0.374-0.16622-0.96341z"/>
  <path d="m51.85 57.232 0.70348-0.24933 0.70586 0.16622 0.374 0.86149-0.20778 0.79719-0.9552 0.374-0.8697-0.374-0.16622-0.96341z"/>
  <path d="m69.129 4.9825 0.70348-0.24933 0.70586 0.16622 0.374 0.86149-0.20778 0.79719-0.9552 0.374-0.8697-0.374-0.16622-0.96341z"/>
  <path d="m45.129 94.982 0.70348-0.24933 0.70586 0.16622 0.374 0.86149-0.20778 0.79719-0.9552 0.374-0.8697-0.374-0.16622-0.96341z"/>
  <path d="m91.129 48.982 0.70348-0.24933 0.70586 0.16622 0.374 0.86149-0.20778 0.79719-0.9552 0.374-0.8697-0.374-0.16622-0.96341z"/>
  <path d="m21.129 84.982 0.70348-0.24933 0.70586 0.16622 0.374 0.86149-0.20778 0.79719-0.9552 0.374-0.8697-0.374-0.16622-0.96341z"/>
  <path d="m91.129 4.9825 0.70348-0.24933 0.70586 0.16622 0.374 0.86149-0.20778 0.79719-0.9552 0.374-0.8697-0.374-0.16622-0.96341z"/>
  <path d="m71.129 50.982 0.70348-0.24933 0.70586 0.16622 0.374 0.86149-0.20778 0.79719-0.9552 0.374-0.8697-0.374-0.16622-0.96341z"/>
  <path d="m82.876 75.873 0.70348-0.24933 0.70586 0.16622 0.374 0.86149-0.20778 0.79719-0.9552 0.374-0.8697-0.374-0.16622-0.96341z"/>
  <path d="m84.876 29.873 0.70348-0.24933 0.70586 0.16622 0.374 0.86149-0.20778 0.79719-0.9552 0.374-0.8697-0.374-0.16622-0.96341z"/>
 </g>
</svg>
