<svg width="100" height="100" version="1.1" viewBox="0 0 20 20" xmlns="http://www.w3.org/2000/svg">
 <rect x="-.11652" y="-.17178" width="20.288" height="20.344" fill="#6ae226" stroke="#20cd0e" stroke-linecap="square" stroke-linejoin="round" stroke-width=".056434"/>
 <path d="m5.9152 8.8542 0.13611-0.9903 0.59523 2.0637c0.70163 0.71168 0.88322 0.86619 1.7773 0.60171l0.00897-1.3417 0.75686 0.014636c0.81094 0.98654 0.56068 1.1615 1.665 0.67566 1.16-3.3197 5.8461-2.879 7.3056-2.9053 0.39148-0.10248 0.83165-0.17591 1.2321-0.17115 0.66328 0.00788 0.66233-0.067463 0.66328 0.00788l5e-3 0.39497c-6.4762 0.66203-7.8493 0.70671-8.7759 2.7871-0.52564 1.3309-0.63257 1.4242-4e-3 2.5906l1.3555 1.2214 0.35201 0.72999-1.436-1.1243c-1.5192-1.7715-1.1368-1.3284-1.3145 0.64906l-0.58968 0.0747c-0.051585-1.8357 0.2256-1.6577-1.4422-2.1092l-2.2665 0.07106 1.0315-0.72572-1.0557-2.5149" fill="#d4aa00" stroke="#a80" stroke-width=".19973px"/>
 <g fill="#338000" stroke="#250" stroke-width=".073061">
  <path d="m17.847 6.0353-0.72266-0.11058-0.69142-0.28503c0.52932-0.52215 0.70184-1.0057 0.87487-1.6796l-0.57545 0.3349c0.49827-0.53873 0.62567-1.1392 0.84184-1.8149l-0.50672 0.16461c0.77389-0.66488 0.75257-1.7264 0.96433-2.6391 0.12847 1.2012 0.0997 1.7591 0.9731 2.5761l-0.62112-0.18853c-0.1418 0.6309 0.59884 1.9301 1.1092 2.2451l-0.83752-0.43184c0.19149 0.82779 0.55556 1.1038 0.99911 1.3033l-0.5676 0.35192-0.46027 0.10665z"/>
  <path d="m13.327 6.0379-0.72266-0.11059-0.69142-0.28503c0.52932-0.52215 0.70184-1.0057 0.87487-1.6796l-0.57545 0.3349c0.49827-0.53873 0.62567-1.1392 0.84184-1.8149l-0.50672 0.16461c0.77389-0.66488 0.75257-1.7264 0.96433-2.6391 0.12847 1.2012 0.0997 1.7591 0.9731 2.5761l-0.62112-0.18853c-0.1418 0.6309 0.59884 1.9301 1.1092 2.2451l-0.83752-0.43184c0.19149 0.82779 0.55556 1.1038 0.99911 1.3033l-0.5676 0.35192-0.46027 0.10665z"/>
  <path d="m15.53 6.0379-0.72266-0.11059-0.69142-0.28503c0.52932-0.52215 0.70184-1.0057 0.87487-1.6796l-0.57545 0.3349c0.49827-0.53873 0.62567-1.1392 0.84184-1.8149l-0.50672 0.16461c0.77389-0.66488 0.75257-1.7264 0.96433-2.6391 0.12847 1.2012 0.0997 1.7591 0.9731 2.5761l-0.62112-0.18853c-0.1418 0.6309 0.59884 1.9301 1.1092 2.2451l-0.83752-0.43184c0.19149 0.82779 0.55556 1.1038 0.9991 1.3033l-0.5676 0.35192-0.46027 0.10665z"/>
  <path d="m8.0814 5.9323-0.72266-0.11058-0.69142-0.28503c0.52932-0.52215 0.70185-1.0057 0.87487-1.6796l-0.57545 0.3349c0.49827-0.53873 0.62567-1.1392 0.84184-1.8149l-0.50672 0.16461c0.77389-0.66488 0.75257-1.7264 0.96433-2.6391 0.12847 1.2012 0.099701 1.7591 0.9731 2.5761l-0.62112-0.18853c-0.1418 0.6309 0.59884 1.9301 1.1092 2.2451l-0.83752-0.43184c0.19149 0.82779 0.55556 1.1038 0.99911 1.3033l-0.5676 0.35192-0.46027 0.10665z"/>
  <path d="m2.3648 6.335-0.72266-0.11058-0.69142-0.28503c0.52932-0.52215 0.70184-1.0057 0.87487-1.6796l-0.57545 0.3349c0.49827-0.53873 0.62567-1.1392 0.84184-1.8149l-0.50672 0.16461c0.77389-0.66488 0.75257-1.7264 0.96433-2.6391 0.12847 1.2012 0.099701 1.7591 0.9731 2.5761l-0.62112-0.18853c-0.1418 0.6309 0.59884 1.9301 1.1092 2.2451l-0.83752-0.43184c0.19149 0.82779 0.55556 1.1038 0.99911 1.3033l-0.5676 0.35192-0.46027 0.10665z"/>
  <path d="m6.1627 5.935-0.72266-0.11059-0.69142-0.28503c0.52932-0.52215 0.70185-1.0057 0.87487-1.6796l-0.57545 0.3349c0.49827-0.53873 0.62567-1.1392 0.84184-1.8149l-0.50672 0.16461c0.77389-0.66488 0.75257-1.7264 0.96433-2.6391 0.12847 1.2012 0.099701 1.7591 0.9731 2.5761l-0.62112-0.18853c-0.1418 0.6309 0.59884 1.9301 1.1092 2.2451l-0.83752-0.43184c0.19149 0.82779 0.55556 1.1038 0.99911 1.3033l-0.5676 0.35192-0.46027 0.10665z"/>
  <path d="m10.489 6.4449-0.72266-0.11059-0.69142-0.28503c0.52932-0.52215 0.70185-1.0057 0.87487-1.6796l-0.57545 0.3349c0.49827-0.53873 0.62567-1.1392 0.84184-1.8149l-0.50672 0.16461c0.77389-0.66488 0.75257-1.7264 0.96433-2.6391 0.12847 1.2012 0.0997 1.7591 0.9731 2.5761l-0.62112-0.18853c-0.1418 0.6309 0.59884 1.9301 1.1092 2.2451l-0.83752-0.43184c0.19149 0.82779 0.55556 1.1038 0.99911 1.3033l-0.5676 0.35192-0.46027 0.10665z"/>
 </g>
 <g fill="#217821" stroke="#165016" stroke-width=".32638px">
  <g transform="matrix(.99731 0 0 1 12.744 -1.374)">
   <path d="m-9.1144 8.1813 0.066759-3.171-0.39196 0.28486 2.6016-3.7398 2.3076 3.6828-0.40822-0.24243-0.070144 3.145z" fill="#ac9d93" stroke="#6c5d53" stroke-width=".2px"/>
   <g fill="#000" stroke="#000" stroke-linecap="square" stroke-linejoin="round">
    <rect x="-7.2084" y="6.9474" width=".4878" height="1.0569" stroke-width=".15"/>
    <rect x="-8.1879" y="5.48" width=".46706" height=".86706" stroke-width=".13294"/>
    <rect x="-6.2906" y="5.5402" width=".46706" height=".86706" stroke-width=".13294"/>
   </g>
   <path d="m-9.0475 5.0091 2.2479-0.055024-0.015304-3.0672 0.015304 3.0672 1.931 0.040402-1.9463-3.1076-2.2326 3.1222" fill="none" stroke="#2b2200" stroke-width=".20162px"/>
  </g>
  <g transform="matrix(.99731 0 0 1 19.742 -.59546)">
   <path d="m-9.1144 8.1813 0.066759-3.171-0.39196 0.28486 2.6016-3.7398 2.3076 3.6828-0.40822-0.24243-0.070144 3.145z" fill="#ac9d93" stroke="#6c5d53" stroke-width=".2px"/>
   <g fill="#000" stroke="#000" stroke-linecap="square" stroke-linejoin="round">
    <rect x="-7.2084" y="6.9474" width=".4878" height="1.0569" stroke-width=".15"/>
    <rect x="-8.1879" y="5.48" width=".46706" height=".86706" stroke-width=".13294"/>
    <rect x="-6.2906" y="5.5402" width=".46706" height=".86706" stroke-width=".13294"/>
   </g>
   <path d="m-9.0475 5.0091 2.2479-0.055024-0.015304-3.0672 0.015304 3.0672 1.931 0.040402-1.9463-3.1076-2.2326 3.1222" fill="none" stroke="#2b2200" stroke-width=".20162px"/>
  </g>
  <g transform="matrix(.73127 0 0 .73326 8.3597 -.63492)">
   <g transform="translate(-.9497 6.7271)">
    <path d="m-9.7614 8.2075 0.077462-3.171 0.83833-3.3137 5.5339-0.21608-0.90528 3.4889 1.0275-0.74338-0.12226-2.7456 0.12226 2.7456 0.74504-0.56413-0.86731-2.1814 1.011 2.4976-0.092348 2.2096-1.9054 1.9267 0.081389-3.145-0.081389 3.145z" fill="#ac9d93" stroke="#6c5d53" stroke-width=".21544px"/>
    <path d="m-7.2776 1.1977 4.4637-0.021853 1.149 2.6407-0.5351 0.060763-1.0341-2.6171-1.0322 3.5237h-4.0173z" fill="#483e37" stroke="#2b2200" stroke-linecap="square" stroke-linejoin="round" stroke-width=".18382"/>
    <path d="m-3.3296 6.021 0.19759-0.28744v1.1354l-0.19759 0.28744z" fill="#000" stroke="#000" stroke-linecap="square" stroke-linejoin="round" stroke-width=".24668"/>
    <path transform="matrix(.2 0 0 .2 .9497 -6.7271)" d="m-24.857 57.114c0.02178-0.05929 0.72858-2.7674 1.5707-6.0181 0.84208-3.2507 1.5426-5.8987 1.5568-5.8846 0.01415 0.01415 0.12054 2.124 0.23644 4.6887 0.19872 4.3973 0.20372 4.6695 0.08783 4.7775-0.06759 0.063-0.83431 0.62546-1.7038 1.2499-0.86951 0.62444-1.6274 1.1711-1.6842 1.2149-0.08072 0.06215-0.09463 0.05598-0.06368-0.02827z" fill="#ac9d93" stroke="none"/>
    <path transform="matrix(.2 0 0 .2 .9497 -6.7271)" d="m-20.199 53.395c-2.1e-4 -0.18774-0.08073-2.1037-0.17894-4.2577s-0.17792-4.0457-0.17714-4.2038c0.0011-0.22669 0.30627 0.47679 1.4437 3.3283 0.79328 1.9886 1.431 3.6243 1.4171 3.6348-0.01386 0.01051-0.56434 0.42876-1.2233 0.92945-0.65894 0.50069-1.2168 0.91034-1.2396 0.91034-0.02284 0-0.04169-0.1536-0.0419-0.34134z" fill="#ac9d93" stroke="none"/>
    <path d="m-9.2734 1.1619h6.3672l-1.0102 4.022h-6.3672z" fill="#483e37" stroke="#2b2200" stroke-linecap="square" stroke-linejoin="round" stroke-width=".15835"/>
    <path transform="matrix(.2 0 0 .2 .9497 -6.7271)" d="m-17.421 47.447c-1.1007-2.7867-2.018-5.1306-2.0384-5.2087-0.03368-0.12879 0.29665-1.6401 0.40335-1.8454 0.0246-0.04733 1.2153 2.6043 2.646 5.8926 2.5418 5.842 2.5974 5.9797 2.431 6.0246-0.09363 0.02528-0.40758 0.06802-0.69768 0.09498-0.2901 0.02697-0.57595 0.06246-0.63524 0.07888-0.08282 0.02294-0.57143-1.144-2.109-5.0369z" fill="#2b2200" stroke="none"/>
   </g>
  </g>
  <g transform="matrix(.73127 0 0 .73326 8.3838 2.6057)">
   <g transform="translate(-.9497 6.7271)">
    <path d="m-9.7614 8.2075 0.077462-3.171 0.83833-3.3137 5.5339-0.21608-0.90528 3.4889 1.0275-0.74338-0.12226-2.7456 0.12226 2.7456 0.74504-0.56413-0.86731-2.1814 1.011 2.4976-0.092348 2.2096-1.9054 1.9267 0.081389-3.145-0.081389 3.145z" fill="#ac9d93" stroke="#6c5d53" stroke-width=".21544px"/>
    <path d="m-7.2776 1.1977 4.4637-0.021853 1.149 2.6407-0.5351 0.060763-1.0341-2.6171-1.0322 3.5237h-4.0173z" fill="#483e37" stroke="#2b2200" stroke-linecap="square" stroke-linejoin="round" stroke-width=".18382"/>
    <path d="m-3.3296 6.021 0.19759-0.28744v1.1354l-0.19759 0.28744z" fill="#000" stroke="#000" stroke-linecap="square" stroke-linejoin="round" stroke-width=".24668"/>
    <path transform="matrix(.2 0 0 .2 .9497 -6.7271)" d="m-24.857 57.114c0.02178-0.05929 0.72858-2.7674 1.5707-6.0181 0.84208-3.2507 1.5426-5.8987 1.5568-5.8846 0.01415 0.01415 0.12054 2.124 0.23644 4.6887 0.19872 4.3973 0.20372 4.6695 0.08783 4.7775-0.06759 0.063-0.83431 0.62546-1.7038 1.2499-0.86951 0.62444-1.6274 1.1711-1.6842 1.2149-0.08072 0.06215-0.09463 0.05598-0.06368-0.02827z" fill="#ac9d93" stroke="none"/>
    <path transform="matrix(.2 0 0 .2 .9497 -6.7271)" d="m-20.199 53.395c-2.1e-4 -0.18774-0.08073-2.1037-0.17894-4.2577s-0.17792-4.0457-0.17714-4.2038c0.0011-0.22669 0.30627 0.47679 1.4437 3.3283 0.79328 1.9886 1.431 3.6243 1.4171 3.6348-0.01386 0.01051-0.56434 0.42876-1.2233 0.92945-0.65894 0.50069-1.2168 0.91034-1.2396 0.91034-0.02284 0-0.04169-0.1536-0.0419-0.34134z" fill="#ac9d93" stroke="none"/>
    <path d="m-9.2734 1.1619h6.3672l-1.0102 4.022h-6.3672z" fill="#483e37" stroke="#2b2200" stroke-linecap="square" stroke-linejoin="round" stroke-width=".15835"/>
    <path transform="matrix(.2 0 0 .2 .9497 -6.7271)" d="m-17.421 47.447c-1.1007-2.7867-2.018-5.1306-2.0384-5.2087-0.03368-0.12879 0.29665-1.6401 0.40335-1.8454 0.0246-0.04733 1.2153 2.6043 2.646 5.8926 2.5418 5.842 2.5974 5.9797 2.431 6.0246-0.09363 0.02528-0.40758 0.06802-0.69768 0.09498-0.2901 0.02697-0.57595 0.06246-0.63524 0.07888-0.08282 0.02294-0.57143-1.144-2.109-5.0369z" fill="#2b2200" stroke="none"/>
   </g>
  </g>
 </g>
 <path d="m18.151 10.304-0.72266-0.11058-0.69142-0.28503c0.52932-0.52215 0.70184-1.0057 0.87487-1.6796l-0.57545 0.3349c0.49827-0.53873 0.62567-1.1392 0.84184-1.8149l-0.50672 0.16461c0.77389-0.66488 0.75257-1.7264 0.96433-2.6391 0.12847 1.2012 0.0997 1.7591 0.9731 2.5761l-0.62112-0.18853c-0.1418 0.6309 0.59884 1.9301 1.1092 2.2451l-0.83752-0.43184c0.19149 0.82779 0.55556 1.1038 0.9991 1.3033l-0.5676 0.35192-0.46027 0.10665z" fill="#338000" stroke="#250" stroke-width=".073061"/>
 <g transform="matrix(-.73127 0 0 .73326 10.234 -.19437)" fill="#217821" stroke="#165016" stroke-width=".32638px">
  <g transform="translate(-.9497 6.7271)">
   <path d="m-9.7614 8.2075 0.077462-3.171 0.83833-3.3137 5.5339-0.21608-0.90528 3.4889 1.0275-0.74338-0.12226-2.7456 0.12226 2.7456 0.74504-0.56413-0.86731-2.1814 1.011 2.4976-0.092348 2.2096-1.9054 1.9267 0.081389-3.145-0.081389 3.145z" fill="#ac9d93" stroke="#6c5d53" stroke-width=".21544px"/>
   <path d="m-7.2776 1.1977 4.4637-0.021853 1.149 2.6407-0.5351 0.060763-1.0341-2.6171-1.0322 3.5237h-4.0173z" fill="#483e37" stroke="#2b2200" stroke-linecap="square" stroke-linejoin="round" stroke-width=".18382"/>
   <path d="m-3.3296 6.021 0.19759-0.28744v1.1354l-0.19759 0.28744z" fill="#000" stroke="#000" stroke-linecap="square" stroke-linejoin="round" stroke-width=".24668"/>
   <path transform="matrix(.2 0 0 .2 .9497 -6.7271)" d="m-24.857 57.114c0.02178-0.05929 0.72858-2.7674 1.5707-6.0181 0.84208-3.2507 1.5426-5.8987 1.5568-5.8846 0.01415 0.01415 0.12054 2.124 0.23644 4.6887 0.19872 4.3973 0.20372 4.6695 0.08783 4.7775-0.06759 0.063-0.83431 0.62546-1.7038 1.2499-0.86951 0.62444-1.6274 1.1711-1.6842 1.2149-0.08072 0.06215-0.09463 0.05598-0.06368-0.02827z" fill="#ac9d93" stroke="none"/>
   <path transform="matrix(.2 0 0 .2 .9497 -6.7271)" d="m-20.199 53.395c-2.1e-4 -0.18774-0.08073-2.1037-0.17894-4.2577s-0.17792-4.0457-0.17714-4.2038c0.0011-0.22669 0.30627 0.47679 1.4437 3.3283 0.79328 1.9886 1.431 3.6243 1.4171 3.6348-0.01386 0.01051-0.56434 0.42876-1.2233 0.92945-0.65894 0.50069-1.2168 0.91034-1.2396 0.91034-0.02284 0-0.04169-0.1536-0.0419-0.34134z" fill="#ac9d93" stroke="none"/>
   <path d="m-9.2734 1.1619h6.3672l-1.0102 4.022h-6.3672z" fill="#483e37" stroke="#2b2200" stroke-linecap="square" stroke-linejoin="round" stroke-width=".15835"/>
   <path transform="matrix(.2 0 0 .2 .9497 -6.7271)" d="m-17.421 47.447c-1.1007-2.7867-2.018-5.1306-2.0384-5.2087-0.03368-0.12879 0.29665-1.6401 0.40335-1.8454 0.0246-0.04733 1.2153 2.6043 2.646 5.8926 2.5418 5.842 2.5974 5.9797 2.431 6.0246-0.09363 0.02528-0.40758 0.06802-0.69768 0.09498-0.2901 0.02697-0.57595 0.06246-0.63524 0.07888-0.08282 0.02294-0.57143-1.144-2.109-5.0369z" fill="#2b2200" stroke="none"/>
  </g>
 </g>
 <g transform="matrix(-.73127 0 0 .73326 9.567 3.3263)" fill="#217821" stroke="#165016" stroke-width=".32638px">
  <g transform="translate(-.9497 6.7271)">
   <path d="m-9.7614 8.2075 0.077462-3.171 0.83833-3.3137 5.5339-0.21608-0.90528 3.4889 1.0275-0.74338-0.12226-2.7456 0.12226 2.7456 0.74504-0.56413-0.86731-2.1814 1.011 2.4976-0.092348 2.2096-1.9054 1.9267 0.081389-3.145-0.081389 3.145z" fill="#ac9d93" stroke="#6c5d53" stroke-width=".21544px"/>
   <path d="m-7.2776 1.1977 4.4637-0.021853 1.149 2.6407-0.5351 0.060763-1.0341-2.6171-1.0322 3.5237h-4.0173z" fill="#483e37" stroke="#2b2200" stroke-linecap="square" stroke-linejoin="round" stroke-width=".18382"/>
   <path d="m-3.3296 6.021 0.19759-0.28744v1.1354l-0.19759 0.28744z" fill="#000" stroke="#000" stroke-linecap="square" stroke-linejoin="round" stroke-width=".24668"/>
   <path transform="matrix(.2 0 0 .2 .9497 -6.7271)" d="m-24.857 57.114c0.02178-0.05929 0.72858-2.7674 1.5707-6.0181 0.84208-3.2507 1.5426-5.8987 1.5568-5.8846 0.01415 0.01415 0.12054 2.124 0.23644 4.6887 0.19872 4.3973 0.20372 4.6695 0.08783 4.7775-0.06759 0.063-0.83431 0.62546-1.7038 1.2499-0.86951 0.62444-1.6274 1.1711-1.6842 1.2149-0.08072 0.06215-0.09463 0.05598-0.06368-0.02827z" fill="#ac9d93" stroke="none"/>
   <path transform="matrix(.2 0 0 .2 .9497 -6.7271)" d="m-20.199 53.395c-2.1e-4 -0.18774-0.08073-2.1037-0.17894-4.2577s-0.17792-4.0457-0.17714-4.2038c0.0011-0.22669 0.30627 0.47679 1.4437 3.3283 0.79328 1.9886 1.431 3.6243 1.4171 3.6348-0.01386 0.01051-0.56434 0.42876-1.2233 0.92945-0.65894 0.50069-1.2168 0.91034-1.2396 0.91034-0.02284 0-0.04169-0.1536-0.0419-0.34134z" fill="#ac9d93" stroke="none"/>
   <path d="m-9.2734 1.1619h6.3672l-1.0102 4.022h-6.3672z" fill="#483e37" stroke="#2b2200" stroke-linecap="square" stroke-linejoin="round" stroke-width=".15835"/>
   <path transform="matrix(.2 0 0 .2 .9497 -6.7271)" d="m-17.421 47.447c-1.1007-2.7867-2.018-5.1306-2.0384-5.2087-0.03368-0.12879 0.29665-1.6401 0.40335-1.8454 0.0246-0.04733 1.2153 2.6043 2.646 5.8926 2.5418 5.842 2.5974 5.9797 2.431 6.0246-0.09363 0.02528-0.40758 0.06802-0.69768 0.09498-0.2901 0.02697-0.57595 0.06246-0.63524 0.07888-0.08282 0.02294-0.57143-1.144-2.109-5.0369z" fill="#2b2200" stroke="none"/>
  </g>
 </g>
 <g transform="matrix(.99731 0 0 1 .17005 -9.7197)">
  <g transform="translate(16.709,21.262)">
   <path d="m-9.1144 7.9156 0.066759-3.0438-0.39196 0.27344 2.6016-3.5898 2.3076 3.5351-0.40822-0.23271-0.070144 3.0189z" fill="#ac9d93" stroke="#6c5d53" stroke-width=".19595px"/>
   <path d="m-9.0475 5.0091 2.2479-0.055024-0.015304-3.0672 0.015304 3.0672 1.931 0.040402-1.9862-1.7512-2.1927 1.7658" fill="none" stroke="#2b2200" stroke-width=".20162px"/>
  </g>
  <path d="m9.8574 21.986-0.00316 2.3555-2.7003 2.5678 0.15309-2.2901z" fill="#483e37" stroke="#2b2200" stroke-linecap="square" stroke-linejoin="round" stroke-width=".12446"/>
  <path d="m9.8511 21.986 0.00316 2.3555 2.7003 2.5678-0.15309-2.2901z" fill="#483e37" stroke="#2b2200" stroke-linecap="square" stroke-linejoin="round" stroke-width=".12446"/>
 </g>
 <path d="m1.279 16.444-0.72266-0.11058-0.69142-0.28503c0.52932-0.52215 0.70184-1.0057 0.87487-1.6796l-0.57545 0.3349c0.49827-0.53873 0.62567-1.1392 0.84184-1.8149l-0.50672 0.16461c0.77389-0.66488 0.75257-1.7264 0.96433-2.6391 0.12847 1.2012 0.099701 1.7591 0.9731 2.5761l-0.62112-0.18853c-0.1418 0.6309 0.59884 1.9301 1.1092 2.2451l-0.83752-0.43184c0.19149 0.82779 0.55556 1.1038 0.99911 1.3033l-0.5676 0.35192-0.46027 0.10665z" fill="#338000" stroke="#250" stroke-width=".073061"/>
 <g transform="matrix(.99731 0 0 1 -2.2716 -8.4009)">
  <g transform="matrix(.73324 0 0 .73324 10.415 15.392)" fill="#217821" stroke="#165016" stroke-width=".32638px">
   <g transform="translate(-.9497 6.7271)">
    <path d="m-5.5745 1.062 0.79934-0.25947 2.1561-1.6642 1.1242 3.2182-6.2841 1.8018z" fill="#483e37" stroke="#2b2200" stroke-linecap="square" stroke-linejoin="round" stroke-width=".15835"/>
   </g>
  </g>
  <g fill="#2b2200" stroke="#000" stroke-linecap="square" stroke-linejoin="round" stroke-width=".75">
   <path d="m4.5732 23.232 1.5285 0.43228 0.017818-2.3368-0.017818 2.3368 1.5616 0.45981-1.5438-2.7966-1.5464 1.9045 3.0901 0.8921 0.12124 3.4778-0.12124-3.4778 1.9302-2.3149v3.3333l-1.8089 2.4593-3.2114-1.0366z" fill="#ac9d93" stroke="#6c5d53" stroke-linecap="square" stroke-linejoin="round" stroke-width=".15"/>
  </g>
  <path d="m8.2663 19.327-2.6345 1.7763 1.9949 3.4603 2.4344-2.3689z" fill="#483e37" stroke="#2b2200" stroke-linecap="square" stroke-linejoin="round" stroke-width=".11611"/>
 </g>
 <g transform="matrix(-.99731 0 0 1 21.721 -8.5141)">
  <g transform="matrix(.73324 0 0 .73324 10.415 15.392)" fill="#217821" stroke="#165016" stroke-width=".32638px">
   <g transform="translate(-.9497 6.7271)">
    <path d="m-5.5745 1.062 0.79934-0.25947 2.1561-1.6642 1.1242 3.2182-6.2841 1.8018z" fill="#483e37" stroke="#2b2200" stroke-linecap="square" stroke-linejoin="round" stroke-width=".15835"/>
   </g>
  </g>
  <g fill="#2b2200" stroke="#000" stroke-linecap="square" stroke-linejoin="round" stroke-width=".75">
   <path d="m4.5732 23.232 1.5285 0.43228 0.017818-2.3368-0.017818 2.3368 1.5616 0.45981-1.5438-2.7966-1.5464 1.9045 3.0901 0.8921 0.12124 3.4778-0.12124-3.4778 1.9302-2.3149v3.3333l-1.8089 2.4593-3.2114-1.0366z" fill="#ac9d93" stroke="#6c5d53" stroke-linecap="square" stroke-linejoin="round" stroke-width=".15"/>
  </g>
  <path d="m8.2663 19.327-2.6345 1.7763 1.9949 3.4603 2.4344-2.3689z" fill="#483e37" stroke="#2b2200" stroke-linecap="square" stroke-linejoin="round" stroke-width=".11611"/>
 </g>
 <path d="m17.916 19.425-0.72266-0.11058-0.69142-0.28503c0.52932-0.52215 0.70184-1.0057 0.87487-1.6796l-0.57545 0.3349c0.49827-0.53873 0.62567-1.1392 0.84184-1.8149l-0.50672 0.16461c0.77389-0.66488 0.75257-1.7264 0.96433-2.6391 0.12847 1.2012 0.0997 1.7591 0.9731 2.5761l-0.62112-0.18852c-0.1418 0.6309 0.59884 1.9301 1.1092 2.2451l-0.83752-0.43184c0.19149 0.82779 0.55556 1.1038 0.99911 1.3033l-0.5676 0.35192-0.46027 0.10665z" fill="#338000" stroke="#250" stroke-width=".073061"/>
 <path d="m2.8284 20.02-0.72266-0.11058-0.69142-0.28503c0.52932-0.52215 0.70184-1.0057 0.87487-1.6796l-0.57545 0.3349c0.49827-0.53873 0.62567-1.1392 0.84184-1.8149l-0.50672 0.16461c0.77389-0.66488 0.75257-1.7264 0.96433-2.6391 0.12847 1.2012 0.099702 1.7591 0.9731 2.5761l-0.62112-0.18853c-0.1418 0.6309 0.59884 1.9301 1.1092 2.2451l-0.83752-0.43184c0.19149 0.82779 0.55556 1.1038 0.99911 1.3033l-0.5676 0.35192-0.46027 0.10665z" fill="#338000" stroke="#250" stroke-width=".073061"/>
 <g transform="matrix(.99731 0 0 1 15.753 .86911)" stroke-width=".32638px">
  <path d="m-9.1144 8.1813 0.066759-3.171-0.39196 0.28486 2.6016-3.7398 2.3076 3.6828-0.40822-0.24243-0.070144 3.145z" fill="#ac9d93" stroke="#6c5d53" stroke-width=".2px"/>
  <g stroke="#000" stroke-linecap="square" stroke-linejoin="round">
   <rect x="-7.2084" y="6.9474" width=".4878" height="1.0569" stroke-width=".15"/>
   <rect x="-8.1879" y="5.48" width=".46706" height=".86706" stroke-width=".13294"/>
   <rect x="-6.2906" y="5.5402" width=".46706" height=".86706" stroke-width=".13294"/>
  </g>
  <path d="m-9.0475 5.0091 2.2479-0.055024-0.015304-3.0672 0.015304 3.0672 1.931 0.040402-1.9463-3.1076-2.2326 3.1222" fill="none" stroke="#2b2200" stroke-width=".20162px"/>
 </g>
</svg>
