<svg width="100" height="100" version="1.1" viewBox="0 0 20 20" xmlns="http://www.w3.org/2000/svg">
 <g fill="#b380ff" stroke="#95f" stroke-width=".25343px">
  <path d="m5.614 11.753 0.38598 2.2474 0.88188 0.47148 0.9664 0.65274 1.8971-0.66398 1.8546-0.66024-0.17437-1.8887-0.73628-2.5254z"/>
  <path d="m11.894 13.711-2.2665 0.81435-2.2637 0.50573 0.64244 1.171 0.90401 1.8283 2.125-0.5694 0.7643-1.8612z"/>
  <path d="m11.244 17.536 1.447 0.4757 0.84925 0.52799-4.3833 0.38348-0.47416-0.601 0.17034-0.577z"/>
 </g>
 <g transform="rotate(-15 5.1016 -9.8031)" fill="#b380ff" stroke="#95f">
  <g transform="rotate(39 8.8289 14.019)">
   <g transform="rotate(90 -.92253 5.9703)" fill="#b380ff" stroke="#95f">
    <path d="m8.3967 3.1092 1.5676-0.99849 1.9956-0.021599 1.5478 1.0232-0.63366 5.2299-1.8991 1.9168-1.8073-1.9489z" stroke-width=".2px"/>
    <path transform="matrix(.2 0 0 .2 -7.643 3.8571)" d="m88.785 26.516-4.1789-4.5133-1.8923-12.739c-1.0408-7.0063-1.8739-12.749-1.8515-12.761 0.02245-0.012031 1.6124-1.0198 3.5333-2.2396 4.0768-2.5888 3.6634-2.48 9.5232-2.5049l3.8729-0.016415 3.6164 2.3594c1.989 1.2976 3.6414 2.3804 3.672 2.4062 0.0306 0.025743-0.64369 5.809-1.4984 12.852l-1.554 12.805-4.4331 4.4362c-2.4382 2.4399-4.4776 4.4345-4.532 4.4324-0.05437-0.0021-1.9793-2.0349-4.2777-4.5171z" fill-opacity=".91372" stroke-width=".19453"/>
   </g>
  </g>
  <g transform="rotate(40 6.1462 -.97032)">
   <path d="m10.386 10.008 0.22314-1.288v-1l0.4-0.8-0.4-1-0.8-0.6h-1.2l-1 0.6-0.4 1 0.4 0.8 0.2 1 0.19048 1.2801z" stroke-width=".25343px"/>
   <g transform="matrix(1.5904 -.19194 .035173 1.0054 -.17196 2.8863)" stroke-width=".2px">
    <path d="m6.5942 8.3544-0.33947 2.7057-0.70652-0.05753-0.77562-3.0068z"/>
    <path d="m6.4552 11.198-0.97897-0.04426-0.10714 1.0446 0.94643 0.29464 0.29464-0.64286z"/>
   </g>
  </g>
 </g>
 <path d="m8.18 2.2h2.18v1.4h-2.18z" stroke="#000" stroke-linecap="square" stroke-linejoin="round" stroke-width=".097659"/>
 <g transform="rotate(90 -6.7768 7.7898)">
  <path d="m-0.591 11.086-2.7969 0.0045-0.00223 0.39955 1.2029 0.0024-6.7e-4 2.398h0.4l-1.169e-4 -2.3994 1.1988-0.0033z" fill="#f00" stroke="#d40000" stroke-width=".1"/>
  <path d="m-1.7985 10.979 0.17847-7.7135-0.35738-2.2729-0.38808 2.2635 0.17852 7.7209z" fill="#fd5" stroke="#fc0" stroke-width=".11754"/>
  <path d="m-1.9665 10.813-0.017541-9.5311" fill="none" stroke="#fc0" stroke-width=".11754"/>
 </g>
 <path d="m4.1769 8.3857 3.2874 0.017893 0.5157-0.00359h3.8" fill="none" stroke="#b380ff" stroke-width=".25343px"/>
 <path d="m6.0896 4.6693-0.66259-0.38725-0.020275-2.2097 1.5409-0.88388 2.0478-2e-7 1.3381 0.85863-0.02373 0.88184-0.5298-0.72894h-1.6l0.6 0.8h1.2l0.31465 0.4924-0.02193 0.8149-0.7745 0.34504z" fill="#caf" stroke="#b380ff" stroke-width=".25343px"/>
 <path d="m6.9305 1.0791-1.6574 0.92089-0.040323 2-0.65269-1.1164v-1.2836l1.2745-1 1.1255-0.4h2.6686l1.3314 0.30152-1 1.0985-0.86258-0.50631z" fill="#f00" stroke="#d40000" stroke-width=".12672"/>
 <g transform="translate(12.643 1.1429)">
  <path d="m8.3967 3.1092 1.5676-0.99849 1.9956-0.021599 1.5478 1.0232-0.63366 5.2299-1.8991 1.9168-1.8073-1.9489z" fill="#caf" stroke="#b380ff" stroke-width=".2px"/>
  <path d="m8.9822 4.7547 0.59978-0.37249 1.1869 0.20203-0.2841-1.2879 0.49245-0.52402 0.51139 0.53664-0.30304 1.2753 1.1996-0.21466 0.59978 0.40406-0.59346 0.39775-1.1996-0.18309 0.27148 2.2855-0.4672 1.1238-0.50508-1.1238 0.30304-2.2981-1.2122 0.20203z" fill="#f00" stroke="#d40000" stroke-width=".1"/>
 </g>
 <g fill="#caf" stroke="#b380ff" stroke-width=".2px">
  <path d="m7.4068 31.989-0.4163 1.999-0.012268 2.1974 1.8214-0.01786 0.30357-2.125 0.089286-2.0714z"/>
  <path d="m12.23 31.996 0.4163 1.999 0.01227 2.1974-1.8214-0.01786-0.30357-2.125-0.08929-2.0714z"/>
  <path d="m8.6783 25.924 2.1228-0.01696 0.8824-0.22195 0.91072 0.01786 0.04464 0.89286-0.0089 2.5536-0.41967 0.46428-0.0089 1.6339 1.3214 2.8214-2.2857-0.07143-0.32143-2-0.14286 2.3214-1.8661-0.0089-0.0625-2.3482-0.35714 2-2.3839 0.08928 1.3482-2.875 0.035714-1.5357-0.39824-0.55335-0.031382-2.54 0.049021-0.82539 0.9412-0.05051z"/>
  <path d="m12.776 29.638 0.33947 2.7057 0.70652-0.05753 0.77562-3.0068z"/>
  <path d="m12.776 29.638-0.13691-1.5243 0.01785-1.8661 0.29749-1.1663 1.3413 0.44607 0.52624 0.96955-0.4224 1.3106-0.06152 0.77242-0.04147 0.73212z"/>
  <path d="m6.9385 29.609-0.33947 2.7057-0.70652-0.05753-0.77562-3.0068z"/>
  <path d="m6.9385 29.609 0.13691-1.5243-0.01785-1.8661-0.29749-1.1663-1.3413 0.44607-0.52624 0.96955 0.4224 1.3106 0.06152 0.77242 0.04147 0.73212z"/>
 </g>
 <g stroke="#b380ff">
  <path d="m7.4871 29.64 2.0474 0.01789 0.26886-0.45763 0.31567 0.41605 2.0913-0.0031" fill="none" stroke-width=".2px"/>
  <path d="m8.6783 25.924-0.41265-0.38725-0.012626-2.2097 0.95964-0.88388h1.2753l0.83338 0.85863-0.03788 2.2602-0.48235 0.34504z" fill="#caf" stroke-width=".2px"/>
  <path d="m8.6761 23.598 0.85863 0.02525 0.14521 0.93439 0.26516-0.0063 0.15784-0.92808 0.85232-0.01894-0.17046 0.50508-0.39144 0.03788-0.27779 1.5026-0.55558 0.01894-0.30305-1.5215-0.37249-0.01894z" stroke-width=".12"/>
 </g>
 <path d="m9.5109 22.348-0.13841-0.76393 1.0271 0.0063-0.17483 0.75761z" fill="#f00" stroke="#d40000" stroke-width=".1"/>
 <g stroke-linecap="square" stroke-linejoin="round">
  <ellipse cx="10.366" cy="23.857" rx=".12109" ry=".051339" fill="#fff" stroke="#fff" stroke-width=".1"/>
  <circle cx="10.365" cy="23.854" r=".044959" stroke="#000" stroke-width=".072582"/>
  <ellipse cx="9.2816" cy="23.848" rx=".11637" ry=".057218" fill="#fff" stroke="#fff" stroke-width=".098287"/>
  <circle cx="9.2822" cy="23.844" r=".041676" stroke="#000" stroke-width=".085844"/>
 </g>
 <g fill="#caf" stroke="#b380ff" stroke-width=".2px">
  <path d="m13.115 32.379 0.97897-0.04426 0.10714 1.0446-0.94643 0.29464-0.29464-0.64286z"/>
  <path d="m6.599 32.315-0.97897-0.04426-0.10714 1.0446 0.94643 0.29464 0.29464-0.64286z"/>
  <path d="m10.648 36.201 2.2411-2.9e-5 -0.41964 2.9911-0.55357 0.44643-0.74107-0.48211z"/>
  <path d="m11.429 38.686-0.31714 0.61803 0.38362 1.1472 0.71679 0.51732 0.49404-0.69456-0.02931-1.246-0.49103-0.471z"/>
  <path d="m8.9204 36.192-2.2411-2.9e-5 0.41964 2.9911 0.55357 0.44643 0.74107-0.48211z"/>
  <path d="m8.1593 38.677 0.31714 0.61803-0.38362 1.1472-0.71679 0.51732-0.49404-0.69456 0.029308-1.246 0.49103-0.471z"/>
 </g>
 <path d="m-0.67546 17.299-1.0926 0.12358-0.60232 0.01303-0.29299-0.45891 0.077233 1.377 1.2849 0.1047z" fill="#caf" stroke="#b380ff" stroke-width=".25343px"/>
 <g transform="matrix(.94633 0 0 1.0196 -3.9467 -.47492)" stroke-linecap="square" stroke-linejoin="round">
  <ellipse cx="14.101" cy="3.0038" rx=".21498" ry=".10692" fill="#fff" stroke="#fff" stroke-width=".18261"/>
  <ellipse cx="14.187" cy="2.9965" rx=".07699" ry=".077876" stroke="#000" stroke-width=".15949"/>
 </g>
 <g fill="#caf" stroke="#b380ff">
  <g transform="rotate(20 33.445 3.0703)" stroke-width=".25343px">
   <g transform="rotate(15 15.126 24.622)" fill="#caf" stroke="#b380ff">
    <g fill="#caf" stroke="#b380ff">
     <path transform="rotate(-15 15.126 24.622)" d="m10.284 19.513-0.6 2.2 0.6 0.8 0.6 1 2 0.2 2.2-0.2 0.4-1.4 0.4-2.6z"/>
     <path d="m15.284 23.513-2.4 0.2-2.3175-0.09739 0.31747 1.2974 0.4 2 2.2 3e-6 1.22-1.6z"/>
     <path d="m13.704 26.88 1.407 0.61319-1.0769 0.64918-1.2316-0.13666-1.3947-0.12202-0.3626-0.6742 0.26795-0.53866z" stroke-width=".2534"/>
    </g>
   </g>
  </g>
  <path d="m6.0896 4.6693 3.4086-0.016959 1.4169-0.22195 0.6649 0.36961 0.86908 0.54111-0.34442 2.6589-0.34374 0.35899-0.0143 1.6339 0.83338 3.0071h-1l-1.6878-2 0.68776 2h-5l0.63274-2-1.6327 2h-1.6623l1.2019-3.0786 0.057345-1.5357-0.63945-0.55335-0.050389-2.54 0.49287-0.69235 1.0971-0.18355z" stroke-width=".25343px"/>
  <path d="m10.142 9.2617-0.34212-1.2617-0.42262-0.90631 0.024429-0.89409-0.78514-0.73726-0.97862-0.20569-1.0876 0.50714-0.65274 0.9664 0.060095 1.0754 0.70062 0.556 0.60388 0.82178 0.93766 1.2167z" stroke-width=".25343px"/>
 </g>
 <g transform="rotate(-20 9.0203 10.265)">
  <g stroke="#fc0" stroke-width=".11754">
   <path d="m12.499 12.311 7.0662-3.0981 1.9089-1.2845-2.2154 0.60488-6.9221 3.4248z" fill="#fd5"/>
   <path d="m12.579 12.089 8.6307-4.0439" fill="none"/>
  </g>
  <path d="m12.913 13.451-1.1861-2.533-0.36306 0.16684 0.50619 1.0912-2.1737 1.0129 0.16905 0.36252 2.1745-1.0141 0.50963 1.0851z" fill="#f00" stroke="#d40000" stroke-width=".1"/>
  <g transform="matrix(1.3603 -.8461 .45676 .8963 -2.4367 7.2695)" fill="#caf" stroke="#b380ff" stroke-width=".2px">
   <path d="m6.5942 8.3544-0.33947 2.7057-0.70652-0.05753-0.77562-3.0068z"/>
   <path d="m6.4552 11.198-0.97897-0.04426-0.10714 1.0446 0.94643 0.29464 0.29464-0.64286z"/>
  </g>
 </g>
</svg>
