<svg width="100" height="100" version="1.1" viewBox="0 0 20 20" xmlns="http://www.w3.org/2000/svg">
 <g id="leftLeg" fill="#caf" stroke="#b380ff" stroke-width=".25343px">
  <path d="m13.213 10.741 0.66845 1.999 0.01971 2.1974-2.9246-0.01786-0.48744-2.125-0.14337-2.0714z"/>
  <path d="m10.672 14.946 3.5985-2.9e-5 -0.67381 2.9911-0.88886 0.44643-1.1899-0.48211z"/>
  <path d="m11.926 17.431-0.50923 0.61803 0.61597 1.1472 1.1509 0.51732 0.79327-0.69456-0.04706-1.246-0.78844-0.471z"/>
 </g>
 <g id="rightLeg">
  <title>right leg</title>
  <g fill="#caf" stroke="#b380ff" stroke-width=".25343px">
   <path d="m5.4679 10.734-0.66845 1.999-0.019699 2.1974 2.9246-0.01786 0.48744-2.125 0.14337-2.0714z"/>
   <path d="m7.8982 14.937-3.5985-2.9e-5 0.67381 2.9911 0.88886 0.44643 1.1899-0.48211z"/>
   <path d="m6.6763 17.422 0.50923 0.61803-0.61597 1.1472-1.1509 0.51732-0.79327-0.69456 0.047059-1.246 0.78844-0.471z"/>
  </g>
 </g>
 <g fill="#caf" stroke="#b380ff" stroke-width=".25343px">
  <path d="m7.5096 4.6693 3.4086-0.016959 1.4169-0.22195 1.4623 0.017859 0.07168 0.89286-0.0143 2.5536-0.67386 0.46428-0.0143 1.6339 2.1218 2.8214-3.6701-0.07143-0.51611-2-0.22938 2.3214-2.9964-0.0089-0.10035-2.3482-0.57346 2-3.8278 0.08929 2.1648-2.875 0.057345-1.5357-0.63945-0.55335-0.050389-2.54 0.078712-0.82539 1.5113-0.050508z"/>
  <path d="m15.387 8.5463-1.0437-1.3855-0.99787-1.7596-0.19162-1.1977 2.2688-0.039571 1.3265 0.7311 0.08239 1.376 0.33136 0.74688 0.33949 0.70216z"/>
  <path d="m4.0684 8.4791 0.6415-1.4774 0.49208-1.8408-0.14523-1.2002-2.2453 0.20639-1.1025 0.86344 0.30252 1.364-0.11809 0.77137-0.13856 0.7282z"/>
 </g>
 <g stroke="#b380ff">
  <path d="m5.5969 8.3857 3.2874 0.017893 0.43171-0.45763 0.50687 0.41605 3.358-0.0031" fill="none" stroke-width=".25343px"/>
  <path d="m7.5096 4.6693-0.66259-0.38725-0.020275-2.2097 1.5409-0.88388 2.0478-2e-7 1.3381 0.85863-0.06082 2.2602-0.7745 0.34504z" fill="#caf" stroke-width=".25343px"/>
  <path d="m7.506 2.3438 1.3787 0.025255 0.23316 0.93439 0.42577-0.00631 0.25344-0.92808 1.3685-0.01894-0.32422 0.74499-0.59064 0.16415-0.43342 1.1364-0.89209 0.018941-0.37295-1.1932-0.66124-0.082075z" stroke-width=".15206"/>
 </g>
 <g stroke-linecap="square" stroke-linejoin="round">
  <ellipse cx="10.358" cy="2.6911" rx=".29039" ry=".096779" fill="#fff" stroke="#fff" stroke-width=".21261"/>
  <ellipse cx="10.357" cy="2.6854" rx=".10781" ry=".084751" stroke="#000" stroke-width=".15432"/>
  <ellipse cx="8.3141" cy="2.6721" rx=".30997" ry=".094919" fill="#fff" stroke="#fff" stroke-width=".20661"/>
  <ellipse cx="8.3156" cy="2.6656" rx=".11101" ry=".069137" stroke="#000" stroke-width=".18045"/>
 </g>
 <g transform="matrix(1.23 .64279 -1.0321 .76604 9.8035 -7.1381)" fill="#caf" stroke="#b380ff" stroke-width=".2px">
  <path d="m12.432 8.3832 0.33947 2.7057 0.70652-0.05753 0.77562-3.0068z"/>
  <path d="m12.928 10.512 0.93507 0.29324-0.2566 1.0183-0.99013-0.04683-0.057-0.70486z"/>
 </g>
 <g transform="matrix(1.5996 .087156 -.13994 .99619 -5.3052 -.41715)" fill="#caf" stroke="#b380ff" stroke-width=".2px">
  <path d="m6.5942 8.3544-0.33947 2.7057-0.70652-0.05753-0.77562-3.0068z"/>
  <path d="m6.2547 11.06-0.97897-0.04426-0.10714 1.0446 0.94643 0.29464 0.29464-0.64286z"/>
 </g>
 <g transform="translate(12.643 1.1429)">
  <path d="m8.3967 3.1092 1.5676-0.99849 1.9956-0.021599 1.5478 1.0232-0.63366 5.2299-1.8991 1.9168-1.8073-1.9489z" fill="#caf" stroke="#b380ff" stroke-width=".2px"/>
  <path d="m8.9822 4.7547 0.59978-0.37249 1.1869 0.20203-0.2841-1.2879 0.49245-0.52402 0.51139 0.53664-0.30304 1.2753 1.1996-0.21466 0.59978 0.40406-0.59346 0.39775-1.1996-0.18309 0.27148 2.2855-0.4672 1.1238-0.50508-1.1238 0.30304-2.2981-1.2122 0.20203z" fill="#f00" stroke="#d40000" stroke-width=".1"/>
 </g>
 <path d="m-0.591 11.086-2.7969 0.0045-0.00223 0.39955 1.2029 0.0024-0.02586 1.6284 0.42584 0.0067-7.669e-4 -1.6364 1.1988-0.0033z" fill="#f00" stroke="#d40000" stroke-width=".1"/>
 <path d="m-1.7985 10.979 0.17847-7.7135-0.35738-2.2729-0.38808 2.2635 0.17852 7.7209z" fill="#fd5" stroke="#fc0" stroke-width=".11754"/>
 <path d="m-1.9665 10.813-0.017541-9.5311" fill="none" stroke="#fc0" stroke-width=".11754"/>
 <g transform="matrix(1.551 -.25882 .41558 .96593 -5.2562 7.5489)">
  <path d="m8.3967 3.1092 1.5676-0.99849 1.9956-0.021599 1.5478 1.0232-0.63366 5.2299-1.8991 1.9168-1.8073-1.9489z" fill="#caf" stroke="#b380ff" stroke-width=".2px"/>
  <path d="m8.9822 4.7547 0.59978-0.37249 1.1869 0.20203-0.2841-1.2879 0.49245-0.52402 0.51139 0.53664-0.30304 1.2753 1.1996-0.21466 0.59978 0.40406-0.59346 0.39775-1.1996-0.18309 0.27148 2.2855-0.4672 1.1238-0.50508-1.1238 0.30304-2.2981-1.2122 0.20203z" fill="#f00" stroke="#d40000" stroke-width=".1"/>
 </g>
 <g fill="#caf" stroke="#b380ff" stroke-width=".2px">
  <path d="m7.4068 31.989-0.4163 1.999-0.012268 2.1974 1.8214-0.01786 0.30357-2.125 0.089286-2.0714z"/>
  <path d="m12.23 31.996 0.4163 1.999 0.01227 2.1974-1.8214-0.01786-0.30357-2.125-0.08929-2.0714z"/>
  <path d="m8.6783 25.924 2.1228-0.01696 0.8824-0.22195 0.91072 0.01786 0.04464 0.89286-0.0089 2.5536-0.41967 0.46428-0.0089 1.6339 1.3214 2.8214-2.2857-0.07143-0.32143-2-0.14286 2.3214-1.8661-0.0089-0.0625-2.3482-0.35714 2-2.3839 0.08928 1.3482-2.875 0.035714-1.5357-0.39824-0.55335-0.031382-2.54 0.049021-0.82539 0.9412-0.05051z"/>
  <path d="m12.776 29.638 0.33947 2.7057 0.70652-0.05753 0.77562-3.0068z"/>
  <path d="m12.776 29.638-0.13691-1.5243 0.01785-1.8661 0.29749-1.1663 1.3413 0.44607 0.52624 0.96955-0.4224 1.3106-0.06152 0.77242-0.04147 0.73212z"/>
  <path d="m6.9385 29.609-0.33947 2.7057-0.70652-0.05753-0.77562-3.0068z"/>
  <path d="m6.9385 29.609 0.13691-1.5243-0.01785-1.8661-0.29749-1.1663-1.3413 0.44607-0.52624 0.96955 0.4224 1.3106 0.06152 0.77242 0.04147 0.73212z"/>
 </g>
 <g stroke="#b380ff">
  <path d="m7.4871 29.64 2.0474 0.01789 0.26886-0.45763 0.31567 0.41605 2.0913-0.0031" fill="none" stroke-width=".2px"/>
  <path d="m8.6783 25.924-0.41265-0.38725-0.012626-2.2097 0.95964-0.88388h1.2753l0.83338 0.85863-0.03788 2.2602-0.48235 0.34504z" fill="#caf" stroke-width=".2px"/>
  <path d="m8.6761 23.598 0.85863 0.02525 0.14521 0.93439 0.26516-0.0063 0.15784-0.92808 0.85232-0.01894-0.17046 0.50508-0.39144 0.03788-0.27779 1.5026-0.55558 0.01894-0.30305-1.5215-0.37249-0.01894z" stroke-width=".12"/>
 </g>
 <path d="m9.5109 22.348-0.13841-0.76393 1.0271 0.0063-0.17483 0.75761z" fill="#f00" stroke="#d40000" stroke-width=".1"/>
 <g stroke-linecap="square" stroke-linejoin="round">
  <ellipse cx="10.366" cy="23.857" rx=".12109" ry=".051339" fill="#fff" stroke="#fff" stroke-width=".1"/>
  <circle cx="10.365" cy="23.854" r=".044959" stroke="#000" stroke-width=".072582"/>
  <ellipse cx="9.2816" cy="23.848" rx=".11637" ry=".057218" fill="#fff" stroke="#fff" stroke-width=".098287"/>
  <circle cx="9.2822" cy="23.844" r=".041676" stroke="#000" stroke-width=".085844"/>
 </g>
 <g fill="#caf" stroke="#b380ff" stroke-width=".2px">
  <path d="m13.115 32.379 0.97897-0.04426 0.10714 1.0446-0.94643 0.29464-0.29464-0.64286z"/>
  <path d="m6.599 32.315-0.97897-0.04426-0.10714 1.0446 0.94643 0.29464 0.29464-0.64286z"/>
  <path d="m10.648 36.201 2.2411-2.9e-5 -0.41964 2.9911-0.55357 0.44643-0.74107-0.48211z"/>
  <path d="m11.429 38.686-0.31714 0.61803 0.38362 1.1472 0.71679 0.51732 0.49404-0.69456-0.02931-1.246-0.49103-0.471z"/>
  <path d="m8.9204 36.192-2.2411-2.9e-5 0.41964 2.9911 0.55357 0.44643 0.74107-0.48211z"/>
  <path d="m8.1593 38.677 0.31714 0.61803-0.38362 1.1472-0.71679 0.51732-0.49404-0.69456 0.029308-1.246 0.49103-0.471z"/>
 </g>
 <g transform="matrix(-1.6057 0 0 -1 -.74796 16.205)">
  <path d="m-2.1942 5.0915 0.63883-0.00303 0.00625-0.41665-0.095784 0.00203-9.257e-4 -1.6819-0.41691-0.0067 0.018624 1.6899-0.14968 0.00109z" fill="#f00" stroke="#d40000" stroke-width=".1"/>
  <path d="m-2.0118 5.1845 0.021049 7.8012 0.13584 2.2016 0.15518-2.1891-0.03022-7.8205z" fill="#fd5" stroke="#fc0" stroke-width=".11874"/>
  <path d="m-1.8661 5.3426 0.017858 9.5552" fill="none" stroke="#fc0" stroke-width=".11874"/>
 </g>
 <path d="m3.287 11.577-1.0926 0.12358-0.60232 0.01303-0.29299-0.45891 0.077233 1.377 1.2849 0.1047z" fill="#caf" stroke="#b380ff" stroke-width=".25343px"/>
 <path d="m8.7866 1.0937-0.31566-0.90765 1.757-8.76e-4 -0.29509 0.90852-0.39024 0.58097-0.38999 0.00111z" fill="#f00" stroke="#d40000" stroke-width=".12672"/>
</svg>
