<svg width="100" height="100" version="1.1" viewBox="0 0 20 20" xmlns="http://www.w3.org/2000/svg" xmlns:xlink="http://www.w3.org/1999/xlink">
 <defs>
  <linearGradient id="linearGradient1638" x1="7.7871" x2="7.3131" y1="20.248" y2="13.688" gradientTransform="matrix(1.0052 0 0 .88268 -.050435 2.3434)" gradientUnits="userSpaceOnUse">
   <stop stop-color="#250" offset="0"/>
   <stop stop-color="#4a0" offset="1"/>
  </linearGradient>
  <linearGradient id="linearGradient1638-0" x1="4.7859" x2="4.4621" y1="19.783" y2="13.249" gradientTransform="matrix(-1.0052 0 0 .89427 20.05 2.0827)" gradientUnits="userSpaceOnUse">
   <stop stop-color="#4a0" offset="0"/>
   <stop stop-color="#4a0" offset="1"/>
  </linearGradient>
  <clipPath id="clipPath5068-0">
   <path d="m-24.811 17.968-6.9e-5 -1.7636c-1.5655-1.499-4.3678-2.2129-7.0163-3.0516-2.072-0.36721-3.0692-0.23366-5.0059 0.06227-4.5274 0.90138-5.8575 1.6549-8.8866 2.9715l1.6e-5 1.7815z" fill="none" stroke="#000" stroke-width=".22327px"/>
  </clipPath>
  <clipPath id="clipPath3776-4-5-6">
   <path d="m-45.204 17.968h19.962c-0.05728-1.4761-0.26917-1.7092-1.2076-3.0776-1.1123-1.622-3.1708-1.9906-6.2625-2.349-4.4828 0.93589-8.7173 1.6276-13.005 3.6753v1.7513" fill="none" stroke="#000" stroke-width=".22656px"/>
  </clipPath>
  <clipPath id="clipPath3772-0-4-6">
   <path d="m0.67707 19.917h19.962c-0.05728-1.4761-0.26917-1.7092-1.2076-3.0776-1.1123-1.622-3.1708-1.9906-6.2625-2.349-4.4828 0.93589-8.7173 1.6276-13.005 3.6753v1.7513" fill="none" stroke="#000" stroke-width=".22656px"/>
  </clipPath>
  <linearGradient id="linearGradient1285" x1="31.779" x2="31.975" y1="142.02" y2="147.56" gradientTransform="matrix(.34807 .00066486 0 .21076 -.038457 -15.935)" gradientUnits="userSpaceOnUse">
   <stop stop-color="#ffe680" offset="0"/>
   <stop stop-color="#a0a0a0" stop-opacity="0" offset="1"/>
  </linearGradient>
 </defs>
 <g fill="#666">
  <path d="m11.861 19.657c-1.405-0.014476-4.0473-0.029092-5.8718-0.03249-3.1421-0.005878-5.3734-0.043777-5.4217-0.092188-0.04497-0.045103-0.10966-0.85328-0.151-1.8865-0.044674-1.1166-0.027339-3.1028 0.035246-4.0386 0.018979-0.28377 0.052228-0.80416 0.073887-1.1564 0.021659-0.35226 0.10424-1.249 0.18351-1.9926 0.16285-1.5277 0.18095-2.1113 0.088858-2.8644-0.032308-0.2642-0.068776-0.64849-0.08104-0.85398l-0.022299-0.37362 0.57334 0.56932c0.31533 0.31313 0.63526 0.64939 0.71094 0.74723 0.21447 0.2773 0.58469 0.88424 0.81825 1.3414 0.11696 0.22894 0.22862 0.42616 0.24814 0.43826 0.019515 0.012095 0.11883-0.051131 0.2207-0.1405 0.10187-0.089372 0.19746-0.1625 0.21243-0.1625 0.014971 0 0.027219-0.050591 0.027219-0.11242 0-0.12396 0.5891-1.5275 1.394-3.3213 0.28101-0.62625 0.58752-1.3188 0.68112-1.5389 0.093604-0.22016 0.18231-0.40031 0.19713-0.40031s0.043467 0.044034 0.06366 0.097852c0.020193 0.053819 0.12338 0.29801 0.2293 0.54263 0.40468 0.93462 0.87262 2.2932 1.0777 3.1291 0.050713 0.20666 0.10272 0.38771 0.11556 0.40234 0.012847 0.014622 0.1203-0.040136 0.23879-0.12169l0.21543-0.14827 0.023516-0.32309c0.069637-0.95676 0.51342-3.3245 0.94519-5.0429 0.099813-0.39726 0.41385-1.3965 0.50551-1.6085l0.043877-0.10149 0.17512 0.3129c0.096317 0.17209 0.65974 1.0424 1.252 1.934 0.94266 1.4189 1.1175 1.6621 1.4025 1.9503 0.17907 0.18103 0.34985 0.32912 0.37951 0.32911 0.02965-1.53e-5 0.15163-0.046388 0.27106-0.10305 0.20303-0.096328 0.22939-0.12349 0.40567-0.41806 0.59616-0.99621 1.4329-2.1189 2.6557-3.5633l0.33379-0.39426 0.07032 0.089662c0.13057 0.16648 0.16941 0.50439 0.2018 1.7559 0.05858 2.2634 0.16598 2.5366 1.5179 3.8607 0.89908 0.88056 1.3068 1.4266 1.4292 1.9141 0.03637 0.14489 0.03477 0.17707-0.0106 0.2135-0.04039 0.032423-0.06898 0.2252-0.11718 0.79012-0.06051 0.70926-0.06067 0.76803-0.0031 1.1564 0.15936 1.0754 0.17667 1.2744 0.17652 2.0282-7.2e-5 0.42076-0.01741 1.0933-0.03852 1.4945-0.02669 0.50741-0.02775 1.1449-0.0035 2.0941 0.04154 1.6255 0.0289 3.3654-0.02484 3.4192-0.05639 0.05647-2.3908 0.1776-3.7237 0.19322-0.64394 0.0076-2.3203 0.0019-3.7253-0.0126zm7.5429-11.337c-0.01028 0.066468-0.02112 0.13244-0.02529 0.19968 7.95e-4 0.055734-0.01272 0.10897-0.02798 0.16193-0.0077 0.052654-0.03604 0.095471-0.05533 0.14384-0.0104 0.056062-0.02946 0.10918-0.04205 0.1646-0.0076 0.037342-0.01163 0.075122-0.01542 0.11301l0.46354-0.23918c0.0037-0.035369 0.0086-0.070678 0.01791-0.10501 0.01515-0.052604 0.02618-0.10649 0.0455-0.15758 0.02137-0.049429 0.04463-0.097559 0.05315-0.15187 0.01191-0.055865 0.02193-0.11205 0.02226-0.1695 0.0061-0.065807 0.01593-0.13116 0.02819-0.19602l-0.46447 0.2361zm-19.253 11.562c1.7857-0.08338 3.5734-0.10083 5.3605-0.12002 0.54542-0.0028 1.0908-0.0053 1.6363-0.0087 1.4144-0.0087 2.1334-0.02199 3.5461-0.0061 1.3964 0.01577 2.7921 0.06673 4.1878 0.11343 1.1834 0.03869 2.3668-0.0059 3.5502-0.01873 0.20194-0.0033 0.40388-0.0027 0.60579 0.0018 0.07428 9.97e-4 0.14848 0.0023 0.22276 0.0017 0.06054-4.9e-5 0.03132-9.96e-4 0.08765 0.0026l0.41828-0.30939c-0.05963-0.0084-0.02939-0.0061-0.09071-0.0064-0.07417-9.96e-4 -0.14831-0.0014-0.22248-0.0018-0.2151 0.0022-0.43002 0.01473-0.64484 0.02522-1.2345 0.07475-2.4695 0.15109-3.7069 0.13988-3.145-0.02352-6.29-0.06309-9.4352-0.05035-1.7001-0.0069-3.4015-2e-3 -5.1004-0.0764l-0.41476 0.31331zm19.12-11.337c0.0092 0.27167-0.02872 0.54294-0.05699 0.81256-0.02497 0.20938-0.03709 0.42006-0.04172 0.6309 0.0031 0.2599 0.05296 0.51794 0.09367 0.77391 0.07326 0.43581 0.11446 0.87571 0.13933 1.317 0.02091 0.36746 0.0035 0.7356-0.01707 1.1025-0.01722 0.36292-0.04443 0.72512-0.05709 1.0883-0.0086 0.39362-0.0071 0.78688 0.0036 1.1804 0.0072 0.26454 0.01042 0.52917 0.01218 0.7938 0.01321 0.23746 0.02407 0.47498 0.03134 0.71272 9e-3 0.25609 0.0057 0.51236 0.0044 0.76854-0.0019 0.17142-2e-3 0.34284-0.0028 0.51427-3.4e-5 0.14654 4.77e-4 0.29302-0.0015 0.43954 6.55e-4 0.14524 0.0028 0.29046 9.73e-4 0.43571 0.0024 0.09439-5e-3 0.18874-0.03078 0.27944-0.0313 0.10794-0.04766 0.21974-0.06269 0.33114l0.45847-0.23469c0.01454-0.11104 0.03548-0.22038 0.06803-0.32738 0.01935-0.0951 0.02514-0.19108 0.01951-0.28825-0.0018-0.1456 3.38e-4 -0.29116 9.74e-4 -0.43675-0.0021-0.14599-0.0014-0.29194-0.0013-0.43794-6.16e-4 -0.17052-4.37e-4 -0.34104-0.0027-0.51155-0.0021-0.256-0.0073-0.51198-0.0081-0.768-0.0054-0.23791-0.01951-0.47534-0.02885-0.71308-0.0038-0.26308-0.01228-0.526-0.02384-0.78884-0.01405-0.39217-0.02416-0.78466-0.0028-1.1768 0.01382-0.3631 0.18603-0.77348 0.20867-1.1361 0.02013-0.36739-0.11919-0.68785-0.14387-1.0554-0.02845-0.44346-0.07474-0.8849-0.13277-1.3253-0.0312-0.25721-0.08297-0.51428-0.07438-0.77464 4e-3 -0.20723 0.01238-0.41431 0.03086-0.62078 0.02359-0.27662 0.0596-0.55204 0.0774-0.82902l-0.45994 0.24366zm-10.17-8.2273c0.025361 0.041888 0.052128 0.082888 0.076081 0.12566 0.39121 0.69859-0.28905-0.48662 0.24473 0.45896 0.068296 0.12098 0.1381 0.2411 0.21066 0.35937 0.2015 0.32843 0.35273 0.54721 0.56875 0.87015 0.49734 0.71914 0.9777 1.4503 1.4524 2.1857 0.03701 0.053008 0.07077 0.10865 0.11102 0.15902 0.07831 0.098005 0.19729 0.21296 0.28576 0.30084 0.10456 0.10386 0.20927 0.20742 0.31673 0.30802 0.01992 0.017637 0.03537 0.062792 0.05972 0.05291 0.57429-0.23286 0.46422-0.18795 0.72575-0.61153 0.11968-0.19382 0.23546-0.3904 0.36138-0.57991 0.4543-0.68369 0.60773-0.86159 1.1125-1.5234 0.52768-0.657 0.53686-0.6783 1.0515-1.2843 0.06803-0.080111 0.51414-0.63389 0.68464-0.71172 0.09059-0.041347-0.18141 0.12231-0.20626 0.22186-0.01657 0.066358 0.0719 0.11494 0.10785 0.17241 0.02441 0.10442 0.05606 0.20731 0.07323 0.31328 0.03694 0.22792 0.0453 0.52288 0.05124 0.7519 0.0096 0.37245 0.0077 0.74539 0.01251 1.118 0.0044 0.40543 0.04256 0.81106 0.12012 1.2086 0.02356 0.12075 0.04881 0.24153 0.08406 0.35915 0.08057 0.2688 0.1383 0.35655 0.26201 0.60039 0.29643 0.493 0.73033 0.86852 1.1369 1.259 0.05117 0.04802 0.10245 0.09592 0.15351 0.14406 0.10313 0.097222 0.22235 0.20811 0.31843 0.31178 0.18292 0.19735 0.34296 0.41268 0.50152 0.63099 0.11201 0.15946 0.21832 0.32218 0.29233 0.50478 0.04478 0.11049 0.07219 0.22694 0.10763 0.34071 0.0091 0.023461 0.01836 0.046924 0.02753 0.070385l0.44217-0.25867c-0.0097-0.021579-0.01958-0.043157-0.02938-0.064735-0.06091-0.16811-0.113-0.34161-0.20126-0.49743-0.03128-0.055219-0.0682-0.1068-0.10406-0.15891-0.04303-0.062527-0.08839-0.12328-0.13259-0.18494-0.29428-0.39421-0.5913-0.79007-0.97464-1.0967-0.41449-0.3756-0.83875-0.7533-1.1406-1.2373-0.12517-0.238-0.18239-0.322-0.26572-0.585-0.15868-0.50086-0.19461-1.035-0.199-1.5582-0.0038-0.37214-0.0088-0.74451-0.01741-1.1166-0.0058-0.25144-0.01127-0.51495-0.04484-0.76479-0.01531-0.11381-0.04214-0.2256-0.06322-0.33842-0.04359-0.073583-0.04772-0.22402-0.13078-0.22074-0.54622 0.021553-0.8995 0.55852-1.2057 0.93642-0.47617 0.58774-0.50829 0.63348-1.0059 1.2655-0.54848 0.71274-0.64426 0.82429-1.1632 1.5489-0.14324 0.20002-0.27731 0.40705-0.42183 0.60608-0.08107 0.11163-0.33537 0.2136-0.25468 0.32551 0.0735 0.10194 0.53235-0.15358 0.29762-0.22435-0.26917-0.2178-0.52025-0.46292-0.7317-0.74179-0.52435-0.69978-1.0168-1.4245-1.5036-2.1528-0.21194-0.3304-0.35478-0.54099-0.5441-0.8811-0.17617-0.31649-0.31981-0.64993-0.46657-0.98165l-0.44344 0.2647zm-3.5023 3.0947c0.024652 0.038832 0.051419 0.076299 0.073953 0.1165 0.1427 0.25454 0.22462 0.43257 0.34677 0.71325 0.22845 0.52495 0.42815 1.0611 0.62403 1.5998 0.2227 0.60229 0.40749 1.2179 0.56173 1.8426 0.037067 0.084876 0.022669 0.194 0.070919 0.27404 0.14834-0.10118 0.30209-0.19427 0.44503-0.30354 0.00917-0.00701-8.742e-4 -0.023655-0.00151-0.035472-0.00137-0.025419-0.00532-0.050785-0.00456-0.07623 0.0024-0.079997 0.00661-0.16 0.014023-0.23966 0.064214-0.68935 0.081842-0.71603 0.20013-1.4927 0.15036-0.89326 0.34177-1.7782 0.54144-2.6606 0.090414-0.39961 0.16529-0.72954 0.27158-1.1208 0.036716-0.13516 0.078442-0.2688 0.11767-0.40321 0.11145-0.3379 0.2136-0.68008 0.34634-1.01 0.039367-0.097823 0.089424-0.20797 0.13268-0.30495 0.060483-0.097541 0.082459-0.22613 0.16012-0.31195l-0.47356 0.21345c-0.051502 0.1003-0.087125 0.20862-0.13368 0.31136-0.17243 0.42156-0.31315 0.85499-0.42753 1.2976-0.084268 0.34048-0.13698 0.54022-0.20927 0.89566-0.040349 0.19839-0.0741 0.39816-0.11175 0.59712-0.16726 0.88377-0.33927 1.7666-0.51515 2.6485-0.10688 0.51922-0.22014 1.0371-0.32115 1.5575-0.016854 0.08684-0.031123 0.17426-0.042818 0.26201-0.00357 0.02675-0.00226 0.053962-0.00289 0.080959-2.98e-4 0.012035-0.010423 0.041102 1.194e-4 0.03612 0.15341-0.072491 0.29749-0.16468 0.44623-0.24703 0.00328 0.00649 0.00688 0.012817 0.00986 0.01946 7.749e-4 0.00171-0.00238-0.00297-0.00322-0.00465-0.00767-0.015437-0.017583-0.042116-0.022292-0.055677-0.01978-0.05698-0.036508-0.11507-0.056538-0.17196-0.19814-0.60679-0.4003-1.2121-0.6341-1.8054-0.20423-0.53619-0.40859-1.0723-0.61166-1.6089-0.00812-0.021448-0.24993-0.66085-0.28945-0.75413-0.01806-0.042621-0.041915-0.082326-0.062872-0.12349l-0.43861 0.26431zm-5.3022 2.6427c0.020772 0.010537 0.042667 0.018956 0.062318 0.031607 0.15334 0.098717 0.24235 0.17512 0.38771 0.30284 0.26996 0.23719 0.52215 0.49335 0.77506 0.74966 0.064405 0.066855 0.12933 0.13318 0.19322 0.20057 0.051484 0.054306 0.10468 0.10704 0.15288 0.16451 0.30413 0.36252 0.54387 0.77369 0.78158 1.1844 0.097918 0.172 0.19171 0.34664 0.2774 0.52558 0.027465 0.057358 0.050426 0.11661 0.084493 0.17011 0.13619 0.14661 0.023586 0.035718 0.47154-0.25694 3.775e-4 -2.391e-4 -0.00687-0.065727-0.00877-0.090455-1.929e-4 -0.00309-0.00328-0.050583-0.00286-0.052257 0.00539-0.02159 0.015438-0.041626 0.023692-0.06221 0.027251-0.067988 0.055086-0.13572 0.082818-0.2035 0.18298-0.44722 0.11619-0.28496 0.32826-0.78517 0.47575-1.1289 0.99031-2.2393 1.4878-3.3579 0.19262-0.48627 0.43509-0.95374 0.58612-1.4569 0.01473-0.05228 0.026368-0.10538 0.040831-0.15773l-0.46567 0.2344c-0.00547 0.049146-0.014625 0.097691-0.025971 0.14575-0.12438 0.48768-0.33684 0.94597-0.5133 1.4143-0.4764 1.1304-0.98767 2.2441-1.4938 3.3604-0.069385 0.15091-0.13803 0.3022-0.20815 0.45274-0.055244 0.1186-0.11127 0.2368-0.16794 0.35467-0.053351 0.11095-0.14266 0.22873-0.13152 0.36117 2.98e-4 0.00548 0.00211 0.035738 0.00201 0.042293-7.77e-5 0.00598 3.378e-4 0.012314-0.00123 0.018153-7.749e-4 0.00299-0.00807 0.00827-0.00553 0.00697 0.44849-0.24991 0.52164-0.4132 0.44427-0.24503-0.0445-0.038159-0.070644-0.098675-0.099801-0.1485-0.10038-0.17153-0.20363-0.34122-0.31025-0.5086-0.13545-0.21624-0.23219-0.37097-0.37028-0.59009-0.058636-0.093042-0.31999-0.51377-0.40048-0.61419-0.10661-0.133-0.26028-0.22-0.36643-0.35302-0.25805-0.25023-0.51246-0.50431-0.76918-0.75601-0.053705-0.052655-0.27218-0.26847-0.35271-0.33777-0.017439-0.015006-0.03778-0.025941-0.05667-0.038911l-0.43144 0.29515zm0.24657 13.627c-0.012874-0.20946-0.042528-0.41768-0.066788-0.62603-0.052958-0.55056-0.070088-1.1044-0.088717-1.6572-0.003444-0.16143-0.006705-0.32286-0.010332-0.48429-0.01168-0.51968-0.019575-0.64987-0.015514-1.1767 0.004444-0.57641 0.028749-1.1522 0.053241-1.728 0.050626-0.70218 0.070515-1.4067 0.12687-2.1084 0.035334-0.44 0.079232-0.82203 0.12625-1.2608 0.056761-0.68486 0.1775-1.3671 0.18342-2.0561 0.0026671-0.31012-0.014963-0.41644-0.043575-0.72097-0.073025-0.56393-0.12668-1.1295-0.1378-1.6985-1.5425e-4 -0.19096-0.0022312-0.38215 0.0079195-0.57289 0.001365-0.00558 0.002729-0.011167 0.004095-0.016748l-0.46363 0.24281c8.9208e-4 5e-3 0.001784 0.010019 0.002676 0.015022 0.004514 0.18766 0.002822 0.37558 0.017756 0.56283 0.038891 0.5634 0.10131 1.1242 0.16905 1.6847 0.028685 0.28514 0.048345 0.42006 0.052273 0.70948 0.00923 0.68-0.22495 1.2769-0.28395 1.9524-0.024184 0.22563-0.11229 1.0405-0.1334 1.2661-0.065797 0.70308 0.031976 1.4885 0.0042462 2.1942-0.035521 1.133-0.055248 2.2667-0.043449 3.4003 0.0018798 0.3785 0.0033937 0.75699 0.0093055 1.1354 0.0014394 0.09218 0.0049178 0.32015 0.011277 0.42163 0.002829 0.04513 0.0089171 0.08999 0.013375 0.13498 0.023834 0.20904 0.053631 0.41944 0.045469 0.63044l0.45993-0.24366z" stroke-width=".71062"/>
  <g transform="scale(1 .99631)" stroke-width="3.9868">
   <path d="m0.38725 6.5852c0.040475 0.086585 0.072372 0.17813 0.097298 0.27051 0.036735 0.12661 0.064743 0.25546 0.082158 0.38618 0.024421 0.23568 0.024349 0.47304 0.0232 0.70972-0.008238 0.19628 0.001361 0.39164 0.021279 0.58684 0.03705 0.30723 0.062982 0.61519 0.077434 0.92432 0.030771 0.42121-0.002019 0.82856-0.055251 1.2458-0.02296 0.12966-0.03229 0.2623-0.05695 0.39169-0.015322 0.0804-0.043554 0.1594-0.06615 0.23792-0.044154 0.16092-0.049593 0.32741-0.067207 0.49214-0.01667 0.20276-0.024274 0.4059-0.029014 0.60925-0.003991 0.20762-0.002781 0.41526-0.002844 0.6229 0.008656 0.25052 0.00121 0.49986-0.025776 0.74895-0.031206 0.26233-0.03364 0.52667-0.037305 0.79047 0.006845 0.3518-0.010358 0.70307-0.034128 1.0539-0.020274 0.35842-0.070558 0.71375-0.1192 1.0691-0.034026 0.25465-0.057416 0.5107-0.064866 0.76754-0.015473 0.25071 0.035487 0.49598 0.07951 0.74093 0.033156 0.17782 0.016092 0.0838 0.05087 0.28213l0.44059-0.23475c-0.027867-0.20304-0.012834-0.10729-0.043962-0.28743-0.045952-0.24215-0.093271-0.4842-0.071999-0.73246 0.008315-0.25298 0.0219-0.5059 0.055244-0.757 0.04521-0.35659 0.094784-0.71278 0.11724-1.0718 0.021898-0.35233 0.03504-0.70476 0.036714-1.0578 0.006064-0.26376 0.016543-0.5275 0.045195-0.78991 0.022237-0.25131 0.029331-0.50239 0.026009-0.75471 1.828e-5 -0.20742 9.2189e-4 -0.41488 0.004161-0.62227 0.004492-0.20286 0.012431-0.40591 0.034721-0.60768 0.014999-0.1625 0.025849-0.32628 0.071441-0.4839 0.008116-0.02888 0.0372-0.13091 0.043454-0.15916 0.033965-0.15341 0.030941-0.31293 0.05539-0.46776 0.043599-0.41639 0.077895-0.83384 0.051951-1.2529-0.01146-0.31214-0.032625-0.62313-0.06432-0.9339-0.015064-0.19408-0.018909-0.38822-0.01974-0.58285-0.004497-0.23968-0.0029161-0.4799-0.019083-0.71907-0.017186-0.1336-0.046264-0.26513-0.080526-0.39531-0.02684-0.095722-0.06208-0.18915-0.098297-0.28162l-0.45724 0.26207z"/>
   <path d="m0.19146 18.329c0.02417 0.31591 0.039497 0.63259 0.054915 0.94912 0.013814 0.15506-0.004575 0.31524 0.039731 0.46617 0.009325 0.03641 0.026802 0.06961 0.043413 0.10299l0.45622-0.26233c-0.015958-0.02999-0.031371-0.06023-0.04028-0.0933-0.042447-0.14375-0.037984-0.29633-0.05678-0.44398-0.025065-0.31889-0.048966-0.63905-0.02864-0.959l-0.46858 0.24034z"/>
   <path d="m0.38003 19.763c0.12222-0.0032 0.24449-0.0027 0.36674-0.0027 0.15002-0.0076 0.29956-0.02162 0.44959-0.02933 0.14738-0.0042 0.29518-0.01 0.44256-0.0031 0.14429 0.01643 0.28773 0.03799 0.43237 0.05171 0.13728 0.0092 0.27478 0.01486 0.41233 0.01743 0.13337 1.67e-4 0.26675-0.0011 0.40013-8.4e-4 0.2219-0.01267 0.43826-0.07409 0.65561-0.11792 0.22325-0.05035 0.45003-0.04741 0.67658-0.03179 0.29903 0.02838 0.59629 0.07213 0.89519 0.10202 0.38343 0.03029 0.76749 0.03917 1.1515 0.0205 0.26331-0.01599 0.52347-0.0607 0.78534-0.09015 0.24649-0.03043 0.4945-0.04584 0.74254-0.05599 0.14847-0.0051 0.29698-0.0086 0.44548-0.0038l0.41681-0.30196c-0.14981-0.0086-0.29993-0.0037-0.44985 0.0013-0.24922 0.01189-0.4978 0.03338-0.74639 0.05449-0.26583 0.0305-0.52934 0.07797-0.796 0.1017-0.12343 0.0076-0.24995 0.01708-0.37365 0.01801-0.2571 0.0019-0.51443-0.01691-0.77072-0.0343-0.29654-0.02916-0.59112-0.07305-0.88678-0.10957-0.22914-0.01838-0.45907-0.02695-0.68578 0.02137-0.21305 0.04302-0.42439 0.10091-0.64135 0.1199-0.13225 5.8e-4 -0.2645 4.4e-5 -0.39675-9.6e-4 -0.13826-1.07e-4 -0.27664-1e-3 -0.41463-0.01083-0.14416-0.01146-0.2867-0.03208-0.42936-0.05498-0.14946-0.01368-0.30019 0.0035-0.45004 0.0016-0.14899 0.0044-0.29731 0.0166-0.44581 0.02915-0.11983 3.3e-5 -0.23968 6e-4 -0.35948-0.0027l-0.42619 0.3117z"/>
   <path d="m3.3248 19.834c0.24853-0.02669 0.49219-0.08899 0.73702-0.13846 0.26287-0.04944 0.53015-0.06709 0.79696-0.07673 0.13695-0.0026 0.27459 0.0073 0.4062 0.04699 0.00953 0.0039 0.019048 0.0078 0.028571 0.0117l0.43685-0.29344c-0.01083-0.0047-0.02166-0.0095-0.03249-0.01421-0.13605-0.04854-0.28389-0.05083-0.42661-0.05531-0.27101 0.01226-0.54188 0.03517-0.81013 0.07649-0.23578 0.04839-0.47034 0.1068-0.71018 0.13127z"/>
   <path d="m2.9391 19.763c0.42428-0.0197 0.84887-0.01476 1.2733-0.0053 0.4127 0.0067 0.82496 0.02978 1.2378 0.02124 0.31887-0.01926 0.63766-0.03862 0.95697-0.04863 0.10004-0.0035 0.20014-0.0035 0.30023-0.0044 0.026364-2.4e-4 0.052865-0.0037 0.07909-9.6e-4 0.029466 0.0031 0.057997 0.01219 0.086996 0.01828l0.42257-0.29181c-0.030987-0.01064-0.060728-0.02614-0.092961-0.03192-0.026157-0.0047-0.053139 3.6e-4 -0.079702 9.4e-4 -0.10351 0.0023-0.20692 0.0081-0.31042 0.01085-0.32009 0.01333-0.63983 0.03235-0.95964 0.0512-0.41867 0.01385-0.83736 0.0058-1.2561-0.0049-0.41089-0.0088-0.82194-0.01054-1.2326-0.02568l-0.42547 0.31117z"/>
   <path d="m6.4516 19.834c0.43518-0.0303 0.86987-0.07086 1.3051-0.10271 0.43065-0.03656 0.86214-0.06135 1.2941-0.07576 0.34023-0.01004 0.68056-0.0096 1.0209-0.0099 0.43612-0.0024 0.87225-0.0033 1.3084-0.0035 0.45161 0.0018 0.90319-0.0014 1.3548 0.0027 0.05251 8e-4 0.10503 0.0016 0.15755 0.0024l0.40304-0.29477c-0.05468 8e-4 -0.10936 0.0016-0.16404 0.0024-0.45388 4e-3 -0.90774 9e-4 -1.3616 0.0023-0.43236-5e-4 -0.8647-2e-3 -1.297-0.0049-0.34057 3.1e-5 -0.68133-0.0015-1.0218 0.0084-0.43783 0.01615-0.87438 0.05268-1.3112 0.08598-0.42017 0.03308-0.84087 0.07839-1.2627 0.07618l-0.42547 0.31117z"/>
   <path d="m19.529 19.382c-0.023-0.13125-0.05686-0.25994-0.07853-0.39154-0.02074-0.13358-0.02279-0.26891-0.02558-0.40376 5.17e-4 -0.15075 0.0083-0.30308 0.03128-0.45221 0.01957-0.14231 0.02837-0.28605 0.03725-0.4294 0.0075-0.10446 0.0039-0.20932 0.0033-0.31395-0.0075-0.2277-0.0075-0.4556-0.0039-0.68337-0.0032-0.27191-5e-3 -0.54381-4e-3 -0.81577 0.0039-0.26994 5.76e-4 -0.5399-7.35e-4 -0.80984 0.0053-0.30606-0.0042-0.61161-0.017-0.91732-0.0013-0.04767-0.0026-0.09533-0.0039-0.143l-0.44668 0.23123c0.0023 0.04718 0.0045 0.09435 0.0068 0.14152 0.01031 0.30535 0.02102 0.61052 0.01514 0.91612-0.0013 0.2702-0.0046 0.54041-7.36e-4 0.8106 0.0011 0.27329-7.94e-4 0.54654-0.0038 0.81979 0.0038 0.22898 0.0039 0.45808-0.0033 0.68701-7.95e-4 0.10413-3e-3 0.20822-0.0057 0.31231-0.0054 0.14215-0.01448 0.28418-0.03742 0.42473-0.01666 0.15215-0.02652 0.3058-0.02719 0.45881 0.0019 0.13723 0.0067 0.27512 0.02955 0.41066 0.02324 0.13149 0.05874 0.261 0.07012 0.39434l0.46509-0.24698z"/>
   <path d="m19.535 13.675c-0.01837-0.27645-7.55e-4 -0.55355 0.01794-0.82947 0.0214-0.33405 0.03318-0.66882 0.03828-1.0035 2e-3 -0.3709-2.98e-4 -0.74184-0.0099-1.1126-0.0097-0.37944-0.03359-0.75826-0.04564-1.1376-0.0093-0.29916-0.04113-0.59682-0.06058-0.89533-0.0097-0.14656-0.01256-0.29335-0.01384-0.44018-5e-6 -0.016942-9e-6 -0.033883-1.4e-5 -0.050825l-0.46447 0.23873c2.78e-4 0.016938 5.76e-4 0.033874 8.54e-4 0.050811 0.0033 0.14586 0.01274 0.29163 0.02752 0.43676 0.02712 0.29533 0.05833 0.59028 0.07277 0.88663 0.01607 0.37936 0.03277 0.75867 0.04401 1.1382 0.01438 0.37102 0.01226 0.74187 0.0039 1.113-0.0052 0.33331-0.01142 0.66664-0.03516 0.99926-0.01639 0.28222-0.03242 0.56446-0.045 0.84689l0.46938-0.24075z"/>
   <path d="m19.297 8.6951c0.04332 0.10018 0.08071 0.20322 0.10681 0.30933 0.02726 0.15852 0.02447 0.32111 0.02627 0.48151-0.0026 0.22294 0.0038 0.44614-6e-3 0.66891-0.01124 0.24448-0.04438 0.4871-0.06833 0.73047-0.02399 0.26721-0.05176 0.53409-0.07191 0.80163-0.01663 0.27535-0.04059 0.55012-0.05849 0.82538-0.0069 0.1418-0.0107 0.28375-0.0146 0.42567l0.46293-0.23683c-9.94e-4 -0.13975-1.08e-4 -0.27948 0.0066-0.41911 0.01107-0.27387 0.03226-0.54704 0.05172-0.8204 0.02288-0.26779 0.05405-0.53476 0.07603-0.80262 0.02452-0.24486 0.05977-0.48888 0.07044-0.73495 0.0079-0.22328 0.0032-0.44669 0.0031-0.67007 8e-6 -0.16625 0.01272-0.33675-0.01851-0.50062-0.03067-0.10753-0.07366-0.21092-0.10808-0.31726l-0.45805 0.25896z"/>
   <path d="m19.732 8.5497c0.03173-0.071666 0.05059-0.12947 0.10967-0.1828 0.14582-0.11289 0.15335-0.11752-0.4197 0.24313-0.0057 0.00353 0.01363 0.00241 0.01874 0.00665 0.01046 0.00867 0.01882 0.019784 0.02659 0.030956 0.03076 0.044203 0.03708 0.065443 0.05943 0.11581 0.06613 0.14069 0.08835 0.29505 0.10263 0.44843 0.0012 0.17837-0.05663 0.3495-0.10557 0.51883-0.07751 0.28193-0.16168 0.56203-0.22174 0.84841-0.03762 0.17085-0.05138 0.34472-0.05503 0.51918-0.0017 0.13365-0.0012 0.26733-7.74e-4 0.40099 9.73e-4 0.21731 0.0079 0.43451 0.01226 0.65177 0.01251 0.34174-0.01037 0.68266-0.02685 1.0237-0.0089 0.23346-0.0577 0.46276-0.07807 0.69501-0.0062 0.0704-0.0096 0.14101-0.01451 0.21152-0.02895 0.45012-0.0473 0.90086-0.05311 1.3519-0.0017 0.30427-0.0034 0.14419 7e-3 0.48023l0.42414-0.21821c2e-3 -0.34004 6.16e-4 -0.17858 4e-3 -0.48438 7e-3 -0.4497 0.01215-0.90004 0.05422-1.3481 0.03502-0.30567 0.08884-0.60938 0.10718-0.91674 0.01129-0.34005 0.0164-0.68016 0.01579-1.0204 0.0043-0.22125 0.01132-0.44246 0.01062-0.66377-8.74e-4 -0.13282-0.0029-0.26563-9.14e-4 -0.39845 0.0045-0.16954 0.01638-0.33899 0.04888-0.50575 0.05766-0.28646 0.02479-0.67884 0.11179-0.95759 0.05319-0.1755-0.1894-0.21424-0.19868-0.4-0.02155-0.15695 0.26532-0.25482 0.19868-0.4-0.12704-0.29971-0.12886-0.46447-0.51227-0.028272-0.04473 0.05922-0.06638 0.13053-0.10613 0.19295l0.48176-0.21494z"/>
   <path d="m0.36767 6.4069c0.27113 0.17042 0.48931 0.41273 0.70209 0.64931 0.345 0.40134 0.60498 0.86588 0.89391 1.3076 0.22829 0.32931 0.49223 0.631 0.75101 0.93587 0.18009 0.21012 0.36969 0.41111 0.56255 0.60927 0.063554 0.067104 0.13212 0.1294 0.19135 0.2005l0.44697-0.27257c-0.065312-0.068075-0.13665-0.12994-0.20364-0.19636-0.19852-0.19199-0.39124-0.38982-0.57274-0.59834-0.26042-0.3019-0.52878-0.5979-0.76137-0.92275-0.14748-0.21818-0.28769-0.44061-0.43104-0.66155-0.082666-0.12741-0.21847-0.33908-0.30993-0.46212-0.048834-0.065696-0.10266-0.12748-0.15399-0.19121-0.21184-0.23999-0.42652-0.48062-0.67274-0.68575l-0.44242 0.28815z"/>
   <path d="m5.5023 3.8737c0.15574 0.22149 0.30618 0.4467 0.45036 0.67605 0.28991 0.49044 0.51699 1.015 0.73973 1.5388 0.14994 0.34967 0.28404 0.70822 0.37019 1.0798 0.047214 0.20362 0.05394 0.27546 0.084074 0.47806 0.037868 0.2873 0.047702 0.57716 0.044427 0.86665-0.027685 0.032671 0.017568 0.089097-0.00452 0.12396-0.00841 0.013282-0.028682 0.012616-0.043023 0.018926l0.48134-0.20211c0.00879-0.018164 0.02171-0.034838 0.026369-0.05449 0.00933-0.039323-0.015887-0.082313-0.00311-0.12124-0.00864-0.28764-0.029928-0.57498-0.074355-0.85948-0.031097-0.1814-0.048047-0.29836-0.092397-0.47934-0.091258-0.37239-0.2337-0.72903-0.37998-1.0822-0.23007-0.52368-0.44654-1.0546-0.72834-1.5532-0.13909-0.23255-0.2808-0.46346-0.41719-0.6976l-0.45358 0.26755z"/>
   <path d="m3.498 9.2744c0.00175-0.025548 6.953e-4 -0.051449 0.00525-0.076644 0.049688-0.2751 0.19623-0.52645 0.32706-0.76834 0.14392-0.26097 0.32102-0.50334 0.45925-0.76759 0.042872-0.081954 0.14606-0.3188 0.18495-0.40675 0.10675-0.24541 0.19121-0.50019 0.30489-0.74256 0.10776-0.22159 0.20988-0.44608 0.30504-0.67344 0.11995-0.28755 0.23469-0.57722 0.36316-0.86107 0.11482-0.2292 0.20349-0.47022 0.29906-0.70782 0.063595-0.18249 0.14096-0.35932 0.2196-0.53557 0.03698-0.064489 0.056294-0.13842 0.10305-0.19651l-0.48003 0.21235c-0.032971 0.065685-0.060198 0.1341-0.091937 0.20041-0.076002 0.17575-0.14606 0.35379-0.21126 0.53392-0.091758 0.23836-0.18475 0.47652-0.29852 0.70536-0.12136 0.28458-0.23258 0.5734-0.35471 0.85765-0.10103 0.22956-0.21229 0.45409-0.32097 0.68001-0.10176 0.24066-0.17817 0.49102-0.28032 0.73155-0.068203 0.15653-0.10482 0.24833-0.18577 0.4011-0.14052 0.26517-0.31701 0.50882-0.46278 0.77084-0.14962 0.27824-0.31086 0.56453-0.35281 0.88303 0 0 0.46778-0.23993 0.46779-0.23993z"/>
   <path d="m6.1515 5.0746c8.345e-4 0.01706-3.83e-5 0.034295 0.00251 0.051182 0.00745 0.04935 0.018833 0.098022 0.02744 0.14718 0.00748 0.042695 0.060961 0.3694 0.067993 0.405 0.036477 0.18467 0.047666 0.20804 0.099736 0.38384 0.081045 0.28291 0.26108 0.51695 0.40911 0.76582 0.16714 0.28236 0.31496 0.57619 0.4558 0.8726 0.11656 0.24392 0.24694 0.48117 0.40411 0.70095 0.02917 0.041802 0.058339 0.083603 0.087509 0.12541l0.43135-0.25417c-0.027065-0.043931-0.054131-0.087863-0.081198-0.13179-0.15756-0.216-0.29378-0.44622-0.41001-0.68745-0.14771-0.29468-0.28556-0.59505-0.4512-0.88012-0.14628-0.24494-0.325-0.47375-0.4133-0.74946-0.018487-0.059066-0.039355-0.11743-0.055464-0.1772-0.070854-0.26288-0.10831-0.54036-0.10501-0.81254l-0.46938 0.24075z"/>
   <path d="m7.9679 7.3061c-0.028381-0.35963-0.015471-0.71921 0.015754-1.078 0.022346-0.31664 0.13993-0.61165 0.22302-0.91446 0.079744-0.33494 0.15825-0.66988 0.25437-1.0005 0.066362-0.21426 0.16453-0.41577 0.2353-0.62842 0.066444-0.31556 0.14203-0.62874 0.21988-0.94158 0.073235-0.30259 0.12542-0.60956 0.18199-0.91556 0.043059-0.24517 0.079218-0.49164 0.13291-0.73477 0.053117-0.19487 0.099974-0.39137 0.1486-0.58741 0.01411-0.077101 0.029274-0.15324 0.050342-0.22872 0.00318-0.011404 0.00111-0.026263 0.00994-0.034098 0.0054-0.004796 0.013604 0.004772 0.020406 0.007158l-0.49189 0.19655c-0.0083311 0.095281-0.043466 0.18831-0.05288 0.28376-0.042617 0.19655-0.094255 0.39081-0.14301 0.58586-0.049192 0.24362-0.082386 0.49001-0.12809 0.73428-0.051609 0.30406-0.10089 0.60878-0.17537 0.9083-0.080278 0.31364-0.14901 0.63-0.23255 0.94273-0.075933 0.2097-0.17251 0.41209-0.22831 0.62879-0.086507 0.33228-0.16635 0.66609-0.25158 0.99866-0.089738 0.30213-0.19847 0.60051-0.21076 0.91955-0.025825 0.36546-0.027758 0.73154-0.045072 1.0974l0.46699-0.23952z"/>
   <path d="m9.0379 0.68919c0.067016 0.13639 0.15006 0.2657 0.23665 0.3904 0.098315 0.14254 0.19016 0.28902 0.28244 0.43546 0.069776 0.13256 0.15148 0.25724 0.23236 0.38289 0.12911 0.19405 0.22712 0.40636 0.33216 0.614 0.10521 0.20292 0.26908 0.36346 0.41719 0.53399 0.16811 0.19485 0.33329 0.3925 0.48329 0.60187 0.17253 0.27889 0.37372 0.53642 0.59093 0.78097 0.25563 0.27737 0.52158 0.5449 0.78183 0.81787 0.15044 0.15339 0.2933 0.31447 0.4505 0.46098 0.05816 0.048356 0.03025 0.026198 0.08344 0.066889l0.44068-0.28244c-0.05425-0.035476-0.02595-0.015932-0.08452-0.059197-0.1634-0.14041-0.31236-0.29624-0.4656-0.44762-0.26647-0.26581-0.53156-0.5337-0.7837-0.81334-0.21056-0.24709-0.41382-0.50096-0.58186-0.77997-0.14446-0.21571-0.31279-0.4125-0.48243-0.60851-0.14352-0.16907-0.29942-0.33039-0.40954-0.5248-0.10972-0.20701-0.20528-0.42174-0.32644-0.62238-0.07852-0.12712-0.16319-0.2502-0.2348-0.38168-0.093749-0.14629-0.18299-0.2955-0.28211-0.43834-0.084582-0.11981-0.16988-0.24338-0.21928-0.38273l-0.46119 0.25568z"/>
   <path d="m7.9687 7.7071c-0.019022-0.27338-0.014367-0.54764-0.0089407-0.82143 8.94e-4 -0.03281 0.00177-0.065621 0.00266-0.098431l-0.45601 0.23389c8.941e-4 0.031901 0.00177 0.063802 0.00266 0.095703 0.00559 0.27686 0.0096 0.55412-0.00894 0.8306l0.46858-0.24034z"/>
   <path d="m13.131 4.8652c0.18616-0.27871 0.38407-0.54922 0.56422-0.83215 0.1665-0.27636 0.30562-0.56904 0.49355-0.83207 0.10529-0.14737 0.14013-0.18061 0.25695-0.31367 0.14303-0.16234 0.29916-0.31315 0.43614-0.4809 0.06278-0.07688 0.13132-0.17103 0.1904-0.25054 0.18351-0.27046 0.37752-0.53211 0.58263-0.78629 0.19691-0.22351 0.3876-0.45216 0.59426-0.66669 0.11798-0.12336 0.24527-0.23797 0.38375-0.33749-0.13261 0.08128-0.26521 0.16256-0.39782 0.24384l0.41459-0.31767c-0.16691 0.089108-0.33382 0.17822-0.50073 0.26732-0.13136 0.10245-0.25167 0.21823-0.36595 0.33955-0.20256 0.21567-0.39106 0.44388-0.58511 0.66726-0.20563 0.25474-0.39588 0.52022-0.58351 0.78857-0.19304 0.25437-0.40528 0.49091-0.62131 0.72566-0.11264 0.1344-0.1468 0.16886-0.24833 0.3169-0.18209 0.2655-0.31921 0.55806-0.48984 0.83066-0.12505 0.18985-0.25479 0.37478-0.38908 0.55812-0.06166 0.084185-0.12708 0.1656-0.18681 0.25119-0.01032 0.014796-0.01828 0.031132-0.02742 0.046698l0.47938-0.21833z"/>
   <path d="m15.979 0.86029c0.01886 0.22256 0.06874 0.44229 0.11663 0.66017 0.07977 0.32432 0.1075 0.65721 0.14523 0.98819 0.04573 0.393 0.11168 0.78316 0.15738 1.1761 0.04372 0.39166 0.04946 0.78592 0.05742 1.1795 0.0015 0.24486-2e-3 0.48963 0.01316 0.73415 0.0027 0.043212 0.0036 0.086642 0.0092 0.12955 0.0057 0.042288 0.0165 0.083702 0.02475 0.12555l0.4462-0.23984c-0.06071-0.32116-0.05721-0.64776-0.05764-0.97364-0.0029-0.39518-0.0157-0.79098-0.06007-1.1839-0.04704-0.39297-0.10685-0.78412-0.15499-1.177-0.03548-0.3339-0.05705-0.671-0.1381-0.99786-0.04603-0.21705-0.09803-0.43856-0.08979-0.6618l-0.46938 0.24075z"/>
   <path d="m16.657 5.5169c0.14717 0.072225 0.26433 0.18585 0.37274 0.30681 0.20714 0.26569 0.37656 0.55796 0.56231 0.83863 0.16082 0.23838 0.33695 0.46753 0.53594 0.67508 0.11359 0.11847 0.17908 0.17513 0.29938 0.2856 0.23586 0.20833 0.47052 0.41798 0.69839 0.63516 0.06237 0.061012 0.12055 0.12607 0.1788 0.19101l0.44098-0.26975c-0.06129-0.06471-0.12263-0.12943-0.18766-0.1904-0.23593-0.21112-0.47661-0.41671-0.71464-0.6254-0.3129-0.28333-0.60384-0.58948-0.82929-0.94988-0.18417-0.28401-0.34669-0.5824-0.54991-0.85355-0.10487-0.12782-0.21907-0.24692-0.36431-0.32866l-0.44274 0.28536z"/>
   <path d="m19.246 7.2942c-0.2844-0.25874-0.54499-0.54141-0.80327-0.82602-0.3032-0.3344-0.59004-0.6831-0.87355-1.0344-0.19828-0.24792-0.38847-0.50223-0.5834-0.7528-0.099452-0.1322-0.23034-0.23355-0.35005-0.34573-0.01444-0.014542-0.02886-0.029082-0.04329-0.043623l-0.44248 0.27294c0.01507 0.015164 0.03014 0.030326 0.04521 0.045489 0.1215 0.10766 0.24927 0.20934 0.3557 0.33285 0.20295 0.24546 0.39684 0.49839 0.60135 0.74257 0.28899 0.34783 0.56905 0.70388 0.87722 1.035 0.2554 0.28287 0.52024 0.55688 0.76913 0.84561l0.44744-0.2719z"/>
  </g>
  <g transform="scale(1 .99631)" stroke-linejoin="round">
   <rect x=".12591" y="12.965" width="19.748" height="6.983" fill="#666" stroke="#666" stroke-linecap="square" stroke-width=".25183"/>
   <path d="m0.25807 19.235c1.7438-1.9183 1.984-2.0384 3.3578-2.6892 1.4853-0.51136 0.75192-0.81698 4.012-1.0986 2.464 0.02067 5.0244 0.77006 7.1342 1.8979 2.3926 0.65218 3.4317 0.7468 5.1309 1.4888l0.05687 1.1425-19.9-4e-3" fill="url(#linearGradient1638)" stroke="#338000" stroke-width=".094196"/>
   <path d="m19.812 19.235c-3.3711-4.0025-4.6744-3.7761-7.8054-3.8258-7.1095-0.45166-7.0655 1.0718-11.863 3.7795l-0.094207 0.75886 19.9-0.0041" fill="url(#linearGradient1638-0)" stroke="#338000" stroke-width=".094812"/>
  </g>
 </g>
 <g transform="scale(1 .99631)" fill="#ccc">
  <g stroke-width="3.9868">
   <path d="m9.2215 0.33524c0.17487 0.30161 0.37034 0.59135 0.57025 0.87662 0.3701 0.49086 0.69465 1.0137 1.0256 1.5314 0.38828 0.62554 0.77479 1.2525 1.1848 1.8639 0.2832 0.40606 0.55805 0.81966 0.86863 1.2054 0.02513 0.029087 0.05027 0.058173 0.0754 0.08726l0.43417-0.26539c-0.02666-0.027461-0.05332-0.054922-0.07998-0.082384-0.33221-0.36735-0.62204-0.77036-0.89867-1.1811-0.41556-0.60729-0.8158-1.225-1.1922-1.8578-0.3237-0.52272-0.63441-1.0546-1.0047-1.5462-0.19677-0.28421-0.39162-0.57315-0.526-0.89378l-0.45724 0.26207z"/>
   <path d="m8.7864 0.77874c0.13118 0.20557 0.2526 0.41706 0.38512 0.62176 0.034499 0.050826 0.068768 0.10181 0.1035 0.15248 0.15469 0.22566 0.22998 0.32549 0.38096 0.57742 0.25174 0.42005 0.46766 0.86089 0.68818 1.2979 0.17941 0.35011 0.33914 0.70976 0.49997 1.0687l0.67342-0.38612c-0.18953-0.34344-0.3768-0.68815-0.55425-1.0381-0.22292-0.43771-0.44386-0.87648-0.66382-1.3157-0.095374-0.19044-0.20785-0.4301-0.31435-0.62161-0.029816-0.053616-0.063764-0.1048-0.095646-0.15719-0.13139-0.20477-0.25634-0.41429-0.34324-0.64279l-0.75985 0.44333z"/>
   <path d="m16.142 0.94054c0.02044 0.24936 0.02514 0.49964 0.03348 0.74965 0.0051 0.31418 0.08847 0.61861 0.14867 0.92469 0.01843 0.093685 0.13987 0.76556 0.15229 0.83403 0.10194 0.52247 0.22328 1.0408 0.33061 1.5621 0.05788 0.2811 0.10539 0.56436 0.16676 0.8447 0.02422 0.11064 0.05365 0.22007 0.08048 0.3301 0.13806 0.58146 0.41094 1.1149 0.65369 1.6563l0.68282-0.38788c-0.12115-0.26833-0.25511-0.53274-0.36736-0.80497-0.11222-0.27217-0.2001-0.55413-0.29334-0.83313-0.26276-0.88872-0.47693-1.7922-0.6105-2.7104-0.083804-0.59678-0.17396-1.1939-0.20857-1.7961-9e-3 -0.25706-0.01149-0.51403 0.01327-0.77041l-0.78231 0.40125z"/>
   <path d="m16.718 5.5387c0.17838 0.090898 0.35663 0.18219 0.53236 0.27819 0.04032 0.027037 0.08302 0.050774 0.12095 0.081112 0.24102 0.19278 0.41406 0.49131 0.57337 0.75122 0.23072 0.39668 0.51128 0.76018 0.782 1.1293 0.15877 0.24179 0.31622 0.48426 0.48745 0.7174 0.01652 0.021752 0.03303 0.043503 0.04955 0.065255l0.73635-0.4436-0.13172 0.082439c-0.19063-0.2179-0.27402-0.6039-0.44161-0.83971-0.27502-0.36289-0.56486-0.71649-0.78098-1.1202-0.15895-0.27365-0.33335-0.57862-0.57019-0.79319-0.03756-0.034031-0.0808-0.061129-0.12119-0.091694-0.16748-0.096958-0.34129-0.18352-0.49897-0.29684z"/>
   <path d="m15.86 3.0913c0.02661 0.22529 0.10705 0.43747 0.17975 0.65053 0.04758 0.13942 0.09622 0.27847 0.14259 0.4183 0.05517 0.16641 0.10801 0.33359 0.16201 0.50039 0.25557 0.78363 0.43661 1.5888 0.55575 2.4044 0.02593 0.17747 0.04479 0.35591 0.06719 0.53386l0.61876-0.32916c-0.17161-0.98983-0.35181-1.9806-0.62577-2.9479-0.12023-0.45315-0.14346-0.51572-0.23616-0.95378-0.0467-0.22068-0.09409-0.44948-0.08447-0.67659l-0.77964 0.39988z"/>
   <path d="m16.022 4.6743c0.17078 0.27791 0.3113 0.57248 0.45201 0.86654 0.11279 0.27642 0.27965 0.52449 0.43792 0.77548l0.66314-0.38658c-0.14241-0.2576-0.28845-0.51384-0.40863-0.78308-0.13258-0.29896-0.25887-0.60056-0.38102-0.90397l-0.76342 0.4316z"/>
   <path d="m16.767 7.5718c-0.02345-0.12737-0.08788-0.24394-0.14131-0.36018l-0.7183 0.4032c0.03914 0.12107 0.08653 0.24178 0.09087 0.37071l0.76875-0.41373z"/>
   <path d="m15.369 6.2714c0.02799 0.049214 0.03238 0.107 0.05397 0.15843 0.0751 0.17891 0.18353 0.34417 0.30275 0.49551 0.11271 0.11337 0.05703 0.061617 0.16591 0.15647l0.72095-0.45658c-0.1112-0.079854-0.05514-0.035543-0.16703-0.13439-0.02832-0.033224-0.05909-0.064485-0.08496-0.099673-0.11438-0.15555-0.19547-0.3384-0.21644-0.53139l-0.77516 0.41163z"/>
   <path d="m16.633 8.1414c0.01181 0.017912 0.02461 0.03521 0.03544 0.053734 0.07346 0.12549-0.0032 0.013934 0.0858 0.14838 0.13417 0.20266 0.34875 0.41651 0.4949 0.58176l0.6044-0.35703c-0.078685-0.15971-0.15273-0.32184-0.23608-0.47914-0.01929-0.036404-0.04782-0.067027-0.07126-0.10088-0.06341-0.091587-0.11938-0.1873-0.15725-0.29274l-0.75597 0.44591z"/>
   <path d="m10.43 3.2893c0.22615 0.24198 0.40885 0.51932 0.59576 0.79188 0.14358 0.20136 0.29866 0.3943 0.44096 0.5966 0.10112 0.14376 0.19723 0.29102 0.29458 0.4374 0.28558 0.42941 0.56448 0.86287 0.83821 1.3 0.29946 0.48588 0.14366 0.22092 0.46186 0.79815l0.60847-0.34856c-0.27073-0.61512-0.11358-0.34743-0.44648-0.81741-0.29409-0.42366-0.58421-0.84939-0.85562-1.2883-0.66655-1.078 0.08698 0.12374-0.49152-0.8422-0.0498-0.083152-0.1058-0.16238-0.1587-0.24357-0.17687-0.278-0.35475-0.5553-0.53477-0.83124l-0.75274 0.4473z"/>
   <path d="m10.413 4.5779c0.1684 0.052156 0.42516 0.35405 0.50338 0.44502 0.13019 0.1514 0.25363 0.30879 0.37234 0.46947 0.29795 0.4033 0.4279 0.62745 0.69063 1.0465 0.08566 0.14886 0.17132 0.29773 0.25699 0.44659l0.61027-0.35721c-0.09466-0.1442-0.18932-0.28841-0.28398-0.43261-0.401-0.59971-0.28607-0.42269-0.69089-1.05-0.10812-0.16753-0.21462-0.33611-0.32323-0.50332-0.04793-0.073802-0.26767-0.41885-0.36611-0.53388-0.01102-0.012874-0.02883-0.017682-0.04325-0.026523l-0.72615 0.49595z"/>
   <path d="m11.221 7.0049c0.43851 0.33253 0.80225 0.75144 1.1592 1.1681l0.66508-0.40585c-0.37604-0.39613-0.75156-0.79323-1.0822-1.2294l-0.74214 0.46716z"/>
   <path d="m11.194 7.763c0.28797 0.24762 0.56544 0.5064 0.8382 0.77078l0.67398-0.41754c-0.26718-0.25872-0.55064-0.50855-0.77033-0.81085l-0.74184 0.45762z"/>
   <path d="m9.4319 9.5093c0.3914-0.029332 0.78844 0.050793 1.1434 0.21881 0.12729 0.060255 0.24731 0.135 0.37096 0.2025 0.50762 0.30789 0.92346 0.73126 1.2962 1.1904 0.09494 0.11695 0.18212 0.24008 0.27318 0.36012l0.62511-0.37501c-0.06295-0.07969-0.5247-0.66613-0.58395-0.73329-0.28869-0.32724-0.62346-0.61313-0.99057-0.84701-0.25356-0.16037-0.39263-0.26628-0.6651-0.37618-0.19059-0.076871-0.28901-0.081881-0.483-0.11674-0.06112-0.010984-0.12171-0.025031-0.1831-0.034379-0.03108-0.00473-0.06265-0.00521-0.09398-0.00782l-0.70911 0.51861z"/>
   <path d="m10.953 9.4383c0.30215-0.021454 0.5997 0.073939 0.86511 0.21331 0.08908 0.046778 0.17318 0.10259 0.25977 0.15389 0.30224 0.19418 0.54458 0.4555 0.75731 0.7433 0.07281 0.0985 0.13721 0.20301 0.20582 0.30451l0.65255-0.38636c-0.21533-0.30923-0.42997-0.63153-0.70684-0.89033-0.078191-0.07309-0.16882-0.13142-0.25322-0.19713-0.17394-0.11221-0.31218-0.21034-0.49935-0.29768-0.12763-0.059558-0.25672-0.095241-0.3918-0.13041-0.12262-0.031922-0.08958-0.026697-0.17903-0.032592l-0.71032 0.5195z"/>
   <path d="m12.223 8.9357c0.27919 0.15709 0.47247 0.43118 0.66018 0.68376l0.6873-0.41057c-0.14591-0.19545-0.29379-0.38769-0.44974-0.57516-0.03633-0.043672-0.07101-0.088828-0.10951-0.13057-0.01637-0.017756-0.03646-0.031644-0.05469-0.047466l-0.73356 0.48z"/>
   <path d="m12.138 8.2075c0.12959 0.25019 0.26604 0.49656 0.39573 0.7467l0.69243-0.39805c-0.1265-0.24961-0.25696-0.49944-0.33515-0.76978z"/>
   <path d="m5.5134 3.5267c0.058565 0.14999 0.11476 0.30105 0.17716 0.44951 0.080316 0.18276 0.1983 0.34542 0.30372 0.51391 0.18455 0.31054 0.2924 0.65964 0.40941 0.99982 0.16021 0.46794 0.39048 0.90701 0.61158 1.3477 0.1655 0.33375 0.3181 0.67379 0.4894 1.0046 0.08144 0.14654 0.18704 0.27712 0.2906 0.40801l0.74479-0.45877c-0.12573-0.10274-0.2149-0.23976-0.30435-0.37386-0.19697-0.31463-0.35688-0.64898-0.52399-0.98023-0.22591-0.43473-0.44984-0.87207-0.59947-1.3408-0.11487-0.34898-0.21325-0.70839-0.38578-1.034-0.097373-0.16938-0.21349-0.32849-0.28832-0.5102-0.065731-0.14333-0.12189-0.29347-0.15552-0.44785l-0.76923 0.42208z"/>
   <path d="m5.3866 3.32c0.14625 0.18166 0.2557 0.3875 0.35831 0.59613 0.051062 0.10946 0.028227 0.056905 0.069316 0.1573l0.74818-0.42558c-0.050707-0.10067-0.022765-0.049014-0.084633-0.15453-0.1169-0.20359-0.22797-0.41032-0.3352-0.61922l-0.75597 0.44591z"/>
   <path d="m5.5393 5.3948c0.27832 0.191 0.46762 0.48067 0.65604 0.75529 0.16057 0.25202 0.28479 0.52326 0.40276 0.7972l0.69788-0.39332c-0.03052-0.078174-0.058245-0.15751-0.091559-0.23452-0.087396-0.20202-0.19381-0.39726-0.31325-0.58168-0.19663-0.28225-0.063224-0.093306-0.267-0.37547-0.052893-0.073239-0.17596-0.24761-0.2383-0.32552-0.036595-0.045733-0.065155-0.073174-0.10358-0.11177l-0.74299 0.46978z"/>
   <path d="m5.6137 6.603c0.00551 0.026078 0.00835 0.052873 0.016528 0.078233 0.020274 0.062918 0.11787 0.29816 0.13493 0.34061 0.088985 0.22145 0.1761 0.44288 0.27091 0.6619 0.13531 0.26727 0.061079 0.13779 0.22253 0.38854l0.69931-0.41161c-0.15791-0.24141-0.084445-0.11652-0.22001-0.37492-0.097245-0.2165-0.18786-0.43378-0.26096-0.66002-0.039226-0.12139-0.069528-0.22227-0.086638-0.34657-0.00376-0.027243-0.00245-0.054952-0.00368-0.082428l-0.77293 0.40625z"/>
   <path d="m6.5588 7.6765c0.18253 0.18972 0.32776 0.41102 0.47225 0.6302l0.68637-0.40279c-0.13634-0.22609-0.26304-0.45845-0.40548-0.68053l-0.75313 0.45312z"/>
   <path d="m0.46361 6.359c0.11825 0.10316 0.22986 0.21262 0.33233 0.33164 0.1794 0.21402 0.32707 0.45192 0.49487 0.67485 0.056292 0.074786 0.11463 0.14799 0.17194 0.22198 0.063236 0.078479 0.1241 0.15896 0.18971 0.23544 0.074848 0.08725 0.15396 0.1707 0.23149 0.25555 0.2724 0.29815 0.55105 0.58841 0.84222 0.86797 0.065469 0.057577 0.13076 0.11536 0.19641 0.17273 0.22584 0.19735 0.21594 0.18159 0.43533 0.39328 0.18639 0.17985 0.36284 0.36885 0.53984 0.55791l0.69016-0.42626c-0.39806-0.36981-0.77069-0.76706-1.1853-1.1187-0.45728-0.41137-0.90361-0.83808-1.261-1.3434-0.053442-0.074948-0.10891-0.14847-0.16033-0.22484-0.15689-0.23308-0.28163-0.48808-0.45479-0.70974-0.10188-0.11957-0.2114-0.2319-0.31556-0.34943l-0.74725 0.46095z"/>
   <path d="m1.7461 8.5995c0.13832 0.35836 0.36188 0.67954 0.59413 0.98214 0.038115 0.047489 0.076231 0.094978 0.11435 0.14247l0.70494-0.42776c-0.040846-0.044538-0.081693-0.089076-0.12254-0.13361-0.23042-0.28342-0.4677-0.59726-0.51709-0.97103l-0.7738 0.4078z"/>
  </g>
  <circle cx="4.3284" cy="11.179" r="0" stroke="#000" stroke-width=".19934"/>
  <g stroke-width="3.9868">
   <path d="m3.9595 11.424c0.28718 0.41264 0.64175 0.7751 0.98817 1.137l0.62634-0.38142c-0.11201-0.13695-0.36898-0.44827-0.48808-0.60337-0.13904-0.18106-0.27831-0.36956-0.363-0.58381l-0.76342 0.4316z"/>
   <path d="m3.3358 10.645c0.27866 0.25654 0.5167 0.55443 0.73261 0.86569 0.067797 0.09773 0.13002 0.19926 0.19504 0.2989l0.65723-0.38634c-0.064092-0.1018-0.12568-0.20525-0.19228-0.3054-0.063302-0.0952-0.13181-0.18678-0.1973-0.28048-0.1498-0.21432-0.29299-0.43315-0.44488-0.64591l-0.75043 0.45354z"/>
   <path d="m4.6127 10.734c0.012167 0.22638 0.037397 0.4577 0.15051 0.6594 0.034507 0.06153 0.080445 0.11582 0.12067 0.17373 0.051015 0.05486 0.098594 0.11317 0.15304 0.16457 0.16843 0.159 0.36803 0.28473 0.56617 0.40187 0.067576 0.03995 0.13497 0.08043 0.20482 0.1162 0.072871 0.03732 0.14865 0.0686 0.22297 0.10289 0.089253 0.04716 0.17851 0.09432 0.26776 0.14148l0.65482-0.42845c-0.08479-0.05303-0.16958-0.10605-0.25437-0.15908-0.072327-0.03298-0.14601-0.06309-0.21698-0.09893-0.11923-0.06021-0.28852-0.16284-0.40037-0.23585-0.11249-0.07344-0.25393-0.17048-0.3522-0.26361-0.051172-0.0485-0.094706-0.10456-0.14206-0.15684-0.03526-0.05419-0.076065-0.10511-0.10578-0.16258-0.1055-0.20403-0.11345-0.43149-0.089351-0.65468l-0.77964 0.39988z"/>
   <path d="m4.3632 12.223c0.073663-0.0028 0.11182-7e-3 0.19593 0.01173 0.27824 0.0619 0.53807 0.20755 0.78412 0.34627 0.13802 0.07842 0.26796 0.16945 0.39713 0.26148l0.70479-0.45188c-0.13503-0.094557-0.274-0.18126-0.42041-0.25735-0.19548-0.10523-0.3928-0.20401-0.59418-0.29738-0.074433-0.034511-0.21821-0.10433-0.30717-0.12837-0.016852-0.0046-0.034868-0.0015-0.052302-0.0022l-0.7079 0.51773z"/>
   <path d="m3.5542 10.114c0.016 0.01596 0.031121 0.03287 0.048003 0.04788 0.23352 0.20768 0.01747-6.2e-4 0.28282 0.25174 0.17068 0.16232 0.33466 0.3315 0.49813 0.50108 0.058164 0.06256 0.11633 0.12512 0.17449 0.18768l0.6811-0.41639c-0.057458-0.063504-0.11491-0.12701-0.17237-0.19052-0.15911-0.17077-0.17178-0.18622-0.33212-0.35111-0.15074-0.15502-0.30702-0.30599-0.43206-0.48386l-0.748 0.4535z"/>
   <path d="m14.948 6.5465c0.35831 0.36223 0.70514 0.73504 1.0436 1.1161 0.07481 0.091278 0.14962 0.18256 0.22444 0.27383l0.65399-0.39406-0.22158-0.27981c-0.33336-0.37681-0.68515-0.74123-0.95471-1.1692l-0.74573 0.45317z"/>
   <path d="m16.088 7.9003c0.25839 0.14539 0.47795 0.3464 0.70047 0.54025l0.6727-0.4188c-0.064283-0.063484-0.12918-0.12634-0.19285-0.19045-0.052566-0.052926-0.10184-0.10918-0.15584-0.16063-0.13527-0.12888-0.0917-0.071667-0.21642-0.17641-0.02463-0.020685-0.04694-0.044025-0.0704-0.066038l-0.73766 0.47208z"/>
  </g>
 </g>
 <path d="m7.1232 17.008 1.0152-1.0021 0.93509-0.66715 4.0141 0.03403c-0.77107 0.42808-1.725 0.73849-2.1621 0.93525-0.70523 0.31739-0.71107 0.39766-1.2675 0.63819l-1.3517 0.25124z" fill="#c8ab37" stroke="#786721" stroke-width=".1"/>
 <g transform="translate(.7253 -11.7)">
  <g fill="#217821" stroke="#165016" stroke-width=".19543px">
   <path d="m1.5291 30.602-0.9608-0.1257-0.91926-0.32398c0.70375-0.59351 0.93312-1.1431 1.1632-1.9091l-0.76508 0.38068c0.66246-0.61235 0.83185-1.2949 1.1192-2.0629l-0.6737 0.1871c1.0289-0.75574 1.0006-1.9624 1.2821-2.9998 0.17081 1.3653 0.13256 1.9995 1.2938 2.9282l-0.8258-0.21429c-0.18853 0.71712 0.79617 2.1939 1.4748 2.5519l-1.1135-0.49086c0.25459 0.94092 0.73863 1.2546 1.3283 1.4814l-0.75464 0.40001-0.61194 0.12122z"/>
   <path d="m3.9323 30.004-0.9608-0.1257-0.91926-0.32398c0.70375-0.59351 0.93312-1.1431 1.1632-1.9091l-0.76508 0.38068c0.66246-0.61235 0.83185-1.2949 1.1192-2.0629l-0.6737 0.1871c1.0289-0.75574 1.0006-1.9624 1.2821-2.9998 0.17081 1.3653 0.13256 1.9995 1.2938 2.9282l-0.8258-0.21429c-0.18853 0.71712 0.79617 2.1939 1.4748 2.5519l-1.1135-0.49086c0.25459 0.94092 0.73863 1.2546 1.3283 1.4814l-0.75464 0.40001-0.61194 0.12122z"/>
   <path d="m14.391 29.009-0.9608-0.1257-0.91926-0.32398c0.70375-0.59351 0.93312-1.1431 1.1632-1.9091l-0.76508 0.38068c0.66246-0.61235 0.83185-1.2949 1.1192-2.0629l-0.6737 0.1871c1.0289-0.75574 1.0006-1.9624 1.2821-2.9998 0.17081 1.3653 0.13256 1.9995 1.2938 2.9282l-0.8258-0.21429c-0.18853 0.71712 0.79617 2.1939 1.4748 2.5519l-1.1135-0.49086c0.25459 0.94092 0.73863 1.2546 1.3283 1.4814l-0.75464 0.40001-0.61194 0.12122z"/>
   <path d="m16.67 30.911-0.9608-0.1257-0.91926-0.32398c0.70375-0.59351 0.93312-1.1431 1.1632-1.9091l-0.76508 0.38068c0.66246-0.61235 0.83185-1.2949 1.1192-2.0629l-0.6737 0.1871c1.0289-0.75574 1.0006-1.9624 1.2821-2.9998 0.17081 1.3653 0.13256 1.9995 1.2938 2.9282l-0.8258-0.21429c-0.18853 0.71712 0.79617 2.1939 1.4748 2.5519l-1.1135-0.49086c0.25459 0.94092 0.73863 1.2546 1.3283 1.4814l-0.75464 0.40001-0.61194 0.12122z"/>
  </g>
  <g transform="matrix(.96575 0 0 .644 43.426 20.209)" clip-path="url(#clipPath5068-0)" stroke-linecap="square" stroke-linejoin="round">
   <rect transform="matrix(1.0355 0 0 1.0473 1.5521 -.84918)" x="-45.622" y="-2.3751" width="20.343" height="20.343" clip-path="url(#clipPath3776-4-5-6)" fill="#6ae226" stroke="#20cd0e" stroke-width=".056509"/>
   <g transform="translate(-45.881 -1.9488)" clip-path="url(#clipPath3772-0-4-6)" fill="#0eb358" stroke="#0eb358" stroke-width=".060219">
    <path d="m3.0535 0.35178 0.14069-0.049866 0.14117 0.033243 0.074798 0.17229-0.041554 0.15943-0.19103 0.074798-0.17394-0.074798-0.033243-0.19268z"/>
    <path d="m0.25359 3.1517 0.14069-0.049866 0.14117 0.033243 0.074798 0.17229-0.041554 0.15943-0.19103 0.074798-0.17394-0.074798-0.033243-0.19268z"/>
    <path d="m3.0535 4.7517 0.14069-0.049866 0.14117 0.033243 0.074798 0.17229-0.041554 0.15943-0.19103 0.074798-0.17394-0.074798-0.033243-0.19268z"/>
    <path d="m6.6534 1.5517 0.14069-0.049866 0.14117 0.033243 0.074798 0.17229-0.041554 0.15943-0.19103 0.074798-0.17394-0.074798-0.033243-0.19268z"/>
    <path d="m5.0535 8.3516 0.14069-0.049866 0.14117 0.033243 0.074798 0.17229-0.041554 0.15943-0.19103 0.074798-0.17394-0.074798-0.033243-0.19268z"/>
    <path d="m4.7678 12.79 0.14069-0.04987 0.14117 0.03324 0.074798 0.1723-0.041554 0.15943-0.19103 0.0748-0.17394-0.0748-0.033243-0.19268z"/>
    <path d="m9.9676 7.5904 0.14069-0.049866 0.14117 0.033243 0.0748 0.17229-0.04156 0.15943-0.19103 0.074798-0.17393-0.074798-0.033249-0.19268z"/>
    <path d="m12.768 4.7905 0.14069-0.049866 0.14117 0.033243 0.0748 0.17229-0.04156 0.15943-0.19103 0.074798-0.17394-0.074798-0.03325-0.19268z"/>
    <path d="m7.9677 4.7905 0.14069-0.049866 0.14117 0.033243 0.074798 0.17229-0.041549 0.15943-0.19103 0.074798-0.17394-0.074798-0.033239-0.19268z"/>
    <path d="m9.9698 15.446 0.14069-0.04987 0.14117 0.03324 0.0748 0.17229-0.04156 0.15943-0.19103 0.0748-0.17394-0.0748-0.033249-0.19268z"/>
    <path d="m1.17 13.446 0.14069-0.04987 0.14117 0.03324 0.074798 0.17229-0.041554 0.15943-0.19103 0.0748-0.17394-0.0748-0.033243-0.19268z"/>
    <path d="m1.57 8.2462 0.14069-0.049866 0.14117 0.033243 0.074798 0.17229-0.041554 0.15943-0.19103 0.074798-0.17394-0.074798-0.033243-0.19268z"/>
    <path d="m15.97 19.046 0.14069-0.04987 0.14117 0.03324 0.0748 0.17229-0.04155 0.15943-0.19103 0.0748-0.17394-0.0748-0.03325-0.19268z"/>
    <path d="m0.77005 19.046 0.14069-0.04987 0.14117 0.03324 0.074798 0.17229-0.041554 0.15943-0.19103 0.0748-0.17394-0.0748-0.033243-0.19268z"/>
    <path d="m10.37 11.446 0.14069-0.04987 0.14117 0.03324 0.0748 0.17229-0.04156 0.15943-0.19103 0.0748-0.17394-0.0748-0.03325-0.19268z"/>
    <path d="m13.825 0.99646 0.14069-0.049866 0.14117 0.033243 0.0748 0.17229-0.04155 0.15943-0.19103 0.074798-0.17394-0.074798-0.03324-0.19268z"/>
    <path d="m8.7322 18.993 0.10702-0.0509 0.10739 0.03392 0.056898 0.17583-0.031614 0.16271-0.14532 0.07634-0.13231-0.07634-0.025285-0.19664z" stroke-width=".053059"/>
    <path d="m18.225 9.7962 0.14069-0.049866 0.14117 0.033243 0.0748 0.17229-0.04156 0.15943-0.19103 0.0748-0.17394-0.0748-0.03325-0.19268z"/>
    <path d="m4.2257 16.996 0.14069-0.04987 0.14117 0.03324 0.074798 0.17229-0.041554 0.15943-0.19103 0.0748-0.17394-0.0748-0.033243-0.19268z"/>
    <path d="m18.225 0.99646 0.14069-0.049866 0.14117 0.033243 0.0748 0.17229-0.04156 0.15943-0.19103 0.074798-0.17394-0.074798-0.03325-0.19268z"/>
    <path d="m14.225 10.196 0.14069-0.04987 0.14117 0.03324 0.0748 0.17229-0.04155 0.15943-0.19103 0.0748-0.17394-0.0748-0.03324-0.19268z"/>
    <path d="m16.575 15.174 0.14069-0.04987 0.14117 0.03325 0.0748 0.17229-0.04155 0.15943-0.19103 0.0748-0.17394-0.0748-0.03325-0.19268z"/>
    <path d="m16.975 5.9744 0.14069-0.049866 0.14117 0.033243 0.0748 0.17229-0.04156 0.15943-0.19103 0.074798-0.17394-0.074798-0.03325-0.19268z"/>
   </g>
  </g>
  <path d="m4.9683 31.381-1.2221-0.16774-1.1692-0.43234c0.89512-0.79202 1.1869-1.5254 1.4795-2.5477l-0.97312 0.508c0.8426-0.81716 1.058-1.728 1.4236-2.7529l-0.85689 0.24968c1.3087-1.0085 1.2726-2.6187 1.6307-4.0031 0.21726 1.822 0.1686 2.6683 1.6456 3.9075l-1.0504-0.28596c-0.2398 0.95697 1.0127 2.9277 1.8758 3.4054l-1.4163-0.65504c0.32382 1.2556 0.93948 1.6743 1.6895 1.9769l-0.95984 0.5338-0.77834 0.16177z" fill="#217821" stroke="#165016" stroke-width=".25461px"/>
  <path d="m15.912 31.162-1.2457-0.18502-1.1918-0.47689c0.91242-0.87362 1.2098-1.6826 1.508-2.8102l-0.99193 0.56034c0.85888-0.90136 1.0785-1.906 1.4511-3.0365l-0.87345 0.27541c1.334-1.1124 1.2972-2.8885 1.6622-4.4156 0.22146 2.0097 0.17186 2.9432 1.6774 4.3102l-1.0707-0.31543c-0.24443 1.0556 1.0322 3.2294 1.912 3.7563l-1.4437-0.72253c0.33007 1.385 0.95764 1.8468 1.7222 2.1806l-0.97839 0.58881-0.79339 0.17844z" fill="#217821" stroke="#165016" stroke-width=".26997px"/>
 </g>
 <path d="m12.843 16.978c-0.99745 0.66276-1.1355 0.81702-1.4669 1.2571-0.36782 0.48843-0.18666 0.3209-0.68494 1.7848-0.6055-0.02505-1.6128-0.04171-2.2178-0.0183 0.55467-0.95431 0.66303-1.1953 0.96641-1.6272 0.34384-0.4895 0.61777-0.88244 1.0307-1.2402 0.35477-0.37228-0.07774-0.31917 2.3725-0.17624z" fill="#decd87" stroke="#c8ab37" stroke-width=".1"/>
 <path d="m8.6526 15.191c-0.17599-1.161-0.15897-2.1188 0.29117-2.7372 0.15816-0.48531 0.97511-0.80255 1.4981-1.0094l1.167-0.0386c0.9909 0.35767 1.4347 0.57671 1.5781 0.862 0.4169 0.92122 0.44738 1.9844 0.25107 3.034z" fill="none" stroke="#000" stroke-width=".25079px"/>
 <path d="m8.6216 14.939c-0.051771-0.42059-0.032351-1.233 0.038651-1.617 0.13107-0.70896 0.47129-1.1937 0.90929-1.2955 0.27277-0.06343 1.0655-0.02 1.2271 0.06722 0.24222 0.13073 0.4342 0.39769 0.50241 0.69866 0.07239 0.31945 0.08929 1.6854 0.02689 2.1761l-0.04077 0.32073-1.3163-0.04919-1.3163-0.0492z" fill-opacity="0"/>
 <path d="m8.6447 14.879c-0.092669-0.46811-0.05791-1.3769 0.069185-1.8088 0.23462-0.7974 0.84362-1.3522 1.6276-1.4827 0.48827-0.08129 1.3772-0.11233 1.6665-0.02098 0.43357 0.13686 0.97249 0.42817 1.0946 0.76196 0.12959 0.35428 0.49458 1.9294 0.3829 2.4803l-0.04508 0.4492-2.384-0.09389-2.3562-0.0048z" fill="#333"/>
 <path d="m8.6642 15.027c-0.11863-0.18742-0.053351-1.7318 0.089382-2.1146 0.20397-0.62144 0.70837-1.1951 0.90344-0.68339 0.04697 0.1232 0.015478 0.3054 0.16724 0.35522 0.1096 0.03598 0.059572-0.34699 0.14711-0.57588 0.080668-0.21092 0.33935-0.39894 0.39029-0.41458 0.11396-0.035 0.19425 0.13389 0.35302 0.38392 0.22746 0.35822 0.13984 0.43142 0.45148 0.65731 0.0799 0.05792 0.08103-0.42728 0.19345-0.73006 0.08789-0.23671 0.38032-0.37044 0.46641-0.33979 0.14234 0.05062 0.24187 0.21178 0.3704 0.33588 0.08422 0.08133 0.12481 0.33034 0.18113 0.25734 0.12782-0.1657 0.11787-0.28588 0.20755-0.2531 0.20493 0.0749 0.46519 0.37003 0.50683 0.55841 0.10172 0.46007 0.42464 2.7216 0.31081 2.8329-2.588-0.07072-2.7467-0.09366-4.6548-0.08146z" fill="url(#linearGradient1285)"/>
</svg>
