<svg width="100" height="100" version="1.1" xmlns="http://www.w3.org/2000/svg">
 <rect x="-.85873" y="-.85873" width="101.72" height="101.72" fill="#fea" stroke="#fea" stroke-linecap="square" stroke-linejoin="round" stroke-width=".28255"/>
 <g fill="#806600" stroke="#806600" stroke-linecap="square" stroke-linejoin="round" stroke-width=".12285">
  <rect x="9.2614" y="9.2614" width=".89715" height=".89715"/>
  <rect x="16.401" y="6.9664" width=".89715" height=".89715"/>
  <rect x="14.361" y="15.126" width=".89715" height=".89715"/>
 </g>
 <g stroke-linecap="square" stroke-linejoin="round" stroke-width=".12285">
  <rect x="8.2414" y="19.206" width=".89715" height=".89715" fill="#008000" stroke="#008000"/>
  <rect x="16.401" y="23.286" width=".89715" height=".89715" fill="#806600" stroke="#806600"/>
  <rect x="22.521" y="11.046" width=".89715" height=".89715" fill="#806600" stroke="#806600"/>
  <rect x="12.321" y="2.8864" width=".89715" height=".89715" fill="#f00" stroke="#f00"/>
 </g>
 <g fill="#806600" stroke="#806600" stroke-linecap="square" stroke-linejoin="round" stroke-width=".12285">
  <rect x="4.1614" y="15.126" width=".89715" height=".89715"/>
  <rect x="4.1614" y="6.9664" width=".89715" height=".89715"/>
  <rect x="6.2014" y=".84642" width=".89715" height=".89715"/>
  <rect x=".081423" y="11.046" width=".89715" height=".89715"/>
  <rect x=".081423" y="25.326" width=".89715" height=".89715"/>
  <rect x="20.481" y=".84642" width=".89715" height=".89715"/>
  <rect x="28.641" y="4.9264" width=".89715" height=".89715"/>
  <rect x="24.561" y="27.366" width=".89715" height=".89715"/>
  <rect x="22.521" y="17.166" width=".89715" height=".89715"/>
  <rect x="28.641" y="15.126" width=".89715" height=".89715"/>
  <rect x="26.601" y=".84642" width=".89715" height=".89715"/>
  <rect x="26.601" y="21.246" width=".89715" height=".89715"/>
  <rect x="41.901" y="7.9864" width=".89715" height=".89715"/>
  <rect x="49.041" y="5.6914" width=".89715" height=".89715"/>
  <rect x="47.001" y="13.851" width=".89715" height=".89715"/>
  <rect x="40.881" y="17.931" width=".89715" height=".89715"/>
  <rect x="49.041" y="22.011" width=".89715" height=".89715"/>
  <rect x="55.161" y="9.7714" width=".89715" height=".89715"/>
  <rect x="44.961" y="1.6114" width=".89715" height=".89715"/>
 </g>
 <rect x="36.801" y="13.851" width=".89715" height=".89715" fill="#f00" stroke="#f00" stroke-linecap="square" stroke-linejoin="round" stroke-width=".12285"/>
 <g fill="#806600" stroke="#806600" stroke-linecap="square" stroke-linejoin="round" stroke-width=".12285">
  <rect x="36.801" y="5.6914" width=".89715" height=".89715"/>
  <rect x="38.841" y="-.42858" width=".89715" height=".89715"/>
  <rect x="32.721" y="9.7714" width=".89715" height=".89715"/>
  <rect x="32.721" y="24.051" width=".89715" height=".89715"/>
  <rect x="53.121" y="-.42858" width=".89715" height=".89715"/>
  <rect x="61.281" y="3.6514" width=".89715" height=".89715"/>
  <rect x="57.201" y="26.091" width=".89715" height=".89715"/>
  <rect x="55.161" y="15.891" width=".89715" height=".89715"/>
  <rect x="61.281" y="13.851" width=".89715" height=".89715"/>
  <rect x="59.241" y="-.42858" width=".89715" height=".89715"/>
  <rect x="59.241" y="19.971" width=".89715" height=".89715"/>
  <rect x="72.501" y="10.026" width=".89715" height=".89715"/>
  <rect x="79.641" y="7.7314" width=".89715" height=".89715"/>
  <rect x="77.601" y="15.891" width=".89715" height=".89715"/>
  <rect x="71.481" y="19.971" width=".89715" height=".89715"/>
  <rect x="79.641" y="24.051" width=".89715" height=".89715"/>
  <rect x="85.761" y="11.811" width=".89715" height=".89715"/>
  <rect x="75.561" y="3.6514" width=".89715" height=".89715"/>
  <rect x="67.401" y="15.891" width=".89715" height=".89715"/>
  <rect x="67.401" y="7.7314" width=".89715" height=".89715"/>
  <rect x="69.441" y="1.6114" width=".89715" height=".89715"/>
  <rect x="63.321" y="11.811" width=".89715" height=".89715"/>
  <rect x="63.321" y="26.091" width=".89715" height=".89715"/>
  <rect x="83.721" y="1.6114" width=".89715" height=".89715"/>
  <rect x="91.881" y="5.6914" width=".89715" height=".89715"/>
  <rect x="87.801" y="28.131" width=".89715" height=".89715"/>
  <rect x="85.761" y="17.931" width=".89715" height=".89715"/>
  <rect x="91.881" y="15.891" width=".89715" height=".89715"/>
  <rect x="89.841" y="1.6114" width=".89715" height=".89715"/>
  <rect x="89.841" y="22.011" width=".89715" height=".89715"/>
  <rect x="98.256" y="4.6714" width=".89715" height=".89715"/>
  <rect x="94.176" y="27.111" width=".89715" height=".89715"/>
  <rect x="98.256" y="14.871" width=".89715" height=".89715"/>
  <rect x="96.216" y=".59142" width=".89715" height=".89715"/>
  <rect x="96.216" y="20.991" width=".89715" height=".89715"/>
  <rect x="8.8789" y="39.861" width=".89715" height=".89715"/>
  <rect x="11.939" y="37.566" width=".89715" height=".89715"/>
  <rect x="13.979" y="45.726" width=".89715" height=".89715"/>
  <rect x="9.8989" y="51.846" width=".89715" height=".89715"/>
 </g>
 <rect x="16.019" y="53.886" width=".89715" height=".89715" fill="#008000" stroke="#008000" stroke-linecap="square" stroke-linejoin="round" stroke-width=".12285"/>
 <g fill="#806600" stroke="#806600" stroke-linecap="square" stroke-linejoin="round" stroke-width=".12285">
  <rect x="22.139" y="41.646" width=".89715" height=".89715"/>
  <rect x="7.8589" y="33.486" width=".89715" height=".89715"/>
  <rect x="5.8189" y="47.766" width=".89715" height=".89715"/>
  <rect x="-.30108" y="37.566" width=".89715" height=".89715"/>
  <rect x="1.7389" y="31.446" width=".89715" height=".89715"/>
  <rect x="1.7389" y="43.686" width=".89715" height=".89715"/>
  <rect x="1.7389" y="57.966" width=".89715" height=".89715"/>
  <rect x="16.019" y="31.446" width=".89715" height=".89715"/>
  <rect x="24.179" y="35.526" width=".89715" height=".89715"/>
  <rect x="24.179" y="57.966" width=".89715" height=".89715"/>
  <rect x="22.139" y="47.766" width=".89715" height=".89715"/>
  <rect x="28.259" y="45.726" width=".89715" height=".89715"/>
  <rect x="22.139" y="31.446" width=".89715" height=".89715"/>
  <rect x="26.219" y="51.846" width=".89715" height=".89715"/>
  <rect x="41.519" y="38.586" width=".89715" height=".89715"/>
  <rect x="44.579" y="36.291" width=".89715" height=".89715"/>
  <rect x="46.619" y="44.451" width=".89715" height=".89715"/>
  <rect x="40.499" y="48.531" width=".89715" height=".89715"/>
  <rect x="48.659" y="52.611" width=".89715" height=".89715"/>
  <rect x="54.779" y="40.371" width=".89715" height=".89715"/>
  <rect x="40.499" y="32.211" width=".89715" height=".89715"/>
  <rect x="36.419" y="44.451" width=".89715" height=".89715"/>
  <rect x="32.339" y="36.291" width=".89715" height=".89715"/>
  <rect x="34.379" y="30.171" width=".89715" height=".89715"/>
  <rect x="32.339" y="40.371" width=".89715" height=".89715"/>
  <rect x="32.339" y="54.651" width=".89715" height=".89715"/>
  <rect x="48.659" y="30.171" width=".89715" height=".89715"/>
  <rect x="56.819" y="34.251" width=".89715" height=".89715"/>
  <rect x="56.819" y="56.691" width=".89715" height=".89715"/>
  <rect x="54.779" y="46.491" width=".89715" height=".89715"/>
  <rect x="60.899" y="44.451" width=".89715" height=".89715"/>
  <rect x="54.779" y="30.171" width=".89715" height=".89715"/>
 </g>
 <rect x="58.859" y="50.571" width=".89715" height=".89715" fill="#666" stroke="#666" stroke-linecap="square" stroke-linejoin="round" stroke-width=".12285"/>
 <g fill="#806600" stroke="#806600" stroke-linecap="square" stroke-linejoin="round" stroke-width=".12285">
  <rect x="72.119" y="40.626" width=".89715" height=".89715"/>
  <rect x="79.259" y="38.331" width=".89715" height=".89715"/>
  <rect x="77.219" y="46.491" width=".89715" height=".89715"/>
  <rect x="71.099" y="50.571" width=".89715" height=".89715"/>
  <rect x="79.259" y="54.651" width=".89715" height=".89715"/>
  <rect x="85.379" y="42.411" width=".89715" height=".89715"/>
  <rect x="71.099" y="34.251" width=".89715" height=".89715"/>
  <rect x="67.019" y="46.491" width=".89715" height=".89715"/>
  <rect x="67.019" y="38.331" width=".89715" height=".89715"/>
  <rect x="64.979" y="32.211" width=".89715" height=".89715"/>
  <rect x="62.939" y="42.411" width=".89715" height=".89715"/>
  <rect x="62.939" y="56.691" width=".89715" height=".89715"/>
  <rect x="79.259" y="32.211" width=".89715" height=".89715"/>
  <rect x="87.419" y="36.291" width=".89715" height=".89715"/>
  <rect x="87.419" y="58.731" width=".89715" height=".89715"/>
  <rect x="85.379" y="48.531" width=".89715" height=".89715"/>
  <rect x="91.499" y="46.491" width=".89715" height=".89715"/>
  <rect x="85.379" y="32.211" width=".89715" height=".89715"/>
  <rect x="89.459" y="52.611" width=".89715" height=".89715"/>
  <rect x="93.794" y="35.271" width=".89715" height=".89715"/>
  <rect x="93.794" y="57.711" width=".89715" height=".89715"/>
  <rect x="97.874" y="45.471" width=".89715" height=".89715"/>
  <rect x="91.754" y="31.191" width=".89715" height=".89715"/>
  <rect x="95.834" y="51.591" width=".89715" height=".89715"/>
  <rect x="9.3889" y="72.756" width=".89715" height=".89715"/>
  <rect x="16.529" y="70.461" width=".89715" height=".89715"/>
  <rect x="14.489" y="78.621" width=".89715" height=".89715"/>
  <rect x="8.3689" y="82.701" width=".89715" height=".89715"/>
  <rect x="16.529" y="86.781" width=".89715" height=".89715"/>
  <rect x="22.649" y="74.541" width=".89715" height=".89715"/>
  <rect x="12.449" y="66.381" width=".89715" height=".89715"/>
  <rect x="4.2889" y="78.621" width=".89715" height=".89715"/>
  <rect x="4.2889" y="70.461" width=".89715" height=".89715"/>
  <rect x="10.409" y="64.341" width=".89715" height=".89715"/>
  <rect x=".20892" y="74.541" width=".89715" height=".89715"/>
  <rect x=".20892" y="88.821" width=".89715" height=".89715"/>
  <rect x="24.689" y="64.341" width=".89715" height=".89715"/>
  <rect x="28.769" y="68.421" width=".89715" height=".89715"/>
  <rect x="24.689" y="90.861" width=".89715" height=".89715"/>
  <rect x="22.649" y="80.661" width=".89715" height=".89715"/>
  <rect x="28.769" y="78.621" width=".89715" height=".89715"/>
 </g>
 <rect x="30.809" y="64.341" width=".89715" height=".89715" stroke="#000" stroke-linecap="square" stroke-linejoin="round" stroke-width=".12285"/>
 <g fill="#806600" stroke="#806600" stroke-linecap="square" stroke-linejoin="round" stroke-width=".12285">
  <rect x="26.729" y="84.741" width=".89715" height=".89715"/>
  <rect x="42.029" y="71.481" width=".89715" height=".89715"/>
  <rect x="49.169" y="69.186" width=".89715" height=".89715"/>
  <rect x="47.129" y="77.346" width=".89715" height=".89715"/>
  <rect x="41.009" y="81.426" width=".89715" height=".89715"/>
 </g>
 <rect x="49.169" y="85.506" width=".89715" height=".89715" stroke="#000" stroke-linecap="square" stroke-linejoin="round" stroke-width=".12285"/>
 <g fill="#806600" stroke="#806600" stroke-linecap="square" stroke-linejoin="round" stroke-width=".12285">
  <rect x="55.289" y="73.266" width=".89715" height=".89715"/>
  <rect x="49.169" y="65.106" width=".89715" height=".89715"/>
  <rect x="36.929" y="77.346" width=".89715" height=".89715"/>
  <rect x="36.929" y="69.186" width=".89715" height=".89715"/>
  <rect x="43.049" y="63.066" width=".89715" height=".89715"/>
 </g>
 <rect x="32.849" y="73.266" width=".89715" height=".89715" fill="#f00" stroke="#f00" stroke-linecap="square" stroke-linejoin="round" stroke-width=".12285"/>
 <g fill="#806600" stroke="#806600" stroke-linecap="square" stroke-linejoin="round" stroke-width=".12285">
  <rect x="32.849" y="87.546" width=".89715" height=".89715"/>
  <rect x="57.329" y="63.066" width=".89715" height=".89715"/>
  <rect x="61.409" y="67.146" width=".89715" height=".89715"/>
  <rect x="57.329" y="89.586" width=".89715" height=".89715"/>
  <rect x="55.289" y="79.386" width=".89715" height=".89715"/>
  <rect x="61.409" y="77.346" width=".89715" height=".89715"/>
  <rect x="63.449" y="63.066" width=".89715" height=".89715"/>
  <rect x="59.369" y="83.466" width=".89715" height=".89715"/>
 </g>
 <rect x="72.629" y="73.521" width=".89715" height=".89715" fill="#008000" stroke="#008000" stroke-linecap="square" stroke-linejoin="round" stroke-width=".12285"/>
 <g fill="#806600" stroke="#806600" stroke-linecap="square" stroke-linejoin="round" stroke-width=".12285">
  <rect x="79.769" y="71.226" width=".89715" height=".89715"/>
  <rect x="77.729" y="79.386" width=".89715" height=".89715"/>
  <rect x="71.609" y="83.466" width=".89715" height=".89715"/>
  <rect x="79.769" y="87.546" width=".89715" height=".89715"/>
  <rect x="85.889" y="75.306" width=".89715" height=".89715"/>
  <rect x="75.689" y="67.146" width=".89715" height=".89715"/>
  <rect x="67.529" y="79.386" width=".89715" height=".89715"/>
  <rect x="67.529" y="71.226" width=".89715" height=".89715"/>
  <rect x="73.649" y="65.106" width=".89715" height=".89715"/>
  <rect x="63.449" y="75.306" width=".89715" height=".89715"/>
  <rect x="63.449" y="89.586" width=".89715" height=".89715"/>
  <rect x="87.929" y="65.106" width=".89715" height=".89715"/>
  <rect x="92.009" y="69.186" width=".89715" height=".89715"/>
  <rect x="87.929" y="91.626" width=".89715" height=".89715"/>
  <rect x="85.889" y="81.426" width=".89715" height=".89715"/>
  <rect x="92.009" y="79.386" width=".89715" height=".89715"/>
  <rect x="94.049" y="65.106" width=".89715" height=".89715"/>
  <rect x="89.969" y="85.506" width=".89715" height=".89715"/>
  <rect x="96.344" y="70.206" width=".89715" height=".89715"/>
 </g>
 <rect x="94.304" y="90.606" width=".89715" height=".89715" stroke="#000" stroke-linecap="square" stroke-linejoin="round" stroke-width=".12285"/>
 <g fill="#806600" stroke="#806600" stroke-linecap="square" stroke-linejoin="round" stroke-width=".12285">
  <rect x="96.344" y="80.406" width=".89715" height=".89715"/>
  <rect x="98.384" y="66.126" width=".89715" height=".89715"/>
  <rect x="96.344" y="84.486" width=".89715" height=".89715"/>
  <rect x="4.5439" y="96.726" width=".89715" height=".89715"/>
 </g>
 <rect x="6.5839" y="90.606" width=".89715" height=".89715" stroke="#000" stroke-linecap="square" stroke-linejoin="round" stroke-width=".12285"/>
 <g fill="#806600" stroke="#806600" stroke-linecap="square" stroke-linejoin="round" stroke-width=".12285">
  <rect x="10.919" y="95.706" width=".89715" height=".89715"/>
  <rect x="12.959" y="89.586" width=".89715" height=".89715"/>
  <rect transform="scale(-1,1)" x="-30.176" y="98.766" width=".89715" height=".89715"/>
  <rect transform="scale(-1,1)" x="-28.136" y="92.646" width=".89715" height=".89715"/>
  <rect transform="scale(-1,1)" x="-23.801" y="97.746" width=".89715" height=".89715"/>
  <rect transform="scale(-1,1)" x="-21.761" y="91.626" width=".89715" height=".89715"/>
  <rect x="38.969" y="96.726" width=".89715" height=".89715"/>
  <rect x="41.009" y="90.606" width=".89715" height=".89715"/>
  <rect x="45.344" y="95.706" width=".89715" height=".89715"/>
 </g>
 <rect x="47.384" y="89.586" width=".89715" height=".89715" fill="#4d4d4d" stroke="#4d4d4d" stroke-linecap="square" stroke-linejoin="round" stroke-width=".12285"/>
 <g fill="#806600" stroke="#806600" stroke-linecap="square" stroke-linejoin="round" stroke-width=".12285">
  <rect x="51.209" y="98.766" width=".89715" height=".89715"/>
  <rect x="53.249" y="92.646" width=".89715" height=".89715"/>
  <rect x="57.584" y="97.746" width=".89715" height=".89715"/>
  <rect x="59.624" y="91.626" width=".89715" height=".89715"/>
  <rect x="67.529" y="98.766" width=".89715" height=".89715"/>
  <rect x="69.569" y="92.646" width=".89715" height=".89715"/>
  <rect x="73.904" y="97.746" width=".89715" height=".89715"/>
  <rect x="75.944" y="91.626" width=".89715" height=".89715"/>
  <rect x="81.809" y="96.726" width=".89715" height=".89715"/>
  <rect x="89.969" y="96.726" width=".89715" height=".89715"/>
  <rect x="88.184" y="95.706" width=".89715" height=".89715"/>
  <rect x="96.344" y="95.706" width=".89715" height=".89715"/>
 </g>
</svg>
