<svg width="100" height="100" version="1.1" xmlns="http://www.w3.org/2000/svg" xmlns:xlink="http://www.w3.org/1999/xlink">
 <defs>
  <linearGradient id="linearGradient4234">
   <stop stop-color="#666" offset="0"/>
   <stop stop-color="#333" offset="1"/>
  </linearGradient>
  <clipPath id="clipPath1002-6">
   <rect x="-.50024" y="-.20024" width="101.69" height="101.17" fill-opacity="0" stroke="#000" stroke-linecap="square" stroke-linejoin="round" stroke-opacity=".46274" stroke-width=".99951"/>
  </clipPath>
  <radialGradient id="radialGradient4238-0-1-7" cx="28.557" cy="114.43" r="29.057" gradientTransform="matrix(-.28237 .60554 -.29901 -.13943 41.333 60.236)" gradientUnits="userSpaceOnUse" xlink:href="#linearGradient4234"/>
  <radialGradient id="radialGradient4238-0-2-0-5-8" cx="28.557" cy="114.43" r="29.057" gradientTransform="matrix(-.85901 .36845 -.15152 -.2988 96.228 27.066)" gradientUnits="userSpaceOnUse" xlink:href="#linearGradient4234"/>
  <radialGradient id="radialGradient4238-0-1-0" cx="28.557" cy="114.43" r="29.057" gradientTransform="matrix(-.47245 .47245 -.23329 -.23329 62.039 12.931)" gradientUnits="userSpaceOnUse" xlink:href="#linearGradient4234"/>
  <clipPath id="clipPath1271">
   <rect x="-.52767" y="-.52767" width="101.06" height="101.06" fill-opacity="0" stroke="#000" stroke-linecap="square" stroke-linejoin="round" stroke-width=".94466"/>
  </clipPath>
  <linearGradient id="linearGradient1283" x1="36.734" x2="98.889" y1="101.28" y2="2.2245" gradientTransform="matrix(.99038 0 0 .99272 .52259 .52383)" gradientUnits="userSpaceOnUse">
   <stop stop-color="#333" offset="0"/>
   <stop stop-opacity="0" offset="1"/>
  </linearGradient>
  <radialGradient id="radialGradient1285" cx="28.557" cy="114.43" r="29.057" gradientTransform="matrix(-.57004 .65575 -.24899 -.21645 63.535 36.726)" gradientUnits="userSpaceOnUse" xlink:href="#linearGradient4234"/>
  <radialGradient id="radialGradient1287" cx="28.557" cy="114.43" r="29.057" gradientTransform="matrix(.52092 -.55289 .28568 .24582 -49.026 7.2289)" gradientUnits="userSpaceOnUse" xlink:href="#linearGradient4234"/>
 </defs>
 <g transform="rotate(-90,50,50)">
  <g transform="matrix(.99038 0 0 .99272 .52259 .52383)" clip-path="url(#clipPath1271)">
   <rect x="-.23853" width="100.18" height="99.705" fill-opacity="0" stroke="#000" stroke-linecap="square" stroke-linejoin="round"/>
   <path d="m0 50v-50h100v100h-100z"/>
   <g transform="matrix(.98351 0 0 .98428 .97796 .6859)">
    <ellipse transform="matrix(.98823 0 0 .99435 0 .0022602)" cx="101.48" cy="100.81" rx="100.98" ry="99.907" clip-path="url(#clipPath1002-6)" fill-opacity="0" stroke="#000" stroke-linecap="square" stroke-linejoin="round" stroke-opacity=".46274"/>
    <g fill="none" stroke="#000" stroke-width="1px">
     <path d="m0.23853 99.944 99.467 0.23853 0.47706-99.944"/>
     <path d="m14.312 50.33 85.394 49.853"/>
     <path d="m53.908 12.404 45.798 87.779"/>
    </g>
    <path d="m46.622 99.493-45.621-0.060859 0.11444-1.2517c0.062943-0.68842 0.17558-2.5934 0.25029-4.2333 0.42996-9.4365 2.9792-20.622 7.0126-30.77 1.2819-3.2252 5.4824-11.693 5.875-11.844 0.22027-0.084524 77.669 44.856 82.521 47.884l0.71559 0.44655-2.6238-0.055c-1.4431-0.03025-23.153-0.08239-48.245-0.11586z" fill="#999"/>
    <path d="m81.509 88.836c-8.7898-5.1471-27.301-15.965-41.137-24.041-13.836-8.0752-25.19-14.786-25.232-14.912-0.13136-0.39407 5.0077-7.8961 7.7236-11.275 4.6108-5.7363 11.26-12.212 17.213-16.764 4.3117-3.2966 12.826-8.6739 13.42-8.4758 0.17729 0.0591 43.814 83.398 44.284 84.574 0.06545 0.16399 0.02702 0.28776-0.08541 0.27504-0.11243-0.01272-7.3961-4.2344-16.186-9.3815z" fill="#b3b3b3"/>
    <path d="m76.917 55.103c-12.102-23.197-22.004-42.286-22.004-42.419s1.3109-0.86245 2.9131-1.6204c11.811-5.5874 25.253-8.9336 37.595-9.3583l4.1321-0.1422-0.16807 39.811c-0.09244 21.896-0.23447 43.432-0.31561 47.858l-0.14754 8.0467z" fill="#ccc"/>
    <path d="m26.911 99.492-25.735-0.060706 0.16131-3.1594c0.49983-9.7899 2.0544-18.078 5.1238-27.318 1.6897-5.0864 2.9922-8.1737 5.6804-13.464l2.0274-3.9898 0.75262 0.38566c1.8027 0.92373 26.74 15.329 55.376 31.99 25.286 14.711 26.486 15.431 25.84 15.489-1.1621 0.10566-44.56 0.18544-69.227 0.12725z" fill="#666"/>
    <path d="m95.582 96.879c-0.78715-0.46593-4.061-2.3776-7.2751-4.2481-7.1739-4.1749-43.809-25.578-55.22-32.26-11.135-6.521-17.111-10.082-17.468-10.41-0.36778-0.33703 0.48298-1.7928 3.675-6.2884 3.6567-5.1502 5.8789-7.7755 10.567-12.484 6.361-6.3885 10.942-10.071 18.202-14.629 3.7807-2.374 5.1729-3.1021 5.4246-2.8369 0.27387 0.28846 19.375 36.62 33.619 63.945 2.0003 3.8373 3.7505 6.977 3.8892 6.977 0.13871 0 0.18331 0.06889 0.09911 0.15309-0.0842 0.0842 1.2933 2.9664 3.0611 6.405 1.7678 3.4386 3.2142 6.3215 3.2142 6.4065 0 0.26966-0.32147 0.13844-1.789-0.7302z" fill="#a0a0a0"/>
    <path d="m87.71 92.181c-10.698-6.2678-29.173-17.068-44.009-25.728-13.526-7.895-25.158-14.757-27.268-16.086l-0.91003-0.57317 0.7621-1.3587c1.6864-3.0067 6.0364-8.8815 9.3627-12.645 3.2691-3.6984 9.1922-9.3705 12.924-12.377 4.2198-3.3991 13.665-9.6122 14.613-9.6122 0.13978 0 0.7876 0.99288 1.4396 2.2064 1.3939 2.5942 9.0279 17.073 13.049 24.747 1.5464 2.9518 4.4712 8.5334 6.4995 12.404 5.6719 10.822 6.4024 12.218 10.64 20.328 2.1743 4.1615 4.4247 8.4014 5.0009 9.4219 1.0571 1.8722 7.318 14.275 7.318 14.497 0 0.06582-0.0805 0.11194-0.1789 0.10249-0.09839-0.0094-4.2578-2.4068-9.243-5.3275z" fill="#808080"/>
    <path d="m89.817 79.571c-22.853-43.798-34.666-66.56-34.666-66.797 0-0.535 7.509-3.8532 12.804-5.6581 9.0588-3.0878 17.322-4.7178 26.553-5.2376 2.2958-0.12929 4.3456-0.23663 4.555-0.23853 0.34655-0.00315 0.37282 1.9627 0.29244 21.882-0.14889 36.894-0.3651 65.593-0.52291 69.408l-0.15028 3.6331z" fill="#999"/>
    <rect x="-.49435" y="-.19685" width="100.49" height="100.6" fill-opacity="0" stroke="#000" stroke-linecap="square" stroke-linejoin="round" stroke-opacity=".46274"/>
   </g>
   <g stroke-linecap="square" stroke-linejoin="round">
    <path d="m11.846 49.427-1.6584 4.2127-2.5987 7.6028-3.9784 6.0925-1.5082 6.1718-3.657 2.0555-12.268-6.7907 2.6243-7.8047 3.773-3.308 0.8206-6.2816 4.6436-6.3484 5.6165-8.2993 3.8456 7.3751z" fill="url(#radialGradient4238-0-1-7)" stroke-width=".64612"/>
    <path d="m38.956 20.222-4.9567 3.2036-6.1684 8.4035-6.9234 6.3931-4.3791 6.9299-3.0839-0.64457-7.5829-10.129 2.4704-6.2491 5.4438-3.1812 3.7108-7.1817 7.7343-6.5719 6.7891-6.1439 3.0388 7.6753z" fill="url(#radialGradient1285)" stroke-width=".73681"/>
    <path d="m79.109 2.0159-6.3581 0.91979-9.877 5.1824-9.7341 3.0386-7.4408 4.5604-5.5053-0.33536-5.1775-13.204 10.098-5.3455 6.8329-0.70188 6.8877-5.0615 10.621-2.8733 3.2708 3.4857 3.2374 3.7164z" fill="url(#radialGradient4238-0-2-0-5-8)" stroke-width=".7693"/>
    <path d="m-4.5743 11.951 6.6454-8.7049 2.3898 0.1944 10.879 12.656-5.583 7.4565-5.331 2.2942-2.5773 9.0457-6.6214 5.4869c-13.894-16.525-15.127-16.203 0.19826-28.429z" fill="url(#radialGradient1287)" stroke-width=".73597"/>
   </g>
   <path d="m39.27-5.8438-4.2419 1.9238-5.0423 6.2554-5.8222 4.3644-3.5281 5.2837-4.1394 0.68077-9.2054-10.577 5.1354-6.4364 4.6768-1.8181 2.9196-5.6222 6.5348-4.3774 3.8139 2.4559 3.8848 2.6626z" fill="url(#radialGradient4238-0-1-0)" stroke-linecap="square" stroke-linejoin="round" stroke-width=".64612"/>
  </g>
  <rect x=".28636" y=".52383" width="98.609" height="98.784" fill="url(#linearGradient1283)"/>
 </g>
</svg>
