<svg width="100" height="100" version="1.1" viewBox="0 0 28.263 26.458" xmlns="http://www.w3.org/2000/svg" xmlns:xlink="http://www.w3.org/1999/xlink">
 <defs>
  <linearGradient id="linearGradient4263">
   <stop stop-color="#2a7fff" offset="0"/>
   <stop stop-color="#0055d4" offset="1"/>
  </linearGradient>
  <radialGradient id="radialGradient4721-8" cx="14.132" cy="13.229" r="14.697" gradientTransform="matrix(.98568 0 0 .98569 .48507 .47217)" gradientUnits="userSpaceOnUse" xlink:href="#linearGradient4263"/>
  <filter id="filter4267-7" x="-.047746" y="-.042113" width="1.0955" height="1.0842" color-interpolation-filters="sRGB">
   <feGaussianBlur stdDeviation="0.26612002"/>
  </filter>
  <filter id="filter4271-8" x="-.045425" y="-.040065" width="1.0908" height="1.0801" color-interpolation-filters="sRGB">
   <feGaussianBlur stdDeviation="0.25317996"/>
  </filter>
  <filter id="filter4275-5" x="-.031347" y="-.049742" width="1.0627" height="1.0995" color-interpolation-filters="sRGB">
   <feGaussianBlur stdDeviation="0.23960168"/>
  </filter>
  <filter id="filter4279-2" x="-.081682" y="-.072044" width="1.1634" height="1.1441" color-interpolation-filters="sRGB">
   <feGaussianBlur stdDeviation="0.45526606"/>
  </filter>
  <filter id="filter4267-7-9" x="-.047746" y="-.042113" width="1.0955" height="1.0842" color-interpolation-filters="sRGB">
   <feGaussianBlur stdDeviation="0.26612002"/>
  </filter>
  <filter id="filter4271-8-2" x="-.045425" y="-.040065" width="1.0908" height="1.0801" color-interpolation-filters="sRGB">
   <feGaussianBlur stdDeviation="0.25317996"/>
  </filter>
  <filter id="filter4275-5-4" x="-.031347" y="-.049742" width="1.0627" height="1.0995" color-interpolation-filters="sRGB">
   <feGaussianBlur stdDeviation="0.23960168"/>
  </filter>
  <filter id="filter4279-2-0" x="-.081682" y="-.072044" width="1.1634" height="1.1441" color-interpolation-filters="sRGB">
   <feGaussianBlur stdDeviation="0.45526606"/>
  </filter>
 </defs>
 <g transform="translate(-.28263 -.28263)">
  <rect x=".56558" y="-.33724" width="28.263" height="28.263" fill="none" stroke-width=".99999"/>
  <rect y="-.9025" width="28.828" height="28.828" fill="url(#radialGradient4721-8)" stroke-width="1.0286"/>
  <g transform="matrix(.97062 0 0 .97863 1.0096 1.2628)" fill="none" filter="url(#filter4267-7)" stroke-linejoin="round" style="mix-blend-mode:normal">
   <path d="m5.7771 1.1323c4.4077-5.122 6.2694 3.9711 6.9791 5.3825 2.7251 4.6165-2.2189 5.7002-4.1263 7.2302-2.1115 1.1943-2.4768 0.0654-4.0754-0.80336-2.6768-0.15548-2.4797-1.3669-3.5659-3.9364-0.64781-6.1968 2.588-7.5564 4.7885-7.8729z" stroke="#2a7fff" stroke-width=".56689"/>
   <path d="m5.4802 1.0334c4.506-4.9576 6.4092 3.8436 7.1347 5.2097 2.7859 4.4683-2.2684 5.5172-4.2183 6.9981-2.1586 1.1559-2.5321 0.0633-4.1662-0.77757-2.7364-0.15048-2.535-1.323-3.6455-3.8101-0.66226-5.9979 2.6457-7.3139 4.8953-7.6202z" stroke="#80b3ff" stroke-width=".5639"/>
   <path d="m5.1827 0.59807c4.5245-4.9612 6.4356 3.8464 7.164 5.2134 2.7973 4.4715-2.2777 5.5212-4.2356 7.0031-2.1675 1.1568-2.5425 0.06334-4.1834-0.77813-2.7477-0.15059-2.5454-1.324-3.6604-3.8128-0.66498-6.0022 2.6566-7.3191 4.9154-7.6256z" stroke="#acf" stroke-width=".56526"/>
  </g>
  <g transform="matrix(1.0116 0 0 1.0101 6.1846 -8.6099)" fill="none" filter="url(#filter4271-8)" stroke-linejoin="round" style="mix-blend-mode:normal">
   <path d="m13.478 10.868c4.4077-5.122 6.2694 3.9711 6.9791 5.3825 2.7251 4.6165-2.2189 5.7002-4.1263 7.2302-2.1115 1.1943-2.4768 0.0654-4.0754-0.80336-2.6768-0.15548-2.4797-1.3669-3.5659-3.9364-0.64781-6.1968 2.588-7.5564 4.7885-7.8729z" stroke="#2a7fff" stroke-width=".56689"/>
   <path d="m13.181 10.77c4.506-4.9576 6.4092 3.8436 7.1347 5.2097 2.7859 4.4683-2.2684 5.5172-4.2183 6.9981-2.1586 1.1559-2.5321 0.0633-4.1662-0.77757-2.7364-0.15048-2.535-1.323-3.6455-3.8101-0.66226-5.9979 2.6457-7.3139 4.8953-7.6202z" stroke="#80b3ff" stroke-width=".5639"/>
   <path d="m12.884 10.334c4.5245-4.9612 6.4356 3.8464 7.164 5.2134 2.7973 4.4715-2.2777 5.5212-4.2357 7.0031-2.1675 1.1568-2.5425 0.06334-4.1834-0.77813-2.7477-0.15059-2.5454-1.324-3.6604-3.8128-0.66498-6.0022 2.6566-7.3191 4.9154-7.6256z" stroke="#acf" stroke-width=".56526"/>
  </g>
  <g transform="matrix(1.0169 0 0 1.1747 -1.6782 -5.0074)" filter="url(#filter4275-5)">
   <g transform="matrix(1.3714 0 0 .76225 -7.7088 9.4605)" fill="none" stroke-linejoin="round">
    <path d="m14.576 9.8705c4.4077-5.122 6.2694 3.9711 6.9791 5.3825 2.7251 4.6165-2.2189 5.7002-4.1263 7.2302-2.1115 1.1943-2.4768 0.0654-4.0754-0.80336-2.6768-0.15548-2.4797-1.3669-3.5659-3.9364-0.64781-6.1968 2.588-7.5564 4.7885-7.8729z" stroke="#2a7fff" stroke-width=".56689"/>
    <path d="m14.279 9.7715c4.506-4.9576 6.4092 3.8436 7.1347 5.2097 2.7859 4.4683-2.2684 5.5172-4.2183 6.9981-2.1586 1.1559-2.5321 0.0633-4.1662-0.77757-2.7364-0.15048-2.535-1.323-3.6455-3.8101-0.66226-5.9979 2.6457-7.3139 4.8953-7.6202z" stroke="#80b3ff" stroke-width=".5639"/>
    <path d="m13.981 9.3362c4.5245-4.9612 6.4356 3.8464 7.164 5.2134 2.7973 4.4715-2.2777 5.5212-4.2356 7.0031-2.1675 1.1568-2.5425 0.06334-4.1834-0.77813-2.7477-0.15059-2.5454-1.324-3.6604-3.8128-0.66498-6.0022 2.6566-7.3191 4.9154-7.6256z" stroke="#acf" stroke-width=".56526"/>
   </g>
  </g>
  <g transform="matrix(.46335 0 0 .68597 17.88 9.8073)" fill="none" filter="url(#filter4279-2)" stroke-linejoin="round" stroke-width=".84953" style="mix-blend-mode:normal">
   <path d="m13.478 10.868c4.4077-5.122 6.2694 3.9711 6.9791 5.3825 2.7251 4.6165-2.2189 5.7002-4.1263 7.2302-2.1115 1.1943-2.4768 0.0654-4.0754-0.80336-2.6768-0.15548-2.4797-1.3669-3.5659-3.9364-0.64781-6.1968 2.588-7.5564 4.7885-7.8729z" stroke="#2a7fff"/>
   <path d="m13.181 10.77c4.506-4.9576 6.4092 3.8436 7.1347 5.2097 2.7859 4.4683-2.2684 5.5172-4.2183 6.9981-2.1586 1.1559-2.5321 0.0633-4.1662-0.77757-2.7364-0.15048-2.535-1.323-3.6455-3.8101-0.66226-5.9979 2.6457-7.3139 4.8953-7.6202z" stroke="#80b3ff"/>
   <path d="m12.884 10.334c4.5245-4.9612 6.4356 3.8464 7.164 5.2134 2.7973 4.4715-2.2777 5.5212-4.2357 7.0031-2.1675 1.1568-2.5425 0.06334-4.1834-0.77813-2.7477-0.15059-2.5454-1.324-3.6604-3.8128-0.66498-6.0022 2.6566-7.3191 4.9154-7.6256z" stroke="#acf"/>
  </g>
 </g>
 <g transform="translate(27.98 -.28263)">
  <rect x=".56558" y="-.33724" width="28.263" height="28.263" fill="none" stroke-width=".99999"/>
  <rect y="-.9025" width="28.828" height="28.828" fill="url(#radialGradient4721-8)" stroke-width="1.0286"/>
  <g transform="matrix(.97062 0 0 .97863 1.0096 1.2628)" fill="none" filter="url(#filter4267-7-9)" stroke-linejoin="round" style="mix-blend-mode:normal">
   <path d="m5.7771 1.1323c4.4077-5.122 6.2694 3.9711 6.9791 5.3825 2.7251 4.6165-2.2189 5.7002-4.1263 7.2302-2.1115 1.1943-2.4768 0.0654-4.0754-0.80336-2.6768-0.15548-2.4797-1.3669-3.5659-3.9364-0.64781-6.1968 2.588-7.5564 4.7885-7.8729z" stroke="#2a7fff" stroke-width=".56689"/>
   <path d="m5.4802 1.0334c4.506-4.9576 6.4092 3.8436 7.1347 5.2097 2.7859 4.4683-2.2684 5.5172-4.2183 6.9981-2.1586 1.1559-2.5321 0.0633-4.1662-0.77757-2.7364-0.15048-2.535-1.323-3.6455-3.8101-0.66226-5.9979 2.6457-7.3139 4.8953-7.6202z" stroke="#80b3ff" stroke-width=".5639"/>
   <path d="m5.1827 0.59807c4.5245-4.9612 6.4356 3.8464 7.164 5.2134 2.7973 4.4715-2.2777 5.5212-4.2356 7.0031-2.1675 1.1568-2.5425 0.06334-4.1834-0.77813-2.7477-0.15059-2.5454-1.324-3.6604-3.8128-0.66498-6.0022 2.6566-7.3191 4.9154-7.6256z" stroke="#acf" stroke-width=".56526"/>
  </g>
  <g transform="matrix(1.0116 0 0 1.0101 6.1846 -8.6099)" fill="none" filter="url(#filter4271-8-2)" stroke-linejoin="round" style="mix-blend-mode:normal">
   <path d="m13.478 10.868c4.4077-5.122 6.2694 3.9711 6.9791 5.3825 2.7251 4.6165-2.2189 5.7002-4.1263 7.2302-2.1115 1.1943-2.4768 0.0654-4.0754-0.80336-2.6768-0.15548-2.4797-1.3669-3.5659-3.9364-0.64781-6.1968 2.588-7.5564 4.7885-7.8729z" stroke="#2a7fff" stroke-width=".56689"/>
   <path d="m13.181 10.77c4.506-4.9576 6.4092 3.8436 7.1347 5.2097 2.7859 4.4683-2.2684 5.5172-4.2183 6.9981-2.1586 1.1559-2.5321 0.0633-4.1662-0.77757-2.7364-0.15048-2.535-1.323-3.6455-3.8101-0.66226-5.9979 2.6457-7.3139 4.8953-7.6202z" stroke="#80b3ff" stroke-width=".5639"/>
   <path d="m12.884 10.334c4.5245-4.9612 6.4356 3.8464 7.164 5.2134 2.7973 4.4715-2.2777 5.5212-4.2357 7.0031-2.1675 1.1568-2.5425 0.06334-4.1834-0.77813-2.7477-0.15059-2.5454-1.324-3.6604-3.8128-0.66498-6.0022 2.6566-7.3191 4.9154-7.6256z" stroke="#acf" stroke-width=".56526"/>
  </g>
  <g transform="matrix(1.0169 0 0 1.1747 -1.6782 -5.0074)" filter="url(#filter4275-5-4)">
   <g transform="matrix(1.3714 0 0 .76225 -7.7088 9.4605)" fill="none" stroke-linejoin="round">
    <path d="m14.576 9.8705c4.4077-5.122 6.2694 3.9711 6.9791 5.3825 2.7251 4.6165-2.2189 5.7002-4.1263 7.2302-2.1115 1.1943-2.4768 0.0654-4.0754-0.80336-2.6768-0.15548-2.4797-1.3669-3.5659-3.9364-0.64781-6.1968 2.588-7.5564 4.7885-7.8729z" stroke="#2a7fff" stroke-width=".56689"/>
    <path d="m14.279 9.7715c4.506-4.9576 6.4092 3.8436 7.1347 5.2097 2.7859 4.4683-2.2684 5.5172-4.2183 6.9981-2.1586 1.1559-2.5321 0.0633-4.1662-0.77757-2.7364-0.15048-2.535-1.323-3.6455-3.8101-0.66226-5.9979 2.6457-7.3139 4.8953-7.6202z" stroke="#80b3ff" stroke-width=".5639"/>
    <path d="m13.981 9.3362c4.5245-4.9612 6.4356 3.8464 7.164 5.2134 2.7973 4.4715-2.2777 5.5212-4.2356 7.0031-2.1675 1.1568-2.5425 0.06334-4.1834-0.77813-2.7477-0.15059-2.5454-1.324-3.6604-3.8128-0.66498-6.0022 2.6566-7.3191 4.9154-7.6256z" stroke="#acf" stroke-width=".56526"/>
   </g>
  </g>
  <g transform="matrix(.46335 0 0 .68597 17.88 9.8073)" fill="none" filter="url(#filter4279-2-0)" stroke-linejoin="round" stroke-width=".84953" style="mix-blend-mode:normal">
   <path d="m13.478 10.868c4.4077-5.122 6.2694 3.9711 6.9791 5.3825 2.7251 4.6165-2.2189 5.7002-4.1263 7.2302-2.1115 1.1943-2.4768 0.0654-4.0754-0.80336-2.6768-0.15548-2.4797-1.3669-3.5659-3.9364-0.64781-6.1968 2.588-7.5564 4.7885-7.8729z" stroke="#2a7fff"/>
   <path d="m13.181 10.77c4.506-4.9576 6.4092 3.8436 7.1347 5.2097 2.7859 4.4683-2.2684 5.5172-4.2183 6.9981-2.1586 1.1559-2.5321 0.0633-4.1662-0.77757-2.7364-0.15048-2.535-1.323-3.6455-3.8101-0.66226-5.9979 2.6457-7.3139 4.8953-7.6202z" stroke="#80b3ff"/>
   <path d="m12.884 10.334c4.5245-4.9612 6.4356 3.8464 7.164 5.2134 2.7973 4.4715-2.2777 5.5212-4.2357 7.0031-2.1675 1.1568-2.5425 0.06334-4.1834-0.77813-2.7477-0.15059-2.5454-1.324-3.6604-3.8128-0.66498-6.0022 2.6566-7.3191 4.9154-7.6256z" stroke="#acf"/>
  </g>
 </g>
</svg>
