<svg width="100" height="100" version="1.1" viewBox="0 0 28.263 26.458" xmlns="http://www.w3.org/2000/svg">
 <defs>
  <radialGradient id="radialGradient4721-8" cx="14.132" cy="13.229" r="14.697" gradientTransform="matrix(.95504 0 0 .96154 -31.564 -29.99)" gradientUnits="userSpaceOnUse">
   <stop stop-color="#2a7fff" offset="0"/>
   <stop stop-color="#0055d4" offset="1"/>
  </radialGradient>
  <filter id="filter4267-7" x="-.068818" y="-.060717" width="1.1377" height="1.121" color-interpolation-filters="sRGB">
   <feGaussianBlur stdDeviation="0.26612002"/>
  </filter>
  <filter id="filter4271-8" x="-.066498" y="-.05867" width="1.1331" height="1.1169" color-interpolation-filters="sRGB">
   <feGaussianBlur stdDeviation="0.25317996"/>
  </filter>
  <filter id="filter4275-5" x="-.052416" y="-.068347" width="1.1049" height="1.1363" color-interpolation-filters="sRGB">
   <feGaussianBlur stdDeviation="0.23960168"/>
  </filter>
  <filter id="filter4279-2" x="-.11335" y="-.10001" width="1.2268" height="1.1993" color-interpolation-filters="sRGB">
   <feGaussianBlur stdDeviation="0.45526606"/>
  </filter>
  <filter id="filter4267-7-5" x="-.068818" y="-.060717" width="1.1377" height="1.121" color-interpolation-filters="sRGB">
   <feGaussianBlur stdDeviation="0.26612002"/>
  </filter>
  <filter id="filter4271-8-8" x="-.066498" y="-.05867" width="1.1331" height="1.1169" color-interpolation-filters="sRGB">
   <feGaussianBlur stdDeviation="0.25317996"/>
  </filter>
  <filter id="filter4275-5-6" x="-.052416" y="-.068347" width="1.1049" height="1.1363" color-interpolation-filters="sRGB">
   <feGaussianBlur stdDeviation="0.23960168"/>
  </filter>
  <filter id="filter4279-2-9" x="-.11335" y="-.10001" width="1.2268" height="1.1993" color-interpolation-filters="sRGB">
   <feGaussianBlur stdDeviation="0.45526606"/>
  </filter>
  <filter id="filter4267-7-3" x="-.068818" y="-.060717" width="1.1377" height="1.121" color-interpolation-filters="sRGB">
   <feGaussianBlur stdDeviation="0.26612002"/>
  </filter>
  <filter id="filter4271-8-1" x="-.066498" y="-.05867" width="1.1331" height="1.1169" color-interpolation-filters="sRGB">
   <feGaussianBlur stdDeviation="0.25317996"/>
  </filter>
  <filter id="filter4275-5-9" x="-.052416" y="-.068347" width="1.1049" height="1.1363" color-interpolation-filters="sRGB">
   <feGaussianBlur stdDeviation="0.23960168"/>
  </filter>
  <filter id="filter4279-2-90" x="-.11335" y="-.10001" width="1.2268" height="1.1993" color-interpolation-filters="sRGB">
   <feGaussianBlur stdDeviation="0.45526606"/>
  </filter>
  <filter id="filter4267-7-5-7" x="-.068818" y="-.060717" width="1.1377" height="1.121" color-interpolation-filters="sRGB">
   <feGaussianBlur stdDeviation="0.26612002"/>
  </filter>
  <filter id="filter4271-8-8-7" x="-.066498" y="-.05867" width="1.1331" height="1.1169" color-interpolation-filters="sRGB">
   <feGaussianBlur stdDeviation="0.25317996"/>
  </filter>
  <filter id="filter4275-5-6-0" x="-.052416" y="-.068347" width="1.1049" height="1.1363" color-interpolation-filters="sRGB">
   <feGaussianBlur stdDeviation="0.23960168"/>
  </filter>
  <filter id="filter4279-2-9-4" x="-.11335" y="-.10001" width="1.2268" height="1.1993" color-interpolation-filters="sRGB">
   <feGaussianBlur stdDeviation="0.45526606"/>
  </filter>
  <filter id="filter4267-7-5-7-4" x="-.068818" y="-.060717" width="1.1377" height="1.121" color-interpolation-filters="sRGB">
   <feGaussianBlur stdDeviation="0.26612002"/>
  </filter>
  <filter id="filter4271-8-8-7-8" x="-.066498" y="-.05867" width="1.1331" height="1.1169" color-interpolation-filters="sRGB">
   <feGaussianBlur stdDeviation="0.25317996"/>
  </filter>
  <filter id="filter4275-5-6-0-6" x="-.052416" y="-.068347" width="1.1049" height="1.1363" color-interpolation-filters="sRGB">
   <feGaussianBlur stdDeviation="0.23960168"/>
  </filter>
  <filter id="filter4279-2-9-4-3" x="-.11335" y="-.10001" width="1.2268" height="1.1993" color-interpolation-filters="sRGB">
   <feGaussianBlur stdDeviation="0.45526606"/>
  </filter>
  <filter id="filter4267-7-3-5" x="-.068818" y="-.060717" width="1.1377" height="1.121" color-interpolation-filters="sRGB">
   <feGaussianBlur stdDeviation="0.26612002"/>
  </filter>
  <filter id="filter4271-8-1-3" x="-.066498" y="-.05867" width="1.1331" height="1.1169" color-interpolation-filters="sRGB">
   <feGaussianBlur stdDeviation="0.25317996"/>
  </filter>
  <filter id="filter4275-5-9-6" x="-.052416" y="-.068347" width="1.1049" height="1.1363" color-interpolation-filters="sRGB">
   <feGaussianBlur stdDeviation="0.23960168"/>
  </filter>
  <filter id="filter4279-2-90-0" x="-.11335" y="-.10001" width="1.2268" height="1.1993" color-interpolation-filters="sRGB">
   <feGaussianBlur stdDeviation="0.45526606"/>
  </filter>
  <filter id="filter4267-7-5-1" x="-.068818" y="-.060717" width="1.1377" height="1.121" color-interpolation-filters="sRGB">
   <feGaussianBlur stdDeviation="0.26612002"/>
  </filter>
  <filter id="filter4271-8-8-2" x="-.066498" y="-.05867" width="1.1331" height="1.1169" color-interpolation-filters="sRGB">
   <feGaussianBlur stdDeviation="0.25317996"/>
  </filter>
  <filter id="filter4275-5-6-9" x="-.052416" y="-.068347" width="1.1049" height="1.1363" color-interpolation-filters="sRGB">
   <feGaussianBlur stdDeviation="0.23960168"/>
  </filter>
  <filter id="filter4279-2-9-9" x="-.11335" y="-.10001" width="1.2268" height="1.1993" color-interpolation-filters="sRGB">
   <feGaussianBlur stdDeviation="0.45526606"/>
  </filter>
  <filter id="filter4267-7-38" x="-.068818" y="-.060717" width="1.1377" height="1.121" color-interpolation-filters="sRGB">
   <feGaussianBlur stdDeviation="0.26612002"/>
  </filter>
  <filter id="filter4271-8-0" x="-.066498" y="-.05867" width="1.1331" height="1.1169" color-interpolation-filters="sRGB">
   <feGaussianBlur stdDeviation="0.25317996"/>
  </filter>
  <filter id="filter4275-5-69" x="-.052416" y="-.068347" width="1.1049" height="1.1363" color-interpolation-filters="sRGB">
   <feGaussianBlur stdDeviation="0.23960168"/>
  </filter>
  <filter id="filter4279-2-4" x="-.11335" y="-.10001" width="1.2268" height="1.1993" color-interpolation-filters="sRGB">
   <feGaussianBlur stdDeviation="0.45526606"/>
  </filter>
 </defs>
 <g transform="matrix(.50552 0 0 .50269 16.328 14.882)">
  <rect x="-32.295" y="-31.401" width="28.263" height="28.263" fill="none"/>
  <rect x="-32.034" y="-31.331" width="27.932" height="28.122" fill="url(#radialGradient4721-8)"/>
  <g transform="matrix(.97063 0 0 .97863 -31.851 -29.801)" fill="none" filter="url(#filter4267-7)" stroke-linejoin="round" style="mix-blend-mode:normal">
   <path d="m5.7771 1.1323c4.4077-5.122 6.2694 3.9711 6.9791 5.3825 2.7251 4.6165-2.2189 5.7002-4.1263 7.2302-2.1115 1.1943-2.4768 0.0654-4.0754-0.80336-2.6768-0.15548-2.4797-1.3669-3.5659-3.9364-0.64781-6.1968 2.588-7.5564 4.7885-7.8729z" stroke="#2a7fff" stroke-width=".56689"/>
   <path d="m5.4802 1.0334c4.506-4.9576 6.4092 3.8436 7.1347 5.2097 2.7859 4.4683-2.2684 5.5172-4.2183 6.9981-2.1586 1.1559-2.5321 0.0633-4.1662-0.77757-2.7364-0.15048-2.535-1.323-3.6455-3.8101-0.66226-5.9979 2.6457-7.3139 4.8953-7.6202z" stroke="#80b3ff" stroke-width=".5639"/>
   <path d="m5.1827 0.59807c4.5245-4.9612 6.4356 3.8464 7.164 5.2134 2.7973 4.4715-2.2777 5.5212-4.2356 7.0031-2.1675 1.1568-2.5425 0.06334-4.1834-0.77813-2.7477-0.15059-2.5454-1.324-3.6604-3.8128-0.66498-6.0022 2.6566-7.3191 4.9154-7.6256z" stroke="#acf" stroke-width=".56526"/>
  </g>
  <g transform="matrix(1.0401,0,0,1.009,-26.892,-39.656)" fill="none" filter="url(#filter4271-8)" stroke-linejoin="round" style="mix-blend-mode:normal">
   <path d="m13.478 10.868c4.4077-5.122 6.2694 3.9711 6.9791 5.3825 2.7251 4.6165-2.2189 5.7002-4.1263 7.2302-2.1115 1.1943-2.4768 0.0654-4.0754-0.80336-2.6768-0.15548-2.4797-1.3669-3.5659-3.9364-0.64781-6.1968 2.588-7.5564 4.7885-7.8729z" stroke="#2a7fff" stroke-width=".56689"/>
   <path d="m13.181 10.77c4.506-4.9576 6.4092 3.8436 7.1347 5.2097 2.7859 4.4683-2.2684 5.5172-4.2183 6.9981-2.1586 1.1559-2.5321 0.0633-4.1662-0.77757-2.7364-0.15048-2.535-1.323-3.6455-3.8101-0.66226-5.9979 2.6457-7.3139 4.8953-7.6202z" stroke="#80b3ff" stroke-width=".5639"/>
   <path d="m12.884 10.334c4.5245-4.9612 6.4356 3.8464 7.164 5.2134 2.7973 4.4715-2.2777 5.5212-4.2357 7.0031-2.1675 1.1568-2.5425 0.06334-4.1834-0.77813-2.7477-0.15059-2.5454-1.324-3.6604-3.8128-0.66498-6.0022 2.6566-7.3191 4.9154-7.6256z" stroke="#acf" stroke-width=".56526"/>
  </g>
  <g transform="matrix(1.0161,0,0,1.205,-34.528,-36.531)" filter="url(#filter4275-5)">
   <g transform="matrix(1.3714 0 0 .76225 -7.7088 9.4605)" fill="none" stroke-linejoin="round">
    <path d="m14.576 9.8705c4.4077-5.122 6.2694 3.9711 6.9791 5.3825 2.7251 4.6165-2.2189 5.7002-4.1263 7.2302-2.1115 1.1943-2.4768 0.0654-4.0754-0.80336-2.6768-0.15548-2.4797-1.3669-3.5659-3.9364-0.64781-6.1968 2.588-7.5564 4.7885-7.8729z" stroke="#2a7fff" stroke-width=".56689"/>
    <path d="m14.279 9.7715c4.506-4.9576 6.4092 3.8436 7.1347 5.2097 2.7859 4.4683-2.2684 5.5172-4.2183 6.9981-2.1586 1.1559-2.5321 0.0633-4.1662-0.77757-2.7364-0.15048-2.535-1.323-3.6455-3.8101-0.66226-5.9979 2.6457-7.3139 4.8953-7.6202z" stroke="#80b3ff" stroke-width=".5639"/>
    <path d="m13.981 9.3362c4.5245-4.9612 6.4356 3.8464 7.164 5.2134 2.7973 4.4715-2.2777 5.5212-4.2356 7.0031-2.1675 1.1568-2.5425 0.06334-4.1834-0.77813-2.7477-0.15059-2.5454-1.324-3.6604-3.8128-0.66498-6.0022 2.6566-7.3191 4.9154-7.6256z" stroke="#acf" stroke-width=".56526"/>
   </g>
  </g>
  <g transform="matrix(.4967 0 0 .68278 -15.226 -21.204)" fill="none" filter="url(#filter4279-2)" stroke-linejoin="round" stroke-width=".84953" style="mix-blend-mode:normal">
   <path d="m13.478 10.868c4.4077-5.122 6.2694 3.9711 6.9791 5.3825 2.7251 4.6165-2.2189 5.7002-4.1263 7.2302-2.1115 1.1943-2.4768 0.0654-4.0754-0.80336-2.6768-0.15548-2.4797-1.3669-3.5659-3.9364-0.64781-6.1968 2.588-7.5564 4.7885-7.8729z" stroke="#2a7fff"/>
   <path d="m13.181 10.77c4.506-4.9576 6.4092 3.8436 7.1347 5.2097 2.7859 4.4683-2.2684 5.5172-4.2183 6.9981-2.1586 1.1559-2.5321 0.0633-4.1662-0.77757-2.7364-0.15048-2.535-1.323-3.6455-3.8101-0.66226-5.9979 2.6457-7.3139 4.8953-7.6202z" stroke="#80b3ff"/>
   <path d="m12.884 10.334c4.5245-4.9612 6.4356 3.8464 7.164 5.2134 2.7973 4.4715-2.2777 5.5212-4.2357 7.0031-2.1675 1.1568-2.5425 0.06334-4.1834-0.77813-2.7477-0.15059-2.5454-1.324-3.6604-3.8128-0.66498-6.0022 2.6566-7.3191 4.9154-7.6256z" stroke="#acf"/>
  </g>
 </g>
 <g transform="matrix(.50552 0 0 .50269 30.399 14.89)">
  <rect x="-32.295" y="-31.401" width="28.263" height="28.263" fill="none"/>
  <rect x="-32.034" y="-31.331" width="27.932" height="28.122" fill="url(#radialGradient4721-8)"/>
  <g transform="matrix(.97063 0 0 .97863 -31.851 -29.801)" fill="none" filter="url(#filter4267-7-5)" stroke-linejoin="round" style="mix-blend-mode:normal">
   <path d="m5.7771 1.1323c4.4077-5.122 6.2694 3.9711 6.9791 5.3825 2.7251 4.6165-2.2189 5.7002-4.1263 7.2302-2.1115 1.1943-2.4768 0.0654-4.0754-0.80336-2.6768-0.15548-2.4797-1.3669-3.5659-3.9364-0.64781-6.1968 2.588-7.5564 4.7885-7.8729z" stroke="#2a7fff" stroke-width=".56689"/>
   <path d="m5.4802 1.0334c4.506-4.9576 6.4092 3.8436 7.1347 5.2097 2.7859 4.4683-2.2684 5.5172-4.2183 6.9981-2.1586 1.1559-2.5321 0.0633-4.1662-0.77757-2.7364-0.15048-2.535-1.323-3.6455-3.8101-0.66226-5.9979 2.6457-7.3139 4.8953-7.6202z" stroke="#80b3ff" stroke-width=".5639"/>
   <path d="m5.1827 0.59807c4.5245-4.9612 6.4356 3.8464 7.164 5.2134 2.7973 4.4715-2.2777 5.5212-4.2356 7.0031-2.1675 1.1568-2.5425 0.06334-4.1834-0.77813-2.7477-0.15059-2.5454-1.324-3.6604-3.8128-0.66498-6.0022 2.6566-7.3191 4.9154-7.6256z" stroke="#acf" stroke-width=".56526"/>
  </g>
  <g transform="matrix(1.0401,0,0,1.009,-26.892,-39.656)" fill="none" filter="url(#filter4271-8-8)" stroke-linejoin="round" style="mix-blend-mode:normal">
   <path d="m13.478 10.868c4.4077-5.122 6.2694 3.9711 6.9791 5.3825 2.7251 4.6165-2.2189 5.7002-4.1263 7.2302-2.1115 1.1943-2.4768 0.0654-4.0754-0.80336-2.6768-0.15548-2.4797-1.3669-3.5659-3.9364-0.64781-6.1968 2.588-7.5564 4.7885-7.8729z" stroke="#2a7fff" stroke-width=".56689"/>
   <path d="m13.181 10.77c4.506-4.9576 6.4092 3.8436 7.1347 5.2097 2.7859 4.4683-2.2684 5.5172-4.2183 6.9981-2.1586 1.1559-2.5321 0.0633-4.1662-0.77757-2.7364-0.15048-2.535-1.323-3.6455-3.8101-0.66226-5.9979 2.6457-7.3139 4.8953-7.6202z" stroke="#80b3ff" stroke-width=".5639"/>
   <path d="m12.884 10.334c4.5245-4.9612 6.4356 3.8464 7.164 5.2134 2.7973 4.4715-2.2777 5.5212-4.2357 7.0031-2.1675 1.1568-2.5425 0.06334-4.1834-0.77813-2.7477-0.15059-2.5454-1.324-3.6604-3.8128-0.66498-6.0022 2.6566-7.3191 4.9154-7.6256z" stroke="#acf" stroke-width=".56526"/>
  </g>
  <g transform="matrix(1.0161,0,0,1.205,-34.528,-36.531)" filter="url(#filter4275-5-6)">
   <g transform="matrix(1.3714 0 0 .76225 -7.7088 9.4605)" fill="none" stroke-linejoin="round">
    <path d="m14.576 9.8705c4.4077-5.122 6.2694 3.9711 6.9791 5.3825 2.7251 4.6165-2.2189 5.7002-4.1263 7.2302-2.1115 1.1943-2.4768 0.0654-4.0754-0.80336-2.6768-0.15548-2.4797-1.3669-3.5659-3.9364-0.64781-6.1968 2.588-7.5564 4.7885-7.8729z" stroke="#2a7fff" stroke-width=".56689"/>
    <path d="m14.279 9.7715c4.506-4.9576 6.4092 3.8436 7.1347 5.2097 2.7859 4.4683-2.2684 5.5172-4.2183 6.9981-2.1586 1.1559-2.5321 0.0633-4.1662-0.77757-2.7364-0.15048-2.535-1.323-3.6455-3.8101-0.66226-5.9979 2.6457-7.3139 4.8953-7.6202z" stroke="#80b3ff" stroke-width=".5639"/>
    <path d="m13.981 9.3362c4.5245-4.9612 6.4356 3.8464 7.164 5.2134 2.7973 4.4715-2.2777 5.5212-4.2356 7.0031-2.1675 1.1568-2.5425 0.06334-4.1834-0.77813-2.7477-0.15059-2.5454-1.324-3.6604-3.8128-0.66498-6.0022 2.6566-7.3191 4.9154-7.6256z" stroke="#acf" stroke-width=".56526"/>
   </g>
  </g>
  <g transform="matrix(.4967 0 0 .68278 -15.226 -21.204)" fill="none" filter="url(#filter4279-2-9)" stroke-linejoin="round" stroke-width=".84953" style="mix-blend-mode:normal">
   <path d="m13.478 10.868c4.4077-5.122 6.2694 3.9711 6.9791 5.3825 2.7251 4.6165-2.2189 5.7002-4.1263 7.2302-2.1115 1.1943-2.4768 0.0654-4.0754-0.80336-2.6768-0.15548-2.4797-1.3669-3.5659-3.9364-0.64781-6.1968 2.588-7.5564 4.7885-7.8729z" stroke="#2a7fff"/>
   <path d="m13.181 10.77c4.506-4.9576 6.4092 3.8436 7.1347 5.2097 2.7859 4.4683-2.2684 5.5172-4.2183 6.9981-2.1586 1.1559-2.5321 0.0633-4.1662-0.77757-2.7364-0.15048-2.535-1.323-3.6455-3.8101-0.66226-5.9979 2.6457-7.3139 4.8953-7.6202z" stroke="#80b3ff"/>
   <path d="m12.884 10.334c4.5245-4.9612 6.4356 3.8464 7.164 5.2134 2.7973 4.4715-2.2777 5.5212-4.2357 7.0031-2.1675 1.1568-2.5425 0.06334-4.1834-0.77813-2.7477-0.15059-2.5454-1.324-3.6604-3.8128-0.66498-6.0022 2.6566-7.3191 4.9154-7.6256z" stroke="#acf"/>
  </g>
 </g>
 <g transform="matrix(.50552 0 0 .50269 16.326 28.925)">
  <rect x="-32.295" y="-31.401" width="28.263" height="28.263" fill="none"/>
  <rect x="-32.034" y="-31.331" width="27.932" height="28.122" fill="url(#radialGradient4721-8)"/>
  <g transform="matrix(.97063 0 0 .97863 -31.851 -29.801)" fill="none" filter="url(#filter4267-7-3)" stroke-linejoin="round" style="mix-blend-mode:normal">
   <path d="m5.7771 1.1323c4.4077-5.122 6.2694 3.9711 6.9791 5.3825 2.7251 4.6165-2.2189 5.7002-4.1263 7.2302-2.1115 1.1943-2.4768 0.0654-4.0754-0.80336-2.6768-0.15548-2.4797-1.3669-3.5659-3.9364-0.64781-6.1968 2.588-7.5564 4.7885-7.8729z" stroke="#2a7fff" stroke-width=".56689"/>
   <path d="m5.4802 1.0334c4.506-4.9576 6.4092 3.8436 7.1347 5.2097 2.7859 4.4683-2.2684 5.5172-4.2183 6.9981-2.1586 1.1559-2.5321 0.0633-4.1662-0.77757-2.7364-0.15048-2.535-1.323-3.6455-3.8101-0.66226-5.9979 2.6457-7.3139 4.8953-7.6202z" stroke="#80b3ff" stroke-width=".5639"/>
   <path d="m5.1827 0.59807c4.5245-4.9612 6.4356 3.8464 7.164 5.2134 2.7973 4.4715-2.2777 5.5212-4.2356 7.0031-2.1675 1.1568-2.5425 0.06334-4.1834-0.77813-2.7477-0.15059-2.5454-1.324-3.6604-3.8128-0.66498-6.0022 2.6566-7.3191 4.9154-7.6256z" stroke="#acf" stroke-width=".56526"/>
  </g>
  <g transform="matrix(1.0401,0,0,1.009,-26.892,-39.656)" fill="none" filter="url(#filter4271-8-1)" stroke-linejoin="round" style="mix-blend-mode:normal">
   <path d="m13.478 10.868c4.4077-5.122 6.2694 3.9711 6.9791 5.3825 2.7251 4.6165-2.2189 5.7002-4.1263 7.2302-2.1115 1.1943-2.4768 0.0654-4.0754-0.80336-2.6768-0.15548-2.4797-1.3669-3.5659-3.9364-0.64781-6.1968 2.588-7.5564 4.7885-7.8729z" stroke="#2a7fff" stroke-width=".56689"/>
   <path d="m13.181 10.77c4.506-4.9576 6.4092 3.8436 7.1347 5.2097 2.7859 4.4683-2.2684 5.5172-4.2183 6.9981-2.1586 1.1559-2.5321 0.0633-4.1662-0.77757-2.7364-0.15048-2.535-1.323-3.6455-3.8101-0.66226-5.9979 2.6457-7.3139 4.8953-7.6202z" stroke="#80b3ff" stroke-width=".5639"/>
   <path d="m12.884 10.334c4.5245-4.9612 6.4356 3.8464 7.164 5.2134 2.7973 4.4715-2.2777 5.5212-4.2357 7.0031-2.1675 1.1568-2.5425 0.06334-4.1834-0.77813-2.7477-0.15059-2.5454-1.324-3.6604-3.8128-0.66498-6.0022 2.6566-7.3191 4.9154-7.6256z" stroke="#acf" stroke-width=".56526"/>
  </g>
  <g transform="matrix(1.0161,0,0,1.205,-34.528,-36.531)" filter="url(#filter4275-5-9)">
   <g transform="matrix(1.3714 0 0 .76225 -7.7088 9.4605)" fill="none" stroke-linejoin="round">
    <path d="m14.576 9.8705c4.4077-5.122 6.2694 3.9711 6.9791 5.3825 2.7251 4.6165-2.2189 5.7002-4.1263 7.2302-2.1115 1.1943-2.4768 0.0654-4.0754-0.80336-2.6768-0.15548-2.4797-1.3669-3.5659-3.9364-0.64781-6.1968 2.588-7.5564 4.7885-7.8729z" stroke="#2a7fff" stroke-width=".56689"/>
    <path d="m14.279 9.7715c4.506-4.9576 6.4092 3.8436 7.1347 5.2097 2.7859 4.4683-2.2684 5.5172-4.2183 6.9981-2.1586 1.1559-2.5321 0.0633-4.1662-0.77757-2.7364-0.15048-2.535-1.323-3.6455-3.8101-0.66226-5.9979 2.6457-7.3139 4.8953-7.6202z" stroke="#80b3ff" stroke-width=".5639"/>
    <path d="m13.981 9.3362c4.5245-4.9612 6.4356 3.8464 7.164 5.2134 2.7973 4.4715-2.2777 5.5212-4.2356 7.0031-2.1675 1.1568-2.5425 0.06334-4.1834-0.77813-2.7477-0.15059-2.5454-1.324-3.6604-3.8128-0.66498-6.0022 2.6566-7.3191 4.9154-7.6256z" stroke="#acf" stroke-width=".56526"/>
   </g>
  </g>
  <g transform="matrix(.4967 0 0 .68278 -15.226 -21.204)" fill="none" filter="url(#filter4279-2-90)" stroke-linejoin="round" stroke-width=".84953" style="mix-blend-mode:normal">
   <path d="m13.478 10.868c4.4077-5.122 6.2694 3.9711 6.9791 5.3825 2.7251 4.6165-2.2189 5.7002-4.1263 7.2302-2.1115 1.1943-2.4768 0.0654-4.0754-0.80336-2.6768-0.15548-2.4797-1.3669-3.5659-3.9364-0.64781-6.1968 2.588-7.5564 4.7885-7.8729z" stroke="#2a7fff"/>
   <path d="m13.181 10.77c4.506-4.9576 6.4092 3.8436 7.1347 5.2097 2.7859 4.4683-2.2684 5.5172-4.2183 6.9981-2.1586 1.1559-2.5321 0.0633-4.1662-0.77757-2.7364-0.15048-2.535-1.323-3.6455-3.8101-0.66226-5.9979 2.6457-7.3139 4.8953-7.6202z" stroke="#80b3ff"/>
   <path d="m12.884 10.334c4.5245-4.9612 6.4356 3.8464 7.164 5.2134 2.7973 4.4715-2.2777 5.5212-4.2357 7.0031-2.1675 1.1568-2.5425 0.06334-4.1834-0.77813-2.7477-0.15059-2.5454-1.324-3.6604-3.8128-0.66498-6.0022 2.6566-7.3191 4.9154-7.6256z" stroke="#acf"/>
  </g>
 </g>
 <g transform="matrix(.50552 0 0 .50269 30.396 28.933)">
  <rect x="-32.295" y="-31.401" width="28.263" height="28.263" fill="none"/>
  <rect x="-32.034" y="-31.331" width="27.932" height="28.122" fill="url(#radialGradient4721-8)"/>
  <g transform="matrix(.97063 0 0 .97863 -31.851 -29.801)" fill="none" filter="url(#filter4267-7-5-7)" stroke-linejoin="round" style="mix-blend-mode:normal">
   <path d="m5.7771 1.1323c4.4077-5.122 6.2694 3.9711 6.9791 5.3825 2.7251 4.6165-2.2189 5.7002-4.1263 7.2302-2.1115 1.1943-2.4768 0.0654-4.0754-0.80336-2.6768-0.15548-2.4797-1.3669-3.5659-3.9364-0.64781-6.1968 2.588-7.5564 4.7885-7.8729z" stroke="#2a7fff" stroke-width=".56689"/>
   <path d="m5.4802 1.0334c4.506-4.9576 6.4092 3.8436 7.1347 5.2097 2.7859 4.4683-2.2684 5.5172-4.2183 6.9981-2.1586 1.1559-2.5321 0.0633-4.1662-0.77757-2.7364-0.15048-2.535-1.323-3.6455-3.8101-0.66226-5.9979 2.6457-7.3139 4.8953-7.6202z" stroke="#80b3ff" stroke-width=".5639"/>
   <path d="m5.1827 0.59807c4.5245-4.9612 6.4356 3.8464 7.164 5.2134 2.7973 4.4715-2.2777 5.5212-4.2356 7.0031-2.1675 1.1568-2.5425 0.06334-4.1834-0.77813-2.7477-0.15059-2.5454-1.324-3.6604-3.8128-0.66498-6.0022 2.6566-7.3191 4.9154-7.6256z" stroke="#acf" stroke-width=".56526"/>
  </g>
  <g transform="matrix(1.0401,0,0,1.009,-26.892,-39.656)" fill="none" filter="url(#filter4271-8-8-7)" stroke-linejoin="round" style="mix-blend-mode:normal">
   <path d="m13.478 10.868c4.4077-5.122 6.2694 3.9711 6.9791 5.3825 2.7251 4.6165-2.2189 5.7002-4.1263 7.2302-2.1115 1.1943-2.4768 0.0654-4.0754-0.80336-2.6768-0.15548-2.4797-1.3669-3.5659-3.9364-0.64781-6.1968 2.588-7.5564 4.7885-7.8729z" stroke="#2a7fff" stroke-width=".56689"/>
   <path d="m13.181 10.77c4.506-4.9576 6.4092 3.8436 7.1347 5.2097 2.7859 4.4683-2.2684 5.5172-4.2183 6.9981-2.1586 1.1559-2.5321 0.0633-4.1662-0.77757-2.7364-0.15048-2.535-1.323-3.6455-3.8101-0.66226-5.9979 2.6457-7.3139 4.8953-7.6202z" stroke="#80b3ff" stroke-width=".5639"/>
   <path d="m12.884 10.334c4.5245-4.9612 6.4356 3.8464 7.164 5.2134 2.7973 4.4715-2.2777 5.5212-4.2357 7.0031-2.1675 1.1568-2.5425 0.06334-4.1834-0.77813-2.7477-0.15059-2.5454-1.324-3.6604-3.8128-0.66498-6.0022 2.6566-7.3191 4.9154-7.6256z" stroke="#acf" stroke-width=".56526"/>
  </g>
  <g transform="matrix(1.0161,0,0,1.205,-34.528,-36.531)" filter="url(#filter4275-5-6-0)">
   <g transform="matrix(1.3714 0 0 .76225 -7.7088 9.4605)" fill="none" stroke-linejoin="round">
    <path d="m14.576 9.8705c4.4077-5.122 6.2694 3.9711 6.9791 5.3825 2.7251 4.6165-2.2189 5.7002-4.1263 7.2302-2.1115 1.1943-2.4768 0.0654-4.0754-0.80336-2.6768-0.15548-2.4797-1.3669-3.5659-3.9364-0.64781-6.1968 2.588-7.5564 4.7885-7.8729z" stroke="#2a7fff" stroke-width=".56689"/>
    <path d="m14.279 9.7715c4.506-4.9576 6.4092 3.8436 7.1347 5.2097 2.7859 4.4683-2.2684 5.5172-4.2183 6.9981-2.1586 1.1559-2.5321 0.0633-4.1662-0.77757-2.7364-0.15048-2.535-1.323-3.6455-3.8101-0.66226-5.9979 2.6457-7.3139 4.8953-7.6202z" stroke="#80b3ff" stroke-width=".5639"/>
    <path d="m13.981 9.3362c4.5245-4.9612 6.4356 3.8464 7.164 5.2134 2.7973 4.4715-2.2777 5.5212-4.2356 7.0031-2.1675 1.1568-2.5425 0.06334-4.1834-0.77813-2.7477-0.15059-2.5454-1.324-3.6604-3.8128-0.66498-6.0022 2.6566-7.3191 4.9154-7.6256z" stroke="#acf" stroke-width=".56526"/>
   </g>
  </g>
  <g transform="matrix(.4967 0 0 .68278 -15.226 -21.204)" fill="none" filter="url(#filter4279-2-9-4)" stroke-linejoin="round" stroke-width=".84953" style="mix-blend-mode:normal">
   <path d="m13.478 10.868c4.4077-5.122 6.2694 3.9711 6.9791 5.3825 2.7251 4.6165-2.2189 5.7002-4.1263 7.2302-2.1115 1.1943-2.4768 0.0654-4.0754-0.80336-2.6768-0.15548-2.4797-1.3669-3.5659-3.9364-0.64781-6.1968 2.588-7.5564 4.7885-7.8729z" stroke="#2a7fff"/>
   <path d="m13.181 10.77c4.506-4.9576 6.4092 3.8436 7.1347 5.2097 2.7859 4.4683-2.2684 5.5172-4.2183 6.9981-2.1586 1.1559-2.5321 0.0633-4.1662-0.77757-2.7364-0.15048-2.535-1.323-3.6455-3.8101-0.66226-5.9979 2.6457-7.3139 4.8953-7.6202z" stroke="#80b3ff"/>
   <path d="m12.884 10.334c4.5245-4.9612 6.4356 3.8464 7.164 5.2134 2.7973 4.4715-2.2777 5.5212-4.2357 7.0031-2.1675 1.1568-2.5425 0.06334-4.1834-0.77813-2.7477-0.15059-2.5454-1.324-3.6604-3.8128-0.66498-6.0022 2.6566-7.3191 4.9154-7.6256z" stroke="#acf"/>
  </g>
 </g>
 <g transform="matrix(.50552 0 0 .50269 44.494 14.888)">
  <rect x="-32.295" y="-31.401" width="28.263" height="28.263" fill="none"/>
  <rect x="-32.034" y="-31.331" width="27.932" height="28.122" fill="url(#radialGradient4721-8)"/>
  <g transform="matrix(.97063 0 0 .97863 -31.851 -29.801)" fill="none" filter="url(#filter4267-7-38)" stroke-linejoin="round" style="mix-blend-mode:normal">
   <path d="m5.7771 1.1323c4.4077-5.122 6.2694 3.9711 6.9791 5.3825 2.7251 4.6165-2.2189 5.7002-4.1263 7.2302-2.1115 1.1943-2.4768 0.0654-4.0754-0.80336-2.6768-0.15548-2.4797-1.3669-3.5659-3.9364-0.64781-6.1968 2.588-7.5564 4.7885-7.8729z" stroke="#2a7fff" stroke-width=".56689"/>
   <path d="m5.4802 1.0334c4.506-4.9576 6.4092 3.8436 7.1347 5.2097 2.7859 4.4683-2.2684 5.5172-4.2183 6.9981-2.1586 1.1559-2.5321 0.0633-4.1662-0.77757-2.7364-0.15048-2.535-1.323-3.6455-3.8101-0.66226-5.9979 2.6457-7.3139 4.8953-7.6202z" stroke="#80b3ff" stroke-width=".5639"/>
   <path d="m5.1827 0.59807c4.5245-4.9612 6.4356 3.8464 7.164 5.2134 2.7973 4.4715-2.2777 5.5212-4.2356 7.0031-2.1675 1.1568-2.5425 0.06334-4.1834-0.77813-2.7477-0.15059-2.5454-1.324-3.6604-3.8128-0.66498-6.0022 2.6566-7.3191 4.9154-7.6256z" stroke="#acf" stroke-width=".56526"/>
  </g>
  <g transform="matrix(1.0401,0,0,1.009,-26.892,-39.656)" fill="none" filter="url(#filter4271-8-0)" stroke-linejoin="round" style="mix-blend-mode:normal">
   <path d="m13.478 10.868c4.4077-5.122 6.2694 3.9711 6.9791 5.3825 2.7251 4.6165-2.2189 5.7002-4.1263 7.2302-2.1115 1.1943-2.4768 0.0654-4.0754-0.80336-2.6768-0.15548-2.4797-1.3669-3.5659-3.9364-0.64781-6.1968 2.588-7.5564 4.7885-7.8729z" stroke="#2a7fff" stroke-width=".56689"/>
   <path d="m13.181 10.77c4.506-4.9576 6.4092 3.8436 7.1347 5.2097 2.7859 4.4683-2.2684 5.5172-4.2183 6.9981-2.1586 1.1559-2.5321 0.0633-4.1662-0.77757-2.7364-0.15048-2.535-1.323-3.6455-3.8101-0.66226-5.9979 2.6457-7.3139 4.8953-7.6202z" stroke="#80b3ff" stroke-width=".5639"/>
   <path d="m12.884 10.334c4.5245-4.9612 6.4356 3.8464 7.164 5.2134 2.7973 4.4715-2.2777 5.5212-4.2357 7.0031-2.1675 1.1568-2.5425 0.06334-4.1834-0.77813-2.7477-0.15059-2.5454-1.324-3.6604-3.8128-0.66498-6.0022 2.6566-7.3191 4.9154-7.6256z" stroke="#acf" stroke-width=".56526"/>
  </g>
  <g transform="matrix(1.0161,0,0,1.205,-34.528,-36.531)" filter="url(#filter4275-5-69)">
   <g transform="matrix(1.3714 0 0 .76225 -7.7088 9.4605)" fill="none" stroke-linejoin="round">
    <path d="m14.576 9.8705c4.4077-5.122 6.2694 3.9711 6.9791 5.3825 2.7251 4.6165-2.2189 5.7002-4.1263 7.2302-2.1115 1.1943-2.4768 0.0654-4.0754-0.80336-2.6768-0.15548-2.4797-1.3669-3.5659-3.9364-0.64781-6.1968 2.588-7.5564 4.7885-7.8729z" stroke="#2a7fff" stroke-width=".56689"/>
    <path d="m14.279 9.7715c4.506-4.9576 6.4092 3.8436 7.1347 5.2097 2.7859 4.4683-2.2684 5.5172-4.2183 6.9981-2.1586 1.1559-2.5321 0.0633-4.1662-0.77757-2.7364-0.15048-2.535-1.323-3.6455-3.8101-0.66226-5.9979 2.6457-7.3139 4.8953-7.6202z" stroke="#80b3ff" stroke-width=".5639"/>
    <path d="m13.981 9.3362c4.5245-4.9612 6.4356 3.8464 7.164 5.2134 2.7973 4.4715-2.2777 5.5212-4.2356 7.0031-2.1675 1.1568-2.5425 0.06334-4.1834-0.77813-2.7477-0.15059-2.5454-1.324-3.6604-3.8128-0.66498-6.0022 2.6566-7.3191 4.9154-7.6256z" stroke="#acf" stroke-width=".56526"/>
   </g>
  </g>
  <g transform="matrix(.4967 0 0 .68278 -15.226 -21.204)" fill="none" filter="url(#filter4279-2-4)" stroke-linejoin="round" stroke-width=".84953" style="mix-blend-mode:normal">
   <path d="m13.478 10.868c4.4077-5.122 6.2694 3.9711 6.9791 5.3825 2.7251 4.6165-2.2189 5.7002-4.1263 7.2302-2.1115 1.1943-2.4768 0.0654-4.0754-0.80336-2.6768-0.15548-2.4797-1.3669-3.5659-3.9364-0.64781-6.1968 2.588-7.5564 4.7885-7.8729z" stroke="#2a7fff"/>
   <path d="m13.181 10.77c4.506-4.9576 6.4092 3.8436 7.1347 5.2097 2.7859 4.4683-2.2684 5.5172-4.2183 6.9981-2.1586 1.1559-2.5321 0.0633-4.1662-0.77757-2.7364-0.15048-2.535-1.323-3.6455-3.8101-0.66226-5.9979 2.6457-7.3139 4.8953-7.6202z" stroke="#80b3ff"/>
   <path d="m12.884 10.334c4.5245-4.9612 6.4356 3.8464 7.164 5.2134 2.7973 4.4715-2.2777 5.5212-4.2357 7.0031-2.1675 1.1568-2.5425 0.06334-4.1834-0.77813-2.7477-0.15059-2.5454-1.324-3.6604-3.8128-0.66498-6.0022 2.6566-7.3191 4.9154-7.6256z" stroke="#acf"/>
  </g>
 </g>
 <g transform="matrix(.50552 0 0 .50269 58.564 14.895)">
  <rect x="-32.295" y="-31.401" width="28.263" height="28.263" fill="none"/>
  <rect x="-32.034" y="-31.331" width="27.932" height="28.122" fill="url(#radialGradient4721-8)"/>
  <g transform="matrix(.97063 0 0 .97863 -31.851 -29.801)" fill="none" filter="url(#filter4267-7-5-1)" stroke-linejoin="round" style="mix-blend-mode:normal">
   <path d="m5.7771 1.1323c4.4077-5.122 6.2694 3.9711 6.9791 5.3825 2.7251 4.6165-2.2189 5.7002-4.1263 7.2302-2.1115 1.1943-2.4768 0.0654-4.0754-0.80336-2.6768-0.15548-2.4797-1.3669-3.5659-3.9364-0.64781-6.1968 2.588-7.5564 4.7885-7.8729z" stroke="#2a7fff" stroke-width=".56689"/>
   <path d="m5.4802 1.0334c4.506-4.9576 6.4092 3.8436 7.1347 5.2097 2.7859 4.4683-2.2684 5.5172-4.2183 6.9981-2.1586 1.1559-2.5321 0.0633-4.1662-0.77757-2.7364-0.15048-2.535-1.323-3.6455-3.8101-0.66226-5.9979 2.6457-7.3139 4.8953-7.6202z" stroke="#80b3ff" stroke-width=".5639"/>
   <path d="m5.1827 0.59807c4.5245-4.9612 6.4356 3.8464 7.164 5.2134 2.7973 4.4715-2.2777 5.5212-4.2356 7.0031-2.1675 1.1568-2.5425 0.06334-4.1834-0.77813-2.7477-0.15059-2.5454-1.324-3.6604-3.8128-0.66498-6.0022 2.6566-7.3191 4.9154-7.6256z" stroke="#acf" stroke-width=".56526"/>
  </g>
  <g transform="matrix(1.0401,0,0,1.009,-26.892,-39.656)" fill="none" filter="url(#filter4271-8-8-2)" stroke-linejoin="round" style="mix-blend-mode:normal">
   <path d="m13.478 10.868c4.4077-5.122 6.2694 3.9711 6.9791 5.3825 2.7251 4.6165-2.2189 5.7002-4.1263 7.2302-2.1115 1.1943-2.4768 0.0654-4.0754-0.80336-2.6768-0.15548-2.4797-1.3669-3.5659-3.9364-0.64781-6.1968 2.588-7.5564 4.7885-7.8729z" stroke="#2a7fff" stroke-width=".56689"/>
   <path d="m13.181 10.77c4.506-4.9576 6.4092 3.8436 7.1347 5.2097 2.7859 4.4683-2.2684 5.5172-4.2183 6.9981-2.1586 1.1559-2.5321 0.0633-4.1662-0.77757-2.7364-0.15048-2.535-1.323-3.6455-3.8101-0.66226-5.9979 2.6457-7.3139 4.8953-7.6202z" stroke="#80b3ff" stroke-width=".5639"/>
   <path d="m12.884 10.334c4.5245-4.9612 6.4356 3.8464 7.164 5.2134 2.7973 4.4715-2.2777 5.5212-4.2357 7.0031-2.1675 1.1568-2.5425 0.06334-4.1834-0.77813-2.7477-0.15059-2.5454-1.324-3.6604-3.8128-0.66498-6.0022 2.6566-7.3191 4.9154-7.6256z" stroke="#acf" stroke-width=".56526"/>
  </g>
  <g transform="matrix(1.0161,0,0,1.205,-34.528,-36.531)" filter="url(#filter4275-5-6-9)">
   <g transform="matrix(1.3714 0 0 .76225 -7.7088 9.4605)" fill="none" stroke-linejoin="round">
    <path d="m14.576 9.8705c4.4077-5.122 6.2694 3.9711 6.9791 5.3825 2.7251 4.6165-2.2189 5.7002-4.1263 7.2302-2.1115 1.1943-2.4768 0.0654-4.0754-0.80336-2.6768-0.15548-2.4797-1.3669-3.5659-3.9364-0.64781-6.1968 2.588-7.5564 4.7885-7.8729z" stroke="#2a7fff" stroke-width=".56689"/>
    <path d="m14.279 9.7715c4.506-4.9576 6.4092 3.8436 7.1347 5.2097 2.7859 4.4683-2.2684 5.5172-4.2183 6.9981-2.1586 1.1559-2.5321 0.0633-4.1662-0.77757-2.7364-0.15048-2.535-1.323-3.6455-3.8101-0.66226-5.9979 2.6457-7.3139 4.8953-7.6202z" stroke="#80b3ff" stroke-width=".5639"/>
    <path d="m13.981 9.3362c4.5245-4.9612 6.4356 3.8464 7.164 5.2134 2.7973 4.4715-2.2777 5.5212-4.2356 7.0031-2.1675 1.1568-2.5425 0.06334-4.1834-0.77813-2.7477-0.15059-2.5454-1.324-3.6604-3.8128-0.66498-6.0022 2.6566-7.3191 4.9154-7.6256z" stroke="#acf" stroke-width=".56526"/>
   </g>
  </g>
  <g transform="matrix(.4967 0 0 .68278 -15.226 -21.204)" fill="none" filter="url(#filter4279-2-9-9)" stroke-linejoin="round" stroke-width=".84953" style="mix-blend-mode:normal">
   <path d="m13.478 10.868c4.4077-5.122 6.2694 3.9711 6.9791 5.3825 2.7251 4.6165-2.2189 5.7002-4.1263 7.2302-2.1115 1.1943-2.4768 0.0654-4.0754-0.80336-2.6768-0.15548-2.4797-1.3669-3.5659-3.9364-0.64781-6.1968 2.588-7.5564 4.7885-7.8729z" stroke="#2a7fff"/>
   <path d="m13.181 10.77c4.506-4.9576 6.4092 3.8436 7.1347 5.2097 2.7859 4.4683-2.2684 5.5172-4.2183 6.9981-2.1586 1.1559-2.5321 0.0633-4.1662-0.77757-2.7364-0.15048-2.535-1.323-3.6455-3.8101-0.66226-5.9979 2.6457-7.3139 4.8953-7.6202z" stroke="#80b3ff"/>
   <path d="m12.884 10.334c4.5245-4.9612 6.4356 3.8464 7.164 5.2134 2.7973 4.4715-2.2777 5.5212-4.2357 7.0031-2.1675 1.1568-2.5425 0.06334-4.1834-0.77813-2.7477-0.15059-2.5454-1.324-3.6604-3.8128-0.66498-6.0022 2.6566-7.3191 4.9154-7.6256z" stroke="#acf"/>
  </g>
 </g>
 <g transform="matrix(.50552 0 0 .50269 44.492 28.931)">
  <rect x="-32.295" y="-31.401" width="28.263" height="28.263" fill="none"/>
  <rect x="-32.034" y="-31.331" width="27.932" height="28.122" fill="url(#radialGradient4721-8)"/>
  <g transform="matrix(.97063 0 0 .97863 -31.851 -29.801)" fill="none" filter="url(#filter4267-7-3-5)" stroke-linejoin="round" style="mix-blend-mode:normal">
   <path d="m5.7771 1.1323c4.4077-5.122 6.2694 3.9711 6.9791 5.3825 2.7251 4.6165-2.2189 5.7002-4.1263 7.2302-2.1115 1.1943-2.4768 0.0654-4.0754-0.80336-2.6768-0.15548-2.4797-1.3669-3.5659-3.9364-0.64781-6.1968 2.588-7.5564 4.7885-7.8729z" stroke="#2a7fff" stroke-width=".56689"/>
   <path d="m5.4802 1.0334c4.506-4.9576 6.4092 3.8436 7.1347 5.2097 2.7859 4.4683-2.2684 5.5172-4.2183 6.9981-2.1586 1.1559-2.5321 0.0633-4.1662-0.77757-2.7364-0.15048-2.535-1.323-3.6455-3.8101-0.66226-5.9979 2.6457-7.3139 4.8953-7.6202z" stroke="#80b3ff" stroke-width=".5639"/>
   <path d="m5.1827 0.59807c4.5245-4.9612 6.4356 3.8464 7.164 5.2134 2.7973 4.4715-2.2777 5.5212-4.2356 7.0031-2.1675 1.1568-2.5425 0.06334-4.1834-0.77813-2.7477-0.15059-2.5454-1.324-3.6604-3.8128-0.66498-6.0022 2.6566-7.3191 4.9154-7.6256z" stroke="#acf" stroke-width=".56526"/>
  </g>
  <g transform="matrix(1.0401,0,0,1.009,-26.892,-39.656)" fill="none" filter="url(#filter4271-8-1-3)" stroke-linejoin="round" style="mix-blend-mode:normal">
   <path d="m13.478 10.868c4.4077-5.122 6.2694 3.9711 6.9791 5.3825 2.7251 4.6165-2.2189 5.7002-4.1263 7.2302-2.1115 1.1943-2.4768 0.0654-4.0754-0.80336-2.6768-0.15548-2.4797-1.3669-3.5659-3.9364-0.64781-6.1968 2.588-7.5564 4.7885-7.8729z" stroke="#2a7fff" stroke-width=".56689"/>
   <path d="m13.181 10.77c4.506-4.9576 6.4092 3.8436 7.1347 5.2097 2.7859 4.4683-2.2684 5.5172-4.2183 6.9981-2.1586 1.1559-2.5321 0.0633-4.1662-0.77757-2.7364-0.15048-2.535-1.323-3.6455-3.8101-0.66226-5.9979 2.6457-7.3139 4.8953-7.6202z" stroke="#80b3ff" stroke-width=".5639"/>
   <path d="m12.884 10.334c4.5245-4.9612 6.4356 3.8464 7.164 5.2134 2.7973 4.4715-2.2777 5.5212-4.2357 7.0031-2.1675 1.1568-2.5425 0.06334-4.1834-0.77813-2.7477-0.15059-2.5454-1.324-3.6604-3.8128-0.66498-6.0022 2.6566-7.3191 4.9154-7.6256z" stroke="#acf" stroke-width=".56526"/>
  </g>
  <g transform="matrix(1.0161,0,0,1.205,-34.528,-36.531)" filter="url(#filter4275-5-9-6)">
   <g transform="matrix(1.3714 0 0 .76225 -7.7088 9.4605)" fill="none" stroke-linejoin="round">
    <path d="m14.576 9.8705c4.4077-5.122 6.2694 3.9711 6.9791 5.3825 2.7251 4.6165-2.2189 5.7002-4.1263 7.2302-2.1115 1.1943-2.4768 0.0654-4.0754-0.80336-2.6768-0.15548-2.4797-1.3669-3.5659-3.9364-0.64781-6.1968 2.588-7.5564 4.7885-7.8729z" stroke="#2a7fff" stroke-width=".56689"/>
    <path d="m14.279 9.7715c4.506-4.9576 6.4092 3.8436 7.1347 5.2097 2.7859 4.4683-2.2684 5.5172-4.2183 6.9981-2.1586 1.1559-2.5321 0.0633-4.1662-0.77757-2.7364-0.15048-2.535-1.323-3.6455-3.8101-0.66226-5.9979 2.6457-7.3139 4.8953-7.6202z" stroke="#80b3ff" stroke-width=".5639"/>
    <path d="m13.981 9.3362c4.5245-4.9612 6.4356 3.8464 7.164 5.2134 2.7973 4.4715-2.2777 5.5212-4.2356 7.0031-2.1675 1.1568-2.5425 0.06334-4.1834-0.77813-2.7477-0.15059-2.5454-1.324-3.6604-3.8128-0.66498-6.0022 2.6566-7.3191 4.9154-7.6256z" stroke="#acf" stroke-width=".56526"/>
   </g>
  </g>
  <g transform="matrix(.4967 0 0 .68278 -15.226 -21.204)" fill="none" filter="url(#filter4279-2-90-0)" stroke-linejoin="round" stroke-width=".84953" style="mix-blend-mode:normal">
   <path d="m13.478 10.868c4.4077-5.122 6.2694 3.9711 6.9791 5.3825 2.7251 4.6165-2.2189 5.7002-4.1263 7.2302-2.1115 1.1943-2.4768 0.0654-4.0754-0.80336-2.6768-0.15548-2.4797-1.3669-3.5659-3.9364-0.64781-6.1968 2.588-7.5564 4.7885-7.8729z" stroke="#2a7fff"/>
   <path d="m13.181 10.77c4.506-4.9576 6.4092 3.8436 7.1347 5.2097 2.7859 4.4683-2.2684 5.5172-4.2183 6.9981-2.1586 1.1559-2.5321 0.0633-4.1662-0.77757-2.7364-0.15048-2.535-1.323-3.6455-3.8101-0.66226-5.9979 2.6457-7.3139 4.8953-7.6202z" stroke="#80b3ff"/>
   <path d="m12.884 10.334c4.5245-4.9612 6.4356 3.8464 7.164 5.2134 2.7973 4.4715-2.2777 5.5212-4.2357 7.0031-2.1675 1.1568-2.5425 0.06334-4.1834-0.77813-2.7477-0.15059-2.5454-1.324-3.6604-3.8128-0.66498-6.0022 2.6566-7.3191 4.9154-7.6256z" stroke="#acf"/>
  </g>
 </g>
 <g transform="matrix(.50552 0 0 .50269 58.562 28.938)">
  <rect x="-32.295" y="-31.401" width="28.263" height="28.263" fill="none"/>
  <rect x="-32.034" y="-31.331" width="27.932" height="28.122" fill="url(#radialGradient4721-8)"/>
  <g transform="matrix(.97063 0 0 .97863 -31.851 -29.801)" fill="none" filter="url(#filter4267-7-5-7-4)" stroke-linejoin="round" style="mix-blend-mode:normal">
   <path d="m5.7771 1.1323c4.4077-5.122 6.2694 3.9711 6.9791 5.3825 2.7251 4.6165-2.2189 5.7002-4.1263 7.2302-2.1115 1.1943-2.4768 0.0654-4.0754-0.80336-2.6768-0.15548-2.4797-1.3669-3.5659-3.9364-0.64781-6.1968 2.588-7.5564 4.7885-7.8729z" stroke="#2a7fff" stroke-width=".56689"/>
   <path d="m5.4802 1.0334c4.506-4.9576 6.4092 3.8436 7.1347 5.2097 2.7859 4.4683-2.2684 5.5172-4.2183 6.9981-2.1586 1.1559-2.5321 0.0633-4.1662-0.77757-2.7364-0.15048-2.535-1.323-3.6455-3.8101-0.66226-5.9979 2.6457-7.3139 4.8953-7.6202z" stroke="#80b3ff" stroke-width=".5639"/>
   <path d="m5.1827 0.59807c4.5245-4.9612 6.4356 3.8464 7.164 5.2134 2.7973 4.4715-2.2777 5.5212-4.2356 7.0031-2.1675 1.1568-2.5425 0.06334-4.1834-0.77813-2.7477-0.15059-2.5454-1.324-3.6604-3.8128-0.66498-6.0022 2.6566-7.3191 4.9154-7.6256z" stroke="#acf" stroke-width=".56526"/>
  </g>
  <g transform="matrix(1.0401,0,0,1.009,-26.892,-39.656)" fill="none" filter="url(#filter4271-8-8-7-8)" stroke-linejoin="round" style="mix-blend-mode:normal">
   <path d="m13.478 10.868c4.4077-5.122 6.2694 3.9711 6.9791 5.3825 2.7251 4.6165-2.2189 5.7002-4.1263 7.2302-2.1115 1.1943-2.4768 0.0654-4.0754-0.80336-2.6768-0.15548-2.4797-1.3669-3.5659-3.9364-0.64781-6.1968 2.588-7.5564 4.7885-7.8729z" stroke="#2a7fff" stroke-width=".56689"/>
   <path d="m13.181 10.77c4.506-4.9576 6.4092 3.8436 7.1347 5.2097 2.7859 4.4683-2.2684 5.5172-4.2183 6.9981-2.1586 1.1559-2.5321 0.0633-4.1662-0.77757-2.7364-0.15048-2.535-1.323-3.6455-3.8101-0.66226-5.9979 2.6457-7.3139 4.8953-7.6202z" stroke="#80b3ff" stroke-width=".5639"/>
   <path d="m12.884 10.334c4.5245-4.9612 6.4356 3.8464 7.164 5.2134 2.7973 4.4715-2.2777 5.5212-4.2357 7.0031-2.1675 1.1568-2.5425 0.06334-4.1834-0.77813-2.7477-0.15059-2.5454-1.324-3.6604-3.8128-0.66498-6.0022 2.6566-7.3191 4.9154-7.6256z" stroke="#acf" stroke-width=".56526"/>
  </g>
  <g transform="matrix(1.0161,0,0,1.205,-34.528,-36.531)" filter="url(#filter4275-5-6-0-6)">
   <g transform="matrix(1.3714 0 0 .76225 -7.7088 9.4605)" fill="none" stroke-linejoin="round">
    <path d="m14.576 9.8705c4.4077-5.122 6.2694 3.9711 6.9791 5.3825 2.7251 4.6165-2.2189 5.7002-4.1263 7.2302-2.1115 1.1943-2.4768 0.0654-4.0754-0.80336-2.6768-0.15548-2.4797-1.3669-3.5659-3.9364-0.64781-6.1968 2.588-7.5564 4.7885-7.8729z" stroke="#2a7fff" stroke-width=".56689"/>
    <path d="m14.279 9.7715c4.506-4.9576 6.4092 3.8436 7.1347 5.2097 2.7859 4.4683-2.2684 5.5172-4.2183 6.9981-2.1586 1.1559-2.5321 0.0633-4.1662-0.77757-2.7364-0.15048-2.535-1.323-3.6455-3.8101-0.66226-5.9979 2.6457-7.3139 4.8953-7.6202z" stroke="#80b3ff" stroke-width=".5639"/>
    <path d="m13.981 9.3362c4.5245-4.9612 6.4356 3.8464 7.164 5.2134 2.7973 4.4715-2.2777 5.5212-4.2356 7.0031-2.1675 1.1568-2.5425 0.06334-4.1834-0.77813-2.7477-0.15059-2.5454-1.324-3.6604-3.8128-0.66498-6.0022 2.6566-7.3191 4.9154-7.6256z" stroke="#acf" stroke-width=".56526"/>
   </g>
  </g>
  <g transform="matrix(.4967 0 0 .68278 -15.226 -21.204)" fill="none" filter="url(#filter4279-2-9-4-3)" stroke-linejoin="round" stroke-width=".84953" style="mix-blend-mode:normal">
   <path d="m13.478 10.868c4.4077-5.122 6.2694 3.9711 6.9791 5.3825 2.7251 4.6165-2.2189 5.7002-4.1263 7.2302-2.1115 1.1943-2.4768 0.0654-4.0754-0.80336-2.6768-0.15548-2.4797-1.3669-3.5659-3.9364-0.64781-6.1968 2.588-7.5564 4.7885-7.8729z" stroke="#2a7fff"/>
   <path d="m13.181 10.77c4.506-4.9576 6.4092 3.8436 7.1347 5.2097 2.7859 4.4683-2.2684 5.5172-4.2183 6.9981-2.1586 1.1559-2.5321 0.0633-4.1662-0.77757-2.7364-0.15048-2.535-1.323-3.6455-3.8101-0.66226-5.9979 2.6457-7.3139 4.8953-7.6202z" stroke="#80b3ff"/>
   <path d="m12.884 10.334c4.5245-4.9612 6.4356 3.8464 7.164 5.2134 2.7973 4.4715-2.2777 5.5212-4.2357 7.0031-2.1675 1.1568-2.5425 0.06334-4.1834-0.77813-2.7477-0.15059-2.5454-1.324-3.6604-3.8128-0.66498-6.0022 2.6566-7.3191 4.9154-7.6256z" stroke="#acf"/>
  </g>
 </g>
</svg>
