<svg width="1024" height="568" version="1.1" viewBox="0 0 204.8 113.6" xmlns="http://www.w3.org/2000/svg">
 <defs>
  <linearGradient id="linearGradient74" x1="96" x2="96" y2="134" gradientTransform="matrix(.99916 0 0 .6992 .083585 0)" gradientUnits="userSpaceOnUse">
   <stop stop-color="#0055d4" offset="0"/>
   <stop stop-color="#0055d4" stop-opacity="0" offset="1"/>
  </linearGradient>
 </defs>
 <g transform="matrix(1.024 0 0 .80981 1.0256e-6 0)">
  <rect x=".083585" width="199.83" height="92.294" fill="url(#linearGradient74)" stroke-width="2.7162"/>
  <rect x=".083585" y="92.294" width="199.83" height="47.545" fill="#338000" stroke-width="3.3433"/>
  <path d="m0.083584 92.294v-15.382l11.99-18.179 7.9933-13.983 3.9967 6.992 3.9967 2.7968 7.9933-5.5936 7.9933-9.7887 1.9983-4.1951 17.985 23.773 9.9916-12.586 11.99 12.586 19.983 22.374 13.988 11.187h-119.9" fill="#666" stroke="#666" stroke-width=".16717px"/>
  <path d="m199.88 92.332h-22.594c1.6712 4.6787 1.928 7.2356 2.6721 10.523l2.6766 7.7561 1.4191 9.2567 3.5426 9.4919 8.5176 9.2544 3.7656 1.4026z" fill="#e9ddaf" stroke="#e9ddaf" stroke-width=".2298"/>
  <path d="m199.92 92.285h-11.41c0.84399 4.6866-0.17153 7.6296 0.20424 10.923l2.4969 7.3876 0.71664 9.2724 4.0793 11.607 2.0111 7.1707 1.9016 1.405z" fill="#b5ac88" stroke="#b5ac88" stroke-width=".16344"/>
  <path d="m199.92 92.284h-6.6748c0.49373 4.6915-0.10034 7.6375 0.11947 10.934l1.4606 7.3952 0.41923 9.282 2.0821 6.6113 0.30432 5.0081 1.1765 7.1781 1.1125 1.4065z" fill="#a4c1ca" stroke="#a4c1ca" stroke-width=".12507"/>
  <path d="m71.493 62.696c2.3942 2.5683 4.5077 5.384 6.6108 8.1907 1.898 2.4306 3.5818 5.0277 5.5546 7.3999 0.38627 0.45939 0.83274 0.85817 1.2853 1.2493l4.8898-3.0906c-0.48665-0.318-0.95894-0.65356-1.3637-1.0761-2.1865-2.1966-4.1441-4.6024-6.0581-7.0374-2.0706-2.7896-4.0996-5.6242-5.869-8.6167l-5.0497 2.9809z" opacity="0" stroke-width=".2298"/>
  <path d="m73.575 76.257c4.6813 2.9391 8.2132 7.175 11.854 11.178 1.519 1.5701 2.7546 3.3609 3.95 5.1631 1.0031 1.5102 2.6105 1.922 4.1812 2.6331 1.1188 0.66498 1.9841 0.68158 3.0225 1.2807 1.1593 0.57148 2.168 1.3601 3.3106 1.9696 0.56432 0.54542 1.7102 0.42034 1.7415 0.43925 0.37957 0.22968 0.71565 0.52068 1.0905 0.7574 0.60338 0.11205 1.2547 0.79421 2.0512 1.4182 1.1582 0.58403 2.2691 1.3373 3.4488 2.1355 1.4362 1.1088 3.0249 1.991 4.5199 3.0186 1.1537 0.71801 2.2518 1.2106 3.2288 2.1646 0.12458 0.13252 0.24922 0.26499 0.37381 0.39752l31.643-18.518c-0.15256-0.14388-0.30507-0.28775-0.45763-0.43162-1.1427-1.0771-2.1162-2.3567-3.6451-2.7852-1.5366-0.8595-2.9172-1.8777-4.4507-2.7318-0.83539-0.66966-1.7052-1.3262-2.5262-1.9629-0.24322-0.18867-0.3797-0.49924-0.65133-0.64805-0.0765-0.04203-0.0968 0.14111-0.14525 0.21167-0.89708-0.49948-1.2373-0.94134-1.9784-1.6333-0.0922-0.08599-0.24297-0.08107-0.36442-0.12154-1.1295-0.40328-1.6994-1.6725-3.0011-1.4046-1.2174-0.36515-2.1304-0.86284-3.1043-1.6532-0.68518-0.35662-1.1174-0.85576-1.7604-1.2379-0.37186-0.22098-1.2009 0.22998-1.4795-0.27706-1.1047-0.47906-2.0063-1.0136-3.1558-1.0575-1.4946-1.8366-2.8277-3.8225-4.7425-5.2999-4.0769-3.7853-7.7858-7.9083-11.74-11.81l-31.214 18.806z" opacity="0" stroke-width="1.409"/>
 </g>
</svg>
