<svg width="1024" height="568" version="1.1" viewBox="0 0 204.8 113.6" xmlns="http://www.w3.org/2000/svg">
 <defs>
  <linearGradient id="linearGradient1228" x1="430" x2="430" y1="320" y2="460" gradientTransform="matrix(.19851 0 0 .19857 1.6614 1.0355)" gradientUnits="userSpaceOnUse">
   <stop stop-color="#d4aa00" offset="0"/>
   <stop stop-color="#ffe680" offset="1"/>
  </linearGradient>
 </defs>
 <g transform="matrix(1.0197 0 0 .80904 -.3842 -.30173)">
  <rect x="1.4137" y="92.339" width="198.35" height="47.205" fill="#666" stroke-width="3.3189"/>
  <rect x="1.3308" y=".70591" width="198.51" height="91.342" fill="#333" stroke="#000" stroke-width=".22812"/>
  <path d="m1.8656 46.601v-45.447h197.98v90.893h-197.98z" fill="url(#linearGradient1228)" stroke="#e3dedb" stroke-width=".99271"/>
  <path d="m1.5349 116.39v-23.966h198.21v47.931h-198.21z" fill="#e3dedb" stroke="#e3dedb" stroke-width=".23755"/>
  <path d="m22.421 21.969c-10.914 21.561-8.8305 32.445-10.224 37.581-2.0882 8.5484-1.9436 20.294-2.2789 33.614-0.06426 2.5528 9.6899 1.9306 11.264 2.1814-0.0109 0.17872 17.866-3.2967 28.591-3.2967h4.3243c0.58141-1.5045 0.83108-2.5176 0.90864-3.4917 0.08199-0.22705 0.19617-0.41832 0.15872-0.67501 0.03985-0.23687 0.10081-0.46482 0.17697-0.69212 0.05904-0.25174 0.03194-0.51419 0.03122-0.77202 0.0032-0.25998-0.0031-0.52007-0.0071-0.78002 3.97e-4 -0.31835-0.0049-0.63662 0.0052-0.95476 0.01183-0.42337 0.01812-0.84776 0.08237-1.2674 0.06965-0.49448 0.16312-0.98731 0.14204-1.4896 0.0064-0.46657 0.0124-0.93563 0.10504-1.3948 0.08077-0.52255 0.16966-1.0424 0.2111-1.5708 0.10218-0.55952 0.33452-1.0676 0.45312-1.6229 0.19019-1.0918 0.14378-2.1982 0.2034-3.3022 0.14575-2.309 0.32793-4.6145 0.47113-6.9239 0.14117-1.5748 0.2774-3.1502 0.63051-4.6943 0.0404-0.17668 0.31064-1.2058 0.48439-1.5467 0.05191-0.10187 0.13364-0.18469 0.20046-0.27704 1.6164-1.387 0.11526-0.07929-4.5976 2.6679-0.04718 0.0275 0.07297-0.08536 0.12063-0.112 2.3977-1.3085 5.3189-2.2926 6.0716-4.0758 0.17703-0.4937 0.36369-0.9862 0.48274-1.4979 0.13382-0.45047 0.37894-0.85735 0.48792-1.318 0.1635-0.57679 0.34228-1.1513 0.31102-1.761 0.0204-0.56068 0.06231-1.1227 0.2486-1.6558 0.20737-0.56435 0.48342-1.0922 0.78087-1.6121 0.37504-0.67708 0.80974-1.3087 1.2562-1.9381 0.3815-0.52371 0.77802-1.0353 1.1896-1.5342 0.42258-0.51052 0.89703-0.96867 1.447-1.3351 0.50323-0.40263 1.0109-0.80178 1.5423-1.1649 0.49997-0.33408 1.0204-0.63484 1.5132-0.97999 0.52839-0.44855 1.0564-0.89567 1.6021-1.3221 0.63963-0.55678 1.2666-1.1326 1.6869-1.8894 0.26858-0.44721 0.58736-0.85695 0.922-1.2546 0.46592-0.44354 0.95124-0.86191 1.4644-1.2482 0.99802-0.80933 2.0405-1.557 3.0458-2.3567 0.35893-0.26481 0.65195-0.506 0.89118-0.8782 0.32895-0.49897 0.60172-1.0362 0.9201-1.5424 0.29111-0.48293 0.52738-0.99712 0.85808-1.455 0.35692-0.37951 0.7159-0.75953 1.1175-1.0907 0.68896-0.53856 1.3734-1.0832 2.0593-1.6254 0.56356-0.46554 1.1306-0.92533 1.7211-1.3551 0.33618-0.23117 0.67812-0.44689 1.0268-0.65778 0.09333-0.05645 0.37491-0.22299 0.28082-0.16788-4.8995 2.8696-6.223 3.6113-4.3892 2.5805 0.65932-0.30992 1.2845-0.6983 1.9834-0.9172 0.46969-0.14881 0.89778-0.41231 1.3579-0.59084 0.58549-0.34368 1.2677-0.50989 1.9275-0.63257 1.3687-0.26445 2.7308-0.56931 4.1046-0.81131 2.9766-0.41626 5.9646-0.70601 8.961-0.92821 1.758-0.16312 1.1556-0.08125 2.6965-0.30927 0.27564-0.04078 0.57577-0.0028 0.82624-0.12717 1.3775-0.68465 4.2656-1.8493 5.8793-3.3697 0.59022-0.57081 1.1954-1.1233 1.9088-1.5327 0.53927-0.3856 0.96496-0.85926 1.3343-1.4155 0.38505-0.46407 0.75547-0.9463 1.272-1.2672 0.46372-0.34159 0.93554-0.67423 1.355-1.0735 1.7104-1.4828 5.2717-3.515-3.1978 1.6164 0.55868-0.33346 1.1386-0.62119 1.7619-0.80718 0.27217-0.1028 0.61718-0.16964 0.87038-0.31596 1.8112-1.0466 3.6919-2.0676 5.46-3.2287-1.5846 0.93031-3.1733 1.8534-4.7539 2.7909-0.14674 0.08705 0.30287-0.15684 0.44951-0.24406 1.7181-1.0221 3.4443-2.0298 5.157-3.0615 0.15023-0.0905 0.25282-0.25128 0.41708-0.32282 0.48883-0.31342 0.96736-0.64505 1.3861-1.0528 0.28856-0.31202 0.52771-0.66036 0.78888-0.99612 0.2434-0.31383 0.50427-0.6161 0.69105-0.97119 0.26166-0.52102 0.55782-1.0231 0.74107-1.5821 0.22039-0.54737 0.43607-1.1003 0.57339-1.6765 0.17197-0.63486 0.42143-1.2371 0.69098-1.8349 0.26025-0.56014 0.61153-1.0709 0.81283-1.6596 0.0644-0.47399 0.19631-1.0475 0.21082-1.6451-1.4075 0.18001-7.6436-0.16233-3.6734-0.16233-7.1736 0.048861-15.881 0-22.147 0.11648-50.894-1.2393-65.069-3.4-71.383 15.831z" fill="#ccc" stroke="#ccc" stroke-width=".23058"/>
  <path d="m199.84 24.535v43.685c0 12.689-0.33226 16.954 0 23.828 0 16.043 0 39.713-0.24832 47.27-0.0672 2.0452-3.3297-5.1068-6.7798-15.026-0.66123-1.9012-0.84833-5.3476-1.5459-7.2757-2.717-7.5097-8.2823-12.195-13.262-19.011-3.153 0-5.5633-5.957-7.6278-6.04-0.68558-0.02759-0.19935-1.5948-0.31266-2.8884 0.0272-0.6703 0.14504-1.2668-0.10756-1.8559-0.0771-0.25502-0.0417-0.52091-0.0408-0.78212-3e-3 -0.26338 3e-3 -0.52688 9e-3 -0.79021-5.1e-4 -0.32251 7e-3 -0.64494-7e-3 -0.96723-0.0154-0.4289-0.0237-0.85884-0.10764-1.2839-0.091-0.50094-0.21317-1.0002-0.18562-1.509-8e-3 -0.47266-0.0162-0.94786-0.13726-1.413-0.10564-0.52936-0.22171-1.056-0.27586-1.5913-0.13353-0.56682-0.43713-1.0815-0.59209-1.6441-0.24855-1.1061-0.18789-2.2269-0.2658-3.3453-0.19046-2.3391-0.27449-1.7034-2.2596-5.6748-1.9851-5.957-1.9851-3.9713-2.1587-9.4823-0.23132-0.50015-0.47526-0.99912-0.6308-1.5175-0.17487-0.45634-0.49518-0.86855-0.6376-1.3352-0.21367-0.58432-0.44727-1.1664-0.40644-1.784-0.0268-0.568-0.0814-1.1373-0.32486-1.6774-0.27098-0.57171-0.63173-1.1066-1.0204-1.6331-0.49009-0.68593-1.0582-1.3257-1.6415-1.9634-0.49857-0.53056-1.0167-1.0488-1.5546-1.5543-0.55222-0.51719-1.1722-0.98131-1.8909-1.3526-0.6576-0.40788-1.321-0.81226-2.0155-1.1801-0.65333-0.33844-1.3333-0.64313-1.9773-0.99279-0.69048-0.45442-1.3804-0.90736-2.0936-1.3393-0.83584-0.56405-1.6552-1.1475-2.2043-1.914-0.35096-0.45304-0.76754-0.86814-1.2048-1.2711-0.60884-0.44933-1.2431-0.87316-1.9134-1.2645-1.3042-0.81991-2.6666-1.5773-3.98-2.3875-0.15187 2.8639-3.8095-0.73048-4.1221-1.1076-1.9851-1.9857-9.9256-3.9713-11.91 3.9713-1.9851-5.957-3.9702-5.957-5.9553-9.9285-1.9851 3.9713-3.0445 9.1043-3.0732 1.169-8e-3 -2.2366-2.6013-4.1841-4.7589-4.3081-2.2972-0.16526-0.10827 9.0962-1.6404 2.8656-0.0865-0.35218-2.6356-3.1816-2.963-3.3077-1.8-0.69359-5.5742-1.8734-7.6828-3.4138-0.77096-0.57826-1.5618-1.1379-2.494-1.5526-0.7047-0.39065-1.261-0.8705-1.7437-1.434-0.50317-0.47012-0.98722-0.95865-1.6623-1.2836-0.60597-0.34605-1.2226-0.68304-1.7705-1.0876-2.2351-1.5022-6.889-3.5609 4.1788 1.6375-0.73007-0.33783-1.4879-0.6293-2.3024-0.81772-0.35564-0.10413-0.80649-0.17185-1.1373-0.32009-2.3669-1.0604-4.8245-2.0946-7.1352-3.2708 2.0708 0.94246 4.1468 1.8775 6.2122 2.8274 0.19176 0.08818-0.39577-0.15888-0.58738-0.24725-2.2451-1.0353-4.5009-2.0563-6.7389-3.1015-0.19633-0.09169-0.33038-0.25456-0.54502-0.32704-0.63881-0.31752-1.2642-0.65348-1.8114-1.0667-0.3769-0.31611-0.6894-0.66899-1.0307-1.0091-0.31808-0.31793-0.65896-0.62414-0.90304-0.98388-0.34193-0.52781-0.72893-1.0363-0.9684-1.6028-0.28799-0.55451-0.56982-1.1146-0.74928-1.6984-0.22472-0.64315-0.55071-1.2533-0.90295-1.8589-0.34008-0.56745-0.79913-1.0849-1.0621-1.6813 9.5249 0.059616 11.39 1.8323 33.346 0.059616 4.144 0.5393 12.697-1.5044 23.571-1.5661 13.28-0.075351 30.374-0.011997 49.907 0.054359 10.157 0.034508 7.9118-0.4739 17.792-0.075169 0.0456 15.486 0.0456 3.5727 0.0456 23.429z" fill="#b3b3b3" stroke="#b3b3b3" stroke-width=".26529"/>
  <path d="m198.36 140.17c-0.45649-2.3276 0.70297-3.8611 0.64209-5.3683-0.0644-0.35125-0.15413-0.64716-0.12467-1.0443-0.0313-0.36645-0.0791-0.71911-0.13886-1.0708-0.0464-0.38946-0.0246-0.79549-0.0246-1.1944-2e-3 -0.40223 2e-3 -0.80461 6e-3 -1.2068-3e-4 -0.49252 2e-3 -0.9849-2e-3 -1.4771-8e-3 -0.655-0.0136-1.3116-0.0647-1.9606-0.0545-0.76502-0.12794-1.5274-0.11162-2.3046-6e-3 -0.72182-0.0114-1.4476-0.0824-2.1579-0.0633-0.80842-0.13312-1.6127-0.16559-2.4302-0.0801-0.86564-0.26271-1.6517-0.3557-2.5107-0.14923-1.6892-0.113-3.4008-0.1596-5.1088-1.9964-8.6162-1.6982-16.061-2.6546-23.147-0.13886-0.76379-0.28552-1.5258-0.37899-2.3175-0.105-0.6969-0.29749-1.3264-0.38304-2.039-0.1285-0.89234-0.26871-1.7813-0.24417-2.7244-0.0163-0.86742-0.0489-1.7369-0.19506-2.5616-0.16287-0.8731-0.37955-1.6898-0.61309-2.4941-0.29444-1.0475-0.63572-2.0246-0.98618-2.9984-0.29955-0.81024-0.61085-1.6017-0.93398-2.3736-0.33176-0.78982-0.70426-1.4986-1.136-2.0655-0.39511-0.6229-0.79372-1.2404-1.211-1.8022-0.39251-0.51683-0.80109-0.98215-1.188-1.5162-0.41482-0.69397-0.82936-1.3857-1.2578-2.0453-0.50216-0.86139-0.99442-1.7522-1.3243-2.923-0.21089-0.69186-0.46113-1.3257-0.72387-1.941-0.36577-0.6862-0.74683-1.3335-1.1496-1.9311-0.78361-1.2522-1.602-2.4089-2.3912-3.646-0.2818-0.4097-0.51187-0.78282-0.6997-1.3587-0.25835-0.77195-0.47238-1.6032-0.72235-2.3863-0.90689-7.7823-4.0197-7.8368-6.9918-9.6392-0.45965-0.53171-1.75-0.84817-2.268-1.0379-1.0745-0.40915-1.9622-0.57332-3.0408-0.94772-2.337-0.644-1.8411 0.13085-4.1935-0.2129-1.3803-0.25237-0.90732-0.12569-2.117-0.47847-0.21633-0.06311-0.45204-0.0043-0.64867-0.19672-1.0815-1.0593-3.349-2.861-4.6158-5.2133-0.46338-0.8831-0.93854-1.7378-1.4986-2.3712-0.42336-0.59656-0.75759-1.3294-1.0476-2.1899-0.3023-0.71795-0.59312-1.464-0.99869-1.9603-0.36407-0.52847-0.73452-1.0431-1.0638-1.6609 0.057-0.15891-0.34894-0.1587-0.46341-0.29178-1.3489-1.5811-2.7042-3.1402-4.0487-4.7364-0.11786-0.14003-0.19862-0.38874-0.32746-0.49944-0.38379-0.4849-0.75948-0.99792-1.0882-1.6288-9.2625-11.364-48.948-8.8816-56.497-15.871 14.607 0 35.259 0.040182 52.166-0.41626 18.8-0.2512 18.098 0.13662 36.289 0 9.0352 0 18.885-0.2094 23.929-0.20948 0.0356 7.0536-0.0786 14.057-0.0585 30.019l0.0902 71.559c0.0101 7.981-0.0252 16.883-0.0317 24.423-5e-3 4.9005 0.12182 8.1325-0.0813 13.826-0.0263 0.73701-1.9194-6e-3 -2.9187 0.17426z" fill="#666" stroke="#ccc" stroke-width=".25412"/>
  <path d="m4.0582 140.5c0.41494-2.6101-0.19956-6.4058-0.21439-8.5079-0.050488-7.1588-0.19494-7.9406 0.92207-14.118 0.22939-1.2685 1.2014-3.1092 1.4757-4.8981 0.61852-2.6024 0.52293-5.2937 1.0863-8.0253 0.52985-2.5693 1.7256-5.195 2.0926-7.1774 6.1903-33.444-0.89304-35.717 8.944-49.922 2.0431-9.2263 7.0622-13.026 8.8275-15.159 4.2744-7.1527 1.6334 1.5169 4.3477 5.9204 0.43368-0.53172 2.0111-21.804 7.178-18.486 0.51743-0.20882 2.114 1.2024 3.6886 5.2547 1.0868 2.797 1.7411 11.069 2.5092 7.0187 2.205-2.083 0.77651-5.861 2.996-6.2047 6.7157-5.8561 4.9026 20.453 7.0337 20.175 1.0205-1.0593 2.3952-11.243 3.5905-13.596 0.43718-0.88309 0.8855-1.7378 1.4139-2.3712 0.39944-0.59656 0.71479-1.3294 0.98838-2.1899 0.28523-0.71795 0.55962-1.464 0.9423-1.9603 0.3435-0.52847 0.69303-1.0431 1.0037-1.6609-0.05382-0.15891 0.32924-0.1587 0.43724-0.29178 1.2727-1.5811 2.5515-3.1402 3.82-4.7364 0.11121-0.14003 0.18739-0.38874 0.30897-0.49944 0.36211-0.4849 0.71657-0.99792 1.0267-1.6288 2.4292-3.1588 10.991-11.798 18.429-11.471 15.672 0.69067 14.748 11.453 18.017 5.9538 3.4697-6.1506 31.567-11.22 26.616-11.078-1.8594 0.044386-2.5806-0.05914-5.0311-0.05103-4.074 0.013481-6.5176-0.040925-11.282-0.066548-2.0616-0.011088-2.54-0.22036-6.1676-0.22359-8.1076 0.17266-12.667 0.015692-16 0-19.983 0.064567-42.701 0.087831-55 0-24.519 0-30.339 0.20518-36.727 0.20591 0 37.279-1.671 100.32-0.27255 139.79 2 0 2.9673-0.11618 3 0z" fill="#4d4d4d" stroke="#666" stroke-width=".24684"/>
 </g>
</svg>
